<svg width="100" height="108" viewBox="0 0 100 108" fill="none" xmlns="http://www.w3.org/2000/svg">
<g filter="url(#filter0_d_95_575)">
<mask id="mask0_95_575" style="mask-type:alpha" maskUnits="userSpaceOnUse" x="0" y="0" width="100" height="100">
<rect width="100" height="100" fill="#D9D9D9"/>
</mask>
<g mask="url(#mask0_95_575)">
<path d="M50.3232 0.34082C54.4672 0.34082 57.9896 1.79915 60.8904 4.71582C63.7912 7.63249 65.2416 11.1742 65.2416 15.3408C65.2416 19.5075 63.7912 23.0492 60.8904 25.9658C57.9896 28.8825 54.4672 30.3408 50.3232 30.3408C46.1792 30.3408 42.6568 28.8825 39.756 25.9658C36.8552 23.0492 35.4048 19.5075 35.4048 15.3408C35.4048 11.1742 36.8552 7.63249 39.756 4.71582C42.6568 1.79915 46.1792 0.34082 50.3232 0.34082ZM50.3232 35.3408C54.2186 35.3408 58.0725 35.7992 61.885 36.7158C65.6975 37.6325 69.137 38.9242 72.2036 40.5908C75.353 42.1742 77.8809 44.0492 79.7871 46.2158C81.6933 48.3825 82.6465 50.7575 82.6465 53.3408V82.3408C82.6465 83.7575 82.3149 85.1533 81.6519 86.5283C80.9889 87.9033 80.0772 89.1742 78.9169 90.3408C77.7565 91.5075 76.4097 92.5908 74.8765 93.5908C73.3432 94.5908 71.6234 95.5075 69.7172 96.3408V85.0908C69.7172 81.9242 67.5416 79.3408 63.1904 77.3408C58.8392 75.3408 54.5501 74.3408 50.3232 74.3408C46.1792 74.3408 42.1803 75.195 38.3263 76.9033C34.4724 78.6117 32.0896 80.8408 31.1779 83.5908C34.3274 84.8408 37.5597 85.7158 40.8749 86.2158C44.1901 86.7158 47.5882 87.0075 51.0691 87.0908H55.296V100.091C54.7159 100.257 54.115 100.341 53.4934 100.341H51.5664C48.5827 100.341 45.1639 100.007 41.31 99.3408C37.4561 98.6742 33.7887 97.6325 30.3077 96.2158C26.8267 94.7992 23.9052 92.945 21.5431 90.6533C19.181 88.3617 18 85.5908 18 82.3408V53.3408C18 50.7575 18.9531 48.3825 20.8594 46.2158C22.7656 44.0492 25.252 42.1742 28.3186 40.5908C31.468 38.9242 34.949 37.6325 38.7615 36.7158C42.5739 35.7992 46.4279 35.3408 50.3232 35.3408ZM50.3232 65.3408C53.0583 65.3408 55.3996 64.3617 57.3473 62.4033C59.295 60.445 60.2688 58.0908 60.2688 55.3408C60.2688 52.5908 59.295 50.2367 57.3473 48.2783C55.3996 46.32 53.0583 45.3408 50.3232 45.3408C47.5882 45.3408 45.2468 46.32 43.2991 48.2783C41.3515 50.2367 40.3776 52.5908 40.3776 55.3408C40.3776 58.0908 41.3515 60.445 43.2991 62.4033C45.2468 64.3617 47.5882 65.3408 50.3232 65.3408Z" fill="#00B5CB"/>
</g>
</g>
<defs>
<filter id="filter0_d_95_575" x="14" y="0.34082" width="72.6465" height="107.659" filterUnits="userSpaceOnUse" color-interpolation-filters="sRGB">
<feFlood flood-opacity="0" result="BackgroundImageFix"/>
<feColorMatrix in="SourceAlpha" type="matrix" values="0 0 0 0 0 0 0 0 0 0 0 0 0 0 0 0 0 0 127 0" result="hardAlpha"/>
<feOffset dy="4"/>
<feGaussianBlur stdDeviation="2"/>
<feComposite in2="hardAlpha" operator="out"/>
<feColorMatrix type="matrix" values="0 0 0 0 0 0 0 0 0 0 0 0 0 0 0 0 0 0 0.15 0"/>
<feBlend mode="normal" in2="BackgroundImageFix" result="effect1_dropShadow_95_575"/>
<feBlend mode="normal" in="SourceGraphic" in2="effect1_dropShadow_95_575" result="shape"/>
</filter>
</defs>
</svg>
