<svg width="1440" height="168" viewBox="0 0 1440 168" fill="none" xmlns="http://www.w3.org/2000/svg">
<g clip-path="url(#clip0_53_415)">
<path d="M1466.07 189.183C1463.81 148.46 1460.18 136.346 1449.84 134.799C1448.33 144.336 1451.12 152.068 1450.89 161.089C1450.67 168.563 1450.89 177.584 1447.8 178.615C1444.4 179.904 1444.55 170.883 1444.25 163.409C1443.8 151.552 1439.72 154.388 1437.91 147.944C1439.27 146.913 1441.16 146.14 1441.08 141.243C1441.08 136.346 1439.19 135.572 1437.76 135.315C1436.55 131.964 1435.34 131.706 1434.06 135.315C1429.3 124.232 1425 115.726 1426.51 90.2098C1427.57 72.9411 1420.7 67.2708 1413.98 78.3537C1412.62 77.065 1411.26 76.2917 1409.9 74.7453C1408.01 72.6833 1406.05 71.3946 1404.77 77.065C1403.33 82.993 1404.39 88.1479 1406.05 92.2718C1408.69 98.7153 1411.33 104.901 1413.98 111.345C1413.75 114.18 1413.75 118.046 1413.22 119.85C1406.43 141.501 1410.81 145.367 1418.2 144.851C1406.65 162.378 1402.8 159.542 1395.1 129.387C1395.33 128.356 1395.86 127.067 1395.78 126.294C1395.63 123.459 1395.03 123.459 1394.2 126.551C1391.48 123.974 1388.76 121.654 1386.04 119.077C1381.97 126.637 1378.09 122.17 1374.42 105.674C1378.95 104.128 1380.98 124.49 1385.89 118.304C1387.1 111.602 1382.04 82.993 1391.03 103.355C1393.29 108.51 1395.63 107.221 1396.91 99.4885C1398.12 92.5295 1397.52 84.7972 1395.86 78.6114C1390.65 59.7962 1384.76 61.0849 1378.04 82.7353C1374.34 76.5495 1375.93 59.5385 1372.23 53.6104C1371.92 52.8372 1371.62 52.0639 1371.32 51.5485C1371.24 51.5485 1370.79 52.8372 1370.79 53.0949C1370.94 54.1259 1371.24 55.1569 1371.47 56.1878C1368.68 65.7243 1366.04 57.7343 1363.32 55.1569L1362.49 52.5795L1363.24 55.1569C1360.3 61.8582 1357.66 72.9411 1354.03 56.7033C1352.14 48.1978 1350.03 38.9191 1346.48 36.8572C1342.33 34.7952 1341.65 42.2697 1342.71 53.3527C1342.48 55.1569 1342.25 56.9611 1342.03 58.7653C1342.63 57.992 1343.16 57.4765 1343.76 56.7033C1345.05 60.5695 1349.05 68.044 1344.74 69.5904C1337.87 72.1679 1339.16 87.8901 1337.8 100.004C1347.54 97.6843 1357.73 90.4675 1363.24 127.84C1362.94 128.356 1362.34 129.129 1362.34 129.644C1362.49 131.964 1362.86 131.449 1363.32 128.098C1370.36 131.878 1374.14 147.171 1374.64 173.976C1377.81 186.09 1380.98 198.462 1387.25 193.564C1381.44 198.719 1376 200.266 1370.57 202.328C1368.15 203.359 1367.09 199.493 1366.94 192.533C1366.56 175.265 1369.66 189.698 1371.02 187.894C1372.91 185.574 1374.04 181.193 1374.19 174.492C1368.45 156.707 1359.62 166.244 1353.58 150.264C1351.99 146.14 1347.99 148.202 1349.27 137.634C1350.63 126.809 1349.95 118.304 1347.54 113.922C1343.31 106.19 1344.9 132.995 1340.59 128.098C1339.84 129.902 1341.05 136.346 1339.01 134.799C1339.46 132.48 1339.99 130.16 1340.44 127.582C1340.97 117.015 1339.38 108.767 1337.65 100.777C1334.25 84.7972 1329.19 72.4256 1328.06 51.5485C1327.68 45.1049 1325.87 35.3107 1323.23 42.012C1322.02 45.1049 1322.55 55.4146 1322.32 62.8891C1319.08 58.5075 1317.41 50.5175 1315.83 41.2388C1314.55 34.022 1310.7 34.5375 1310.09 42.2698C1307.07 84.2817 1297.26 67.013 1289.41 67.5285C1288.95 57.4765 1288.35 47.4246 1288.05 37.1149C1287.9 30.4136 1287.37 24.7433 1285.18 23.7123C1283.06 22.9391 1281.25 27.063 1280.95 33.2488C1279.59 57.7343 1275.66 44.0739 1271.96 40.981C1268.19 37.8881 1265.55 19.8462 1259.73 33.7643C1266.91 52.5795 1271.66 75.5185 1271.74 105.932C1268.49 84.2817 1261.09 79.1269 1255.81 65.4666C1249.24 48.7133 1249.54 67.5285 1248.86 80.4156C1246.22 73.9721 1243.2 71.1369 1239.95 70.8791C1237.54 70.6214 1234.52 67.7862 1234.59 60.3117C1234.9 26.5475 1229.38 44.8472 1225.31 48.1978C1224.25 48.971 1222.82 45.3627 1221.53 43.8162C1220.93 43.043 1220.32 42.2698 1219.64 41.4965C1219.87 43.5585 1220.17 45.3627 1220.4 47.4246C1220.02 53.0949 1219.65 59.023 1219.34 64.6933C1213.76 48.9711 1205.22 83.5085 1200.02 51.5485C1197.83 38.1459 1193.37 56.1878 1189.75 54.8991C1189.75 57.992 1189.75 60.8272 1189.75 63.9201C1186.95 62.1159 1184.99 69.5904 1181.14 72.9411C1183.48 59.023 1181.82 35.8262 1189.75 54.6414C1191.03 45.8781 1193.6 37.1149 1190.65 27.063C1187.56 16.4955 1184.92 27.063 1182.2 30.1559C1180.91 31.4446 1179.78 34.022 1178.57 35.8262C1177.29 29.6404 1175.48 26.2897 1173.21 25.5165C1172.01 21.3926 1170.72 21.3926 1169.51 25.5165C1160.91 21.1349 1160.68 21.1349 1162.72 43.3007C1163.4 51.033 1162.64 57.7343 1162.57 64.9511C1162.19 99.7463 1167.63 110.314 1177.52 94.0759C1180.54 122.428 1168.61 139.696 1172.84 169.852C1165.74 155.161 1164.98 122.685 1155.77 118.819L1155.02 121.139L1155.62 118.304C1156.15 110.056 1147.7 110.571 1154.04 93.5605C1157.06 85.3127 1148.6 78.3537 1147.77 65.2088C1149.21 61.3427 1149.36 57.4765 1147.85 53.3527C1146.94 45.1049 1151.77 30.9291 1146.19 29.6404C1144.83 29.3826 1135.46 14.9491 1138.33 47.4246C1139.09 56.1878 1134.33 65.982 1135.39 78.8692C1129.35 71.6524 1133.05 54.6414 1132.52 43.043C1131.77 26.5475 1130.03 18.042 1125.05 16.2378C1124.67 15.4646 1124.37 14.4336 1123.99 13.9181C1123.84 13.9181 1123.31 15.4646 1123.39 15.98C1123.46 17.2688 1123.84 18.2997 1124.06 19.3307C1125.57 39.6923 1125.65 60.054 1124.14 80.4156C1119.84 67.5285 1114.63 57.4765 1111.53 40.2078C1110.4 33.7643 1108.81 26.032 1106.17 31.1868C1103.68 36.0839 1104.81 44.5894 1105.72 51.2907C1106.25 55.4146 1107.08 59.2807 1107.76 63.1469C1108.66 65.982 1109.49 68.8172 1110.4 71.6524C1111.46 74.7453 1112.59 77.5804 1113.49 80.9311C1114.85 86.3437 1117.72 89.6943 1116.14 99.2308C1115.76 101.55 1114.55 103.87 1113.87 103.612C1110.78 101.808 1111.23 93.045 1110.93 86.0859C1110.7 81.7043 1110.4 77.3227 1110.17 72.9411C1109.27 70.1059 1108.44 67.2708 1107.53 64.4356C1103.6 60.8272 1096.81 76.034 1096.81 47.1669C1098.77 44.0739 1101.72 39.6923 1100.36 32.4756C1098.09 21.1349 1094.47 15.4646 1090.32 25.7742C1083.67 4.63937 1075.97 7.47455 1068.12 16.4955C1067.82 15.7223 1067.52 14.6913 1067.21 14.4336C1067.14 14.4336 1066.69 15.7223 1066.69 15.98C1066.84 17.011 1067.14 18.042 1067.37 19.0729C1069.03 41.4965 1074.24 37.6304 1079.14 35.5685L1079.97 33.5065L1079.37 36.084C1073.71 63.6624 1072.42 64.6933 1064.95 50.002C1062.31 44.8472 1059.36 40.981 1056.57 36.3417C1058.23 34.7952 1060.5 35.5685 1060.65 27.3207C1060.65 25.5165 1059.51 21.9081 1058.99 22.1659C1056.49 22.6814 1056.72 29.8981 1056.19 35.3107C1053.25 34.022 1050.76 30.4136 1048.87 22.9391C1047.74 18.5575 1045.17 10.8252 1044.87 13.9181C1042.6 38.9191 1031.66 4.38164 1030.75 35.8262C1031.66 38.9191 1032.64 41.7543 1033.54 44.8472L1034.3 47.1669L1033.47 45.1049C1032.56 42.012 1031.58 39.1768 1030.67 36.084C1025.84 46.1359 1029.84 57.992 1030.15 68.8172C1030.37 77.3227 1030.45 89.6943 1034.45 86.8592C1036.11 85.8282 1037.24 76.034 1039.51 66.4975C1042.38 86.3437 1045.02 104.386 1048.19 125.778C1042.38 132.222 1037.39 105.417 1032.41 128.098C1030.98 134.541 1027.05 114.953 1023.88 109.025C1018.97 100.004 1025.09 86.6014 1022.6 75.5185C1016.33 73.7143 1008.4 78.8692 1009.53 42.2698C1009.84 33.2488 1004.7 25.5165 1000.32 22.4236C997.983 39.4346 1000.25 58.2498 997.002 74.7453C994.737 86.3437 999.418 95.6224 1001.83 104.643C1005.31 117.531 1005 127.067 1000.25 137.892C993.68 153.099 994.057 153.872 1001 174.749C1002.44 179.131 1003.42 187.636 1002.14 195.369C990.66 201.297 987.942 176.038 985.828 148.46C988.093 146.398 990.584 144.851 991.641 137.377C993.529 124.49 989.225 63.9201 985.3 59.7962C973.673 47.6823 963.632 23.1968 951.326 17.011C948.985 15.7223 946.494 15.4646 944.682 20.8772C943.776 23.4546 943.021 28.0939 942.945 32.2178C942.945 37.1149 944.38 38.1459 945.814 39.4346C948.381 41.4965 952.156 23.97 953.515 44.0739C953.213 45.1049 952.684 46.1359 952.684 46.9091C952.835 49.7443 953.439 49.4865 954.119 46.1359C962.046 42.012 963.179 84.2817 972.238 73.9721C972.314 73.9721 973.371 78.8692 973.144 80.4156C969.219 111.087 976.995 118.819 982.582 131.449C983.488 133.511 983.563 139.181 984.016 143.305C981.6 149.748 981.676 166.244 977.75 164.697C974.277 163.409 972.465 153.357 973.371 140.727C973.824 134.026 972.842 127.067 970.879 126.551C962.122 124.747 959.781 102.581 956.157 82.7353C954.043 71.1369 950.193 64.1779 945.89 60.5695C943.7 58.7653 940.001 53.8681 940.001 50.5175C940.152 -3.0929 928.601 31.9601 922.561 26.2897C917.175 13.059 913.979 18.5574 912.973 42.7852C911.01 37.1149 911.991 23.97 908.141 22.6813C906.253 63.4046 904.139 67.5285 889.719 56.4456C886.473 53.8681 882.849 49.4865 880.433 58.5075C877.64 69.075 874.091 59.5385 871.071 65.4666C869.033 79.1269 874.846 80.1579 875.299 89.9521C875.526 95.1069 874.997 98.973 873.789 101.55C872.506 104.386 870.467 104.128 870.165 100.262C867.523 65.2088 857.708 63.4046 849.554 53.3527C848.271 51.8062 847.214 48.4556 846.006 45.8782C846.006 45.8782 845.855 45.3627 845.704 45.1049L846.006 45.8782C850.309 44.3317 854.16 39.9501 856.576 20.8772C850.158 23.4546 844.345 9.27876 839.06 26.5475C836.191 35.8262 836.946 45.6204 839.513 54.6414C838.985 58.7653 838.607 63.1469 837.852 67.013C836.116 76.034 830.076 78.8692 833.096 94.8492C835.21 105.932 841.703 101.293 846.081 86.3437C846.987 83.2508 847.289 78.0959 850.007 78.3537C850.989 93.5605 859.747 97.4266 854.915 125.005C852.197 140.727 859.822 140.212 865.711 147.429C859.294 151.81 855.821 155.419 852.272 156.192C848.648 157.223 845.024 158.512 842.986 142.789C839.136 112.376 828.943 100.004 822.979 75.2608C819.884 62.3736 815.052 61.3427 810.446 62.6314C807.955 48.4556 814.07 35.053 810.522 23.1968C806.898 11.0829 802.67 27.063 798.14 21.9081C796.857 39.6923 803.199 52.3217 800.405 70.1059C798.895 79.6424 797.989 86.3437 794.365 80.6733C791.421 71.1369 787.722 62.8891 786.061 51.5485C785.457 47.1669 791.27 37.6304 785.532 27.3207C781.984 21.1349 778.511 19.5884 774.962 17.7842C771.943 16.4955 769.451 23.1968 769.451 33.7643C769.451 47.6823 773.754 40.7233 776.246 46.1359C773.603 64.1778 767.337 61.3427 763.411 70.3636C761.373 60.5694 758.806 53.3527 754.955 51.8062C754.729 49.2288 754.578 46.9091 754.503 44.3317C753.747 41.7543 752.992 39.1768 752.238 36.3417C752.917 36.0839 753.672 35.8262 754.427 35.5685C754.427 38.4036 754.578 41.2388 754.578 44.0739C755.635 42.5275 756.692 41.2388 757.749 39.6923C756.767 37.8881 755.71 36.3417 754.729 34.5375C753.747 29.8981 752.615 30.1559 751.483 34.022C741.29 26.8052 731.098 21.3926 721.208 37.6304C717.282 44.0739 713.885 34.022 710.185 34.022C708.298 34.022 705.957 34.022 705.127 39.6923C703.768 48.1978 706.108 52.8372 707.845 57.992C711.771 69.3327 715.47 73.4566 720.302 61.3427C723.85 52.3217 728.154 51.033 731.929 62.6314L732.608 64.9511L731.702 63.1469C728.456 70.6214 725.134 78.3537 720.528 88.9211C730.268 99.4885 729.437 129.902 733.665 150.264C730.117 155.161 726.795 147.429 723.246 144.851C721.359 151.037 719.471 157.223 717.584 163.409L716.754 164.955L717.358 162.893C717.886 152.583 719.924 146.655 723.02 144.078C722.265 129.644 717.962 126.551 715.244 118.561C715.395 115.984 715.697 113.407 715.772 110.829C715.772 109.798 715.168 108.767 714.866 107.994C712.979 95.8801 710.563 85.3127 706.637 79.3846C706.259 80.4156 705.882 81.4466 705.504 82.4775C704.523 87.1169 703.466 89.1788 702.107 84.024C703.239 83.5085 704.372 82.993 705.504 82.4775C705.882 81.4466 706.259 80.4156 706.637 79.3846C704.07 70.3637 702.182 55.1569 697.275 70.1059C696.445 50.2598 696.822 26.8052 686.705 37.8881C685.195 39.4346 683.082 35.053 681.27 33.7643C679.458 32.4756 677.646 30.1559 675.758 33.7643C673.418 44.5894 675.003 56.9611 674.55 68.8172C674.324 76.2917 674.097 85.055 670.851 84.2818C668.51 83.7663 666.17 80.4156 666.094 70.6214C666.019 60.3117 667.227 49.4865 663.981 36.8572C661.791 58.5075 656.355 72.1678 656.355 96.6534C649.107 88.4056 649.032 66.7553 649.409 58.2498C650.617 29.8981 646.918 34.2798 641.709 41.4965C637.481 47.4246 634.461 56.1878 634.914 72.4256C635.065 78.8692 636.499 86.0859 638.387 81.4466C647.145 60.3117 645.484 84.2817 646.088 98.9731C646.239 102.066 646.39 104.901 646.465 107.994C653.26 110.314 656.657 119.335 655.223 144.078C653.713 169.079 648.579 164.697 643.445 163.151C641.558 169.852 639.746 170.11 637.934 163.151C639.67 162.635 641.407 162.378 643.143 161.862C643.143 156.192 643.823 148.717 642.917 144.851C640.878 135.83 636.273 128.356 643.898 123.974C645.635 122.943 646.239 115.469 646.012 109.025C643.747 107.221 641.407 105.932 639.142 103.612C628.648 92.5295 628.648 92.2717 629.176 54.8991C629.252 48.4556 628.95 42.2697 627.062 39.6923C624.797 36.5994 624.042 43.043 623.061 48.4556C618.682 71.3946 617.247 95.1069 620.267 121.139C622.004 136.088 623.74 151.295 623.665 170.883C616.039 162.635 620.192 128.871 612.34 126.809C611.963 138.665 611.51 150.779 611.132 162.635C601.418 166.931 595.554 154.13 593.541 124.232C599.883 133.768 606.149 149.491 611.887 125.778C607.206 95.6224 602.072 88.6634 590.597 97.6843C589.087 85.3127 590.597 74.7453 592.635 64.6933C596.032 82.7353 601.317 71.1369 605.772 73.1988C605.847 77.3227 605.923 81.4466 606.074 85.5704C606.829 84.5395 608.188 83.2508 608.112 82.7353C607.81 78.6114 607.357 74.7453 606.904 70.8791C604.891 54.7273 599.908 51.5485 591.956 61.3427C589.766 58.5075 587.652 54.8991 585.991 64.1778C584.33 73.1988 582.669 81.9621 580.933 90.983L580.102 92.7872L580.706 90.2098C579.951 82.993 579.347 75.7762 578.441 68.8172C577.234 59.2807 576.252 45.8781 572.1 48.7133C567.645 51.8062 568.778 65.4666 569.533 75.003C570.665 88.4056 568.476 94.5914 565.531 100.52C561.379 108.767 560.397 121.139 560.926 135.83C561.907 138.665 562.813 141.243 563.795 144.078C570.363 140.985 575.12 148.717 578.291 167.532C572.251 181.966 566.437 182.482 560.397 173.976C558.812 173.976 557.151 173.461 555.566 173.461C555.339 183.255 555.188 193.307 554.962 203.101C554.207 192.791 548.242 181.966 555.113 171.914C555.339 169.079 555.339 165.986 555.113 163.151L554.584 160.831L555.339 162.378C557.151 165.728 558.963 169.337 560.775 172.687C563.417 173.203 566.739 175.78 568.098 167.275C570.061 154.645 565.38 152.068 563.719 144.851C562.813 142.016 561.907 139.181 561.001 136.346C556.925 127.067 556.094 112.891 554.886 98.4576C553.829 86.0859 551.111 77.3227 546.883 89.9521C544.165 89.4366 541.523 88.6634 538.805 88.1479C537.522 83.7663 536.314 84.2817 535.181 88.6634C532.161 87.8901 530.651 82.4775 530.349 73.1988C530.576 72.1678 531.029 70.8792 530.953 70.1059C530.802 67.2708 530.123 67.2708 529.368 70.1059C525.895 65.4666 521.365 63.6624 519.176 55.4146C512.985 31.9601 506.19 61.0849 499.697 51.2907C498.036 48.7133 495.394 66.7553 496.224 77.065C497.357 91.7563 498.64 105.674 495.998 123.974C491.09 114.18 484.824 111.602 489.505 85.8282C490.864 78.0959 490.26 65.7243 486.712 64.1778C482.861 62.6314 477.727 46.6514 475.085 70.3636C474.783 72.4256 474.556 74.4875 474.254 76.5495C474.934 75.7762 475.538 74.7453 476.217 73.9721C482.106 84.7972 477.501 100.52 478.256 114.695C473.726 112.376 469.045 113.149 470.102 92.014C470.631 82.4775 469.272 74.2298 467.988 66.2398C465.95 52.5794 462.25 49.7443 458.475 55.1569C454.851 60.5695 456.663 70.3637 458.324 77.8382C460.136 86.0859 460.363 94.0759 458.777 103.097C456.437 116.757 454.474 130.16 459.683 143.047C461.042 146.398 460.816 154.903 458.626 157.738C456.588 160.058 455.229 154.645 453.945 150.264C451.53 142.016 452.964 133.253 453.266 124.49C454.021 102.066 451.756 82.4776 447.151 65.982C443.829 53.8682 439.827 56.7033 438.921 72.4256C438.091 87.1169 438.619 102.581 438.544 117.531C437.562 120.366 436.505 123.201 435.524 126.036C430.239 115.211 425.785 98.7153 418.688 99.7463L417.933 102.066L418.612 99.4885C419.518 89.9521 420.877 82.993 424.577 85.055C427.748 86.8592 429.484 100.262 434.241 95.8801C433.788 69.3327 426.993 61.3427 421.179 57.4765C411.818 51.2907 414.385 88.1479 409.024 98.1998C407.212 73.4566 400.342 62.1159 392.49 64.6933C384.412 67.5285 376.183 64.6933 368.029 64.4356C368.255 62.6314 368.557 60.8272 368.784 58.7653C368.18 59.5385 367.651 60.3117 367.047 61.0849C363.801 56.1878 358.139 47.6823 360.102 68.5595C362.367 93.045 356.704 119.077 362.895 142.274C364.707 148.975 361.914 158.769 358.214 153.872C356.478 151.552 354.968 148.202 353.307 145.367C352.401 148.202 351.495 151.295 350.589 154.13C349.683 155.161 349.305 162.378 347.796 156.965C348.701 155.934 349.532 154.645 350.438 153.614C351.344 150.521 352.174 147.686 353.08 144.593C355.798 118.304 348.173 95.3647 350.966 68.3017C351.646 61.3427 348.55 54.1259 344.851 57.992C333.828 69.5904 323.183 62.1159 313.293 47.4246C309.141 58.2498 313.444 68.3017 312.538 77.8382C311.632 87.3746 309.443 80.9311 307.857 81.7043C307.857 87.6324 307.857 93.5605 307.857 99.4885L308.386 101.808L307.555 100.262C306.272 93.8182 300.76 87.6324 307.555 80.9311C307.404 65.2088 303.403 58.5075 300.458 49.2288C295.928 51.2907 299.477 64.6933 297.363 70.6214C294.343 79.1269 292.229 68.3017 289.738 67.5285C278.337 63.6624 266.484 67.013 255.839 48.9711C255.462 48.4556 254.405 52.0639 253.65 53.8681C247.006 63.9201 239.909 61.6004 233.114 58.7653C228.66 56.7033 224.356 52.3217 221.941 66.2398C219.298 81.1888 225.036 86.3437 227.225 96.1379C223.828 98.7153 221.79 94.0759 219.449 87.8901C216.203 79.3846 214.391 84.5395 214.617 97.1689C214.768 103.612 214.995 110.314 212.428 110.056C210.465 110.056 209.408 103.87 209.03 97.6843C208.804 93.3027 208.804 88.6634 208.879 84.2818C209.03 74.2298 210.842 62.1159 206.765 56.7033C202.689 51.2907 201.254 64.1779 199.065 71.3946C195.214 84.024 192.647 80.6734 191.439 64.1778C191.741 63.1469 192.345 62.1159 192.345 61.3427C192.194 58.2498 191.59 58.7653 190.911 62.3736C182.757 47.9401 173.848 69.8482 165.468 57.4765C163.958 55.1569 162.675 64.1778 161.92 69.8482C160.259 82.4775 155.729 82.2198 152.86 90.2098C151.124 95.1069 148.557 86.0859 147.047 80.9311C144.404 71.6524 148.481 74.2298 149.236 70.8791C151.199 62.1159 149.991 54.1259 147.424 55.1569C134.816 61.0849 122.057 48.4556 109.6 60.054C107.637 61.8582 106.429 66.2398 105.825 72.4256C107.788 75.5185 109.675 78.3537 111.638 81.4466C111.865 82.4776 112.318 83.7663 112.242 84.5395C112.167 86.6014 111.789 88.6634 111.563 90.983C110.506 94.8492 111.563 107.221 108.165 101.293C107.561 100.262 109.977 93.5605 111.412 90.7253C111.412 87.8901 111.412 85.055 111.412 82.2198C109.222 80.9311 107.184 78.6114 105.825 72.6833C95.2551 61.3427 84.5344 47.4246 75.3992 82.7353C74.4177 86.6014 72.9077 89.9521 72.0018 87.1169C67.9249 75.003 64.6785 76.5495 61.7341 90.7253C38.7072 68.3017 18.0963 109.025 -3.7981 117.273C-15.5003 121.654 -26.5985 137.119 -35.9602 161.604C-43.359 180.935 -42.755 194.853 -34.6767 209.802C-29.9959 218.565 -24.7865 218.823 -19.7281 222.174C0.203289 235.319 19.9837 243.051 40.4437 230.937C53.4293 223.205 66.7924 231.71 80.08 230.937C113.601 228.875 147.198 227.844 180.719 236.35C199.971 241.247 219.374 238.412 238.777 238.669C282.188 239.443 325.524 250.525 369.01 250.783C381.166 250.783 393.547 248.721 405.325 251.814C432.806 259.289 460.212 258.773 487.542 254.649C523.781 249.237 560.096 252.072 596.334 239.958C614.152 234.03 632.271 235.834 650.164 236.35C674.701 237.123 699.163 243.051 723.624 231.195C724.077 231.195 724.605 230.422 725.058 230.679C744.537 246.402 764.166 226.298 783.645 234.288C787.646 235.834 791.496 239.185 793.61 226.04C796.479 208.771 791.043 203.359 787.873 194.08C792.931 189.441 796.328 192.533 797.083 209.544C797.989 229.906 802.142 232.484 807.427 231.71C841.929 226.298 876.432 230.679 910.934 227.586C924.373 226.298 938.113 223.463 951.703 228.875C953.59 229.648 955.704 230.937 957.365 229.133C974.352 209.802 991.868 227.329 1009.08 221.658C1024.86 216.246 1040.87 224.751 1056.72 217.534C1063.67 214.442 1063.74 206.452 1059.74 191.76C1059.82 186.863 1057.48 178.1 1060.65 178.615C1063.06 179.131 1067.21 184.028 1066.46 194.338C1064.35 222.174 1069.86 220.627 1075.22 220.627C1086.54 220.627 1097.94 221.401 1109.27 220.627C1120.06 219.854 1120.52 217.019 1117.19 181.451C1118.86 178.873 1120.67 182.482 1120.74 185.574C1121.95 222.689 1129.73 222.174 1138.64 221.401C1153.06 220.112 1167.48 218.308 1182.05 221.401C1194.13 224.236 1206.66 220.627 1218.74 222.689C1234.37 225.524 1249.84 221.916 1265.32 224.494C1272.8 225.782 1279.36 211.606 1286.99 219.596C1306.54 240.216 1326.78 222.689 1346.71 225.782C1359.54 227.844 1372.91 221.658 1385.97 221.401C1399.63 220.885 1413.45 219.339 1426.74 212.637C1437.31 207.225 1449.46 212.122 1458.37 183.255C1460.71 175.78 1463.35 197.688 1467.05 188.925L1466.07 189.183ZM-3.7981 151.037C-4.62857 151.81 -5.45905 153.357 -6.28953 153.357C-6.96901 153.357 -7.64849 151.552 -8.32797 150.521C-7.49749 149.748 -6.66702 148.975 -5.83654 148.202C-5.15706 149.233 -4.47758 150.006 -3.7981 151.037ZM16.2088 140.212C15.5294 141.501 15.0009 143.305 14.4724 143.305C13.6419 143.305 12.7359 142.531 11.9055 142.016C12.4339 140.985 12.8869 138.923 13.4154 138.923C14.2459 138.923 15.1519 139.696 16.2843 140.212H16.2088ZM50.8624 124.747C50.0319 126.036 49.2769 127.325 48.4464 128.613C44.0676 138.408 38.7072 132.48 34.0263 137.377C31.0064 146.398 27.911 160.831 25.0421 136.861L24.5136 134.026L25.2686 136.088C28.213 126.551 31.0819 124.747 33.8753 136.603C38.0277 124.232 43.5391 132.222 48.1444 127.067C49.0504 126.036 49.4279 119.335 50.8624 124.49V124.747ZM68.2269 114.953L67.3209 114.18L68.1514 112.891V114.953H68.2269ZM87.7808 114.18V91.2408C87.5543 88.4056 85.2894 86.8592 87.1013 82.2198C87.4033 85.055 87.7053 87.8901 87.9318 90.7253C89.7438 97.9421 91.1782 105.417 87.7053 114.18H87.7808ZM100.087 84.7972C100.087 84.7972 99.483 86.0859 99.181 86.8592C98.728 85.3127 98.275 83.5085 97.822 81.9621C98.124 81.1888 98.577 79.9001 98.6525 79.9001C99.181 81.4466 99.634 82.993 100.162 84.7972H100.087ZM134.212 102.581L133.382 100.52C130.06 91.7563 126.436 87.1169 122.132 91.7563L121.302 93.3027L121.906 90.983C128.55 70.6214 131.192 72.6833 133.533 100.004L134.212 102.581ZM184.72 104.128C184.72 104.128 184.116 106.19 183.739 106.448C182.455 107.221 181.927 105.932 182.304 103.355C182.455 102.581 183.135 102.581 183.512 102.324C183.89 102.839 184.343 103.612 184.72 104.128ZM198.687 198.462C193.931 194.853 196.196 185.574 196.12 179.646C196.12 174.234 194.233 166.502 197.177 161.347C198.008 173.976 200.273 185.317 198.612 198.462H198.687ZM199.367 133.511L198.461 132.737L199.216 131.191L199.367 133.511ZM218.241 196.142L219.072 195.111V197.173L218.241 196.142ZM224.658 161.862C224.658 161.862 224.356 164.697 223.979 165.213C222.394 167.79 221.488 164.182 220.506 161.347C219.827 159.285 219.298 156.965 218.619 154.903L218.166 152.583L218.921 154.13C219.827 154.903 220.657 155.676 221.563 156.45C222.771 157.481 224.356 156.45 224.658 161.862ZM228.056 123.201L227.225 124.232V122.17L228.056 123.201ZM234.775 164.44C234.171 170.368 233.265 174.749 231.982 172.945C231.227 171.914 230.925 165.728 230.925 161.604C230.925 157.481 231.378 152.068 233.114 155.161C234.02 156.707 234.398 161.862 234.851 164.182L234.775 164.44ZM244.967 91.4985C244.514 91.7563 243.835 87.8901 243.155 85.5704C243.382 83.5085 243.382 79.9001 243.91 78.6114C244.741 76.5495 245.722 78.0959 246.024 81.7043C246.402 85.8282 246.704 90.7253 244.892 91.4985H244.967ZM255.99 91.4985C255.764 94.0759 255.537 96.3956 255.235 98.7153C255.16 99.2308 254.707 99.4885 254.48 100.004C253.876 95.3647 255.084 93.5605 255.839 90.983C254.556 79.1269 252.895 67.7862 253.046 54.6414C255.009 60.8272 257.349 65.982 258.935 72.9411C261.501 84.2817 258.784 88.1479 255.915 91.2408L255.99 91.4985ZM262.332 143.562L261.728 146.14C261.048 151.037 260.897 158.512 258.633 158.254C257.047 158.254 256.594 152.583 256.972 148.46C257.878 139.954 259.991 146.655 261.577 145.624L262.407 143.82L262.332 143.562ZM273.959 103.87C272.826 106.19 271.543 108.252 270.41 110.314C269.731 114.18 269.278 118.819 268.372 121.397C267.541 123.974 266.56 121.397 267.088 118.304C267.768 114.695 269.051 112.118 270.033 109.283C271.316 105.674 271.769 98.7153 274.034 100.262C274.034 100.262 274.185 103.355 273.959 103.87ZM274.865 160.058C274.487 162.635 274.336 165.728 273.732 167.275C273.43 168.048 271.92 166.244 271.769 164.697C271.316 160.058 272.147 156.707 273.506 155.161C273.732 154.903 274.412 158.254 274.865 160.058ZM287.926 106.963L287.473 109.283C286.567 110.571 287.624 117.273 285.661 115.726C286.189 113.149 286.642 110.829 287.171 108.252L287.926 106.705V106.963ZM293.588 207.225C291.927 207.225 289.436 208.771 289.964 199.235C290.191 195.369 291.172 189.956 292.154 188.925C294.645 186.348 295.022 193.822 295.702 198.977C296.306 205.163 295.022 207.225 293.513 207.225H293.588ZM322.126 102.581L321.371 101.035C320.012 98.1998 317.898 106.448 317.068 97.9421C316.917 96.3956 317.747 92.5295 318.427 91.4985C321.296 87.1169 320.692 96.9111 321.673 100.004L322.202 102.324L322.126 102.581ZM329.45 184.028C324.24 188.667 322.051 177.069 318.578 176.811C314.878 176.811 312.689 167.275 311.406 157.481C310.349 149.491 309.292 138.408 312.84 134.284C315.407 131.449 316.992 139.181 317.294 147.429C317.521 154.388 316.313 163.924 320.692 158.769C327.562 150.521 328.091 166.502 329.45 184.028ZM332.016 117.273C331.79 119.85 331.639 122.428 331.412 125.263C331.11 123.201 330.657 121.139 330.582 119.077C330.582 116.5 330.884 113.664 331.11 111.087C331.412 113.149 331.714 115.211 332.016 117.273ZM340.246 210.318H339.642L339.868 207.74L340.246 210.318ZM346.361 127.067C346.21 129.644 345.984 132.48 345.833 135.057C345.531 132.48 345.002 130.16 345.002 127.582C345.002 125.005 345.38 122.17 345.531 119.592C345.833 121.912 346.135 124.49 346.437 127.067H346.361ZM372.257 215.215C373.163 213.153 373.842 214.184 373.993 217.792C373.993 218.565 373.616 220.627 373.465 220.627C373.087 220.627 372.71 219.339 372.408 218.823C372.408 217.792 372.106 215.73 372.257 215.473V215.215ZM373.314 95.3647L372.483 96.6534V94.5914L373.314 95.3647ZM376.032 140.727C372.936 159.285 378.599 167.275 380.184 186.605C369.01 165.986 369.086 165.728 376.032 140.727ZM393.472 136.603C393.094 134.026 392.641 131.449 392.264 128.871C389.923 120.366 388.489 107.736 383.581 112.891C380.562 116.242 378.901 110.829 379.731 101.808C380.788 90.7253 384.185 87.6324 387.356 85.8282C390.074 84.024 391.358 90.2098 392.113 98.1998C393.019 108.252 394.151 117.788 392.566 128.098C393.094 130.675 395.057 131.706 393.472 136.603ZM409.628 146.398C410.081 156.965 405.778 162.378 406.91 173.461L407.514 175.78L406.684 174.234C404.62 161.862 405.602 152.583 409.628 146.398ZM430.692 209.029L431.296 208.514L431.145 211.349L430.692 209.029ZM444.508 134.284L443.829 136.861C442.721 168.478 437.462 182.396 428.05 178.615C436.052 167.017 435.902 147.686 435.524 128.356C436.354 125.263 437.26 121.912 438.091 118.819C438.997 118.819 439.978 118.819 440.884 118.304L441.564 115.984L441.035 118.819C440.507 126.809 441.639 132.48 443.602 136.603L444.357 134.284H444.508ZM468.366 137.377L467.686 137.892L467.913 135.057L468.366 137.634V137.377ZM469.498 228.875L468.517 230.422L469.347 228.102C468.819 220.112 465.95 214.957 467.233 201.039C468.894 211.864 475.689 212.637 469.574 228.617L469.498 228.875ZM494.865 177.584C491.317 179.904 487.617 180.935 484.22 184.286C477.652 190.987 479.086 173.461 477.803 163.924C477.501 161.089 475.311 159.8 477.048 154.903C477.425 157.738 477.727 160.316 478.105 163.151C481.351 163.151 483.088 157.996 484.371 148.717C485.579 139.439 486.938 139.954 486.636 150.779C486.108 170.368 494.337 160.573 494.865 177.584ZM502.642 136.088L502.264 138.923L501.887 136.088H502.642ZM505.51 94.5914C505.51 94.5914 505.511 97.4266 505.435 98.4576C505.435 98.9731 504.907 98.7153 504.68 98.9731C504.68 96.3956 504.831 93.8182 504.907 91.2408C505.133 92.2718 505.51 93.3027 505.586 94.3337L505.51 94.5914ZM507.171 216.504L506.719 219.081C505.737 219.596 505.284 226.555 503.85 221.658C504.68 220.627 505.586 219.339 506.417 218.308L507.171 216.504ZM511.097 82.7353L510.267 83.2508L510.569 80.1579L511.097 82.993V82.7353ZM530.576 185.317C523.706 176.553 517.666 169.337 511.626 161.347C509.889 159.027 508.077 154.645 508.983 147.944C509.663 143.047 511.248 138.408 512.758 135.83C514.948 132.48 516.156 137.892 516.835 143.82C517.892 152.841 518.647 160.831 522.422 151.552C524.838 145.624 527.858 142.531 530.878 137.892C531.784 152.841 531.784 165.986 530.651 185.317H530.576ZM533.973 212.895C533.973 215.473 533.52 218.05 533.294 220.627C532.614 219.081 531.557 218.05 531.406 216.246C531.255 214.442 531.784 210.833 532.312 209.544C533.143 207.483 533.973 209.544 533.973 212.895ZM536.616 93.5605L536.012 95.1069L535.559 92.7872L536.691 93.5605H536.616ZM547.865 136.088C547.865 136.088 547.336 138.408 547.11 138.15C546.732 138.15 546.204 137.119 546.053 136.088C545.6 132.737 546.053 131.191 547.185 132.737C547.487 133.253 547.563 135.057 547.789 136.088H547.865ZM581.235 125.263L580.782 127.84L579.951 129.387L580.48 126.809L581.235 125.263ZM589.464 199.235L589.011 201.554L588.181 203.101L588.709 200.523L589.464 198.977V199.235ZM626.005 198.977C626.081 200.523 624.948 202.843 624.344 204.905C623.589 204.132 622.834 203.359 622.079 202.585C622.381 200.266 622.532 196.657 623.061 195.884C624.118 194.338 625.703 193.307 625.93 198.977H626.005ZM632.045 153.614C633.63 156.965 635.291 160.058 636.877 163.409C635.14 160.573 633.328 157.738 631.592 154.645C631.063 152.326 630.61 150.006 630.082 147.944C632.045 145.367 631.063 152.841 632.045 153.614ZM646.012 202.07C645.182 206.967 644.955 215.215 642.464 212.895C641.407 211.864 640.425 206.452 640.199 202.585C639.595 193.049 641.935 193.822 643.747 194.08C645.182 194.08 646.616 195.626 646.088 202.07H646.012ZM669.718 128.098C669.718 128.098 669.265 131.191 668.963 131.191C666.547 131.449 666.547 123.716 665.415 119.592C665.188 116.5 662.773 119.592 663.603 113.407C664.283 115.211 664.962 116.757 665.717 118.561C667.227 120.881 669.492 120.623 669.718 128.098ZM668.661 201.554L667.906 203.101L668.359 200.781C668.284 195.369 668.208 189.698 668.057 184.286C667.151 180.677 664.283 180.42 666.019 172.43C666.472 170.368 667.68 168.306 668.133 169.079C670.549 172.945 668.133 178.615 668.51 183.513C671.153 189.441 670.171 195.626 668.586 201.812L668.661 201.554ZM688.744 193.049C688.97 188.41 690.48 186.348 691.839 186.863C693.425 188.41 694.633 190.987 694.104 196.142C693.953 197.946 692.443 198.719 691.613 198.719C690.329 198.719 688.517 199.235 688.744 193.049ZM679.458 118.561C679.911 118.561 680.439 122.428 681.043 125.263C680.288 128.356 679.533 131.706 678.778 135.057C678.476 132.737 678.023 130.418 677.948 128.098C677.948 124.232 677.646 119.077 679.458 118.561ZM687.007 66.7553C685.875 75.003 684.214 82.7353 681.27 83.7663C679.08 84.2817 678.099 77.5804 678.552 71.3946C679.231 61.3427 681.572 56.9611 684.667 57.7343C686.177 58.2498 687.007 61.6004 687.007 67.013V66.7553ZM707.618 114.438C707.618 116.242 706.561 117.788 705.957 119.592C705.429 117.53 704.447 115.469 704.296 113.149C703.994 107.736 704.9 104.386 706.637 106.963C707.241 107.994 707.618 112.118 707.543 114.438H707.618ZM709.053 157.738C709.279 159.285 708.751 164.182 708.147 164.955C704.976 170.11 704.296 160.316 702.786 155.161C701.427 155.419 699.993 155.419 698.634 156.192C695.388 157.738 692.368 172.172 688.819 159.542C685.195 146.655 688.064 134.541 689.876 122.685C690.858 116.242 691.613 109.025 694.331 106.448C700.144 116.757 698.634 141.243 702.937 154.388C705.127 152.841 707.543 147.686 709.053 157.481V157.738ZM713.583 115.211L713.13 112.118L714.111 109.798C714.036 111.602 713.885 113.407 713.583 115.211ZM732.155 205.421C726.795 200.008 723.926 206.967 721.812 197.946C724.605 191.503 727.021 191.503 732.155 205.421ZM737.214 197.173L736.383 196.142L737.214 195.111V197.173ZM741.97 179.904L742.725 181.451C743.631 184.543 744.688 187.121 745.443 190.472C746.424 194.595 748.161 200.266 745.443 203.359C744.008 204.905 743.631 198.719 743.329 194.595C743.027 190.472 742.725 186.348 742.423 182.224L741.894 179.646L741.97 179.904ZM738.95 126.294C749.922 134.885 755.786 154.817 756.541 186.09C756.616 190.472 757.069 195.111 757.296 199.493C757.598 202.585 759.863 199.493 759.108 205.678C758.428 203.874 757.749 202.328 757.069 200.523C749.369 180.935 743.933 155.419 738.95 126.294ZM771.188 124.49C769.074 138.665 765.072 131.964 762.505 129.902C750.124 119.335 743.555 89.9521 739.176 50.5175C744.612 52.5794 749.067 54.3836 753.596 56.1878C753.143 63.1469 752.615 70.1059 752.238 77.065C751.936 82.2198 750.879 89.4366 752.917 91.2408C753.974 92.014 755.635 85.3127 756.994 81.9621C758.353 76.8072 760.089 74.4875 762.203 74.7453C762.354 77.065 762.581 79.3846 762.807 81.7043C764.393 88.9211 765.978 96.3956 767.639 103.612C769.149 110.056 773.15 111.86 771.188 124.49ZM781.002 72.1678C781.002 75.7762 780.398 77.5804 779.266 76.8072C778.964 76.8072 778.586 74.7453 778.511 73.4566C778.435 69.8482 779.039 68.044 780.172 69.075C780.474 69.075 780.7 71.1369 780.927 72.4256L781.002 72.1678ZM779.945 119.335C779.039 120.623 780.172 128.098 778.133 125.521C778.662 123.201 779.19 120.881 779.643 118.304C778.662 112.118 777.68 106.19 776.699 100.004L776.17 97.6843L777.001 99.2308C779.643 103.355 783.192 106.19 779.945 119.335ZM780.927 187.121C780.096 209.802 778.888 209.544 771.188 191.76L770.508 189.183L771.263 191.76C776.321 191.76 777.982 181.966 777.227 168.048C775.642 139.696 781.002 148.46 785.23 150.521C786.816 166.759 781.455 172.687 780.927 187.379V187.121ZM803.274 159.285C804.029 161.089 804.709 162.635 805.464 164.44C806.445 167.017 807.351 169.852 808.332 172.43C811.05 186.09 817.468 179.389 819.884 194.853C817.09 180.935 807.502 206.452 808.03 173.461C807.125 170.625 806.143 168.048 805.237 165.213C804.86 162.378 802.67 165.213 803.274 159.285ZM825.471 154.645L825.999 157.481L825.319 155.161C822.375 152.583 819.053 160.058 816.184 149.491C812.711 136.861 808.332 131.191 802.519 133.511C797.461 135.315 792.553 127.582 788.175 118.304L787.42 115.984L788.326 117.531C790.968 118.819 793.006 117.015 792.327 106.448C791.723 97.4266 791.647 88.9211 793.912 81.9621C797.083 113.922 797.989 115.984 805.162 109.54L804.558 106.963L805.313 109.283C812.107 114.953 818.072 135.315 825.546 118.561C828.641 132.222 823.734 143.305 825.471 154.903V154.645ZM833.624 193.049C833.926 198.462 832.114 197.946 830.906 198.462C829.245 197.688 827.056 198.204 827.358 189.956C827.358 188.41 828.717 186.348 829.472 186.09C831.284 185.574 833.322 186.863 833.624 193.307V193.049ZM836.569 150.521C836.191 151.037 835.738 151.81 835.361 152.326C834.908 152.068 834.228 151.81 834.153 151.037C833.851 147.944 834.455 146.398 835.738 147.944C836.116 148.202 836.342 149.491 836.644 150.521H836.569ZM860.804 193.564C860.577 196.4 860.351 198.719 860.2 201.039C859.369 198.204 858.237 195.884 857.784 192.791C857.406 189.956 856.953 184.028 858.69 184.286C859.445 184.286 860.199 190.472 860.879 193.564H860.804ZM844.722 44.3317C844.043 44.8472 843.363 44.8472 842.684 44.5894L843.665 41.7543L844.722 44.3317ZM884.51 153.357L885.265 154.903L885.718 157.481L884.963 155.934L884.434 153.614L884.51 153.357ZM875.375 200.008L875.148 202.843L874.771 200.266H875.375V200.008ZM910.859 96.6534L909.953 95.8801L910.783 94.5914V96.6534H910.859ZM921.73 140.47C917.653 153.872 912.973 144.593 908.443 145.109C902.252 145.882 900.289 159.8 904.139 175.522C905.8 182.224 908.518 186.348 910.783 191.503C911.463 189.698 911.991 187.379 912.746 186.348C913.803 185.059 915.086 182.997 915.917 187.894C915.086 188.667 914.256 189.183 913.426 189.956C912.595 190.729 911.765 191.503 911.01 192.533C904.139 208.256 899.534 181.193 891.229 187.636C897.344 169.852 897.495 153.872 896.287 137.119C893.57 134.026 891.305 129.644 891.078 119.077C891.38 118.304 891.833 117.273 891.833 116.5C891.682 113.922 891.154 114.18 890.55 117.273C888.436 112.891 888.36 101.55 885.114 101.035C884.283 103.87 883.377 106.705 882.547 109.54C881.339 117.015 881.188 127.067 878.017 129.387C877.564 129.644 876.809 126.294 876.205 124.747C878.168 119.335 880.206 113.922 882.169 108.51C883 105.674 883.906 102.839 884.736 100.004C890.55 94.3337 896.363 77.3227 902.101 100.004C893.721 101.808 899.458 125.778 896.589 136.088C901.975 133.511 903.837 121.483 902.176 100.004C908.065 116.5 917.427 115.726 921.73 140.212V140.47ZM917.729 48.7133C916.747 52.5795 915.841 52.5795 914.935 48.7133C915.841 48.7133 916.823 48.7133 917.729 48.7133ZM921.957 27.8362C921.353 32.2178 920.824 36.5994 920.22 40.7233C919.994 35.3107 920.447 30.9291 921.957 27.8362ZM925.505 66.4975C925.505 66.4975 924.901 68.5595 924.599 68.5595C924.222 68.5595 923.618 67.5285 923.542 66.7553C923.24 62.8891 923.769 61.6004 924.75 63.4046C925.052 63.9201 925.203 65.7243 925.43 66.7553L925.505 66.4975ZM931.319 102.839L930.639 100.777C929.205 97.9421 926.487 104.386 925.958 94.3337C927.921 93.5605 929.431 96.3956 930.866 100.004L931.394 102.839H931.319ZM946.569 136.861C945.286 153.614 940.303 152.841 936.226 154.903C935.396 158.512 934.49 158.254 933.508 154.903L932.904 152.326L933.81 153.614L934.867 154.388L935.924 153.614C940.982 136.861 940.831 116.757 938.868 93.045C941.813 104.643 945.965 90.4675 948.23 102.066C950.722 114.695 947.324 125.263 946.494 136.346L946.569 136.861ZM964.764 189.698C957.743 198.977 951.25 192.791 944.757 190.987C944.229 188.667 943.776 186.348 943.247 184.286C945.21 181.708 944.229 189.183 945.21 189.956C951.552 188.41 957.667 160.573 964.84 189.698H964.764ZM965.595 148.717C964.613 151.552 963.405 153.872 962.122 155.419C961.065 156.707 960.461 154.645 960.612 151.037C961.518 145.882 962.65 140.727 964.764 142.016C965.142 142.016 965.746 148.202 965.519 148.717H965.595ZM973.975 186.863L973.144 187.894V185.832L973.975 186.863ZM1013.38 96.6534L1012.48 95.6224L1013.31 94.3337V96.6534H1013.38ZM1017.84 148.717C1017.99 152.841 1017.39 154.903 1016.63 152.841C1015.57 150.006 1014.52 146.913 1013.69 143.305C1013.16 140.985 1013.91 139.181 1015.2 139.696C1016.78 140.727 1017.69 143.82 1017.84 148.717ZM1027.58 186.09C1026.37 185.574 1025.09 183.255 1024.11 180.677C1023.65 179.389 1023.65 173.718 1023.73 173.718C1025.69 171.914 1027.2 175.007 1028.48 179.389C1028.94 182.739 1028.64 186.605 1027.58 186.09ZM1044.87 186.09C1045.02 199.493 1042.53 198.977 1040.26 197.946C1038.07 197.173 1034.98 195.369 1036.19 185.832C1037.17 178.358 1040.04 172.43 1042.83 173.203C1043.66 173.203 1044.34 182.739 1044.87 185.832V186.09ZM1053.25 56.9611C1053.25 56.9611 1051.59 59.2807 1050.98 58.5075C1049.77 56.9611 1048.72 53.8681 1047.59 51.2907C1048.19 50.002 1048.79 48.4556 1049.4 47.1669C1051.21 48.4556 1053.02 49.7443 1053.25 57.2188V56.9611ZM1065.93 152.583C1060.65 146.14 1056.8 141.501 1053.02 136.861L1052.27 139.181L1052.79 136.088C1057.32 117.53 1048.19 107.479 1050.08 90.7253C1049.17 87.8901 1048.26 85.055 1047.36 82.2198L1046.75 79.9001L1047.66 81.4466C1048.57 84.2817 1049.47 87.1169 1050.38 89.9521C1051.81 95.6224 1052.95 105.159 1054.68 106.448C1061.93 112.376 1063.74 129.129 1066.01 152.326L1065.93 152.583ZM1066.69 105.417C1065.93 103.87 1065.1 102.324 1064.35 101.035C1063.29 98.973 1062.23 96.9111 1061.17 95.1069C1061.7 93.3027 1062.31 91.7563 1062.84 89.9521C1063.44 93.3027 1063.97 96.9111 1064.57 100.262C1065.18 102.581 1067.37 98.1998 1066.69 105.674V105.417ZM1100.13 188.667C1100.13 188.667 1100.89 186.863 1101.26 186.863C1101.49 186.863 1101.79 188.41 1102.02 189.183C1101.79 190.472 1101.64 192.276 1101.34 192.533C1100.21 193.822 1099.75 192.018 1100.21 188.41L1100.13 188.667ZM1089.26 184.801L1089.79 182.224L1090.62 180.677L1090.02 182.997L1089.26 184.801ZM1082.62 181.708H1083.3L1083.07 184.286L1082.62 181.708ZM1094.7 43.043C1091.22 45.1049 1087.83 47.1668 1082.54 50.2598C1086.24 39.9501 1088.28 34.5375 1090.24 28.8671C1092.36 31.4446 1093.79 36.3417 1094.7 43.043ZM1101.42 118.561C1101.42 127.582 1101.42 136.603 1101.42 145.882C1101.87 149.491 1102.7 152.841 1102.7 156.45C1102.7 159.542 1101.19 160.316 1100.96 157.738C1100.66 154.13 1101.19 150.006 1101.34 145.882C1094.32 151.552 1087.22 158.254 1084.96 125.263C1083.82 109.025 1078.54 109.283 1075.52 100.52L1074.99 97.6843L1075.67 100.004C1078.54 97.1689 1078.92 70.1059 1084.2 90.983L1084.96 88.6634L1084.28 91.2408C1086.69 107.736 1088.35 129.902 1094.62 98.9731C1096.21 91.2408 1100.28 84.5395 1103 94.3337C1104.74 100.777 1103.6 111.345 1101.34 118.561H1101.42ZM1136.75 192.276L1136.97 189.441L1137.35 192.018H1136.75V192.276ZM1136.37 96.3956C1136.37 92.5295 1136.3 88.6634 1136.22 85.055C1137.88 88.6634 1138.03 92.5295 1136.37 96.3956ZM1143.54 142.016C1142.86 140.212 1142.11 138.408 1141.43 136.603C1140.6 135.572 1139.77 134.799 1138.94 134.799C1137.58 130.675 1136.3 125.005 1134.41 132.48C1135.54 134.799 1136.75 136.861 1137.88 139.181C1134.26 156.965 1128.52 140.727 1124.14 149.491C1127.69 130.933 1133.12 115.211 1127.69 92.2718C1130.48 92.2718 1132.75 96.6534 1134.86 102.066C1136.22 115.211 1142.18 118.561 1141.81 135.572C1142.11 138.665 1144.45 135.572 1143.62 142.016H1143.54ZM1150.49 196.142L1149.66 197.173V195.111L1150.49 196.142ZM1163.47 177.842C1161.81 177.069 1159.93 174.749 1158.64 171.399C1157.36 167.79 1158.34 162.12 1159.62 162.635C1161.21 163.151 1162.64 167.532 1163.02 168.306C1164.68 174.749 1164.46 178.615 1163.4 178.1L1163.47 177.842ZM1206.36 180.935C1206.36 180.935 1206.96 182.739 1207.19 183.77C1207.04 184.801 1206.89 186.863 1206.73 186.863C1206.36 186.863 1205.75 186.348 1205.6 185.574C1204.85 182.224 1205.15 180.42 1206.36 180.935ZM1178.05 36.8572C1174.65 45.1049 1171.78 47.6823 1170.72 29.8981H1172.08C1173.67 35.8262 1175.86 36.5994 1178.12 36.8572H1178.05ZM1196.69 191.76C1187.11 199.75 1181.14 187.379 1174.95 188.152C1181.22 184.028 1187.48 181.451 1196.69 191.76ZM1216.78 142.789C1214.89 158.769 1210.06 141.243 1206.73 146.14L1205.98 148.46L1206.66 145.882C1206.89 138.15 1206.43 131.191 1205.22 124.49C1203.49 114.953 1201.45 106.705 1197.6 109.025C1191.79 112.633 1195.26 124.232 1195.79 133.253C1196.39 143.562 1193.82 145.367 1191.94 148.975C1189.37 153.614 1187.26 149.491 1185.9 143.047C1184.39 136.088 1181.74 122.943 1184.16 119.592C1193.37 106.963 1187.78 81.9621 1189.67 63.9201C1191.79 64.1778 1193.67 66.2398 1194.96 71.9101C1194.73 72.9411 1194.5 73.7143 1194.35 74.7453C1194.81 74.7453 1195.26 74.7453 1195.71 74.4875C1198.66 79.9001 1197.45 107.479 1204.24 92.014C1207.79 83.7663 1211.19 79.9001 1214.21 91.4985C1218.14 106.448 1218.97 126.036 1216.93 143.047L1216.78 142.789ZM1242.07 192.533L1242.37 189.698L1242.82 192.533H1242.07ZM1227.65 129.902C1226.89 132.48 1226.06 132.222 1225.46 129.387C1225.31 128.613 1225.46 126.294 1225.61 125.521C1226.36 122.943 1227.12 123.459 1227.87 126.036C1227.87 127.325 1227.87 129.129 1227.65 130.16V129.902ZM1224.55 157.481L1223.8 155.934L1223.34 153.614L1224.1 155.161L1224.55 157.481ZM1226.89 182.224L1227.35 184.801L1226.59 182.997C1224.33 179.389 1221.31 184.028 1219.34 176.038C1222.14 174.749 1224.63 176.553 1226.82 182.224H1226.89ZM1265.62 147.944C1264.64 151.037 1263.28 157.223 1262.83 156.707C1258.38 150.779 1253.69 148.46 1249.69 135.572C1245.99 123.716 1244.03 164.955 1237.84 146.398C1237.39 143.82 1235.2 147.429 1235.88 140.727C1236.63 142.274 1237.31 144.078 1238.07 145.624C1243.58 120.366 1235.95 113.149 1232.1 101.035C1229.46 96.3956 1225.68 96.1379 1225.38 77.065C1228.25 86.6014 1230.29 93.3027 1232.33 100.004C1235.57 92.2717 1238.29 80.4156 1243.35 89.9521C1245.54 94.0759 1247.81 88.1479 1249.77 83.7663C1253.69 94.5914 1259.73 99.4885 1258.3 123.974C1257.62 136.603 1261.85 143.562 1265.62 147.429V147.944ZM1270.91 143.047C1269.85 143.047 1268.79 143.047 1267.74 143.305C1268.72 138.923 1269.78 138.665 1270.91 143.047ZM1277.48 126.551C1275.21 123.974 1269.78 132.222 1272.64 112.118C1274.91 114.695 1276.42 119.85 1277.48 126.551ZM1277.48 146.913C1276.34 151.295 1275.14 153.872 1273.55 148.717C1274.83 148.202 1276.19 147.686 1277.48 146.913ZM1305.49 104.386C1304.05 141.501 1303.98 141.243 1294.24 155.676C1288.27 164.44 1288.57 177.327 1292.42 191.503L1292.88 193.822L1292.12 192.276C1284.04 189.956 1276.04 192.276 1268.57 201.039C1264.49 205.936 1261.32 204.647 1257.92 198.462C1255.88 194.853 1253.17 191.503 1254.3 181.966C1255.36 173.461 1258.9 172.687 1260.34 176.553C1266.76 194.08 1273.1 185.574 1279.97 180.677C1283.52 178.1 1286.76 179.646 1286.76 165.471C1286.76 150.264 1289.25 129.644 1280.8 127.582C1279.97 132.995 1279.06 138.665 1278.23 144.078C1278.23 138.923 1278.23 133.768 1278.23 128.613C1279.06 128.098 1279.82 127.84 1280.65 127.325C1280.72 124.232 1280.8 121.139 1281.02 118.304C1281.55 111.86 1280.12 101.55 1283.37 100.262C1285.78 99.2308 1287.67 104.901 1288.42 113.149C1289.18 121.654 1288.88 132.48 1292.27 135.315C1295.29 137.892 1299.07 142.789 1299.22 124.747C1299.32 113.922 1301.38 107.049 1305.41 104.128L1305.49 104.386ZM1307.15 189.183L1306.62 191.76C1305.56 194.08 1304.5 195.369 1303.52 191.76C1302.16 190.472 1300.73 189.441 1299.52 187.379C1298.54 185.574 1296.73 183.255 1298.31 178.1C1298.54 177.327 1300.05 179.646 1300.73 181.451C1301.79 184.286 1302.69 187.894 1303.6 191.245L1304.96 191.76L1306.32 191.245L1307.07 189.441L1307.15 189.183ZM1323.83 126.551C1325.57 129.902 1327.3 133.253 1329.04 136.603C1329.65 138.923 1330.32 140.727 1330.7 143.305C1331.23 146.913 1331.99 150.779 1330.48 154.13C1330.17 151.552 1329.87 148.717 1329.57 146.14C1329.27 143.305 1328.97 140.727 1328.66 137.892C1326.93 134.541 1325.27 130.933 1323.53 127.582C1320.21 126.036 1318.4 119.592 1317.57 109.54L1317.04 106.963L1317.79 109.025C1322.55 110.829 1316.96 81.4466 1323.53 89.1788C1327.38 93.8182 1329.72 102.839 1331.31 115.211C1328.36 118.561 1325.04 115.984 1323.83 126.809V126.551ZM1335.61 180.42L1334.93 182.739L1334.18 185.059L1334.78 182.224L1335.69 180.42H1335.61ZM1343.54 190.472C1343.54 190.472 1342.48 195.369 1341.72 196.657C1340.52 198.719 1339.08 199.75 1337.72 201.297L1336.97 203.359L1337.5 200.781C1338.48 197.431 1339.31 193.822 1340.44 190.987C1341.35 188.667 1342.63 183.77 1343.54 190.987V190.472ZM1364.75 84.5395C1364.75 84.5395 1364.07 86.8592 1363.77 86.6014C1362.56 86.0859 1362.49 84.024 1363.47 81.1888C1363.69 80.4156 1364.22 80.6733 1364.53 80.6733C1364.6 81.9621 1364.83 83.5085 1364.75 84.5395ZM1381.74 152.068C1381.74 152.068 1381.89 154.903 1381.74 155.676C1381.59 156.192 1380.91 156.45 1380.68 155.934C1379.7 153.614 1379.7 151.295 1380.68 150.264C1380.98 150.006 1381.44 151.295 1381.81 151.81L1381.74 152.068ZM1412.24 198.204C1405.22 199.75 1400.08 194.08 1397.29 173.461L1396.84 171.141L1397.59 172.687C1401.07 188.667 1410.13 169.852 1412.32 198.462L1412.24 198.204ZM1415.26 106.448C1415.34 99.4885 1415.41 92.5295 1415.56 85.5704C1420.47 93.045 1420.47 93.3027 1415.26 106.448ZM1429.23 158.769C1428.32 160.831 1427.64 159.8 1427.42 156.192C1427.42 155.419 1427.79 153.357 1427.94 153.357C1428.32 153.357 1428.7 154.645 1429.08 155.161C1429.08 156.192 1429.38 158.254 1429.23 158.512V158.769ZM1436.63 143.047C1435.95 142.789 1435.57 141.501 1435.49 139.181H1436.55V143.047H1436.63Z" fill="#F68428"/>
<path d="M879.376 44.0739C875.828 48.4556 869.033 37.1149 868.202 25.5165C867.9 21.1349 868.655 17.2688 870.316 15.2068C873.789 20.3617 877.866 23.7123 880.659 33.7643C881.49 36.8572 880.81 42.5275 879.376 44.3317V44.0739Z" fill="#F68428"/>
<path d="M1302.62 50.5175C1300.73 50.002 1298.84 46.3936 1298.77 39.6923C1298.69 31.1868 1300.65 26.2897 1303.15 25.001C1305.49 23.9701 1306.24 29.6404 1306.47 36.3417C1306.47 44.074 1305.64 51.033 1302.62 50.2598V50.5175Z" fill="#F68428"/>
<path d="M557.604 72.1679C555.792 72.1679 553.527 71.3946 553.376 64.1779C553.15 52.8372 556.396 55.9301 558.284 54.1259C560.02 55.9301 562.436 55.6724 561.907 64.4356C561.454 71.3946 559.492 72.4256 557.604 72.1679Z" fill="#F68428"/>
<path d="M1205.22 31.1868C1203.94 29.8981 1202.58 29.1249 1201.3 28.0939C1200.32 29.8981 1199.34 31.96 1198.28 33.7642C1198.28 33.7642 1197.83 31.96 1197.52 30.9291C1198.58 29.3826 1199.64 27.8362 1200.77 26.032C1202.43 23.7123 1204.02 19.5884 1205.68 19.5884C1208.92 19.5884 1212.02 23.1968 1214.06 31.96C1214.36 33.5065 1214.06 38.4036 1213.53 39.6923C1209.75 48.1978 1208.02 34.022 1205.3 31.1868H1205.22Z" fill="#F68428"/>
<path d="M898.703 37.8881C896.514 34.5375 894.778 29.3826 895.457 20.8772C895.986 14.4336 897.797 11.3407 899.836 13.4026C901.874 15.4646 902.252 21.9081 902.176 28.0939C902.101 34.5375 901.27 39.4346 898.703 37.8881Z" fill="#F68428"/>
<path d="M1112.89 21.6504C1110.1 20.8771 1107.3 18.2997 1106.32 8.50549C1105.72 2.83516 1107.08 0.515484 1108.51 0C1111.68 -0.773228 1113.72 4.38163 1114.78 12.3716C1115.31 19.0729 1114.48 22.4236 1112.82 21.9081L1112.89 21.6504Z" fill="#F68428"/>
<path d="M988.319 36.3417C985.753 36.0839 983.865 31.4446 982.884 24.2278C982.28 19.8462 982.959 15.98 984.771 14.9491C987.489 16.2378 990.358 18.2997 991.037 28.8671C991.339 34.022 989.829 36.3417 988.319 36.3417Z" fill="#F68428"/>
<path d="M825.697 38.1459C824.565 40.4656 823.432 43.5585 822.224 44.5894C820.488 46.1359 817.996 46.1359 817.921 38.6614C817.77 29.6404 820.337 33.5065 821.922 33.5065C822.828 33.5065 823.734 33.5065 824.716 33.5065C826.829 26.032 828.868 15.4646 832.341 27.3207C833.096 29.8981 833.473 36.5994 832.945 38.9191C830.604 49.2288 828.113 40.9811 825.772 38.1459H825.697Z" fill="#F68428"/>
<path d="M1022.6 41.7542C1019.35 44.0739 1018.75 36.3417 1018.29 28.6094C1018.07 27.5784 1017.69 26.2897 1017.61 25.2587C1017.61 24.7433 1018.07 23.1968 1018.22 23.1968C1018.59 23.4545 1018.97 24.7432 1019.27 25.5165C1021.16 26.2897 1023.12 27.3207 1023.58 34.5375C1023.73 36.8571 1023.05 41.4965 1022.52 42.012L1022.6 41.7542Z" fill="#F68428"/>
<path d="M1242.45 56.7033C1241.69 52.5794 1242.22 48.7133 1243.8 48.4556C1244.41 48.4556 1245.09 51.033 1245.69 52.3217C1245.39 54.6414 1245.16 58.2498 1244.63 59.023C1244.03 59.7962 1242.75 58.5075 1242.45 56.7033Z" fill="#F68428"/>
<path d="M154.596 67.013C154.898 64.4356 154.974 60.5695 155.578 59.7962C156.106 59.023 157.088 61.3427 157.918 62.3736C157.616 64.9511 157.541 68.8172 157.012 69.5904C156.408 70.3637 155.427 68.044 154.672 67.2708L154.596 67.013Z" fill="#F68428"/>
<path d="M887.832 33.5065C886.699 33.5065 886.322 31.4446 886.699 28.3517C886.85 27.3207 887.228 26.032 887.605 25.5165C888.587 23.9701 889.493 25.001 889.342 28.3517C889.342 30.1559 888.36 31.9601 887.832 33.5065Z" fill="#F68428"/>
<path d="M542.505 63.9201C541.825 61.0849 542.052 58.2498 543.109 57.2188C544.543 55.9301 545.6 58.2498 545.675 62.8891C545.675 64.6933 544.92 66.4975 544.467 68.3017C543.788 66.7552 543.033 65.7243 542.505 63.9201Z" fill="#F68428"/>
<path d="M1402.73 105.674C1402.73 105.674 1402.88 103.612 1402.95 102.581C1403.33 102.839 1403.78 103.097 1404.01 103.87C1404.16 104.128 1403.86 105.932 1403.78 106.963C1403.41 106.705 1402.95 106.705 1402.73 105.932V105.674Z" fill="#F68428"/>
<path d="M754.125 45.3627V45.6204L754.05 45.3627H754.125Z" fill="#F68428"/>
<path d="M1250.3 35.5684L1251.43 35.3107L1250.98 39.1768L1250.3 35.5684Z" fill="#F68428"/>
<path d="M1432.55 90.7253C1432.55 90.7253 1433.23 89.6944 1433.38 89.9521C1433.61 90.4676 1433.61 91.7563 1433.76 92.7873C1433.45 93.045 1433.23 93.3028 1432.93 93.8182C1432.78 92.7873 1432.7 91.7563 1432.55 90.9831V90.7253Z" fill="#F68428"/>
<path d="M1439.42 87.3746C1439.42 87.3746 1439.57 85.3127 1439.65 84.2817C1440.02 84.5395 1440.48 84.7972 1440.7 85.5704C1440.78 85.8282 1440.55 87.6324 1440.48 88.6633C1440.1 88.4056 1439.65 88.1478 1439.42 87.6324V87.3746Z" fill="#F68428"/>
<path d="M760.542 97.1688C757.296 98.7153 757.145 89.952 757.069 82.2198C758.881 82.2198 760.693 82.2198 762.505 82.2198C762.656 88.4056 762.656 95.8801 760.542 96.9111V97.1688Z" fill="#F68428"/>
<path d="M1097.04 110.829C1096.96 109.283 1098.02 105.417 1098.47 105.417C1100.89 105.932 1101.04 112.633 1101.42 118.304C1099.68 117.53 1097.56 118.304 1097.04 110.829Z" fill="#F68428"/>
</g>
<defs>
<clipPath id="clip0_53_415">
<rect width="1524" height="258" fill="white" transform="matrix(1 0 0 -1 -42 258)"/>
</clipPath>
</defs>
</svg>
