<svg width="260" height="101" viewBox="0 0 260 101" fill="none" xmlns="http://www.w3.org/2000/svg">
<g clip-path="url(#clip0_180_371)">
<path d="M301.937 34.2042C300.819 34.7983 299.685 32.8462 298.568 35.7319C297.936 37.4294 297.839 36.6655 297.579 43.0311C297.482 45.4924 297.093 46.0866 296.721 46.2563C294.939 47.2748 293.027 43.5403 291.424 51.0092C290.743 54.1496 290.063 42.6916 289.707 48.8874C289.221 57.3748 288.119 43.2008 287.795 51.5185C287.682 54.574 287.244 54.1496 285.122 52.7916C285.317 49.9059 285.511 47.0202 285.689 44.2193C285.786 43.3706 286.24 44.5588 286.11 42.3521C285.948 42.8613 285.803 43.3706 285.641 43.8798C284.669 44.4739 283.761 45.9168 282.935 48.463C282.352 50.2454 281.834 51.6882 281.072 50.1605C280.424 48.8025 280.311 49.821 280.343 55.3378C280.392 55.6773 280.424 55.9319 280.473 56.2714C280.376 56.2714 280.279 56.2714 280.198 56.1866C278.513 52.3672 276.569 53.7252 275.111 56.1866C273.475 58.9874 272.551 57.4597 271.466 52.7916C271.336 53.0462 271.207 53.3008 271.077 53.5555C271.126 52.8765 271.191 52.2824 271.239 51.6034C271.013 49.9059 270.672 49.6513 270.3 49.6513C270.154 50.8395 270.008 52.0277 269.879 53.216C269.717 52.0277 269.571 50.9244 269.409 49.7361C268.874 56.3563 267.157 51.858 266.72 55.9319C265.748 64.8437 264.225 59.5815 263.075 61.7034C260.888 65.7773 260.742 59.1571 260.467 51.0941C259.446 53.4706 258.523 55.7622 257.567 57.7143C257.081 58.7328 256.676 59.5815 256.789 62.8067C256.854 64.5891 257.065 67.0504 256.482 67.2202C255.963 67.305 255.461 65.4378 255.51 62.7218C255.558 58.8176 255.818 54.9983 255.98 51.179L256.077 50.4151L255.915 50.9244C255.348 52.537 253.776 48.2933 254.538 57.884C254.813 61.279 253.809 64.4193 253.145 66.3714C252.561 68.1538 251.897 67.3899 251.816 63.6555C251.557 50.3303 250.618 63.6555 250.067 62.3824C250.115 62.8067 250.229 63.2311 250.213 63.5706C250.164 64.6739 250.018 64.5891 249.84 63.5706C248.398 71.8034 246.163 69.5118 244.429 74.095C243.911 75.4529 243.474 73.2462 243.393 70.5303C243.312 67.7294 243.393 64.7588 243.393 61.5336C242.534 61.5336 241.918 65.9471 241.028 65.2681L240.866 64.5891L240.979 65.4378C240.849 72.5672 239.553 74.095 238.679 77.6597C238.614 77.9992 238.549 78.3387 238.484 78.5084C238.484 78.5084 238.355 77.9992 238.371 77.9143C238.419 77.5748 238.484 77.2353 238.549 76.8958C236.994 72.1429 235.439 74.4345 233.884 76.8958C233.948 77.6597 234.046 78.3387 234.094 79.1874C234.11 79.5269 234.013 79.9513 233.981 80.3756C233.803 81.5639 233.689 83.1765 233.462 83.7706C232.685 85.8076 231.745 92.0882 231.049 85.8076C230.466 80.6303 231.518 77.1504 232.571 75.8773C232.426 74.1798 232.28 72.4824 232.15 70.7849L232.296 70.021L232.118 70.5303C231.972 71.0395 231.826 71.2941 231.648 71.379C231.567 71.6336 231.502 72.058 231.405 72.1429C231.373 72.1429 231.259 71.5487 231.259 71.379C231.292 70.9546 231.357 70.5303 231.421 70.1908C230.984 68.1538 230.563 66.2017 230.012 63.6555C229.186 72.6521 227.469 77.3202 226.043 77.8294C224.245 78.5084 224.488 82.6672 224.456 88.0143C224.731 89.2874 224.925 90.8151 224.65 92.5975C224.585 92.937 224.358 92.5975 224.213 92.5975C224.229 91.3244 224.245 89.9664 224.261 88.6933C223.759 87.4202 223.241 85.2983 222.738 88.4387C222.252 91.4941 221.588 91.579 220.908 91.6639C220.827 91.9185 220.762 92.3429 220.681 92.4277C220.649 92.4277 220.535 91.8336 220.552 91.7487C220.584 91.3244 220.665 90.9849 220.714 90.5605C220.616 88.5235 222.009 85.1286 220.422 84.4496C218.915 83.7706 218.073 91.1546 216.599 90.9849C216.064 90.9849 215.481 93.4462 215.125 89.7966C214.752 85.9773 215.449 84.7891 215.886 82.9219C216.486 80.4605 217.328 78.084 215.935 74.8588C215.546 73.9252 215.611 71.5487 215.983 70.021C216.259 68.8328 217.198 68.4933 216.243 65.7773C215.821 64.5891 215.028 61.958 214.914 67.305C214.785 73.3311 213.586 74.2647 213.1 78.5084L212.97 79.3572L213.148 78.8479C213.796 79.1025 214.493 80.2059 213.91 84.0252C212.581 92.7672 209.309 96.9261 207.171 92.937C206.491 91.6639 206.734 89.2025 207.171 87.3353C207.365 87.6748 207.43 90.1361 207.738 88.0992C207.543 87.7597 207.365 87.505 207.171 87.2504C206.248 82.0731 205.421 90.221 204.449 87.7597C204.644 82.3277 205.681 82.158 206.345 79.6966C207.171 76.6412 207.511 74.0101 206.523 69.8513C206.393 69.342 206.361 66.2866 205.972 67.4748C205.13 69.9361 204.385 73.2462 203.558 75.8773C202.651 78.763 202.489 82.3277 202.781 87.3353C203.072 92.3429 202.36 93.2765 201.615 93.3613C200.432 93.616 199.249 93.616 198.229 89.6269L198.067 88.9479L198.196 89.7966C198.051 92.258 197.759 95.3134 197.257 94.974C194.827 93.0218 192.413 95.6529 190 95.8227C189.4 95.8227 188.72 96.2471 188.315 93.8706C187.586 89.542 187.035 91.1546 186.322 93.8706C184.378 101.255 182.11 95.8227 180.021 97.6899C178.66 88.6933 177.251 94.6345 175.858 97.4353C174.724 99.7269 173.703 100.661 173.379 92.5975C173.33 91.4941 173.282 89.9664 173.201 90.3059C172.99 91.0698 172.909 92.6824 172.715 93.7008C171.775 98.8782 170.528 97.2656 169.507 95.8227C168.859 94.8891 168.211 89.9664 168.811 85.9773C169.362 82.2429 169.572 79.442 168.568 78.6782C167.693 77.9992 166.867 80.4605 166.705 85.7227C166.656 87.5899 166.835 89.6269 166.932 91.579C167.191 97.5202 166.883 97.5202 165.62 98.5387C163.724 100.151 161.845 94.4647 160.063 99.4723C155.738 93.7857 151.397 104.734 147.023 99.4723C145.954 98.1992 144.139 94.1252 143.815 96.6714C142.892 103.971 141.79 99.1328 140.899 99.4723C139.069 100.151 137.028 103.461 135.489 94.5496C135.278 93.2765 134.97 93.7008 134.679 94.295C131.196 101.255 127.616 98.963 124.036 97.0958C123.663 96.9261 123.274 97.0958 122.886 97.4353C121.136 98.7084 119.322 102.952 117.783 94.3798C117.702 93.9555 117.394 93.8706 117.281 94.2101C115.596 100.745 113.846 100.151 112 96.0773C111.643 95.3134 111.044 96.6714 110.607 97.5202C109.035 100.576 107.545 101 106.087 95.9076C105.212 92.8521 104.175 93.1067 103.203 94.1252C98.4571 98.963 93.6944 96.2471 88.948 94.5496C87.5711 94.0403 86.259 92.0882 84.882 94.5496C84.3474 95.4832 83.5699 96.4168 83.1487 95.1437C81.1238 89.542 78.7263 99.2176 76.8309 90.7303C76.7175 90.221 76.3612 90.0513 76.2802 90.4756C74.563 99.7269 72.5057 92.4277 70.6428 93.0219C66.0098 94.3798 61.3768 89.9664 56.6952 90.9849C54.5406 91.4941 52.2241 90.5605 49.9886 88.863C47.5587 86.9958 44.983 89.7966 42.5369 88.0992C39.6048 86.0622 36.7214 91.2395 33.8055 87.8445C31.0354 84.6193 28.1195 88.3538 25.4142 86.9958C22.6279 85.6378 19.874 87.0807 17.1202 85.4681C10.8834 81.7336 4.59806 83.2614 -1.62249 84.9588C-5.70473 86.0622 -9.64117 81.5639 -13.6748 83.0916C-14.8898 83.516 -15.9265 79.6966 -16.9633 76.8109C-17.7084 74.6891 -18.1782 71.4639 -17.9028 66.8807C-17.6274 62.4672 -17.2225 58.6479 -16.1209 58.3084C-9.93276 56.3563 -3.939 47.1899 2.31395 46.6807C6.42858 46.3412 10.5918 43.795 14.6578 39.1269C14.7712 37.9387 14.8846 36.8353 14.998 35.6471C15.0628 35.9017 15.1924 36.3261 15.1762 36.4958C15.079 37.684 14.9494 38.7874 14.836 39.8908C16.5046 42.9462 17.9463 38.5328 19.4691 36.4958C19.7444 34.2891 20.1818 33.3555 20.6678 32.7613C20.9756 32.337 21.3158 32.5916 21.413 34.0345C21.575 36.7504 21.1214 37.005 20.765 37.1748C20.3762 37.3445 20.0036 37.1748 19.6148 37.1748C21.5264 43.9647 22.6279 43.4555 23.7619 34.7134C24.0697 32.337 24.5071 29.621 24.8148 30.979C26.4186 38.2782 27.8927 29.5361 29.4641 30.5546C31.0678 31.5731 32.8011 32.5916 34.4373 29.7059C34.988 28.6874 35.474 29.7059 35.4902 32.8462C35.5226 38.8723 36.4946 38.0235 36.932 36.8353C38.4547 32.7613 36.7376 34.7134 36.6404 34.1193C36.2678 31.9126 36.4298 30.5546 36.8186 29.5361C37.0777 28.8571 37.3855 28.4328 37.6771 28.6025C40.593 30.1303 43.4765 26.3109 46.4572 28.0933C49.6484 29.9605 52.8883 25.4622 56.1444 25.9714C57.2297 26.1412 58.2827 26.1412 59.3357 27.4143C59.7406 37.2597 61.1662 30.5546 62.1057 32.0824C61.1986 30.4697 60.1618 30.8092 59.3842 27.2445C60.5992 23.595 61.9599 24.2739 63.2883 24.1042C63.9201 24.1042 64.6004 24.1042 64.4384 30.0454C64.2764 35.6471 65.5076 33.2706 65.7344 32.2521C67.5325 24.7832 67.5001 24.6134 68.7799 25.3773C68.9905 29.3664 68.1481 29.4513 67.8727 31.658C69.3306 32.0824 69.4116 32.4218 69.9948 27.8387C70.6266 22.916 71.3556 20.6244 72.4247 23.0008C73.5749 25.4622 74.725 22.4067 75.8914 23.6798C76.5394 24.3588 77.0091 24.8681 77.1549 28.3479L77.0415 29.1118L77.2035 28.6025C79.0017 19.4361 81.3182 25.2924 83.3107 22.6613C84.396 21.2185 85.0278 31.9126 86.2913 23.5101C86.7449 20.4546 88.5269 22.4916 89.7094 22.237C89.9848 22.237 90.2764 22.4067 90.6004 22.4916C90.6166 28.5176 89.1748 25.2076 88.9966 29.8756C90.1468 30.7244 91.1512 30.979 91.9287 24.9529C92.5767 20.0303 93.5325 19.521 94.4558 23.7647C93.7107 27.9235 94.2614 29.0269 95.0066 29.8756C95.4926 30.3849 94.5044 35.4773 95.5088 34.374C95.9786 33.8647 96.011 31.5731 96.0272 29.5361C96.0272 27.584 95.93 25.2924 96.0758 23.6798C96.3997 20.1151 96.9667 20.3697 97.5337 22.4916C97.8739 22.7462 98.4085 21.1336 98.4247 24.3588C98.4247 26.7353 97.9063 26.905 97.5499 27.584C97.9549 28.942 98.3599 30.3849 98.9268 32.337C99.2994 29.3664 98.9268 24.274 99.6558 22.3218C100.466 20.2 100.806 25.2076 101.438 26.0563C102.021 26.905 102.523 28.3479 102.815 23.9345C103.09 19.7756 104.013 19.3513 104.564 19.8605C107.286 22.3218 109.959 19.3513 112.664 19.1815C113.296 19.1815 113.393 21.9824 113.425 24.6134C113.328 25.4622 112.858 24.1891 112.988 26.3958C113.15 25.8866 113.312 25.3773 113.458 24.8681C113.587 24.3588 113.717 24.1042 113.879 24.0193C114.397 18.5874 114.916 18.0782 115.402 24.1891C116.714 26.8202 117.993 32.2521 119.387 25.2076C119.532 28.3479 119.743 31.0639 120.699 29.3664C120.213 27.7538 119.808 26.4807 119.403 25.1227C119.484 23.7647 119.581 22.4067 119.662 20.9639C121.282 24.3588 122.659 18.0782 124.214 17.6538C125.785 17.2294 127.324 19.4361 128.847 17.9084C130.111 16.6353 130.175 22.7462 130.937 26.0563C131.698 23.6798 131.812 17.484 132.962 16.805C134.031 16.2109 134.452 20.1151 135.165 22.237C137.19 28.3479 137.255 28.0084 138.988 18.3328C139.279 16.6353 140.041 14.2588 140.057 18.0782C140.089 29.9605 141.094 22.4916 141.709 20.4546C143.183 15.6168 144.577 9.67563 146.504 15.3622C146.634 15.7866 146.942 15.7866 147.039 15.3622C148.545 8.1479 149.485 13.495 150.457 19.0118C150.7 20.3697 151.105 21.0487 151.478 22.1521C151.947 18.5874 150.23 15.1076 151.51 12.4765C152.109 11.2882 153.081 8.1479 153.276 15.2773L153.114 15.9563L153.308 15.4471C153.697 15.4471 154.086 15.4471 154.474 15.4471C154.993 17.7387 155.463 20.2 156.013 22.237C156.386 23.595 156.775 22.4916 157.001 20.7092C157.277 18.4176 157.002 16.8899 156.564 16.4655C155.9 15.7866 155.203 15.5319 154.523 15.1924C155.511 8.1479 156.742 9.93025 157.99 12.9857C158.184 14.9378 158.395 16.8899 158.589 18.842C158.638 19.7756 158.638 20.7092 158.589 21.558L158.443 22.4067L158.605 21.6429C158.605 21.6429 158.767 20.9639 158.767 20.7092C158.751 19.9454 158.67 19.2664 158.621 18.5874C158.54 16.2958 158.427 14.0891 158.038 12.6462C158.751 7.97815 159.334 9.33613 159.804 13.7496C159.934 15.0227 159.966 16.5504 160.047 17.9933C160.16 17.2294 160.241 16.2958 160.387 15.7017C161.402 11.9106 162.061 13.3818 162.363 20.1151C163.076 19.3513 163.125 15.9563 163.416 13.495C164.032 8.06302 165.36 4.58319 166.138 7.04454C168.892 15.8714 171.775 2.80084 174.464 9.59075C174.95 10.779 175.274 8.06302 175.663 6.70504C177.072 2.03697 178.692 4.49832 180.248 4.75294C180.539 4.75294 180.685 6.11092 180.863 7.38403C182.499 18.6723 182.451 18.0782 184.8 10.8639C185.966 7.29916 187.327 2.20672 188.817 8.74202C188.801 9.67563 188.801 10.6092 188.752 11.458C188.655 13.7496 188.882 15.0227 189.254 15.7017C189.384 15.8714 189.659 15.3622 189.708 14.8529C189.886 12.816 189.578 11.458 189.319 10.1C189.19 9.42101 189.028 8.99664 188.882 8.48739C189.465 4.2437 190.113 5.26218 190.939 7.04454C191.717 8.74202 191.814 15.7866 191.992 14.5983C192.834 8.91176 194.535 12.3067 195.2 5.94118C195.329 4.66807 195.572 3.5647 196.01 3.98907C196.674 6.78991 195.669 8.57227 195.767 12.3916C196.706 10.779 197.856 5.34706 198.537 13.5798C198.537 13.7496 198.909 13.3252 199.087 12.9008C200.497 9.59075 201.89 12.9857 203.283 12.7311C204.935 12.3916 206.604 10.779 208.094 6.53529C208.904 4.2437 209.261 6.53529 209.747 9.67563C210.816 16.6353 211.739 17.9084 212.808 11.9672C213.57 7.8084 214.947 8.82689 215.303 2.71597C216.194 5.43193 216.955 4.92269 217.814 1.52773C218.105 0.339494 218.64 3.39496 218.462 6.45042C218.267 9.7605 217.684 12.3067 217.749 16.2109C218.332 19.521 218.834 16.6353 219.304 15.4471C220.697 11.8824 222.09 8.40252 223.548 5.34706C225.59 1.18823 225.525 0.339494 226.351 10.6941C226.95 10.3546 227.161 8.82689 227.031 5.77143C226.95 3.73445 227.096 1.9521 227.631 0.594116C228.538 3.81933 229.51 7.38403 230.466 10.8639C230.336 11.6277 229.899 10.1849 230.012 12.5613C230.174 12.0521 230.336 11.6277 230.498 11.1185C231 10.6092 231.47 11.2034 231.907 12.3916C232.847 14.7681 233.624 11.6277 234.418 10.2697C235.115 9.08151 233.981 -2.71597 235.876 2.97059C236.621 5.26218 237.01 10.5244 237.561 14.4286L237.431 15.1924L237.609 14.6832C238.873 7.72353 238.889 7.72353 239.327 14.5134L239.229 15.2773L239.391 14.7681C240.191 10.1849 241.179 10.1849 242.356 14.7681L242.502 15.5319L242.404 14.5134C242.34 12.9857 242.34 10.9487 242.615 10.6092C244.851 7.55378 247.167 12.3067 249.435 8.48739C250.115 7.38403 250.618 13.1555 251.282 15.2773C251.476 16.3807 251.67 16.3807 251.881 15.4471H252.156H252.432L252.61 16.126L252.464 15.2773C252.27 14.0891 252.059 14.1739 251.865 15.1924C251.687 15.4471 251.525 15.3622 251.363 14.9378C251.33 8.65714 252.464 7.8084 252.934 9.93025C254.1 15.1076 254.975 11.2034 256.06 10.4395C256.968 9.84538 258.442 6.1958 259.041 14.8529C259.138 16.2109 259.705 17.484 260.078 16.4655C260.71 14.6832 261.115 7.72353 262.103 14.8529C262.216 15.7017 263.156 8.99664 263.755 14.8529C265.084 6.70504 266.817 19.9454 268.21 12.816C268.356 12.0521 269.101 12.816 269.279 14.0042C270.186 20.1151 271.434 19.3513 272.438 16.6353C273.556 13.5798 273.783 18.7571 274.414 20.0303L274.593 20.6244L274.479 19.7756C274.544 18.4176 274.625 16.9748 274.706 15.6168C275.856 18.4176 277.12 13.6647 278.416 18.6723C279.906 24.4437 281.882 22.8311 283.648 19.6908C284.426 18.3328 285.09 16.0412 285.738 20.4546C285.543 20.879 285.349 21.3882 285.155 21.8126C285.219 21.8975 285.317 22.237 285.365 22.0672C285.511 21.6429 285.624 21.0487 285.754 20.5395C288.508 22.6613 291.229 26.3958 294.048 26.5655C294.923 26.5655 295.506 28.942 295.814 33.1008L295.668 33.9496L295.846 33.2706C297.936 27.4143 299.993 25.8017 301.986 34.7134L301.937 34.2042ZM27.6011 39.6361C27.6335 38.9571 27.5201 38.1084 27.4715 37.3445C27.3581 38.0235 27.2285 38.7025 27.1313 39.4664C27.0018 40.5697 27.0665 41.6731 27.2933 41.5882C27.4229 41.5882 27.5849 40.4849 27.6173 39.721L27.6011 39.6361ZM30.1606 35.8168C30.0796 35.6471 29.9824 35.3076 29.9014 35.3924C29.6098 35.3924 29.545 35.9866 29.7556 36.5807C29.8204 36.7504 29.95 36.7504 30.031 36.5807C30.0796 36.5807 30.112 36.0714 30.1606 35.8168ZM32.8497 35.3924C32.7687 35.3924 32.6715 35.7319 32.5905 35.9017C32.6391 36.1563 32.6877 36.4958 32.7525 36.7504C32.8497 36.7504 32.9793 36.9202 33.0279 36.7504C33.2061 35.9866 33.1413 35.4773 32.8497 35.3924ZM41.646 34.5437L41.4678 34.9681C41.079 34.9681 40.674 34.9681 40.2852 35.0529C40.0908 34.7134 40.026 32.337 39.702 34.1193C39.8802 34.5437 40.0422 35.0529 40.2204 35.4773C40.674 37.2597 41.0952 37.5143 41.5164 35.2227L41.646 34.5437ZM45.9712 37.8538C45.8578 37.0899 45.7444 36.4109 45.6472 35.6471C45.0964 33.5252 44.5294 31.0639 43.7843 35.8168C44.4808 35.8168 45.0316 35.8168 45.5824 35.9017C45.7768 36.1563 45.5824 38.6176 45.9874 37.7689L45.9712 37.8538ZM50.2802 34.5437C50.1344 34.0345 50.021 33.4403 49.9076 33.3555C49.7294 33.2706 49.535 33.6101 49.3569 33.695C49.4541 34.1193 49.5512 34.7983 49.6646 34.8832C49.8428 34.9681 50.0372 34.7134 50.264 34.4588L50.2802 34.5437ZM52.8559 34.1193L52.6615 34.2891L52.8235 34.7983L52.8559 34.1193ZM57.3107 31.8277C56.6466 31.3185 55.9176 29.2815 55.302 32.337C55.302 32.337 55.4964 33.7798 55.626 34.4588C56.4036 38.2782 56.6466 31.4882 57.3107 31.8277ZM72.6191 30.5546C72.4571 28.8571 72.1817 28.8571 71.9063 29.3664C71.7119 29.7908 71.7119 30.8092 71.9063 31.5731C72.0359 32.0824 72.2465 32.5916 72.3923 32.4218C72.4895 32.337 72.5543 31.1487 72.6191 30.5546ZM74.4982 32.1672C74.4658 30.979 74.3362 30.6395 74.1419 31.3185C74.0123 31.8277 73.8665 32.6765 73.8341 33.4403C73.8017 34.5437 73.9799 34.9681 74.1743 34.2891C74.3038 33.7798 74.3848 32.8462 74.4982 32.1672ZM79.6496 30.0454L79.4714 29.7059V30.3849L79.6496 30.0454ZM82.7761 41.5034C82.7437 40.9941 82.7275 40.6546 82.6951 40.2302C82.6141 40.4 82.5169 40.4849 82.4683 40.8244C82.2901 41.758 82.3387 42.3521 82.5979 42.2672C82.6627 42.2672 82.7275 41.758 82.7761 41.5034ZM84.0073 31.4882C84.0073 31.4882 83.9425 30.4697 83.8777 30.3849C83.6347 30.0454 83.5375 30.5546 83.6509 31.658C83.6833 31.9975 83.7805 32.2521 83.8615 32.337C83.8939 32.337 83.9587 31.7429 83.9911 31.4882H84.0073ZM106.524 28.8571C106.314 23.5101 105.358 26.226 104.483 26.1412C105.018 28.263 105.569 30.3 106.103 32.4218C106.249 31.2336 106.573 29.8756 106.524 28.8571ZM114.916 25.6319C114.705 25.6319 114.494 25.6319 114.3 25.6319C114.511 26.905 114.721 26.905 114.916 25.6319ZM115.726 77.6597C115.531 76.9807 115.385 77.2353 115.353 78.4235C115.353 78.6782 115.434 79.3572 115.466 79.3572C115.547 79.3572 115.628 79.0176 115.693 78.763C115.693 78.3387 115.758 77.7445 115.726 77.6597ZM127.081 87.7597L126.919 88.2689L126.822 89.1177L126.984 88.5235L127.098 87.7597H127.081ZM127.713 60.0908L127.551 59.6664V60.3454L127.713 60.0908ZM135.602 85.8924H135.473L135.521 86.7412L135.602 85.8924ZM141.888 63.5706L141.709 63.8252L141.871 64.2496V63.5706H141.888ZM151.931 70.9546C151.931 70.9546 151.64 70.2756 151.478 69.9361C151.105 70.1059 150.716 70.5303 150.7 72.9067C150.7 73.2462 150.992 73.9252 151.154 74.0101C151.542 74.0101 151.883 73.2462 151.947 71.0395L151.931 70.9546ZM164.064 20.879L163.902 21.558C163.692 22.5765 163.497 23.6798 163.287 24.6983C163.092 25.5471 162.898 26.4807 162.704 27.3294C162.315 27.3294 161.926 27.3294 161.521 27.3294L161.375 26.8202L161.473 27.584C161.894 29.7059 162.331 29.7059 162.768 27.6689C162.963 26.7353 163.157 25.8866 163.335 24.9529C163.546 23.8496 163.74 22.8311 163.935 21.7277L164.064 20.879ZM167.434 20.1151C167.353 19.9454 167.272 19.6908 167.175 19.6908C166.883 19.6908 166.835 20.2849 167.029 20.7941C167.094 20.9639 167.207 20.9639 167.304 20.7941C167.353 20.7941 167.385 20.2849 167.418 20.1151H167.434ZM170.544 17.5689C170.236 17.2294 169.977 16.8899 169.718 16.7202C169.459 16.5504 169.281 17.484 169.378 17.9933C169.588 18.9269 169.864 19.521 170.123 19.7756C170.204 19.8605 170.35 18.5874 170.544 17.5689ZM174.594 16.5504C174.513 18.7571 174.886 18.5025 175.112 18.2479C175.372 17.9933 175.615 17.2294 175.874 16.7202C175.939 15.7017 176.441 16.8899 176.279 14.6832C176.133 15.2773 175.987 15.7866 175.825 16.3807C175.566 15.9563 175.291 15.3622 175.031 15.2773C174.886 15.2773 174.61 15.9563 174.594 16.5504ZM174.189 65.0134L174.27 64.1647H174.14L174.189 65.0134ZM177.056 76.3017C177.137 74.6891 176.7 74.3496 176.441 74.6042C176.182 74.9437 175.955 75.8773 175.712 76.5563C175.436 76.8109 175.145 76.9807 174.869 77.2353C174.448 77.5748 174.157 78.5933 174.302 80.9698C174.351 81.8185 174.513 82.6672 174.659 83.0916C175.096 84.4496 175.355 83.3462 175.501 81.1395C175.598 79.7815 175.696 78.4235 175.793 77.0655C175.971 76.8958 176.165 76.6412 176.344 76.5563C176.603 76.5563 177.008 77.8294 177.072 76.2168L177.056 76.3017ZM181.592 49.142C181.592 49.142 181.689 49.9059 181.754 50.0756C181.803 50.2454 181.9 49.9908 181.981 49.9059C181.981 49.4815 181.981 48.9723 181.932 48.7176C181.754 47.784 181.608 47.9538 181.608 49.142H181.592ZM181.074 80.0361C181.236 79.6966 181.382 79.2723 181.544 78.763C181.414 78.4235 181.301 77.7445 181.203 77.8294C181.058 77.9143 180.847 78.4235 180.798 79.0177C180.717 79.9513 180.863 80.4605 181.074 80.0361ZM181.673 85.8076C181.673 85.8076 181.349 86.8261 181.268 87.6748C181.139 88.9479 181.058 90.3908 180.96 91.8336L180.815 92.6824L180.977 91.9185C181.203 90.9849 181.446 90.1361 181.641 89.0328C181.803 88.0992 182.094 86.7412 181.657 85.8076H181.673ZM181.916 65.7773C181.754 65.7773 181.544 66.0319 181.43 66.5412C181.268 67.3899 181.365 68.1538 181.592 68.2387C181.754 67.8992 181.932 67.7294 182.078 67.1353C182.256 66.4563 182.175 65.6924 181.932 65.7773H181.916ZM189.562 72.2277C188.671 74.8588 188.428 77.9992 187.894 82.4126C189.125 80.2908 189.287 76.9807 189.562 72.2277ZM190.275 62.4672C190.162 61.5336 190.016 61.7034 189.902 62.7218C189.87 62.9765 189.902 63.7403 189.951 63.7403C190.016 63.8252 190.113 63.6555 190.194 63.5706C190.226 63.1462 190.324 62.637 190.291 62.3824L190.275 62.4672ZM190.891 77.7445L190.826 76.7261L190.729 77.6597H190.891V77.7445ZM192.267 67.0504C192.105 66.7958 191.96 66.2017 191.846 66.3714C191.7 66.5412 191.506 67.2202 191.474 67.8992C191.425 68.9176 191.603 69.2571 191.83 68.663C191.976 68.2387 192.105 67.6445 192.267 67.1353V67.0504ZM196.738 86.7412C196.738 86.7412 196.609 86.4866 196.528 86.4017C196.463 86.7412 196.366 86.9958 196.35 87.3353C196.334 88.6084 196.463 88.863 196.657 87.9294C196.706 87.6748 196.739 87.0807 196.722 86.7412H196.738ZM196.868 61.958C196.819 61.1092 196.771 60.2605 196.722 59.4118C196.577 59.8361 196.35 60.0908 196.285 60.7697C196.155 62.0429 196.155 63.5706 196.528 63.7403C196.625 63.7403 196.755 62.637 196.868 62.0429V61.958ZM200.497 74.5193C200.335 73.7555 199.914 73.416 199.719 73.9252C198.699 76.5563 199.266 80.4605 199.46 84.0252C199.541 85.2983 199.492 87.0807 199.897 87.2504C200.205 86.5714 200.319 85.2134 200.254 83.6857C200.108 80.3756 201.21 77.9143 200.481 74.5193H200.497ZM204.417 22.0672C204.417 22.0672 204.336 21.2185 204.304 20.7941C204.223 20.7941 204.093 20.5395 204.061 20.7092C203.915 21.7277 203.98 22.4916 204.223 22.7462C204.287 22.7462 204.417 22.3218 204.417 22.1521V22.0672ZM206.863 14.4286L206.701 15.1924L206.555 16.0412L206.717 15.3622L206.863 14.5134V14.4286ZM211.01 79.7815C210.881 78.763 210.686 77.2353 210.508 75.7076C210.346 76.7261 210.119 77.5748 210.038 78.6782C209.844 80.9698 210.168 82.3277 210.524 82.9219C210.832 83.4311 211.026 82.2429 211.026 79.7815H211.01ZM219.272 59.242C219.207 60.5151 219.288 61.1092 219.45 60.6849C219.499 60.6 219.499 59.921 219.515 59.4966C219.482 59.0723 219.45 58.6479 219.434 58.2235C219.385 58.563 219.304 58.9025 219.288 59.242H219.272ZM220.39 72.3975L220.228 72.9067C219.644 74.1798 218.802 72.9916 218.3 77.8294C219.223 76.9807 219.774 75.1983 220.292 73.1613L220.406 72.3975H220.39ZM223.062 77.7445C222.884 77.4899 222.722 77.0655 222.544 77.0655C222.398 77.0655 222.252 77.5748 222.123 77.9143C222.301 78.1689 222.463 78.4235 222.641 78.5933C222.787 78.2538 222.933 77.9992 223.062 77.6597V77.7445ZM224.099 63.995C224.099 61.0244 223.872 58.1387 223.095 56.9504C222.544 57.9689 222.236 60.2605 222.204 63.4857C222.171 66.1168 222.301 68.7479 222.9 69.0874C223.548 69.342 224.083 67.6445 224.083 63.995H224.099ZM226.238 13.1555C226.27 12.3067 226.286 11.3731 226.302 10.4395C226.189 11.1185 226.027 11.7975 225.978 12.5613C225.914 13.6647 225.703 15.0227 226.092 15.7866C226.14 14.8529 226.205 14.0042 226.238 13.0706V13.1555ZM228.505 17.3143C228.505 17.3143 228.327 17.3143 228.23 17.3143C228.198 17.5689 228.165 17.8235 228.117 18.163C228.198 18.3328 228.295 18.6723 228.376 18.6723C228.667 18.5874 228.732 18.0781 228.522 17.3992L228.505 17.3143ZM230.952 38.6176C230.773 38.1933 230.595 37.8538 230.417 37.4294L230.255 36.9202L230.352 37.684C230.563 37.8538 230.644 40.1454 230.952 38.5328V38.6176ZM233.867 77.0655C233.56 77.3202 233.268 77.5748 232.96 77.7445C233.219 78.1689 233.479 78.6782 233.738 79.1025C233.819 78.4235 233.867 77.7445 233.867 76.9807V77.0655ZM244.543 18.842C244.543 18.842 244.494 17.9933 244.462 17.5689C244.413 17.9084 244.332 18.2479 244.316 18.6723C244.251 19.9454 244.316 20.5395 244.478 20.1151C244.527 19.9454 244.527 19.2664 244.543 18.842ZM245.337 61.1941L245.175 60.7697V61.4487L245.337 61.1941ZM246.535 24.7832L246.357 25.0378L246.519 25.4622V24.7832H246.535ZM247.07 60.9395L246.892 61.1092L247.054 61.6185L247.086 60.9395H247.07ZM249.467 53.895C249.548 52.7067 249.435 52.1975 249.192 52.6218C249.127 52.7067 249.079 53.3857 249.079 53.8101C249.079 54.0647 249.176 54.4042 249.241 54.6588C249.322 54.4042 249.451 54.2345 249.467 53.895ZM252.788 23.7647H252.626L252.691 24.6983L252.772 23.7647H252.788ZM270.024 48.3781L269.96 47.6992L269.862 48.1235L270.024 48.3781ZM285.43 34.7134L285.268 34.5437L285.317 35.5622L285.43 34.7134ZM289.431 37.005C289.172 36.2412 288.913 35.6471 288.654 35.0529L288.508 34.5437L288.605 35.3076C288.88 36.4109 288.978 38.8723 289.48 38.2782C289.48 38.2782 289.48 37.1748 289.447 37.0899L289.431 37.005ZM293.108 39.042C293.076 38.6176 293.044 38.1933 293.011 37.7689C292.93 37.9387 292.801 37.9387 292.752 38.2782C292.574 39.3815 292.639 40.0605 292.914 39.9756C292.979 39.9756 293.044 39.3815 293.108 39.042Z" fill="#00B5CB"/>
<path d="M205.438 8.14784C205.94 6.95961 206.507 5.85625 206.507 2.29154C206.296 0.339439 205.956 -0.254679 205.551 0.254565C204.935 1.01843 204.514 3.05541 204.579 6.28062C204.628 8.48734 205.033 9.08146 205.438 8.14784Z" fill="#00B5CB"/>
<path d="M226.934 85.7227C226.529 85.8924 226.157 86.7412 226.108 88.863C226.043 91.579 226.497 91.7487 226.869 91.7487C227.258 91.7487 227.663 91.3244 227.679 88.7782C227.712 86.2319 227.323 85.8076 226.918 85.6378L226.934 85.7227Z" fill="#00B5CB"/>
<path d="M200.934 5.51681C201.339 5.51681 201.679 4.92269 201.679 2.54622C201.679 1.01849 201.453 0.169748 201.145 0C200.756 0.084874 200.383 0.42437 200.4 2.97059C200.4 4.49832 200.594 5.60168 200.934 5.60168V5.51681Z" fill="#00B5CB"/>
<path d="M229.283 88.6084C229.299 89.7118 229.51 90.1362 229.688 89.4572C229.818 89.0328 229.866 88.0992 229.963 87.3353C229.818 86.9958 229.656 86.7412 229.51 86.4017C229.429 87.0807 229.283 87.8446 229.283 88.5236V88.6084Z" fill="#00B5CB"/>
<path d="M210.994 4.32854C211.205 4.49829 211.318 3.90417 211.302 2.71594C211.156 2.20669 211.01 1.27308 210.881 1.35795C210.654 1.5277 210.621 2.63106 210.767 3.56468C210.816 3.90417 210.913 4.24367 210.994 4.32854Z" fill="#00B5CB"/>
<path d="M118.301 20.7941C118.334 19.521 118.22 19.1815 117.993 20.0302C117.977 20.1151 118.026 20.7941 118.042 21.1336C118.123 21.0487 118.22 20.879 118.301 20.7941Z" fill="#00B5CB"/>
<path d="M222.398 2.80086C222.398 2.80086 222.35 1.95212 222.285 1.86724C222.22 1.6975 222.09 1.78237 222.058 2.03699C221.912 2.80086 221.977 3.39497 222.204 3.47985C222.269 3.47985 222.333 3.05548 222.398 2.88573V2.80086Z" fill="#00B5CB"/>
<path d="M213.408 2.63115C213.408 2.63115 213.424 2.03703 213.44 1.69753C213.375 1.52779 213.294 1.18829 213.229 1.27316C212.986 1.61266 212.97 2.29165 213.197 2.88577C213.246 3.05552 213.359 2.88577 213.408 2.63115Z" fill="#00B5CB"/>
<path d="M234.013 89.6269C234.013 89.6269 234.143 89.8815 234.208 89.9664C234.24 89.6269 234.272 89.2025 234.289 88.863C234.224 88.7781 234.11 88.4386 234.094 88.5235C234.046 88.7781 234.029 89.2025 233.997 89.6269H234.013Z" fill="#00B5CB"/>
</g>
<defs>
<clipPath id="clip0_180_371">
<rect width="327" height="101" fill="white" transform="translate(-18)"/>
</clipPath>
</defs>
</svg>
