<svg width="320" height="708" viewBox="0 0 320 708" fill="none" xmlns="http://www.w3.org/2000/svg">
<g clip-path="url(#clip0_44_650)">
<path d="M562.631 911.201C576.212 911.571 565.8 926.82 590.749 920.832C598.052 909.363 593.359 905.093 596.272 897.116C599.274 889.292 576.622 894.434 601.372 875.56C601.969 875.147 598.305 875.072 596.339 875.044C585.616 875.282 592.642 866.71 601.1 857.242C605.852 851.967 611.613 847.957 620.349 844.76C634.603 839.542 621.382 847.996 618.304 851.347C608.382 862.138 614.303 864.194 621.418 865.423C626.36 866.265 640.83 858.527 646.926 851.722C653.831 843.904 657.097 837.503 654.814 834.031C646.748 822.471 644.918 807.243 630.615 799.352C623.746 795.655 628.244 785.599 626.209 779.179C625.707 777.827 629.176 773.224 626.85 774.019C596.678 783.502 613.922 764.651 612.962 757.2C611.742 746.887 598.498 743.723 601.278 730.691C603.846 718.74 591.798 713.79 591.504 702.669C591.227 695.918 576.127 705.458 562.878 713.381C574.465 713.191 554.279 729.84 562.465 731.478L564.641 730.906L562.077 731.77C552.152 733.874 542.436 735.857 529.651 747.96C527.531 749.594 531.285 749.343 525.617 752.067C526.813 750.761 527.978 749.404 529.174 748.098C539.156 736.929 542.162 728.146 561.476 713.848C583.983 688.195 586.65 673.038 574.584 664.198C563.44 655.99 560.472 642.65 559.533 628.481C558.824 616.642 560.028 602.81 547.083 599.199C531.548 594.962 544.383 576.193 535.231 569.024C525.781 561.821 522.061 551.037 519.415 539.701C516.827 528.947 509.196 521.036 505.951 510.593C504.831 506.724 498.786 506.382 494.89 504.458C490.221 502.159 481.549 503.539 461.322 514.328C476.81 504.496 493.22 495.295 488.496 491.454C476.107 481.09 476.25 463.49 463.444 453.368C457.352 448.605 448.596 458.04 439.729 464.87L437.907 466.537L439.014 465.077C438.959 463.535 438.695 462.114 438.67 460.623C446.4 455.682 459.465 449.37 456.554 446.74C454.683 444.946 443.909 451.851 436.75 455.368C435.829 454.737 427.182 457.608 436.611 452.233C446.487 446.668 450.456 443.897 447.334 442.347L445.307 442.696L447.663 441.952C459.491 431.086 453.659 429.184 449.675 426.626C446.167 424.409 437.493 426.749 423.019 435.926L421.138 437.491L422.065 436.203C420.613 433.689 420.802 430.158 417.709 428.659C414.35 426.699 411.431 426.468 429.392 416.577C438.91 411.356 436.094 406.961 423.569 411.797C419.036 413.593 413.218 417.02 410.687 416.497C436.028 399.129 439.616 394.732 419.938 401.166C405.388 405.872 415.504 399.757 417.898 396.186C422.327 389.386 415.948 390.88 401.596 399.303L399.774 400.971L400.88 399.511C400.768 397.386 400.446 395.382 400.363 393.309C404.72 390.725 412.055 387.995 412.51 385.406C412.816 382.561 404.403 387.282 398.676 389.904C419.818 372.018 420.993 367.782 404.965 368.962C402.844 371.076 401.02 373.223 398.154 375.494C395.676 377.472 393.231 378.062 395.173 376.12C397.295 374.006 400.876 371.527 403.952 369.136C404.879 367.848 406.822 365.426 406.584 365.495C383.951 374.046 383.256 367.537 379.725 362.869L377.937 363.149L380.263 362.354C387.541 359.041 395.057 355.66 403.886 351.657C403.832 349.635 405.509 346.751 403.246 346.69C387.609 346.617 394.17 333.865 391.722 326.247C390.661 322.48 391.748 317.61 380.155 319.719C369.605 321.705 385.523 307.793 381.691 304.532C378.987 302.261 352.794 315.741 369.581 300.439C378.541 292.323 376.587 288.456 356.451 298.44C355.712 296.677 354.973 294.914 354.204 293.1C352.355 293.757 350.715 294.293 349.225 294.606C340.33 300.905 334.894 305.959 337.926 307.835C340.483 309.37 346.898 305.529 353.643 301.293C331.105 327.374 352.216 329.692 359.752 339.368C360.552 340.753 366.604 338.696 360.214 344.027C355.346 348.138 351.82 352.158 355.065 352.474C370.907 353.865 355.27 373.088 365.025 377.925C365.858 378.403 362.631 381.497 361.226 383.403C352.023 363.605 339.449 345.684 332.961 324.318C321.959 288.863 299.44 259.988 284.053 227.065C276.269 210.689 265.144 196.243 260.255 178.128C256.369 163.197 237.834 156.176 236.365 139.644C235.156 125.973 226.159 116.661 226.83 101.905C227.086 96.0781 217.736 95.3183 215.605 90.6637C208.595 74.6628 192.574 63.7958 194.754 42.4889C195.734 33.5751 188.809 28.8152 185.941 21.9181C182.895 14.713 181.699 6.37131 178.503 -0.610524C169.067 -21.7793 166.553 -47.3559 124.233 -48.7865C121.076 -48.9483 118.875 -49.867 109.123 -46.0159C94.91 -34.4572 96.9233 -30.4877 101.8 -27.8293C104.154 -28.0935 107.999 -29.1505 108.473 -28.3294C114.306 -16.7803 133.984 -13.5671 133.878 1.68437C133.838 14.6394 139.825 24.5259 146.349 33.8967C161.356 55.0656 158.55 86.3819 177.943 105.018C184.862 111.698 174.836 127.613 184.173 132.692C190.507 135.945 195.498 140.248 193.867 147.553C192.207 154.807 201.197 156.39 191.093 168.314C186.281 173.966 174.026 187.952 205.982 169.502C208.906 167.814 211.822 169.005 208.628 171.191C181.853 189.933 198.902 186.18 205.182 187.892L207.178 187.492L204.644 188.407C187.872 198.912 186.011 203.887 198.384 199.753C218.689 192.957 217.628 198.838 213.524 206.682C210.169 212.93 204.609 219.218 217.931 216.727C227.974 214.829 218.226 227.368 234.773 222.262C236.415 220.767 232.035 221.38 238.299 218.242C237.343 219.479 236.177 220.836 235.22 222.073C217.141 241.406 217.708 240.941 241.584 235.025C250.616 232.822 255.229 234.059 239.32 245.091C237.443 245.217 235.357 245.463 233.51 245.64C232.763 246.276 231.27 247.549 231.509 247.48C233.385 247.354 235.442 247.056 237.498 246.759C227.939 255.767 254.576 243.057 243.585 252.961C242.66 253.289 241.617 253.412 241.02 253.825C238.782 255.255 239.199 255.493 241.972 254.508C253.44 254.113 265.685 253.134 252.238 267.466C250.026 269.906 251.571 271.135 252.312 272.418C257.888 280.147 263.882 287.634 267.996 296.207C272.227 305.465 275.264 315.549 283.702 322.446C287.773 325.638 286.801 331.673 280.848 340.173C294.038 341.795 293.019 343.889 271.321 358.401L269.499 360.069L270.605 358.609C272.045 355.314 270.531 353.657 267.764 352.722C256.276 359.355 254.798 365.477 242.118 372.456L236.162 362.141C245.215 362.867 258.551 355.578 268.272 352.155C274.123 347.819 281.882 342.929 279.684 341.051C276.506 337.959 263.396 339.37 265.882 334.992C273.427 322.014 255.432 323.646 262.142 311.15C265.916 304.181 255.582 303.647 253.661 298.872C252.685 296.699 253.746 290.338 248.557 292.445C222.673 302.599 232.891 292.321 240.186 283.251C243.923 278.63 238.262 279.435 235.345 278.724L233.527 278.953L235.883 278.209C249.115 265.916 228.648 277.254 224.239 277.336C221.348 278.116 220.754 277.569 223.113 275.386C213.47 273.153 226.831 257.707 213.01 257.886C206.451 260.031 206.366 258.438 210.847 254.14C210.26 251.194 218.027 243.905 210.37 244.631C191.093 246.455 186.201 238.947 184.203 230.179C180.297 211.838 175.318 194.049 175.172 173.537C174.973 151.004 163.526 134.554 160.552 113.485C158.512 98.8571 140.688 93.0679 144.256 75.6125C148.156 56.8022 134.272 48.1907 132.921 32.3439C131.045 12.6944 109.149 4.19294 106.557 -15.2487C106.065 -19.9597 108.856 -26.7027 100.397 -26.8826C90.3566 -25.9438 90.9993 -31.5836 89.0157 -35.5017C75.4235 -61.4559 53.7447 -82.6045 33.1104 -104.356C32.3385 -105.211 33.805 -107.494 31.8689 -107.471C24.6607 -107.415 24.7686 -113.499 5.52631 -103.415C-7.71962 -96.4521 -26.0965 -77.1523 -23.7262 -73.0468C-20.5856 -67.6071 -17.4153 -62.116 -12.8126 -57.5204C-3.51688 -48.655 -3.67933 -34.4658 -4.37802 -20.2406C-4.9154 -10.0773 -1.75247 -2.18711 2.27558 5.272C15.5137 30.1306 20.5765 59.6408 30.4432 86.3774C35.378 99.2659 36.9709 114.084 41.488 127.214C44.971 137.587 42.6651 151.44 46.0873 162.192C53.1067 184.961 56.3666 209.902 67.5929 230.311C80.6547 254.382 94.9994 277.78 111.821 299.681C132.824 327.377 160.094 351.456 178.382 380.721C190.654 400.047 206.954 417.185 215.198 438.7C226.634 468.637 244.394 495.058 249.714 528.389C253.019 548.102 256.981 567.506 266.076 583.74C279.287 607.588 284.323 636.087 304.248 656.127C310.722 662.516 304.782 676.346 311.851 682.802C323.852 693.459 324.992 710.386 332.815 723.454C341.588 737.684 344.034 755.91 352.598 770.261C361.724 786.067 364.495 805.337 371.681 822.126C374.461 828.869 374.107 837.421 374.38 845.611C374.662 860.57 372.02 877.217 387.667 883.579C389.898 884.549 388.401 887.261 388.693 889.213C391.02 907.234 392.871 925.392 399.674 941.034C403.785 950.566 407.298 960.991 409.827 971.642C412.855 984.605 416.032 997.825 424.818 1007.74C426.51 1009.7 430.139 1011.17 436.637 1009.4C453.659 1004.63 462.263 1006.03 474.532 1007.02C492.622 983.849 464.707 986.144 480.673 966.046C490.546 961.441 492.151 962.773 494.084 963.709C493.337 964.346 492.77 964.81 492.023 965.446C492.8 964.861 493.576 964.276 494.561 963.571C532.502 945.839 535.577 943.448 532.121 934.085C531.235 931.586 529.961 929.379 529.493 926.639C529.256 926.228 532.212 923.632 533.883 922.667C537.434 920.617 543.192 917.566 542.59 919.419C539.428 930.824 557.504 912.451 561.827 911.255L562.631 911.201ZM502.149 946.326L501.669 947.424L500.299 947.462L502.179 946.377L502.149 946.326ZM70.263 38.6178L62.0558 24.4026C64.774 21.8753 69.3083 19.5996 68.7988 20.6464C64.364 29.3651 78.5463 27.8825 70.2926 38.6691L70.263 38.6178ZM127.021 228.091C125.472 228.301 123.893 228.46 122.552 228.55C110.689 221.509 100.706 213.383 106.835 196.022C108.158 192.042 106.886 189.356 103.912 187.583C89.0779 178.289 99.2466 154.901 90.081 142.403C89.5774 141.53 91.7593 139.039 92.4792 137.392C93.2554 136.807 94.0019 136.17 94.5693 135.706C93.7931 136.291 93.0169 136.876 92.0318 137.581C85.6481 121.219 78.6379 105.218 89.7071 79.5312C88.996 78.2996 88.4937 76.9473 87.9915 75.5951C84.4734 76.7368 84.3267 76.0004 86.8656 73.645C83.3204 64.1281 70.1082 60.0556 77.9306 44.1808C77.1665 50.575 92.8138 47.2886 89.2455 55.0964C85.6476 62.8529 96.9665 62.6814 87.5515 73.3859L88.0848 74.3096L88.6181 75.2333C95.4159 73.0192 95.9478 74.4228 90.8403 79.0822C90.7781 79.9392 90.7455 80.8475 90.8922 81.5839C97.5513 95.5296 108.059 107.459 110.064 123.955C111.63 137.762 117.582 149.036 119.328 162.671C122.004 183.706 134.436 199.451 123.537 227.845C125.116 227.686 130.874 224.635 127.289 228.073L127.021 228.091ZM134.299 234.426C132.003 235.273 126.693 238.134 127.444 236.058C127.624 235.406 131.058 232.671 132.788 231.809C137.055 229.551 139.826 229.046 140.239 230.244C140.714 231.065 138.326 232.718 134.091 234.547L134.299 234.426ZM140.083 252.162L137.608 253.18C127.566 254.599 125.013 251.625 132.098 243.155C132.845 242.519 133.682 241.557 134.338 241.246C136.277 240.264 138.276 239.384 140.274 238.504L142.45 237.932L139.886 238.796C137.32 240.141 134.814 241.588 132.575 243.017C134.412 246.199 136.249 249.38 138.116 252.613L140.083 252.162ZM141.101 260.196L140.446 260.026L143.012 258.682L141.101 260.196ZM203.973 290.952L201.169 292.366L203.259 290.68L203.973 290.952ZM218.72 319.388C218.364 318.772 217.979 318.105 217.623 317.489C215.895 317.871 213.569 318.666 212.408 318.584C210.949 318.469 208.565 318.682 212.387 315.654C213.339 315.857 214.292 316.06 215.244 316.262C216.197 316.465 217.358 316.547 218.311 316.75C220.516 316.229 226.067 312.819 224.869 315.085C224.449 315.806 220.899 317.856 218.481 319.457L218.72 319.388ZM234.216 355.875C228.037 350.479 223.35 344.29 220.751 336.895C218.92 331.794 209.631 330.657 218.57 319.611C221.12 333.192 235.843 339.882 234.216 355.875ZM289.843 359.613C285.546 362.299 283.459 363.025 284.088 361.704C284.868 360.159 286.75 358.114 288.394 356.138C290.302 355.584 293.941 354.168 293.85 354.494C293.071 356.038 291.159 358.032 290.023 359.441L289.843 359.613ZM280.54 401.864C279.588 401.662 278.635 401.459 277.683 401.256C276.73 401.053 275.778 400.851 274.825 400.648C257.677 397.958 260.909 383.297 254.712 374.011C257.349 378.578 268.077 376.901 281.79 373.158L283.787 372.757L281.431 373.501C265.975 382.425 266.267 384.378 272.49 385.027C278.684 385.625 297.482 374.772 300.028 379.665C281.147 388.445 267.688 396.968 275.781 399.891C277.51 399.509 279.656 398.885 280.579 399.037C282.038 399.152 284.63 398.819 280.332 401.985L280.54 401.864ZM284.89 420.975L286.683 419.256C277.715 420.123 276.504 416.58 281.113 409.608C293.039 405.665 304.965 401.722 317.13 397.709C309.779 405.237 298.231 412.246 286.951 419.238L284.682 421.096L284.89 420.975ZM369.469 317.61L369.74 316.632L371.319 316.473L369.439 317.558L369.469 317.61ZM350.582 533.308C357.908 533.458 349.659 542.805 365.048 536.178L366.662 534.63L365.764 535.97C361.996 541.019 357.124 546.569 354.906 550.928C351.821 556.678 357.691 555.752 371.744 547.776L373.566 546.108L372.43 547.516C367.471 552.432 365.79 556.756 352.753 563.599C345.087 557.556 343.835 548.152 350.79 533.188L350.582 533.308ZM350.334 526.609C352.541 525.608 354.628 524.882 356.686 524.105C355.133 525.275 353.699 526.65 352.208 527.443C350.269 528.426 348.152 529.1 346.303 529.757C345.918 529.09 347.232 527.989 350.334 526.609ZM315.139 464.203C330.784 461.877 332.939 468.022 328.562 477.323C322.326 490.64 326.534 497.927 336.559 501.786C342.956 504.183 332.791 516.483 348.886 513.007C349.87 512.781 344.313 518.111 338.785 523.971C332.919 513.81 325.913 506.017 323.085 495.812C320.168 485.454 309.225 479.524 315.11 464.152L315.139 464.203ZM318.053 456.226L320.469 455.105L318.29 456.637L318.023 456.175L318.053 456.226ZM291.283 424.811C303.441 422.718 305.929 427.509 319.76 423.971C297.663 442.134 323.715 435.646 312.83 450.073C292.193 448.576 297.333 433.361 291.283 424.811ZM362.052 385.8C359.041 386.854 358.356 386.634 361.163 384.26C361.46 384.773 361.756 385.287 362.052 385.8ZM380.425 416.658C367.189 410.614 356.489 403.176 362.886 385.797C365.836 385.6 370.874 384.196 371.287 385.395C374.89 395.494 377.449 406.196 380.425 416.658ZM436.494 461.195C430.825 464.4 425.605 466.935 421.373 467.804C425.522 464.861 429.462 462.039 433.582 459.045C434.533 459.727 435.513 460.461 436.255 461.264L436.494 461.195ZM440.868 491.924C438.721 492.548 437.172 492.758 435.205 493.209C437.711 491.762 440.367 490.092 442.874 488.645C446.633 486.474 450.393 484.304 454.152 482.133C454.269 482.818 455.102 483.296 454.086 484.43C450.679 488.176 445.667 490.59 440.898 491.975L440.868 491.924ZM461.127 500.002C457.994 501.811 456.295 502.245 456.477 501.113C456.359 500.908 458.09 499.566 459.105 498.912C462.238 497.103 463.937 496.669 463.755 497.801C463.873 498.006 462.083 499.245 461.336 499.882L461.127 500.002ZM442.042 526.758C436.172 527.685 431.7 529.103 431.732 528.195C431.838 512.943 420.845 504.032 414.029 492.708C405.526 477.98 397.022 463.252 389.354 448.041C384.707 438.545 373.914 432.391 380.425 416.658C396.933 414.38 392.313 425.189 391.278 432.561C390.24 440.892 414.895 433.432 402.012 448.26C397.349 453.689 399.873 456.131 404.458 456.837C410.025 457.797 422.326 448.232 431.809 444.399C410.814 459.485 406.828 467.534 419.851 468.546C416.774 481.544 415.367 493.578 435.026 493.381C425.156 506.675 427.807 506.444 455.284 491.812L457.166 490.247L456.238 491.535C423.31 516.02 441.746 516.598 441.863 526.93L442.042 526.758ZM470.62 522.233C468.384 523.183 466.237 523.806 464.12 524.481C465.882 523.19 467.883 521.35 469.613 520.488C471.761 519.385 473.549 519.106 475.636 518.38C475.692 519.442 473.961 520.784 470.591 522.182L470.62 522.233ZM442.489 546.344C448.29 539.026 430.373 544.17 446.83 529.263C445.319 536.293 452.765 536.648 442.489 546.344ZM374.703 593.417C373.747 594.174 372.553 595 371.598 595.757L364.635 583.697C366.724 582.492 368.813 581.286 370.692 580.2C372.109 584.583 373.316 589.086 374.703 593.417ZM394.727 580.83L396.607 579.744L396.097 580.791L394.936 580.709L394.727 580.83ZM454.771 562.311C446.941 561.29 449.038 557.205 450.3 553.603C450.811 552.076 450.845 550.688 452.281 548.833C458.41 541.12 475.685 531.489 483.907 531.258C486.647 531.181 487.324 533.801 480.673 536.751C448.819 551.037 460.876 553.108 454.533 562.381L454.771 562.311ZM381.855 611.594C377.297 611.899 376.678 609.862 378.538 605.367C382.202 605.441 384.853 605.21 386.52 605.685C388.484 606.193 389.613 607.184 381.885 611.645L381.855 611.594ZM488.346 550.523C488.346 550.523 486.198 551.626 485.124 552.177C484.976 551.921 484.739 551.51 485.276 550.995C487.636 548.811 489.575 547.828 490.258 548.529C490.376 548.734 489.331 549.817 488.346 550.523ZM456.763 573.478C456.763 573.478 453.514 574.122 453.188 573.558C452.328 572.549 451.08 571.354 456.989 567.6C461.257 564.862 462.714 565.458 463.457 566.261C463.541 567.854 462.76 569.879 456.763 573.478ZM453.66 721.493L452.285 722.97L450.434 724.587L451.57 723.178L453.69 721.544L453.66 721.493ZM504.238 691.402C507.894 693.876 516.809 690.987 510.827 698.956C503.32 699.459 501.15 698.112 504.238 691.402ZM435.649 708.627L434.066 710.225L432.244 711.893L433.35 710.433L435.649 708.627ZM425.897 683.535L428.431 682.619C431.711 681.546 432.066 682.162 429.498 684.466C430.21 685.218 431.967 685.367 431.576 686.619C431.276 687.545 427.189 689.631 426.804 688.964C426.329 688.143 427.765 686.288 428.335 684.864C428.874 683.868 428.608 683.407 427.476 683.376L425.867 683.483L425.897 683.535ZM401.18 662.43C413.168 657.629 409.579 662.507 408.228 665.955L410.613 665.263L407.899 666.351C401.85 667.449 397.441 667.53 401.389 662.309L401.18 662.43ZM409.078 651.027L411.732 649.837L409.583 651.42L409.287 650.907L409.078 651.027ZM478.407 576.72C470.408 582.159 461.515 587.498 457.556 586.911C454.817 586.508 461.863 580.866 467.267 576.719C470.342 574.328 474.46 571.814 478.072 569.386C478.996 569.058 480.188 568.712 480.994 568.178C483.233 566.749 482.996 566.338 480.402 567.152C481.221 562.3 489.427 557.219 500.762 551.77C500.659 556.414 495.068 563.131 490.582 569.348L492.967 568.656L490.432 569.572C486.464 571.863 482.197 574.121 478.824 576.478L478.407 576.72ZM394.005 632.155C392.665 631.765 391.088 631.444 390.375 630.692C390.02 630.076 390.291 629.099 390.353 628.242C395.335 625.776 393.421 628.25 395.357 628.227C394.936 629.427 394.575 630.731 394.005 632.155ZM504.637 580.187C501.356 581.739 498.854 581.747 497.364 582.06C494.208 581.418 497.552 579.009 502.027 576.631C506.681 574.08 509.273 573.747 510.075 574.653C510.667 575.679 509.857 577.652 504.637 580.187ZM474.416 625.279C478.821 616.509 473.53 613.132 472.057 607.687C470.851 602.704 461.859 601.6 472.412 589.007C482.599 588.805 479.098 594.316 477.356 599.017C475.343 604.695 476.254 608.685 497.142 596.146C506.452 590.566 509.582 589.717 508.052 593.337C506.522 596.958 510.841 596.722 516.564 595.539L518.381 595.311L515.996 596.003C496.69 604.368 485.446 612.547 482.264 620.542C482.264 620.542 478.355 622.936 474.625 625.158L474.416 625.279ZM511.002 612.435C507.426 612.994 504.534 613.774 502.837 613.728C499.889 613.446 502.877 610.421 508.129 606.977C512.367 604.188 516.183 603.08 515.761 604.761C515.369 606.493 513.067 609.259 511.002 612.435ZM484.251 633.148C482.731 633.41 479.899 634.293 480.109 633.692C480.65 632.217 481.73 629.746 484.147 628.145C490.146 624.065 488.32 627.173 488.676 627.788C489.209 628.712 489.145 630.049 484.281 633.2L484.251 633.148ZM517.772 619.338C516.102 619.822 513.389 620.91 512.704 620.69C511.811 620.589 512.709 619.25 512.8 618.444C514.5 618.011 515.99 617.698 517.689 617.264C517.776 617.898 517.864 618.532 517.951 619.166L517.772 619.338ZM550.343 692.153C540.401 700.014 531.696 702.303 528.003 702.177C522.822 701.884 534.404 693.486 537.694 689.055C527.884 682.676 518.91 675.815 529.12 658.288C527.869 658.531 526.288 659.17 524.558 660.032C521.49 660.025 520.035 658.47 511.441 663.842C509.799 664.858 507.44 667.042 507.498 667.624C507.459 670.452 515.037 666.213 520.794 663.642C513.509 669.354 506.433 674.945 493.565 684.974C501.55 674.205 497.328 671.716 496.03 667.539C495.441 665.553 490.438 665.088 501.033 658.356C525.445 642.756 510.725 644.755 512.2 639.592C512.683 637.534 506.867 640.003 500.422 643.792C495.409 646.686 494.534 650.476 488.871 651.761C485.175 652.595 487.598 649.075 491.749 645.652C501.484 637.431 512.528 629.549 528.812 622.543C525.566 632.354 524.467 641.063 527.394 648.063C517.043 653.286 508.307 656.003 503.224 662.633C507.417 664.591 539.11 644.72 529.897 657.703C544.163 657.814 543.093 667.053 543.157 675.364C543.293 679.459 544.506 682.043 554.015 679.701C557.115 678.8 557.471 679.416 555.141 681.651C550.688 686.48 546.235 691.308 550.731 691.86L552.579 691.683L550.403 692.255L550.343 692.153ZM524.196 720.181L522.344 721.798L523.689 720.269C524.705 719.135 525.065 718.311 525.186 717.557C527.635 715.527 530.084 713.497 532.741 711.347C527.137 712.735 524.686 715.724 521.759 718.372C513.921 719.75 510.139 719.47 527.324 710.164C538.989 703.84 546.171 702.773 554.967 699.679C555.776 698.185 556.584 696.692 557.393 695.199C559.242 694.542 561.12 693.936 562.969 693.28C560.55 695.36 558.31 697.269 555.891 699.35C549.731 707.492 535.208 713.208 524.375 720.01L524.196 720.181ZM543.2 719.815L544.157 718.578L546.247 716.893L545.111 718.301L543.2 719.815ZM455.739 772.364C451.148 773.577 456.878 769.995 457.328 768.846C459.209 767.281 460.852 765.785 462.733 764.22C466.248 764.038 458.762 767.471 458.55 768.551C457.623 769.839 456.666 771.075 455.739 772.364ZM535.424 769.054C530.926 769.462 532.398 765.259 531.183 763.155C536.009 762.832 539.492 763.558 547.543 760.62C552.024 756.323 556.714 751.904 561.195 747.607C560.839 746.991 560.454 746.324 560.098 745.708C562.605 744.261 565.111 742.814 567.588 741.315C565.589 742.195 563.77 742.903 561.831 743.886C561.414 744.127 560.815 745.02 560.098 745.708C553.332 747.493 549.43 747.488 556.687 741.246C560.419 738.064 566.804 734.652 571.365 733.387C581.202 730.65 572.396 737.102 568.094 741.228C565.735 743.412 563.584 745.474 561.224 747.658C570.04 747.974 556.794 754.937 547.841 760.654C544.049 763.733 541.859 768.623 535.484 769.156L535.424 769.054ZM580.754 770.39C562.478 775.877 546.67 783.225 559.518 769.786C565.943 763.066 555.954 766.507 544.587 772.864C542.496 774.55 546.668 774.058 540.583 777.024C541.748 775.666 542.914 774.309 543.901 773.124C549.879 766.114 556.656 760.97 567.026 759.636C579.451 758.004 570.722 768.449 580.962 770.269L580.754 770.39ZM570.202 782.503C570.202 782.503 569.011 782.369 569.311 781.923C572.959 777.148 579.846 775.088 585.812 771.917L587.396 770.318L586.528 771.709C582.019 775.475 577.867 779.378 570.382 782.331L570.202 782.503ZM550.535 795.226L550.806 794.249L552.385 794.09L550.505 795.175L550.535 795.226ZM559.37 808.6C547.971 805.738 563.257 794.108 582.152 780.53C591.596 780.004 582.367 788.138 581.849 792.063C575.229 794.586 574.494 791.383 566.107 797.115C556.108 803.914 569.255 800.156 559.37 808.6ZM566.517 819.048L566.245 820.026L564.875 820.064L566.546 819.1L566.517 819.048ZM588.085 817.817L589.639 816.168C585.004 812.48 576.072 810.999 598.711 790.881C592.688 802.638 613.015 798.292 590.145 816.08L588.114 817.869L588.085 817.817ZM594.884 824.771C592.021 826.082 589.128 827.342 586.474 828.532C583.937 829.928 581.372 831.273 578.866 832.72C575.315 834.77 571.764 836.82 568.422 838.749C567.833 836.763 574.127 833.677 578.126 830.957C580.305 829.425 582.782 827.927 585.199 826.326L587.469 824.468L585.885 826.067L586.419 826.99L586.952 827.914C589.666 826.826 592.35 825.687 595.064 824.599L594.884 824.771ZM601 831.504C599.84 830.942 598.859 830.208 597.67 829.595L595.464 830.116L598.028 829.251C603.219 826.665 609.603 823.253 610.551 824.895C611.173 825.972 620.627 822.088 613.105 827.389C607.971 831.037 603.053 832.166 601.179 831.332L601 831.504ZM603.902 846.661C596.571 847.951 589.031 849.362 581.521 850.824C599.635 842.647 607.096 841.259 603.902 846.661Z" fill="#F68428"/>
<path d="M350.133 289.908L351.717 288.309L349.418 290.116C342.107 294.336 335.784 297.372 335.166 294.854C330.327 270.073 309.793 254.285 303.701 230.227C302.846 227.299 295.549 227.201 306.686 218.514C313.1 215.153 316.14 214.629 316.017 215.864C315.891 227.705 324.329 234.602 329.843 243.188C331.947 246.832 335.783 248.653 343.14 248.854C361.129 249.142 370.552 255.334 365.358 269.007C363.106 274.754 357.311 280.153 369.172 278.026C376.712 276.615 366.797 285.488 354.711 293.013C352.862 293.67 351.222 294.206 349.732 294.519C349.707 293.028 349.92 291.468 349.895 289.977L350.133 289.908Z" fill="#F68428"/>
<path d="M234.552 69.9399C249.295 70.392 251.304 75.8009 244.152 86.567C228.299 89.0143 225.037 84.3289 234.552 69.9399Z" fill="#F68428"/>
<path d="M215.373 49.7433C234.897 44.9714 236.79 49.2155 228.174 61.7853C214.172 62.6162 213.77 57.5794 215.373 49.7433Z" fill="#F68428"/>
<path d="M267.952 154.32C282.489 153.933 282.292 159.862 283.639 167.501C262.539 171.472 264.615 164.457 267.952 154.32Z" fill="#F68428"/>
<path d="M247.087 91.1678C247.158 97.0796 262.954 94.0498 251.151 106.407C242.069 105.629 236.149 103.094 247.087 91.1678Z" fill="#F68428"/>
<path d="M294.151 187.638C301.627 187.564 301.198 191.644 298.889 196.809C289.871 197.59 288.292 194.533 294.151 187.638Z" fill="#F68428"/>
<path d="M215.862 25.9912C222.465 29.227 224.777 32.75 222.815 41.4097C213.319 39.4337 205.188 39.3384 215.862 25.9912Z" fill="#F68428"/>
<path d="M261.704 152.179C262.287 146.437 260.747 143.768 268.873 135.655C272.917 137.837 276.815 139.281 261.704 152.179Z" fill="#F68428"/>
<path d="M255.272 122.228C251.579 122.102 248.036 121.753 254.01 116.183C263.553 112.452 260.651 116.591 260.167 119.128C260.044 120.363 256.761 122.395 255.272 122.228Z" fill="#F68428"/>
<path d="M299.966 214.593C300.895 212.825 302.987 210.659 307.253 208.402C308.744 207.609 311.307 207.224 311.603 207.737C312.137 208.661 310.761 210.619 306.404 213.202C301.839 215.907 300.111 215.809 299.757 214.713L299.966 214.593Z" fill="#F68428"/>
<path d="M283.544 178.914C282.713 177.957 277.976 178.434 284.78 174.301C291.374 170.288 292.561 171.861 291.572 174.006C291.001 175.43 288.283 177.957 286.609 179.881L285.417 180.228C284.643 179.853 283.87 179.478 283.306 178.983L283.544 178.914Z" fill="#F68428"/>
<path d="M212.308 19.3531C212.308 19.3531 214.364 19.0555 214.036 19.4507C213.258 20.5155 211.556 21.9087 210.331 23.1633C209.199 23.1325 208.038 23.0503 207.115 22.8989C207.924 21.4056 209.923 20.0458 212.308 19.3531Z" fill="#F68428"/>
<path d="M262.617 126.267L261.391 128.001L259.484 128.076L262.617 126.267Z" fill="#F68428"/>
<path d="M303.452 204.712L300.585 206.982L299.723 206.454L303.452 204.712Z" fill="#F68428"/>
<path d="M285.655 180.158L286.848 179.812C285.651 181.598 284.248 182.545 283.266 182.291C283.207 182.188 284.729 180.967 285.685 180.21L285.655 180.158Z" fill="#F68428"/>
<path d="M215.099 256.68C214.447 255.551 213.377 254.663 212.487 253.604C219.166 251.184 225.219 249.127 215.099 256.68Z" fill="#F68428"/>
<path d="M225.969 276.474C225.643 275.909 225.288 275.294 224.962 274.729C229.047 273.123 229.612 273.618 225.969 276.474Z" fill="#F68428"/>
</g>
<defs>
<clipPath id="clip0_44_650">
<rect width="1196.17" height="324.142" fill="white" transform="matrix(0.5 0.866025 0.866025 -0.5 -161 -6.9292)"/>
</clipPath>
</defs>
</svg>
