<svg width="1885" height="7031" viewBox="0 0 1885 7031" fill="none" xmlns="http://www.w3.org/2000/svg">
<g opacity="0.2" clip-path="url(#clip0_44_277)">
<path d="M521.514 6830.43C513.517 6815.01 498.212 6799.97 485.849 6784.64C472.226 6788.66 460.936 6786.38 451.884 6778.48C431.665 6782.97 430.124 6731.86 401.696 6769.01C374.124 6805.23 352.452 6763.15 326.882 6759.22C316.164 6789.09 301.368 6816.99 336.719 6849.49C352.168 6863.51 341.048 6875.54 325.234 6884.83C318.87 6888.82 305.438 6891.47 293.909 6890.9C278.773 6890.17 270.433 6882.37 267.738 6875.72C263.483 6864.67 259.94 6853.71 259.291 6842.82C255.372 6762.09 242.202 6680.06 286.056 6605.33C293.618 6592.8 286.477 6576.46 282.701 6561.99C271.655 6521.74 276.36 6483.01 293.682 6447.44C324.329 6384.11 300.894 6313.19 330.781 6250.1C322.298 6243.34 323.776 6237.97 334.505 6233.89C327.74 6220.05 309.636 6204.26 345.991 6198.55L352.579 6203.31L348.174 6198.51C327.869 6162.2 382.146 6132.16 335.273 6093.86C332.666 6091.75 329.3 6089.89 327.405 6087.88C327.405 6087.88 333.481 6085.94 334.193 6086.04C337.607 6087.57 340.213 6089.68 343.58 6091.54C356.956 6094.46 381.656 6109.78 381.678 6094.09C381.512 6043.52 385 5992.77 378.998 5942.43C376.373 5919.75 418.531 5903.7 385.731 5878.88C382.741 5879.5 378.847 5881.4 376.712 5881.1C368.269 5879.22 370.076 5876.68 380.422 5875.34C380.138 5841.14 408.462 5809.9 371.647 5772.32C369.04 5770.21 366.385 5768.45 364.49 5766.44C364.538 5766.1 369.903 5764.06 371.278 5764.6C374.692 5766.13 377.347 5767.89 380.713 5769.76C400.837 5765.96 421.824 5756 415.666 5748.17C380.146 5701.35 403.455 5659.3 391.609 5614.42C384.482 5587.62 346.62 5552.33 424.925 5542.39C432.794 5548.38 439.143 5554.84 448.53 5560.34C457.158 5566.09 472.286 5572.04 481.64 5567.43C491.801 5562.23 478.096 5556.47 465.575 5552.62C453.054 5548.78 440.533 5544.93 428.012 5541.08C422.039 5537.11 416.777 5533.23 410.804 5529.26C378.804 5509.08 379.498 5488.61 401.675 5475.34C428.554 5459.59 464.337 5489.01 504.857 5489.81C479.597 5468.14 459.175 5448.19 434.243 5429.36C402.107 5404.98 381.08 5342.77 410.525 5324.24C434.365 5309.46 439.704 5292.08 443.764 5273.47C416.922 5263.09 387.186 5252.64 428.625 5241.72C438.292 5250.4 447.248 5258.97 456.915 5267.65C473.618 5267.55 491.079 5267.21 507.782 5267.11C514.419 5271.53 518.585 5278.04 533.2 5277.3C531.921 5276.07 532.208 5274.02 530.122 5273.38C523.197 5271.01 516.225 5268.99 508.589 5266.53C487.352 5252.39 457.656 5246.84 427.961 5241.28C441.12 5230.22 464.242 5220.57 435.464 5203.29C433.138 5204.35 431.571 5205.18 429.244 5206.25C430.859 5205.08 433.186 5204.01 434.753 5203.19C455.843 5187.32 374.005 5144.82 473.5 5149.36C471.892 5145.3 471.708 5141.44 468.63 5137.52C399.004 5049.32 360.846 5021.31 567.148 4993.76C555.799 4966.03 489.425 4994.37 484.193 4969.58C478.393 4943.67 478.335 4918.21 461.006 4891.73C456.791 4885.56 476.06 4882.69 489.628 4884.24C555.287 4892.05 556.946 4859.51 595.915 4850.69C613.041 4852.74 629.504 4854.35 646.63 4856.4C654.546 4862.04 661.751 4867.59 669.715 4872.89C678.774 4875.55 680.894 4886.31 696.276 4880.1C687.929 4877.53 679.581 4874.97 671.234 4872.4C664.029 4866.86 656.113 4861.22 648.909 4855.68C631.51 4845.22 613.392 4839.89 592.692 4847.79C541.697 4838.9 544.163 4873.06 486.9 4867.47C490.222 4833.43 403.348 4795.8 468.635 4764.86C394.37 4735.63 489.577 4719 455.265 4689.43C420.434 4658.41 486.746 4640.86 490.532 4613.85C498.681 4555.73 529.505 4501.49 506.439 4438.29C490.699 4395.3 485.265 4346.08 627.99 4347.62C572.275 4320.63 513.283 4296.33 520.963 4267.42C531.648 4227.44 482.279 4175.89 562.933 4149.2C562.14 4139.33 557.694 4129.65 542.238 4120.86C539.2 4121.82 535.21 4124.4 533.835 4123.86C524.728 4121.54 526.487 4119.34 538.919 4118.65C540.158 4114.99 541.445 4110.98 542.732 4106.98C527.508 4101.71 513.14 4095.51 512.963 4086.42C513.154 4085.05 525.779 4082.99 529.241 4084.17C547.215 4090.53 543.882 4098.78 544.203 4106.84C568.268 4100.8 584.514 4088.44 568.873 4075.79C525.742 4041.85 546.287 4009.17 529.868 3976.19C512.93 3941.75 530.444 3904.81 531.823 3869.1C532.914 3835.44 544.064 3802.49 523.623 3761.97C578.416 3769.66 599.702 3783.45 600.767 3801.72C601.792 3815.11 593.374 3828.58 631.801 3833.96C660.265 3837.95 686.089 3829.72 694.027 3819.68C707.002 3804.77 655.24 3801.34 646.907 3788.32C645.723 3786.41 647.482 3784.22 647.913 3781.14C674.217 3769.49 733.114 3794.48 750.845 3771.52C756.353 3768.46 777.797 3770.77 763.244 3760.71C757.736 3763.77 752.987 3766.59 747.479 3769.65C733.862 3768.44 720.198 3767.57 706.63 3766.02C554.436 3749.21 563.735 3750.17 553.972 3674.89C530.692 3494.19 573.927 3320.37 539.214 3138.42C596.839 3089.67 532.5 3020.69 585.856 2971.35C598.303 2960.2 600.693 2948.33 580.879 2934.4C579.312 2935.23 576.985 2936.29 575.418 2937.12C577.033 2935.95 579.312 2935.23 580.927 2934.06C543.75 2883.53 603.351 2846.57 599.668 2800.38C595.609 2751.71 566.172 2697.73 633.225 2659.37C638.781 2655.97 616.736 2642.42 615.04 2633.81C607.88 2596.9 597.21 2559.15 630.659 2527.59C655.65 2504.6 653.128 2476.01 655.539 2448.46C661.074 2393.46 718.739 2349.6 728.591 2294.86C746.186 2200.41 759.608 2104.69 833.035 2020.86C804.284 1951.64 866.33 1897.24 879.467 1834.59C910.808 1683.51 1004.43 1543.6 1027.95 1391.42C1031.06 1369.19 1047.46 1350.58 1089.84 1343.27C1112.15 1339.43 1132.25 1351.31 1151.46 1359.23L1158.19 1362.96L1153.73 1358.51C1159.57 1327.25 1054.8 1324.07 1062.77 1293.11C1069.88 1268.31 1077.74 1243.27 1089.83 1219.17C1108.05 1182.33 1076.28 1134.65 1145.88 1109.2C1153.75 1115.18 1160.81 1121.75 1170.19 1127.25C1178.21 1132.21 1187.92 1140.54 1199.94 1132.47C1201.55 1131.3 1191.64 1124.33 1184.82 1121.28C1173.91 1116.27 1160.68 1112.32 1148.92 1108.23C1123.49 1072.25 1127.99 1040.11 1141.42 1006.43C1198.75 861.435 1243.38 713.958 1239.66 559.354C1239.13 532.088 1254.71 514.055 1321.18 521.282L1327.11 525.599L1323.46 520.556C1305.68 507.606 1352.54 489.076 1280.29 476.506C1249.84 471.191 1271.71 439.397 1320.97 434.799C1336.39 433.476 1348.69 428.576 1362.93 425.343C1278.53 385.622 1320.08 358.331 1358.08 330.541C1343.95 322.634 1334.85 315.083 1350.99 308.631C1353.32 307.563 1360.53 307.877 1363.28 308.96C1388.04 318.705 1365.64 323.234 1362.54 329.772C1407.19 363.223 1373.51 391.27 1377.22 421.769C1408.21 449.122 1384.45 473.679 1396.98 508.552C1424.02 445.063 1419.31 385.489 1419.58 326.614C1420.07 250.687 1431.94 176.356 1483.47 108.98C1494.22 94.4503 1492.54 70.162 1543.96 81.2058C1591.87 91.4089 1575.85 112.519 1574.31 128.687C1571.76 152.035 1565.61 175.226 1560.83 198.958C1586.73 200.499 1586.75 190.043 1595.44 184.986C1616.67 173.321 1611.68 141.596 1672.44 158.481C1724.14 172.702 1701.38 195.307 1698.17 212.986C1679.53 314.952 1653.1 415.478 1639.43 518.143C1626.1 613.186 1597.07 706.376 1628.68 807.021C1636.23 830.74 1626.38 854.458 1620.98 877.406C1596.07 977.449 1612.58 1082.25 1604.09 1184.25C1589.9 1347.5 1622.17 1515.86 1587.26 1676.9C1573.31 1740.14 1578.96 1808.56 1571.37 1873.03C1562.77 1944.68 1573.1 2021.08 1516.02 2086.63C1493.59 2112.07 1538.9 2151.2 1527.84 2183.46C1505.64 2248.67 1480.5 2314.17 1474.04 2380.9C1465.8 2470.73 1445.56 2558.18 1424.56 2645.87C1404.56 2726.38 1394.48 2808.63 1374.49 2889.14C1346.52 3000.61 1304.99 3110.52 1280.68 3221.81C1256.52 3332.06 1210.25 3439.57 1203.21 3551.88C1196.79 3659.74 1175.38 3765.85 1175.32 3874.96C1175.35 3957.58 1140.98 4037.12 1160.17 4122.78L1148.97 4125.04L1153.23 4130.87C1156.46 4128.54 1159.03 4125.76 1160.17 4122.78C1172.4 4128.68 1171.68 4133.81 1161.71 4137.64C1143.62 4183.91 1113.42 4228.48 1148.7 4282.23C1155.89 4293 1157.82 4305.12 1152.16 4314.44C1106.88 4394.19 1154.15 4486.58 1123.19 4567.64C1083.09 4672.53 1129.19 4788.8 1077.75 4891.75C1069.81 4907.02 1080.17 4926.25 1084.99 4943.66C1105.34 5010.65 1077.17 5071.89 1071.86 5135.64C1068.62 5174.23 1079.57 5215.16 1072.93 5252.22C1056.47 5348.92 1062.07 5448.71 1043.57 5544.42C1010.97 5714.85 995.491 5887.33 996.383 6062.1C997.065 6150.39 1006.29 6239.88 997.053 6326.44C985.984 6436.44 990.57 6548.63 969.443 6657.92C959.359 6709.15 941.399 6759.62 937.008 6811.64C933.206 6849.1 878.225 6873.82 897.475 6917.65C907.456 6939.62 830.662 6954.3 789.566 6957.6C733.759 6962.32 724.854 6984.43 687.589 6996.64C587.158 6983.25 563.926 6936.77 515.957 6901.11C508.753 6895.57 509.856 6887.71 509.295 6881.35C505.767 6859.94 558.329 6868.01 569.21 6857.68C584.271 6843.41 529.847 6843.45 522.418 6829.16L521.514 6830.43ZM755.675 6899.16L750.878 6902.32L757.994 6903.32L756.386 6899.26L755.675 6899.16ZM1323.68 632.837C1323.68 632.837 1330.42 631.342 1330.56 630.316C1330.8 628.606 1328.29 625.814 1325.54 624.731C1315.87 621.283 1311.31 622.736 1314.15 628.363C1314.67 629.83 1320.31 630.97 1323.73 632.495L1323.68 632.837ZM1324.34 736.813C1324.58 735.103 1322.73 732.753 1321.55 730.844C1319.27 731.57 1314.86 731.997 1313.95 733.265C1312.29 734.775 1311.2 737.41 1313.14 739.077C1318.3 743.636 1323.52 742.625 1325.05 736.913L1324.34 736.813ZM1281.92 935.844L1281.07 931.542L1276.33 934.362L1282.63 935.944L1281.92 935.844ZM1291.92 978.381L1286.04 973.723L1292.68 978.139L1291.92 978.381ZM1217.64 1094.16C1217.64 1094.16 1224.43 1092.32 1226.09 1090.81C1229.71 1085.74 1226.53 1082.51 1217.75 1083.02C1215.57 1083.06 1215.14 1086.14 1214.14 1088.09C1215.32 1090 1216.46 1092.25 1218.35 1094.26L1217.64 1094.16ZM1277.35 1185.85C1283.14 1185.96 1290.35 1181.05 1291.55 1177.73C1292.5 1170.89 1286.96 1163.84 1269.55 1163.84C1263.76 1163.72 1260.1 1169.14 1255.35 1171.96C1255.81 1178.99 1260.64 1185.95 1278.06 1185.95L1277.35 1185.85ZM1229.68 1303.27C1235.1 1300.89 1244.02 1299.35 1245.16 1296.37C1247.4 1290.76 1270.33 1282.47 1244.62 1279.57C1225.31 1277.56 1227.47 1293.2 1229.68 1303.27ZM1419.92 1359.22C1423.35 1355.52 1427.43 1352.26 1427.96 1348.5C1428.39 1345.42 1424.55 1341.74 1422.85 1338.37C1420.19 1341.83 1415.44 1344.65 1414.91 1348.41C1414.48 1351.49 1417.6 1355.06 1419.97 1358.88L1419.92 1359.22ZM1436.1 1430.17L1433.78 1426.01L1429.69 1429.27L1435.39 1430.07L1436.1 1430.17ZM1132.37 1396.99L1131.53 1392.69L1126.78 1395.51L1132.37 1396.99ZM1390.21 1498.68C1414.8 1494.11 1431.8 1486.73 1421.62 1471.36C1419.86 1468.33 1402.51 1462.76 1401.7 1463.34C1383.04 1472.23 1384.16 1484.93 1390.21 1498.68ZM1390.91 1545.49C1395.18 1546.09 1400.16 1546.79 1403.1 1546.5C1411.36 1544.52 1411.22 1540.32 1403.07 1536.39C1401.03 1535.41 1393.86 1534.75 1390.87 1535.38C1382.61 1537.36 1382.8 1541.22 1390.15 1545.73L1390.91 1545.49ZM1371.76 1594.05C1372.75 1597.33 1379.49 1601.06 1384.08 1604.49C1396.69 1612.89 1410.92 1620.11 1426.64 1611.51C1430.58 1609.27 1431.02 1600.97 1428.22 1600.22C1408.01 1594.25 1400.08 1604.3 1384.8 1604.59C1383.85 1600.98 1385.85 1597.07 1382.01 1593.4C1378.32 1588.7 1371.01 1589.07 1372.47 1594.15L1371.76 1594.05ZM1092.6 1571.99C1089.67 1567.05 1086.73 1562.11 1083.8 1557.16L1076.3 1553.67L1080.76 1558.13C1084.45 1562.83 1088.86 1567.64 1092.55 1572.34L1092.6 1571.99ZM1400.38 1659.07C1400.38 1659.07 1394.87 1662.13 1396.15 1663.36C1396.72 1664.48 1402.36 1665.62 1405.82 1666.81C1408.86 1665.84 1413.99 1665.51 1414.18 1664.14C1416.46 1658.19 1410.92 1656.36 1400.38 1659.07ZM1053.86 1620.6C1060.84 1617.39 1058.43 1613.92 1047.9 1611.39C1045.05 1610.99 1039.12 1611.91 1039.02 1612.59C1038.78 1614.3 1042.1 1616.51 1044 1618.52C1047.55 1619.01 1053.05 1621.18 1053.86 1620.6ZM1409.71 1701.16L1408.15 1696.76L1403.36 1699.93L1409.76 1700.82L1409.71 1701.16ZM1264.17 2082C1264.17 2082 1258.09 2083.94 1255.05 2084.91C1256.24 2086.82 1257.42 2088.72 1258.65 2090.29C1262.31 2090.11 1268 2090.9 1270.33 2089.84C1278.11 2086.05 1275.65 2082.91 1264.88 2082.1L1264.17 2082ZM1274 2042.94L1265.12 2044.14L1259.57 2047.54L1267.07 2045.8L1273.95 2043.28L1274 2042.94ZM1373.83 2045.09L1379 2049.64L1385.73 2053.38L1381.99 2049.02L1374.49 2045.53L1373.83 2045.09ZM1394.09 2009.23C1388.83 2010.58 1383.51 2012.28 1378.19 2013.97C1380.89 2015.4 1383.6 2016.82 1386.3 2018.25C1390.9 2016.45 1396.22 2014.76 1400.78 2013.31C1398.08 2011.88 1394.09 2009.23 1393.38 2009.13L1394.09 2009.23ZM1286.27 1888.14L1280.81 1890.86L1287.12 1892.44L1286.27 1888.14ZM1391.38 1811.19L1396.5 1816.09C1401.22 1834.19 1353.33 1844.55 1386.47 1866.98C1384.28 1872.25 1378.48 1877.36 1380.61 1882.89C1381.55 1886.51 1396.64 1887.58 1397.21 1883.47C1397.93 1878.35 1391.49 1872.56 1387.94 1866.84C1431.56 1855.87 1432.53 1838.58 1397.97 1815.95L1391.34 1811.54L1391.38 1811.19ZM1296.31 1837.26L1290.85 1839.98L1297.15 1841.56L1295.59 1837.16L1296.31 1837.26ZM1322.91 1714.79L1322.06 1710.49L1316.6 1713.21L1322.91 1714.79ZM1010.46 1707.59L1014.55 1704.33L1007.43 1703.33L1009.75 1707.49L1010.46 1707.59ZM1408.33 1773.13L1410.18 1770.25L1401.55 1769.74L1408.38 1772.79L1408.33 1773.13ZM1302.03 1780.89C1302.03 1780.89 1305.66 1796.39 1315.43 1804.38L1322.92 1807.87L1317.71 1803.65C1308.61 1796.1 1332.49 1786.2 1302.03 1780.89ZM1000.52 1757.79L1004.61 1754.53L998.205 1753.63L1000.52 1757.79ZM989.452 1836.76C988.132 1830.65 983.302 1823.7 976.097 1818.16C969.509 1813.4 959.163 1814.74 960.579 1820.17C962.61 1826.38 970.382 1833.04 974.645 1838.87C983.416 1843.59 990.06 1842.77 988.74 1836.66L989.452 1836.76ZM1080.75 1863.51C1081.61 1831.56 1138.63 1807.83 1088.15 1769.38C1077.33 1799.93 1055.13 1828.89 1080.75 1863.51ZM1076.23 1911.33C1080.22 1908.75 1087.76 1906.67 1088.15 1903.94C1088.63 1900.52 1082.99 1894.15 1078.06 1893.11C1061.17 1889.35 1056.08 1894.56 1060.2 1901.41C1061.91 1904.79 1070.87 1908.14 1076.94 1911.43L1076.23 1911.33ZM1302.23 2007.16C1293.08 1974.15 1287.27 1953.47 1281.51 1932.44C1271.47 1952.3 1241.98 1971.17 1302.23 2007.16ZM1049.11 2063.35C1068.49 2049.34 1062.95 2037.06 1046.65 2023.96C1041.98 2005.53 1059.7 1987.8 1029.08 1968.16L1022.34 1964.43L1027.51 1968.99C1023.5 1987.25 994.956 2004.52 1043.66 2024.59C1045.63 2036.37 1046.9 2048.05 1049.82 2063.45L1049.11 2063.35ZM1365.25 2142.54C1368.81 2137.81 1364.69 2130.95 1364.08 2124.94L1370.97 2122.42L1363.42 2124.5C1357.72 2128.93 1349.17 2132.96 1348.46 2138.09C1347.88 2142.19 1362.63 2145.66 1365.25 2142.54ZM1291.02 2490.84C1271.78 2503.83 1280.11 2516.85 1302.11 2530.74C1293.07 2517.62 1331.28 2509.04 1291.02 2490.84ZM1336.06 2345.51C1328.43 2343.05 1324.53 2344.94 1326.61 2350.81C1327.13 2352.28 1330.5 2354.15 1332.49 2355.47C1334.15 2353.96 1336.53 2352.55 1338.19 2351.04C1337.72 2349.23 1338.15 2346.16 1336.11 2345.17L1336.06 2345.51ZM1348.39 2252.42L1350.66 2256.92L1354.74 2253.66L1348.34 2252.76L1348.39 2252.42ZM1315.42 2213.29L1313.47 2216.85L1323.57 2217.22L1316.08 2213.73L1315.42 2213.29ZM1248.13 2180.85C1240.41 2204.86 1235.98 2220.98 1230.83 2236.99C1246.65 2222.47 1270.2 2209.74 1248.13 2180.85ZM1019.44 2135.19C1017.54 2138.41 1022.71 2142.97 1025.07 2146.78C1029.95 2153.4 1035.65 2154.19 1038.6 2148.68C1040.5 2145.46 1039.7 2140.82 1035.81 2137.48C1030.74 2132.24 1021.44 2131.29 1019.4 2135.53L1019.44 2135.19ZM1259.52 2151.42L1263.6 2148.16L1257.2 2147.26L1259.52 2151.42ZM967.103 2172.12L962.602 2168.01C956.595 2153.92 963.686 2139.57 940.977 2125.58C929.975 2121.25 919.924 2115.31 907.971 2112.59C889.709 2108.28 872.199 2108.97 868.626 2118.92C867.387 2122.59 868.755 2128.35 874.208 2130.86C892.607 2139.37 905.143 2132.76 918.623 2129.77C926.074 2128.37 933.526 2126.98 940.977 2125.58C941.858 2140 941.316 2154.21 960.323 2168.73L967.103 2172.12ZM854.954 2190.56C854.954 2190.56 860.935 2189.31 862.55 2188.14C864.213 2186.63 865.308 2184 863.365 2182.33C858.199 2177.77 852.978 2178.78 852.163 2184.59C851.924 2186.3 853.771 2188.65 854.954 2190.56ZM924.322 2327.18L933.717 2327.45L926.225 2323.96L924.274 2327.52L924.322 2327.18ZM1220.68 2402.54C1223.7 2381.01 1226.53 2360.83 1230.83 2340.52C1236.08 2313.37 1234.66 2313.17 1197.79 2281.16C1186.87 2322.85 1192.98 2362.06 1220.63 2402.89L1220.68 2402.54ZM941.905 2408.78L942.385 2405.36L934.365 2405.63L941.905 2408.78ZM863.054 2536.47C894.53 2524.15 869.263 2507.71 866.103 2494.02C870.236 2490.41 891.776 2492.04 875.656 2482.81C872.235 2486.51 868.861 2489.87 866.151 2493.67C837.097 2504.24 834.516 2517.47 863.054 2536.47ZM945.26 2519.41C945.26 2519.41 952.184 2521.77 955.646 2522.95C957.309 2521.44 958.972 2519.93 960.587 2518.77C957.933 2517 956.133 2514.31 953.335 2513.57C940.622 2511.09 938.104 2513.52 945.972 2519.51L945.26 2519.41ZM1185.35 2623.49C1158.61 2576.16 1237.81 2539.16 1178.85 2488.71C1168.53 2469.14 1221.93 2460.94 1193.02 2434.22C1154.75 2448.38 1151.55 2466.06 1177.38 2488.85C1135.42 2529.33 1138.54 2574.39 1185.35 2623.49ZM850.108 2597.75C860.878 2598.56 864.867 2595.98 859.798 2590.74C855.96 2587.06 850.082 2582.41 843.062 2580.72C833.907 2578.74 829.063 2582.25 834.132 2587.49C837.97 2591.17 844.751 2594.56 850.108 2597.75ZM1251.25 2696.87C1253.09 2699.22 1268.65 2702.1 1273.83 2701.43C1299.12 2696.96 1297.62 2686.98 1281.17 2674.92C1281.04 2670.71 1282.27 2667.05 1283.56 2663.05C1306.16 2657.16 1305.27 2647.97 1288.77 2636.24L1281.33 2632.41L1286.49 2636.97C1285.29 2645.52 1284.1 2654.06 1282.23 2662.17C1271.7 2664.87 1270.36 2669.22 1280.41 2675.16C1277.55 2685.22 1236.75 2681.24 1251.25 2696.87ZM850.115 2659.8C850.643 2656.04 850.41 2652.52 850.226 2648.66C847.899 2649.73 844.15 2650.6 842.487 2652.11C840.824 2653.62 841.912 2656.21 841.672 2657.92C841.576 2658.6 846.557 2659.3 849.356 2660.04L850.115 2659.8ZM931.422 2675.03L929.103 2670.87L925.018 2674.14L930.71 2674.93L931.422 2675.03ZM1148.12 2713.08C1161.98 2707.36 1167.96 2706.11 1167.39 2704.98C1164.14 2691.97 1160.12 2679.21 1155.44 2666C1155.59 2664.98 1147.76 2663.88 1144.3 2662.7C1142.86 2672.96 1141.47 2682.87 1141.45 2693.33C1140.88 2697.43 1143.86 2702.03 1148.12 2713.08ZM1156.06 2765.09C1168.73 2762.69 1172.44 2756.93 1167.57 2750.32C1165.1 2747.19 1152.73 2742.32 1148.31 2742.74C1134.36 2743.92 1131.98 2750.56 1136.15 2757.07C1138.61 2760.21 1149.19 2762.39 1155.35 2765L1156.06 2765.09ZM1273.69 2800.76C1275.69 2796.86 1277.64 2793.3 1279.63 2789.39C1279.03 2783.38 1281.5 2776.06 1266.04 2772.5C1256.88 2770.52 1251.9 2775.05 1256.97 2780.29C1263.27 2787.1 1251.96 2795.27 1273.73 2800.42L1273.69 2800.76ZM849.377 2778.92C857.301 2779.33 872.82 2777.33 872.204 2776.54C864.446 2759.42 832.384 2750.04 807.821 2738.93C803.031 2736.86 791.926 2738.44 774.56 2738.1C787.771 2757.73 799.134 2775.01 849.377 2778.92ZM1123.94 2833.8C1148.75 2837.97 1154.97 2829.78 1156.84 2821.68C1159.55 2812.65 1172 2801.49 1131.87 2792.73C1119.99 2805.01 1108.87 2817.04 1123.94 2833.8ZM819.383 2816.89C823.749 2816.81 828.73 2817.51 831.768 2816.54C840.93 2813.29 838.515 2809.82 825.706 2808.02C822.86 2807.62 819.678 2809.62 816.64 2810.58C817.824 2812.49 818.959 2814.74 819.431 2816.55L819.383 2816.89ZM1113.16 2874.47L1117.9 2871.65L1111.6 2870.06L1112.44 2874.37L1113.16 2874.47ZM1110.5 2908.95C1107.74 2913.1 1116.04 2916.01 1127 2915.45C1133.74 2913.96 1140.48 2912.46 1146.46 2911.21C1140.25 2908.94 1133.52 2905.21 1128.44 2905.19C1121.94 2904.98 1112.26 2906.76 1110.45 2909.3L1110.5 2908.95ZM848.304 2900.43L843.139 2895.87C823.42 2881.25 807.028 2863.62 760.575 2863.73C783.659 2880.21 813.067 2887.82 840.86 2896.6L848.304 2900.43ZM677.431 2939.22L681.517 2935.96L675.824 2935.16L678.143 2939.32L677.431 2939.22ZM1145.8 3009.07L1143.53 3004.57L1138.02 3007.63L1145.14 3008.63L1145.8 3009.07ZM1087.42 3192.62C1079.53 3197.09 1080.19 3202.76 1090.24 3208.7C1099.82 3212.83 1107.13 3212.46 1108.6 3207.09C1110.13 3201.38 1115.5 3194.12 1109.58 3189.8C1097.11 3180.38 1091.55 3189.01 1086.75 3192.18L1087.42 3192.62ZM1130.65 3049.83C1123.54 3048.83 1111.72 3050.31 1109.96 3052.5C1105.3 3059.87 1117.82 3063.72 1130.92 3063.46C1137.47 3063.33 1142.36 3059.49 1148.44 3057.55C1142.27 3054.94 1136.35 3050.63 1129.94 3049.73L1130.65 3049.83ZM740.859 3014.7L734.934 3010.38C736.133 3001.83 738.043 2993.39 739.904 2985.28L746.788 2982.76L738.529 2984.74C717.085 2982.43 695.575 2959.89 675.908 2975.96C662.749 2987.01 674.832 2999.17 708.845 3004.98C717.384 3006.18 724.924 3009.33 732.608 3011.45L740.811 3015.04L740.859 3014.7ZM811.75 3047.3C839.901 3038 843.193 3024.86 827.369 3008.35C799.808 3003.09 796.283 3012.71 795.94 3020.33C794.742 3028.88 778.025 3039.43 811.75 3047.3ZM1087.43 3145.91C1087.43 3145.91 1092.03 3149.34 1093.97 3151.01C1099.05 3151.02 1102.71 3150.84 1106.36 3150.65C1105.18 3148.74 1104.85 3145.91 1102.86 3144.58C1094.18 3139.18 1087.59 3139.65 1087.48 3145.57L1087.43 3145.91ZM710.249 3119.17L718.98 3119L711.392 3116.19L710.961 3119.27L710.249 3119.17ZM821.612 3220.19C821.432 3180.08 890.988 3149.74 792.456 3102.11C800.56 3142.64 701.588 3170.6 821.612 3220.19ZM1108.75 3304.37C1130.68 3298.04 1126.34 3282.44 1113.74 3268.82C1106.2 3260.44 1093.5 3252.73 1081.7 3243.76C1052.83 3252.96 1086.18 3263.56 1087.78 3272.85C1088.9 3280.33 1078.32 3283.37 1074.71 3288.44C1065.43 3302.83 1087.53 3310.81 1108.75 3304.37ZM722.272 3307.71C726.309 3304.79 731.722 3302.41 735.095 3299.05C739.325 3294.76 733.352 3290.78 724.477 3291.98C718.544 3292.89 714.363 3296.84 712.461 3300.06C709.559 3305.23 714.253 3307.98 722.272 3307.71ZM776.844 3337.67C776.844 3337.67 786.334 3337.26 786.478 3336.23C786.718 3334.52 783.447 3331.97 782.264 3330.06C777.994 3329.46 772.493 3327.3 770.926 3328.12C762.475 3331.47 764.89 3334.95 776.844 3337.67ZM1087.15 3417.08C1089.71 3414.3 1095.88 3411.68 1094.8 3409.09C1093.8 3405.81 1088.73 3400.57 1083.09 3399.43C1073.98 3397.11 1069.85 3400.71 1074.92 3405.95C1078.05 3409.53 1082.6 3413.3 1087.1 3417.42L1087.15 3417.08ZM657.726 3385.11C657.726 3385.11 665.178 3383.72 665.369 3382.35C665.609 3380.64 663.146 3377.5 659.684 3376.32C648.538 3373.02 643.221 3374.71 646.772 3380.44C648.003 3382.01 653.6 3383.49 657.062 3384.67L657.726 3385.11ZM1081.09 3470.61L1078.77 3466.45L1074.69 3469.72L1081.09 3470.61ZM759.238 3473.6C757.431 3476.13 764.02 3480.89 773.016 3494.35C794.217 3467.34 792.248 3450.34 764.278 3432.47C761.623 3430.7 742.738 3430.84 741.027 3432.7C729.763 3445.76 769.886 3459.75 758.526 3473.5L759.238 3473.6ZM667.788 3484.13C662.102 3478.1 650.532 3472.65 641.905 3466.91L635.884 3463.27L639.626 3467.63C644.504 3474.24 647.151 3481.24 655.067 3486.88C662.368 3491.74 672.857 3489.37 667.74 3484.47L667.788 3484.13ZM1079.46 3549.52C1077.2 3534.56 1079.31 3519.52 1057.41 3504.94C1052.82 3501.51 1048.22 3498.08 1042.81 3495.23C1041.48 3494.34 1036.41 3494.33 1032.8 3494.17C1040.25 3498 1047.69 3501.84 1055.13 3505.67C1068.35 3520.07 1037.16 3535.57 1079.46 3549.52ZM783.071 3531.32L787.867 3528.16L782.175 3527.36L783.782 3531.42L783.071 3531.32ZM634.338 3582.98C636.001 3581.47 639.135 3579.81 639.375 3578.1C640.238 3571.95 635.448 3569.88 629.132 3573.53C626.806 3574.6 627.134 3577.43 628.318 3579.34C628.174 3580.37 632.347 3581.65 634.338 3582.98ZM775.987 3675L770.822 3670.44C807.372 3627.11 817.017 3584.19 706.996 3540.87C700.812 3584.98 757.217 3627.74 770.062 3670.68L776.699 3675.1L775.987 3675ZM699.802 3695.69C698.194 3691.63 696.587 3687.57 694.979 3683.51C682.642 3683.52 669.546 3683.78 657.209 3683.79C660.335 3687.37 661.184 3691.67 666.637 3694.18C678.255 3699.29 690.92 3702.11 699.802 3695.69ZM774.321 3712.76L779.781 3710.04L773.473 3708.46L774.321 3712.76ZM703.923 3935.41C703.923 3935.41 708.672 3932.59 713.469 3929.43C697.644 3912.91 670.043 3902.77 634.839 3900.27C627.675 3899.62 613.996 3909.2 617.027 3913.46C633.412 3936.33 672.565 3931.36 703.875 3935.75L703.923 3935.41ZM803.285 3966.77L796.648 3962.35C807.536 3946.8 731.152 3906.81 833.582 3916.29L840.266 3920.36L836.572 3915.66C810.855 3881.73 785.138 3847.79 758.285 3811.61C730.175 3825.79 750.782 3849.6 715.563 3857.56C700.564 3861.03 682.144 3868.21 702.013 3876.58C761.67 3901.32 734.522 3939.7 796.6 3962.69L803.997 3966.87L803.285 3966.77ZM744.904 3979.5L747.887 3984.1L752.732 3980.6L744.904 3979.5ZM690.362 3995.91C695.111 3993.09 701.187 3991.15 702.33 3988.17C702.857 3984.41 699.874 3979.81 697.555 3975.65C693.566 3978.23 686.066 3979.97 685.635 3983.04C685.108 3986.8 688.091 3991.41 690.314 3996.25L690.362 3995.91ZM734.547 4089.6C707.646 4121.04 709.021 4121.58 799.133 4151.64C757.2 4109.16 779.975 4076.1 769.777 4040.16C747.046 4041.85 711.938 4038.67 728.659 4059.14C737.943 4070.56 743.245 4079.32 734.547 4089.6ZM707.019 4161.74L703.277 4157.38C694.649 4151.64 686.022 4145.89 676.682 4140.05C651.039 4121.12 629.097 4101.66 613.848 4081.05C606.839 4105.16 586.445 4131.59 675.163 4140.54C683.791 4146.28 691.659 4152.26 700.287 4158L707.019 4161.74ZM1068.85 4241.05L1065.87 4236.45L1061.78 4239.71L1068.9 4240.71L1068.85 4241.05ZM798.709 4216.77C809.335 4218.61 814.699 4216.57 813.947 4211.59C814.139 4210.22 807.878 4208.3 805.176 4206.87C794.502 4205.38 789.185 4207.07 789.889 4212.4C789.697 4213.77 795.151 4216.27 798.661 4217.11L798.709 4216.77ZM619.599 4241.86C629.561 4243.26 634.166 4241.46 630.52 4236.42C628.153 4232.6 623.603 4228.83 619.813 4224.81C615.919 4226.7 609.084 4228.88 609.508 4231.03C609.74 4234.55 615.761 4238.18 619.599 4241.86ZM812.83 4297.19C817.387 4295.74 816.019 4289.97 817.354 4285.62C808.11 4279.1 823.651 4261.41 782.692 4268.91C764.846 4271.99 748.911 4266.61 739.435 4256.57C730.527 4247.65 730.885 4229.57 698.745 4241.45C688.064 4245.18 685.818 4256.02 687.61 4263.95C689.874 4273.67 797.687 4301.69 812.878 4296.85L812.83 4297.19ZM584.959 4276.74C584.959 4276.74 592.835 4277.5 596.44 4277.66C596.68 4275.95 597.016 4273.55 595.025 4272.23C587.109 4266.59 580.608 4266.37 578.418 4271.64C578.226 4273.01 581.449 4275.9 584.959 4276.74ZM1041.02 4356.72L1045.82 4353.56L1038.71 4352.56L1040.31 4356.62L1041.02 4356.72ZM776.007 4332.11C767.803 4328.52 760.311 4325.03 752.108 4321.44L744.663 4317.61L749.117 4322.07C758.081 4325.42 767.044 4328.77 775.295 4332.02L776.007 4332.11ZM1013 4411.71C1005.97 4415.25 1008.39 4418.73 1018.16 4421.49C1023.52 4419.46 1031.69 4418.16 1034.25 4415.38C1036.06 4412.85 1031.56 4408.73 1029.9 4405.01C1024.54 4407.05 1017.75 4408.89 1013 4411.71ZM609.831 4404.68C609.831 4404.68 616.667 4402.5 616.099 4401.38C615.06 4398.44 611.126 4395.45 608.663 4392.32C606.336 4393.39 603.962 4394.8 601.635 4395.86C604.098 4399 607.32 4401.89 609.783 4405.02L609.831 4404.68ZM790.028 4449.47L784.151 4444.81C800.068 4429.61 827.515 4414.98 794.283 4393.24C769.016 4376.8 739.169 4377.5 705.038 4388.05C748.623 4403.23 754.806 4426.4 783.392 4445.05L790.788 4449.23L790.028 4449.47ZM1051.08 4528.25C1045.75 4504.15 1041.04 4480.83 1036.33 4457.51L1042.5 4454.89L1034.29 4456.52C1011.16 4483.49 1016.75 4507.4 1051.08 4528.25ZM587.591 4496.04L593.051 4493.31L586.031 4491.63L587.591 4496.04ZM712.821 4555.08L706.848 4551.1C732.409 4527.49 725.914 4501.37 687.362 4472.72C679.494 4466.74 675.376 4459.89 669.738 4453.52C667.054 4472.66 666.553 4491.77 663.157 4510.81C660.808 4527.57 671.987 4540.99 705.281 4551.93L713.485 4555.52L712.821 4555.08ZM793.037 4536.69C782.547 4539.06 783.539 4542.33 795.54 4544.71C798.387 4545.11 803.607 4544.1 805.222 4542.93C806.837 4541.76 804.278 4539.31 803.854 4537.16C800.296 4536.66 795.315 4535.97 792.325 4536.59L793.037 4536.69ZM1028.72 4604.94C1026.28 4586.13 1041.38 4576.74 1020.34 4556.01C1020.74 4573.85 1007.11 4583.09 1028.72 4604.94ZM576.397 4560.35L580.482 4557.09L574.789 4556.29L577.108 4560.45L576.397 4560.35ZM1028.49 4632.45C1024.22 4631.85 1019.24 4631.15 1016.25 4631.78C1006.42 4634.59 1008.08 4638.3 1019.41 4640.24C1022.26 4640.64 1027.53 4639.29 1029.14 4638.12C1030.76 4636.95 1028.2 4634.5 1027.73 4632.69L1028.49 4632.45ZM753.331 4597.36L760.878 4595.28L752.051 4596.13C721.452 4591.84 691.469 4588.34 660.871 4584.05C690.367 4596.2 717.22 4632.39 753.379 4597.02L753.331 4597.36ZM572.643 4597.47L571.131 4592.73L565.623 4595.79L572.643 4597.47ZM984.357 4735.03C957.165 4737.49 979.737 4747.28 988.885 4754.49C993.434 4758.26 997.177 4762.62 1000.92 4766.98C995.411 4770.04 975.342 4768.28 989.231 4777.89C994.028 4774.73 998.113 4771.47 1002.86 4768.65C1007.95 4763.43 1018.01 4758.92 1017.31 4753.59C1016.32 4745.09 1004.15 4733.62 984.309 4735.37L984.357 4735.03ZM1003.92 4688.62C1006.86 4693.56 1009.79 4698.51 1012.02 4703.35L1019.46 4707.18L1013.54 4702.86C1012.59 4699.25 1011.7 4695.29 1010.04 4691.57C1010.18 4690.54 1005.96 4689.6 1003.21 4688.52L1003.92 4688.62ZM562.772 4698.93C563.348 4694.83 564.682 4690.48 565.969 4686.48C572.046 4684.54 578.074 4682.95 583.438 4680.91C584.958 4680.43 583.158 4677.73 582.638 4676.27C577.082 4679.67 571.526 4683.07 565.969 4686.48C550.69 4686.78 523.649 4682.99 525.345 4691.59C527.178 4704.4 549.964 4697.13 563.436 4699.37L562.772 4698.93ZM698.714 4733.33C715.744 4736.06 732.727 4739.14 750.469 4741.98C755.395 4748.25 757.331 4755.14 765.295 4760.44C772.595 4765.3 782.325 4763.18 777.919 4758.38C772.234 4752.35 761.375 4746.99 753.459 4741.35C748.283 4710.99 804.591 4687.17 752.258 4651.59C737.491 4658.58 690.662 4656.2 714.17 4674.84C749.433 4702.79 707.946 4714.05 697.387 4732.44C648.518 4729.08 609.875 4709.72 564.811 4699.91C585.179 4725.43 623.159 4744.35 672.348 4755.78C741.933 4771.81 693.814 4742.4 699.378 4733.77L698.714 4733.33ZM565.173 4780.14L563.613 4775.74L558.152 4778.46L565.173 4780.14ZM996.21 4841.97C1000.91 4839.49 1006.94 4837.89 1007.28 4835.5C1008.51 4831.84 1006.24 4827.34 1006.11 4823.14C1002.21 4825.03 996.233 4826.28 995.186 4828.58C993.947 4832.24 995.506 4836.64 996.21 4841.97ZM706.744 4826.13C726.525 4829.95 751.744 4846.74 763.296 4831.62C770.331 4822.85 738.781 4820.17 722.702 4815.82C718.528 4814.54 713.547 4813.84 709.277 4813.24C698.891 4809.7 684.714 4802.13 678.781 4803.04C657.33 4805.96 671.315 4814.89 678.992 4822.24C681.694 4823.67 684.965 4826.22 687.811 4826.62C694.263 4827.17 700.907 4826.36 706.744 4826.13ZM983.224 4898.36C982.937 4900.42 980.419 4902.85 982.362 4904.52C988.239 4909.18 993.412 4908.51 994.986 4902.45C995.226 4900.74 992.667 4898.29 991.483 4896.38C988.493 4897.01 986.215 4897.74 983.177 4898.71L983.224 4898.36ZM756.449 4875.28C756.449 4875.28 762.238 4875.4 765.891 4875.21C764.14 4872.18 761.677 4869.05 759.214 4865.91C755.608 4865.75 752.666 4866.04 749.06 4865.88C751.523 4869.02 753.274 4872.05 755.737 4875.18L756.449 4875.28ZM744.823 4942.68C753.363 4943.88 757.264 4936.75 750.243 4935.07C739.761 4932.21 725.905 4932.7 713.712 4931.69L707.075 4927.28L712.241 4931.84C722.579 4935.72 733.438 4941.08 744.112 4942.58L744.823 4942.68ZM971.761 4985.3C978.405 4984.49 989.935 4985.06 991.645 4983.21C997.065 4975.6 989.485 4967.57 977.443 4960.3C974.165 4962.98 970.224 4965.22 965.331 4969.06C967.554 4973.91 969.682 4979.43 971.761 4985.3ZM756.246 4985.41L764.929 4985.59L757.389 4982.44L756.957 4985.51L756.246 4985.41ZM984.831 5036.98C985.167 5034.59 976.443 5029.53 970.135 5027.95C964.538 5026.47 956.423 5027.42 949.211 5027.11C955.28 5030.4 960.637 5033.59 966.706 5036.88C975.525 5041.26 984.92 5041.53 984.831 5036.98ZM965.278 5274.78C963.28 5278.68 959.906 5282.04 959.331 5286.15C958.995 5288.54 963.641 5291.63 966.72 5295.55C969.574 5290.72 972.995 5287.02 972.811 5283.16C973.146 5280.76 967.789 5277.57 964.567 5274.68L965.278 5274.78ZM722.262 5093.25C753.624 5061.04 686.085 5040.77 668.468 5016.33L661.12 5011.82L667.756 5016.23C611.249 5046.66 663.365 5068.26 722.262 5093.25ZM658.627 5096.88L652.798 5091.88L646.065 5088.14L650.567 5092.26L657.963 5096.43L658.627 5096.88ZM984.894 5160.75L980.536 5155.6C981.045 5131.27 981.553 5106.94 982.11 5082.27C968.697 5105.49 948.119 5128.05 978.305 5155.99L984.182 5160.65L984.894 5160.75ZM543.69 5140.37C541.515 5135.19 539.292 5130.34 537.116 5125.16C528.009 5122.84 538.794 5113.19 519.054 5114.26C523.604 5118.03 528.105 5122.15 533.367 5126.03C537.061 5130.73 540.708 5135.77 544.402 5140.47L543.69 5140.37ZM982.423 5230.12C986.468 5221.97 980.359 5213.8 969.884 5205.7C962.392 5202.21 975.879 5193.99 954.099 5194.08C958.601 5198.2 963.103 5202.31 967.605 5206.43C976.657 5214.32 953.631 5223.3 982.423 5230.12ZM703.619 5257.27C702.421 5265.81 701.223 5274.36 700.025 5282.91C724.658 5278 720.259 5267.97 706.61 5256.64C698.646 5251.34 689.922 5246.28 681.958 5240.98C681.733 5232.24 679.326 5223.53 681.235 5215.09C692.872 5173.49 646.5 5183.37 604.357 5188.97C590.261 5191.17 563.283 5176.59 561.174 5191.63C560.982 5193 592.013 5194.21 606.348 5190.29C670.775 5196.54 654.508 5224.58 679.68 5241.71C688.403 5246.77 696.367 5252.07 705.091 5257.12L703.619 5257.27ZM698.553 5283.05C681.434 5275.77 664.268 5268.83 646.437 5261.45C636.051 5257.9 622.538 5250.78 615.941 5251.25C594.538 5253.83 606.34 5262.8 615.44 5270.35C636.408 5307.11 666.598 5298.79 698.553 5283.05ZM953.413 5343.88C953.413 5343.88 947.344 5340.59 943.786 5340.09C941.651 5339.79 939.229 5341.54 936.239 5342.17C938.134 5344.18 939.222 5346.77 942.02 5347.51C951.695 5350.96 956.252 5349.51 952.701 5343.78L953.413 5343.88ZM717.283 5325.42C724.776 5328.91 712.096 5336.54 732.308 5337.28C727.806 5333.17 724.016 5329.15 719.514 5325.03L712.83 5320.96L717.283 5325.42ZM509.857 5309.23L514.654 5306.07L508.25 5305.17L509.857 5309.23ZM586.53 5347.17L591.326 5344.01L584.922 5343.11L586.53 5347.17ZM574.439 5407.53C574.439 5407.53 581.227 5405.69 582.179 5404.08C585.792 5399.01 582.617 5395.78 574.55 5396.39C572.367 5396.43 571.936 5399.51 570.937 5401.46C572.12 5403.37 573.256 5405.62 574.439 5407.53ZM685.751 5477.87C707.107 5475.63 692.698 5464.55 684.358 5456.76C676.018 5448.96 665.495 5441.21 655.731 5433.22C638.118 5439.81 640.478 5448.86 644.357 5457.42C649.419 5467.89 658.463 5481.01 686.415 5478.31L685.751 5477.87ZM925.774 5629L921.689 5632.26L927.381 5633.06L925.062 5628.9L925.774 5629ZM665.299 5613.39C727.219 5580.59 725.188 5574.38 645.271 5549.23L637.923 5544.72L644.559 5549.13C650.366 5569.82 626.566 5589.49 664.635 5612.95L665.299 5613.39ZM898.283 5674.99L906.918 5675.51L900.09 5672.46L898.283 5674.99ZM925.807 5773.67L921.058 5776.49L926.655 5777.97L925.807 5773.67ZM691.052 5688.47L689.493 5684.07L684.696 5687.23L691.1 5688.13L691.052 5688.47ZM505.28 5693.8L505.712 5690.72L497.74 5690.65L505.28 5693.8ZM617.813 5739.9C617.813 5739.9 624.977 5740.56 625.784 5739.98C627.447 5738.47 628.494 5736.17 626.599 5734.16C623.144 5727.75 618.779 5727.84 615.733 5734.03C615.494 5735.74 616.629 5737.99 617.101 5739.8L617.813 5739.9ZM899.897 5875.67L902.169 5880.17L906.254 5876.91L899.849 5876.01L899.897 5875.67ZM908.112 5837.78L910.383 5842.28L914.469 5839.01L908.064 5838.12L908.112 5837.78ZM465.777 5846.18C465.777 5846.18 466.352 5842.07 466.64 5840.02C463.937 5838.6 461.187 5837.51 458.484 5836.09C456.109 5837.5 452.975 5839.15 452.736 5840.86C452.537 5847.46 458.038 5849.62 465.065 5846.08L465.777 5846.18ZM677.999 5926.48C708.222 5928.28 702.216 5914.19 702.231 5903.73C700.963 5861.02 701.829 5818.61 610.597 5775.84C613.193 5819.43 613.421 5859.21 619.39 5899.44C621.743 5913.71 649.911 5924.98 678.711 5926.58L677.999 5926.48ZM603.786 5995.21C603.488 5971.46 568.682 5955.77 543.606 5937.96C539.816 5933.95 539.584 5930.43 543.669 5927.17L549.178 5924.1L541.678 5925.84C531.141 5928.55 529.854 5932.55 539.193 5938.39C542.674 5960.14 544.683 5982.04 603.834 5994.86L603.786 5995.21ZM524.695 6057.32C524.695 6057.32 528.685 6054.75 530.347 6053.24C527.693 6051.47 525.182 6048.68 522.335 6048.28C509.575 6046.14 506.345 6048.48 514.213 6054.46C516.156 6056.13 522.465 6057.71 524.647 6057.67L524.695 6057.32ZM607.362 6083.55L613.582 6080.59L605.851 6078.81L607.362 6083.55ZM677.453 6111.51C677.453 6111.51 685.52 6110.9 687.135 6109.73C688.75 6108.56 686.903 6106.21 686.479 6104.06C682.873 6103.9 678.651 6102.96 675.661 6103.59C664.46 6105.85 665.452 6109.13 677.501 6111.17L677.453 6111.51ZM894.893 6227.05C899.144 6207.08 903.963 6188.24 905.888 6169.33C906.703 6163.52 897.555 6156.31 892.677 6149.7C885.897 6146.31 899.336 6138.43 878.364 6137.93C882.154 6141.95 885.945 6145.97 890.399 6150.43C852.599 6171.62 872.063 6198.41 895.604 6227.15L894.893 6227.05ZM513.335 6205.63C557.019 6183.87 601.573 6218 647.459 6216.77C641.379 6187.68 606.341 6168.47 564.666 6144.85C518.711 6162.11 519.441 6182.78 513.335 6205.63ZM342.366 6245.1L349.106 6243.61L343.037 6240.32L342.366 6245.1ZM868.065 6340.77L863.316 6343.59L868.913 6345.07L868.065 6340.77ZM580.254 6328.66L573.618 6324.24L566.981 6319.82L572.858 6324.48L579.495 6328.9L580.254 6328.66ZM654.876 6339.82C654.036 6330.29 653.195 6320.76 652.41 6305.66C643.952 6314.23 637.732 6317.19 637.964 6320.71C638.477 6327.41 629.307 6335.88 654.876 6339.82ZM499.718 6338.98C499.718 6338.98 506.41 6337.83 508.025 6336.66C509.688 6335.15 510.831 6332.17 508.888 6330.5C503.011 6325.84 497.838 6326.51 496.263 6332.57C496.024 6334.28 498.582 6336.73 499.718 6338.98ZM875.686 6420.97C875.686 6420.97 882.85 6421.63 883.658 6421.04C885.32 6419.54 886.368 6417.24 884.472 6415.23C881.018 6408.82 876.652 6408.91 873.607 6415.1C873.367 6416.81 874.503 6419.06 875.686 6420.97ZM486.054 6405.39L490.85 6402.23L485.158 6401.43L486.765 6405.49L486.054 6405.39ZM570.815 6427.03C571.342 6423.27 571.11 6419.75 570.926 6415.89C568.599 6416.96 564.85 6417.83 563.898 6419.44C562.235 6420.95 563.371 6423.2 563.131 6424.91C563.035 6425.59 568.017 6426.29 570.104 6426.93L570.815 6427.03ZM390.828 6468.73C419.882 6458.16 434.84 6449.8 417.353 6434.8C414.794 6432.35 398.571 6429.03 397.052 6429.51C383.373 6439.1 379.608 6450.42 390.116 6468.63L390.828 6468.73ZM499.467 6516.73C509.827 6504.94 502.87 6492.46 489.412 6479.76C480.353 6477.1 491.09 6467.8 471.397 6468.52C476.659 6472.4 481.209 6476.17 486.422 6480.39C490.533 6492.47 472.961 6503.95 499.467 6516.73ZM553.899 6511.46C589.412 6496.22 572.445 6482.69 556.236 6468.91C546.019 6479.68 540.832 6490.81 553.899 6511.46ZM486.687 6561.3L485.128 6556.9L479.667 6559.62L485.976 6561.2L486.687 6561.3ZM414.329 6627.15C410.682 6622.11 407.699 6617.51 404.053 6612.47C399.175 6605.86 397.239 6598.96 389.323 6593.32C382.023 6588.46 372.341 6590.24 376.699 6595.38C382.336 6601.75 392.483 6607.01 401.063 6613.09C405.469 6617.89 409.923 6622.35 414.329 6627.15ZM353.271 6653.8C349.529 6649.44 345.738 6645.42 341.285 6640.97L333.792 6637.48L338.294 6641.59C345.075 6644.98 332.395 6652.62 352.559 6653.7L353.271 6653.8ZM560.981 6704.19C581.296 6699.02 563.617 6685.38 552.622 6675.83C541.06 6665.14 521.647 6669.04 505.233 6667.09C497.317 6661.45 489.353 6656.15 481.437 6650.51C499.448 6630.72 556.918 6624.49 548.655 6595.44L555.491 6593.26L547.376 6594.21C528.955 6601.39 512.526 6609.9 491.499 6614.97C458.463 6622.88 458.256 6634.71 479.87 6651.33C488.545 6656.73 496.509 6662.03 505.137 6667.77C507.88 6674.08 509.104 6680.88 514.837 6686.56C524.361 6696.27 537.579 6710.67 561.644 6704.63L560.981 6704.19ZM553.824 6765.58C550.889 6760.64 547.954 6755.7 544.971 6751.1L536.768 6747.51L542.693 6751.82C544.348 6755.54 545.292 6759.16 546.948 6762.88C546.804 6763.9 551.025 6764.84 553.064 6765.83L553.824 6765.58ZM471.057 6776.29L465.652 6773.44L460.239 6775.82L471.057 6776.29ZM793.969 6864.09C798.013 6855.95 792.615 6847.87 781.381 6840.02C780.485 6836.06 781.724 6832.4 784.386 6828.94C791.893 6821.97 805.045 6816.15 806.147 6808.28C829.833 6701.44 852.096 6594.41 873.695 6486.93C876.228 6474.04 873.02 6460.69 832.658 6448.41C874.123 6520.11 832.521 6578.76 820.096 6641.51C819.137 6648.35 799.677 6652.59 788.756 6658.04L781.36 6653.86L787.237 6658.52C839.39 6721.26 790.16 6772.23 780.924 6827.75C771.098 6830.56 769.052 6834.8 779.102 6840.74C786.731 6848.44 766.6 6857.47 793.209 6864.34L793.969 6864.09Z" fill="#00B5CB"/>
<path d="M1294.85 3539.98L1285.6 3538.68L1289.24 3543.72L1294.85 3539.98Z" fill="#00B5CB"/>
<path d="M1278.6 3619.62L1276.43 3614.43L1269.5 3617.3L1278.6 3619.62Z" fill="#00B5CB"/>
<path d="M680.559 4821.42C689.002 4823.3 697.541 4824.5 706.08 4825.69C707.367 4821.69 707.942 4817.59 707.806 4813.39C698.739 4815.95 688.913 4818.75 679.847 4821.32L680.559 4821.42Z" fill="#00B5CB"/>
</g>
<defs>
<clipPath id="clip0_44_277">
<rect width="6968.73" height="926.224" fill="white" transform="translate(1884.82 128.995) rotate(97.981)"/>
</clipPath>
</defs>
</svg>
