<svg width="952" height="1942" viewBox="0 0 952 1942" fill="none" xmlns="http://www.w3.org/2000/svg">
<g clip-path="url(#clip0_56_2190)">
<g opacity="0.2">
<path d="M247.641 4348.8C259.683 4333.06 279.864 4319.19 296.795 4304.41C311.311 4311.62 324.45 4311.3 336.187 4304.22C358.022 4313.27 369.882 4256.14 394.469 4303.52C418.278 4349.69 450.973 4306.69 480.49 4307.34C486.617 4343.03 497.716 4377.32 451.547 4406.83C431.407 4419.53 441.52 4435.26 457.452 4448.82C463.814 4454.57 478.385 4460.2 491.455 4461.85C508.609 4464.03 519.527 4456.92 523.874 4449.98C530.846 4438.4 536.999 4426.79 539.887 4414.68C560.288 4324.73 591.342 4235.17 556.863 4142.5C550.848 4126.92 562.112 4109.97 569.223 4094.45C589.612 4051.42 591.999 4006.96 579.58 3963.56C557.686 3886.31 598.075 3811.26 576.986 3734.44C587.862 3728.52 587.264 3722.19 576.013 3715.49C586.361 3701.27 609.834 3687.12 570.108 3673.5L561.761 3677.54L567.664 3673.02C597.678 3636.23 542.631 3591.72 602.898 3557.98C606.245 3556.12 610.398 3554.69 612.926 3552.81C612.926 3552.81 606.481 3549.43 605.661 3549.4C601.522 3550.44 598.175 3552.29 594.022 3553.72C578.409 3554.35 547.616 3566.67 550.699 3549.04C560.905 3492.25 567.042 3434.52 583.764 3379.13C591.208 3354.17 547.009 3327.78 588.789 3306.39C592.025 3307.68 596.025 3310.58 598.484 3310.67C608.346 3310.23 606.818 3307.02 595.456 3303.47C602.552 3265.09 576.909 3224.37 625.731 3189.43C629.078 3187.58 632.412 3186.12 634.94 3184.24C634.954 3183.85 629.328 3180.49 627.675 3180.83C623.536 3181.87 620.202 3183.33 616.049 3184.76C594.186 3176.5 572.573 3161.15 581.045 3153.57C630.242 3108 612.377 3056.12 634.585 3008.03C647.904 2979.33 697.448 2947.17 611.413 2920.49C601.385 2925.66 592.968 2931.67 581.328 2935.99C570.494 2940.73 552.312 2944.42 542.714 2937.39C532.324 2929.53 548.867 2925.78 563.701 2923.93C578.535 2922.09 593.37 2920.25 608.204 2918.41C615.705 2915.12 622.386 2911.81 629.886 2908.53C669.847 2892.2 673.124 2869.06 650.829 2849.75C623.743 2826.72 577.699 2852.69 532.001 2845.56C564.683 2826.21 591.587 2807.85 623.339 2791.62C664.285 2770.6 700.244 2704.85 670.824 2678.19C646.96 2656.86 644.403 2636.27 643.527 2614.56C675.752 2608.2 711.24 2602.36 666.833 2581.87C654.249 2589.71 642.485 2597.57 629.901 2605.4C611.149 2601.98 591.592 2598.14 572.841 2594.72C564.507 2598.37 558.534 2604.86 542.255 2601.13C543.936 2600.01 544.019 2597.65 546.492 2597.34C554.742 2596.06 562.979 2595.16 572.049 2593.91C598.717 2582.23 633.192 2581.87 667.667 2581.51C655.068 2566.48 630.996 2551.05 666.762 2537.33C669.165 2538.99 670.762 2540.23 673.165 2541.89C671.582 2540.26 669.179 2538.6 667.581 2537.36C647.023 2515.35 747.418 2483.8 634.701 2469.19C637.312 2464.94 638.284 2460.64 642.521 2456.85C738.246 2371.53 786.679 2347.62 560.285 2275.78C578.535 2246.86 647.514 2291.86 658.305 2265.04C669.958 2237.07 675.068 2208.48 699.791 2182.15C705.749 2176.06 684.664 2169.01 669.108 2168.06C593.768 2163.83 598.351 2126.94 556.305 2109.3C536.651 2108.21 517.83 2106.76 498.175 2105.67C488.161 2110.44 478.966 2115.24 468.966 2119.62C458.256 2120.82 453.743 2132.49 437.686 2122.46C447.575 2121.23 457.465 2120 467.354 2118.78C476.549 2113.98 486.564 2109.2 495.759 2104.4C517.385 2096.1 538.803 2093.7 560.5 2106.68C619.573 2106.8 610.033 2144.7 675.496 2149.76C678.509 2110.84 783.599 2085.77 716.356 2038.07C805.611 2019.93 701.908 1982.38 746.327 1955.96C791.62 1927.99 720.572 1895.13 721.668 1864.03C724.026 1797.1 700.133 1730.04 738.577 1663.59C764.786 1618.4 780.646 1564.17 619.938 1537.61C687.901 1518.33 759.017 1502.7 756.112 1468.7C752.027 1421.65 817.724 1373.51 732.368 1327.53C735.215 1316.6 742.132 1306.59 761.244 1299.78C764.467 1301.47 768.439 1305.15 770.092 1304.82C780.788 1304.01 779.246 1301.2 765.411 1297.95C764.744 1293.59 764.091 1288.84 763.438 1284.09C781.592 1281.18 798.968 1277.06 800.968 1266.88C801.024 1265.31 787.245 1260.49 783.119 1261.13C761.659 1264.71 763.771 1274.64 761.813 1283.63C735.963 1272.08 720.156 1254.97 740.24 1243.85C795.438 1214.26 778.824 1173.47 803.81 1139.66C829.672 1104.31 817.308 1059.33 822.834 1018.92C828.277 980.88 822.275 941.645 853.276 900.166C790.174 897.942 763.52 909.222 758.701 929.55C754.895 944.395 761.688 961.19 717.435 959.63C684.655 958.475 657.263 944.108 650.331 931.25C638.705 911.919 697.557 918.329 709.501 905.348C711.21 903.437 709.668 900.624 709.793 897.08C682.54 878.776 611.397 895.19 596.019 865.873C590.435 861.34 565.878 859.686 584.226 851.267C589.81 855.799 594.588 859.91 600.172 864.442C615.715 865.778 631.244 867.508 646.801 868.451C821.175 879.72 810.536 878.951 836.423 796.296C898.391 597.842 884.243 393.946 959.309 196.347C904.205 130.154 990.181 65.3848 939.994 -0.635178C928.215 -15.635 927.881 -29.4431 952.91 -41.1749C954.508 -39.9361 956.911 -38.2747 958.508 -37.0359C956.924 -38.6684 954.508 -39.9361 952.924 -41.5687C1004.72 -90.987 945.058 -144.333 958.348 -195.502C972.556 -249.398 1016.33 -304.224 948.577 -360.614C943.007 -365.541 970.467 -376.398 974.078 -385.732C989.438 -425.791 1008.91 -466.1 977.573 -508.199C954.042 -538.986 962.541 -570.615 965.29 -602.052C969.968 -664.956 913.85 -725.667 913.625 -789.138C912.565 -898.758 916.45 -1008.99 850.537 -1117.74C896.566 -1189.83 837.614 -1263.26 835.263 -1336.26C829.978 -1512.25 752.478 -1688.03 756.207 -1863.7C757.109 -1889.29 742.371 -1913.46 696.186 -1930.07C671.878 -1938.81 646.932 -1929.44 623.778 -1924.34L615.472 -1921.48L621.361 -1925.61C620.998 -1961.89 739.369 -1944.71 736.548 -1981.07C733.477 -2010.35 729.6 -2040.05 720.793 -2069.53C707.61 -2114.54 752.764 -2161.83 679.59 -2204.22C669.561 -2199.05 660.325 -2193.07 648.685 -2188.75C638.699 -2184.77 626.129 -2177.33 614.224 -2188.78C612.641 -2190.41 625.155 -2196.28 633.434 -2198.35C646.685 -2201.83 662.339 -2203.64 676.367 -2205.91C712.077 -2241.31 713.381 -2278.31 704.962 -2318.82C669.257 -2493.12 648.332 -2667.69 683.146 -2840.69C689.146 -2871.23 675.199 -2894.58 599.068 -2899.63L591.554 -2895.95L596.651 -2900.9C619.194 -2911.93 570.203 -2942.04 653.89 -2941.85C689.17 -2941.79 670.89 -2981.85 616.44 -2996.77C599.369 -3001.32 586.521 -3009.26 571.158 -3015.71C673.887 -3043.63 632.591 -3082.53 595.392 -3121.29C612.837 -3127.38 624.56 -3134.06 607.697 -3144.51C605.294 -3146.17 597.127 -3147.24 593.821 -3146.57C564.069 -3140.53 588.349 -3131 590.53 -3123.04C533.722 -3094.29 566.017 -3056.1 555.81 -3022.56C515.558 -2997.96 537.394 -2965.66 516.408 -2928.95C498.598 -3005.66 515.694 -3071.67 527.053 -3137.89C541.55 -3223.31 542.936 -3309.19 498.373 -3395.12C489.177 -3413.57 495.871 -3440.54 435.894 -3438.31C380.029 -3436.34 393.851 -3409.44 392.379 -3390.97C390.616 -3364.23 392.937 -3336.95 393.605 -3309.33C364.186 -3312.73 366.241 -3324.48 357.476 -3331.89C335.932 -3349.2 347.821 -3383.87 276.191 -3376.93C215.27 -3371.19 236.37 -3341.28 236.468 -3320.78C237.223 -3202.5 247.006 -3084.29 242.025 -2966.21C238.168 -2856.77 252.327 -2746.29 196.869 -2639.45C183.674 -2614.3 190.051 -2585.69 191.566 -2558.83C199.738 -2441.47 160.421 -2326.97 149.758 -2210.67C133.348 -2024.4 63.7259 -1841.59 71.0538 -1653.7C74.1961 -1579.88 54.295 -1504.11 50.0478 -1430.16C45.5093 -1347.93 18.7608 -1264.13 69.921 -1179.15C90.0906 -1146.12 31.4211 -1111.13 37.4509 -1072.68C49.4829 -995 64.7651 -916.413 58.7957 -840.153C50.2577 -737.572 55.6791 -635.288 61.9062 -532.582C68.4245 -438.143 63.4559 -343.715 69.9743 -249.276C79.3139 -118.473 104.21 13.2726 109.48 143.144C114.791 271.834 145.494 401.813 131.151 529.416C116.988 651.902 120.021 775.387 98.4695 898.006C82.0694 990.849 104.936 1087.05 66.3957 1179.5L78.5357 1184.27L72.591 1189.97C69.424 1186.71 67.0903 1183.08 66.3957 1179.5C51.4781 1183.71 51.27 1189.61 61.7155 1195.89C72.8853 1251.47 97.9868 1307.54 47.6936 1360.96C37.4711 1371.63 32.9019 1384.87 37.4166 1396.46C72.5067 1495.06 1.07484 1589.52 19.8026 1686.75C44.0875 1812.56 -30.7602 1934.09 6.65074 2059.97C12.5548 2078.7 -2.9039 2098.26 -11.7649 2116.87C-47.9173 2188.13 -28.385 2262.53 -35.049 2335.22C-39.0614 2379.22 -59.4777 2423.04 -59.3509 2466.02C-60.0128 2577.94 -86.0795 2688.97 -84.2552 2800.19C-81.3855 2998.17 -98.1701 3195.06 -133.803 3391.29C-152.064 3490.38 -180.16 3589.12 -186.934 3688.21C-196.29 3814.02 -223.676 3939.19 -221.587 4066.19C-220.404 4125.75 -210.22 4186.03 -215.593 4245.36C-218.744 4288.22 -161.849 4326.88 -192.169 4372.32C-207.739 4395.03 -124.342 4426.75 -78.8104 4438.6C-17.0274 4454.97 -11.4008 4481.58 28.0613 4502.68C143.584 4507.53 178.904 4459.9 239.88 4429.33C249.075 4424.53 249.394 4415.48 251.282 4408.45C259.49 4385.09 198.819 4383.74 188.637 4369.98C174.538 4350.95 235.696 4361.78 246.877 4347.19L247.641 4348.8ZM-29.1426 4379.65L-24.3781 4384.15L-32.5732 4383.86L-29.9621 4379.62L-29.1426 4379.65ZM574.155 -2774.76C574.155 -2774.76 566.877 -2777.78 566.918 -2778.96C566.988 -2780.93 570.363 -2783.57 573.668 -2784.24C585.225 -2786.2 590.059 -2783.66 585.753 -2777.9C584.878 -2776.36 578.308 -2776.19 574.169 -2775.16L574.155 -2774.76ZM552.811 -2658.05C552.88 -2660.02 555.422 -2662.29 557.131 -2664.21C559.547 -2662.94 564.423 -2661.58 565.187 -2659.98C566.757 -2657.95 567.465 -2654.77 564.951 -2653.29C558.242 -2649.19 552.575 -2651.36 551.992 -2658.08L552.811 -2658.05ZM561.044 -2425.98L562.849 -2430.65L567.628 -2426.54L560.224 -2426.01L561.044 -2425.98ZM541.378 -2380.16L548.906 -2384.23L540.572 -2380.58L541.378 -2380.16ZM601.916 -2235.33C601.916 -2235.33 594.651 -2238.74 593.082 -2240.77C590.026 -2247.19 594.234 -2250.19 603.999 -2247.88C606.444 -2247.39 606.319 -2243.85 607.055 -2241.46C605.347 -2239.55 603.624 -2237.25 601.097 -2235.36L601.916 -2235.33ZM516.65 -2144.13C510.121 -2145.15 502.982 -2152.1 502.301 -2156.07C502.578 -2163.94 510.204 -2170.77 529.775 -2167.32C536.303 -2166.3 539.345 -2159.49 544.123 -2155.38C542.207 -2147.57 535.401 -2140.71 515.83 -2144.16L516.65 -2144.13ZM546.95 -2002.73C541.338 -2006.48 531.615 -2009.98 530.92 -2013.55C529.517 -2020.3 505.39 -2034.16 534.864 -2032.33C556.963 -2030.76 551.436 -2013.61 546.95 -2002.73ZM322.059 -1977.55C318.947 -1982.39 315.002 -1986.86 315.155 -1991.19C315.28 -1994.74 320.322 -1998.11 322.905 -2001.56C325.211 -1997.15 329.989 -1993.04 329.837 -1988.71C329.712 -1985.16 325.489 -1981.76 322.073 -1977.94L322.059 -1977.55ZM289.824 -1901.03L293.254 -1905.25L297.199 -1900.77L290.643 -1901L289.824 -1901.03ZM637.739 -1878.13L639.545 -1882.79L644.323 -1878.68L637.739 -1878.13ZM327.816 -1814.94C301.092 -1824.95 283.451 -1836.61 297.937 -1851.87C300.507 -1854.93 321.119 -1857.75 321.911 -1856.93C341.121 -1843.25 337.344 -1829.19 327.816 -1814.94ZM317.762 -1762.48C312.845 -1762.65 307.108 -1762.85 303.858 -1763.75C294.968 -1767.62 295.954 -1772.31 305.9 -1775.11C308.386 -1775.81 316.567 -1775.13 319.803 -1773.84C328.693 -1769.97 327.721 -1765.67 318.568 -1762.05L317.762 -1762.48ZM329.654 -1704.11C327.89 -1700.63 319.584 -1697.77 313.737 -1694.82C297.903 -1687.89 280.485 -1682.59 264.525 -1695.37C260.538 -1698.66 261.691 -1708.08 264.983 -1708.36C288.873 -1711.07 295.805 -1698.21 312.917 -1694.85C314.695 -1698.73 313.223 -1703.51 318.264 -1706.88C323.348 -1711.43 331.488 -1709.57 328.835 -1704.14L329.654 -1704.11ZM647.763 -1673.59C652.041 -1678.56 656.318 -1683.54 660.596 -1688.51L669.708 -1690.95L663.819 -1686.82C658.735 -1682.27 652.832 -1677.75 647.749 -1673.19L647.763 -1673.59ZM284.612 -1636.72C284.612 -1636.72 290.196 -1632.19 288.515 -1631.06C287.654 -1629.91 281.084 -1629.75 276.959 -1629.1C273.737 -1630.79 268.042 -1632.18 268.097 -1633.75C266.708 -1640.9 273.306 -1641.85 284.612 -1636.72ZM681.671 -1611.3C674.461 -1616.28 677.864 -1619.71 690.199 -1620.46C693.477 -1620.34 699.963 -1618.14 699.936 -1617.35C699.866 -1615.38 695.699 -1613.56 693.171 -1611.68C689.074 -1611.82 682.462 -1610.48 681.671 -1611.3ZM265.779 -1591.26L268.404 -1595.9L273.169 -1591.4L265.793 -1591.66L265.779 -1591.26ZM353.889 -1134.46C353.889 -1134.46 360.334 -1131.08 363.556 -1129.39C361.848 -1127.47 360.139 -1125.56 358.445 -1124.05C354.375 -1124.98 347.819 -1125.21 345.416 -1126.87C337.415 -1132.67 340.804 -1135.71 353.069 -1134.48L353.889 -1134.46ZM350.581 -1180.3L360.318 -1177.19L365.888 -1172.27L357.804 -1175.71L350.567 -1179.9L350.581 -1180.3ZM237.961 -1197.67L231.252 -1193.57L222.946 -1190.71L228.016 -1194.87L237.127 -1197.3L237.961 -1197.67ZM222.291 -1241.97C227.944 -1239.41 233.584 -1236.45 239.223 -1233.49C235.903 -1232.43 232.584 -1231.36 229.264 -1230.3C224.444 -1233.23 218.805 -1236.18 213.971 -1238.72C217.291 -1239.79 222.291 -1241.97 223.11 -1241.95L222.291 -1241.97ZM367.463 -1356.69L373.061 -1352.55L365.658 -1352.02L367.463 -1356.69ZM264.576 -1463.98L257.854 -1459.49C248.965 -1440.1 300.734 -1418.96 259.051 -1400.32C260.468 -1393.97 265.969 -1387.07 262.482 -1381.28C260.705 -1377.4 243.537 -1379.19 243.703 -1383.91C243.911 -1389.82 252.301 -1395.04 257.426 -1400.77C210.574 -1421.74 212.907 -1441.37 256.229 -1459.94L264.562 -1463.59L264.576 -1463.98ZM366.266 -1415.86L371.864 -1411.72L364.461 -1411.19L367.086 -1415.83L366.266 -1415.86ZM360.635 -1558.75L362.44 -1563.42L368.038 -1559.28L360.635 -1558.75ZM713.205 -1504.94L709.26 -1509.41L717.455 -1509.12L714.025 -1504.91L713.205 -1504.94ZM253.073 -1510.12L251.559 -1513.72L261.366 -1512.58L253.087 -1510.51L253.073 -1510.12ZM371 -1480.34C371 -1480.34 363.848 -1463.64 351.291 -1456.59L342.18 -1454.16L348.874 -1457.86C360.597 -1464.54 335.72 -1480.4 371 -1480.34ZM714.43 -1446.56L710.485 -1451.03L717.861 -1450.77L714.43 -1446.56ZM711.225 -1355.61C713.92 -1362.22 720.725 -1369.07 729.92 -1373.87C738.268 -1377.92 749.63 -1374.36 746.964 -1368.54C743.45 -1361.97 733.394 -1356.01 727.449 -1350.31C716.657 -1346.75 709.35 -1348.98 712.045 -1355.58L711.225 -1355.61ZM603.315 -1343.65C608.689 -1379.72 549.308 -1417.69 613.658 -1450.9C619.758 -1414.42 638.969 -1377.47 603.315 -1343.65ZM598.928 -1289.01C594.955 -1292.7 586.885 -1296.53 586.996 -1299.68C587.135 -1303.62 594.732 -1309.66 600.483 -1309.85C620.207 -1310.73 624.888 -1303.86 618.901 -1296.98C616.318 -1293.52 605.581 -1291.54 598.109 -1289.04L598.928 -1289.01ZM325.938 -1226.1C342.771 -1261.38 353.396 -1283.47 364.035 -1305.96C371.384 -1281.66 400.79 -1254.6 325.938 -1226.1ZM599.283 -1112.8C580.281 -1132.39 588.933 -1145.09 609.851 -1156.58C618.754 -1176.37 602.349 -1199.81 640.656 -1215.8L648.963 -1218.66L642.254 -1214.56C643.144 -1193.24 671.8 -1168.19 613.088 -1155.28C608.532 -1142.43 604.796 -1129.56 598.463 -1112.83L599.283 -1112.8ZM228.298 -1086.46C225.228 -1092.48 231.214 -1099.36 233.089 -1106L225.852 -1110.19L233.922 -1106.36C239.451 -1100.25 248.257 -1094.03 248.049 -1088.12C247.883 -1083.4 230.618 -1082.43 228.298 -1086.46ZM242.705 -680.336C261.749 -661.926 249.804 -648.945 222.33 -637.694C235.095 -650.646 193.855 -667.867 242.705 -680.336ZM220.877 -852.573C229.947 -853.831 233.947 -850.93 230.447 -844.747C229.572 -843.201 225.419 -841.771 222.919 -840.676C221.349 -842.702 218.96 -844.757 217.391 -846.784C218.279 -848.723 218.404 -852.266 220.891 -852.967L220.877 -852.573ZM225.47 -959.629L222.025 -955.02L218.08 -959.495L225.456 -959.235L225.47 -959.629ZM270.277 -997.074L271.763 -992.685L260.332 -994.271L269.444 -996.709L270.277 -997.074ZM352.324 -1020.2C356.242 -991.679 358.035 -972.696 360.647 -953.683C345.742 -973.129 321.795 -992.105 352.324 -1020.2ZM618.385 -1026.2C619.885 -1022.2 613.177 -1018.1 609.76 -1014.28C602.968 -1007.82 596.412 -1008.05 594.189 -1014.83C592.689 -1018.82 594.508 -1023.88 599.536 -1026.86C606.273 -1031.75 616.913 -1030.98 618.371 -1025.8L618.385 -1026.2ZM345.364 -1055.53L341.419 -1060L348.794 -1059.74L345.364 -1055.53ZM669.891 -974.32L675.766 -978.055C685.308 -992.697 680.182 -1010.22 708.475 -1021.44C721.698 -1024.13 734.171 -1028.82 748.145 -1029.51C769.521 -1030.72 789.064 -1026.49 791.107 -1014.59C791.774 -1010.23 789.093 -1004.02 782.468 -1002.28C760.105 -996.368 747.326 -1006.28 732.769 -1012.31C724.671 -1015.36 716.573 -1018.4 708.475 -1021.44C704.628 -1005.42 702.421 -989.335 678.183 -976.787L669.891 -974.32ZM792.277 -931.377C792.277 -931.377 785.804 -933.971 784.221 -935.603C782.651 -937.629 781.943 -940.808 784.457 -942.296C791.165 -946.396 796.832 -944.225 796.597 -937.532C796.527 -935.564 793.985 -933.288 792.277 -931.377ZM687.247 -791.597L676.635 -793.153L685.747 -795.591L687.234 -791.203L687.247 -791.597ZM339.25 -765.624C340.124 -790.427 340.943 -813.655 340.136 -837.334C339.607 -868.887 341.246 -868.829 389.026 -897.497C393.042 -848.477 378.404 -805.633 339.236 -765.23L339.25 -765.624ZM651.318 -703.384L651.457 -707.321L660.416 -705.428L651.318 -703.384ZM714.635 -544.269C681.701 -564.35 713.356 -577.819 719.619 -592.577C715.688 -597.446 691.159 -599.887 711.104 -607.068C714.216 -602.228 717.341 -597.782 719.633 -592.971C750.192 -575.338 750.47 -559.956 714.635 -544.269ZM625.627 -579.728C625.627 -579.728 617.376 -578.442 613.251 -577.799C611.681 -579.825 610.112 -581.851 608.528 -583.484C611.862 -584.943 614.417 -587.612 617.709 -587.89C632.488 -588.158 634.836 -584.922 624.807 -579.757L625.627 -579.728ZM335.178 -510.338C374.609 -558.221 292.934 -615.497 369.188 -660.505C384.66 -680.458 326.28 -700.253 364.059 -724.543C404.258 -701.053 404.356 -680.552 370.813 -660.054C409.943 -606.249 397.514 -556.232 335.178 -510.338ZM717.041 -472.837C704.776 -474.057 700.803 -477.745 707.54 -482.632C712.582 -486.002 720.11 -490.073 728.333 -490.572C739.014 -490.983 743.765 -486.086 737.028 -481.199C731.986 -477.829 723.694 -475.362 717.041 -472.837ZM246.577 -440.931C244.035 -438.656 225.978 -438.504 220.297 -440.281C192.753 -450.317 196.419 -461.225 217.295 -471.527C218.281 -476.222 217.614 -480.582 216.961 -485.335C192.737 -496.437 195.556 -506.587 216.418 -516.494L225.544 -519.326L218.835 -515.227C218.488 -505.384 218.142 -495.542 218.628 -486.065C229.935 -480.936 230.574 -475.789 218.101 -471.104C219.324 -459.236 265.966 -455.621 246.577 -440.931ZM704.737 -403.106C704.89 -407.437 705.848 -411.345 706.82 -415.647C709.223 -413.985 713.265 -412.266 714.835 -410.24C716.405 -408.214 714.669 -405.516 714.599 -403.547C714.571 -402.76 708.835 -402.962 705.543 -402.684L704.737 -403.106ZM610.342 -402.097L613.772 -406.312L617.717 -401.837L611.161 -402.068L610.342 -402.097ZM359.267 -402.272C344.821 -411.454 338.348 -414.047 339.21 -415.199C345.446 -429.17 352.487 -442.718 360.362 -456.631C360.404 -457.812 369.418 -457.494 373.544 -458.137C373.127 -446.326 372.725 -434.909 370.67 -423.156C370.503 -418.432 366.239 -413.852 359.267 -402.272ZM340.032 -345.4C326.267 -350.615 323.239 -357.817 330.031 -364.279C333.42 -367.313 348.296 -370.336 353.171 -368.982C368.617 -364.89 369.978 -356.958 364.006 -350.468C360.617 -347.434 348.297 -347.079 340.852 -345.371L340.032 -345.4ZM200.772 -328.627C199.3 -333.409 197.813 -337.798 196.341 -342.58C198.216 -349.215 196.882 -357.934 214.967 -358.873C225.648 -359.285 230.357 -353.206 223.62 -348.319C215.19 -341.915 226.274 -330.488 200.786 -329.021L200.772 -328.627ZM681.964 -269.099C672.977 -270.204 655.934 -275.535 656.781 -276.293C668.892 -293.999 706.784 -298.182 736.591 -305.804C742.383 -307.176 754.551 -303.2 774.136 -300.145C755.399 -280.702 739.204 -263.534 681.964 -269.099ZM362.523 -261.829C333.813 -262.052 328.437 -272.491 327.951 -281.968C326.686 -292.656 314.907 -307.655 361.744 -309.552C372.662 -293.4 382.774 -277.671 362.523 -261.829ZM708.148 -220.48C703.259 -221.441 697.522 -221.643 694.3 -223.333C684.646 -228.798 688.049 -232.226 702.8 -231.706C706.078 -231.59 709.259 -228.719 712.482 -227.029C710.773 -225.118 709.051 -222.814 708.162 -220.874L708.148 -220.48ZM366.581 -213.99L361.803 -218.1L369.206 -218.628L367.401 -213.961L366.581 -213.99ZM362.735 -174.708C365.014 -169.503 355.11 -167.881 342.901 -170.676C335.622 -173.692 328.344 -176.708 321.871 -179.301C329.302 -180.616 337.608 -183.477 343.317 -182.487C350.665 -181.44 361.194 -177.521 362.722 -174.314L362.735 -174.708ZM659.093 -132.336L665.801 -136.435C690.858 -148.955 712.776 -165.526 764.961 -156.198C735.751 -142.248 701.193 -139.524 668.218 -135.168L659.093 -132.336ZM843.443 -54.8869L839.498 -59.3619L846.054 -59.1309L842.623 -54.9158L843.443 -54.8869ZM303.222 -69.1937L306.666 -73.8023L312.25 -69.2695L304.055 -69.5583L303.222 -69.1937ZM332.469 148.636C340.442 155.224 338.581 161.466 326.108 166.151C314.524 168.896 306.385 167.032 305.787 160.704C305.203 153.983 300.605 144.754 308.12 141.077C323.996 132.965 328.538 143.768 333.302 148.272L332.469 148.636ZM312.169 -20.394C320.364 -20.1052 333.351 -16.0998 334.893 -13.2862C338.671 -4.0869 323.837 -2.24473 309.169 -5.1267C301.835 -6.56768 297.099 -11.8589 290.653 -15.2394C298.098 -16.948 305.613 -20.6251 312.988 -20.3651L312.169 -20.394ZM757.204 17.3625L764.718 13.6856C765.065 3.84326 764.592 -6.02783 764.105 -15.5053L756.869 -19.7021L765.758 -15.8413C790.316 -14.1876 818.956 -35.2525 837.875 -13.3C850.474 1.72863 834.487 12.9909 795.109 12.7858C785.275 12.4392 776.177 14.4836 767.121 15.347L757.19 17.7563L757.204 17.3625ZM671.073 39.9492C641.278 23.9204 640.181 8.50864 661.237 -6.91077C693.253 -7.35928 695.309 4.14447 694.185 12.7768C693.838 22.6191 710.534 37.7921 671.073 39.9492ZM341.704 96.1418C341.704 96.1418 335.856 99.0893 333.342 100.577C327.633 99.5879 323.564 98.6559 319.494 97.7241C321.202 95.8134 322.133 92.6929 324.633 91.5985C335.453 87.2496 342.773 89.0841 341.718 95.748L341.704 96.1418ZM770.904 140.83L761.126 138.909L770.21 137.258L770.085 140.801L770.904 140.83ZM625.731 232.288C633.882 187.245 561.722 139.371 681.896 105.371C664.758 149.309 770.448 200.335 625.731 232.288ZM286.346 269.996C262.955 258.529 270.927 241.86 287.789 229.052C297.914 221.131 313.721 214.987 328.763 207.239C359.377 223.297 319.805 228.603 316.166 238.724C313.416 246.905 324.709 252.427 327.765 258.841C335.336 276.846 308.917 281.434 286.346 269.996ZM720.034 350.318C716.076 346.237 710.464 342.491 707.338 338.045C703.435 332.389 710.936 329.106 720.672 332.208C727.159 334.408 731.076 339.67 732.577 343.665C734.813 350.051 728.993 352.211 720.034 350.318ZM652.766 373.175C652.766 373.175 642.182 370.831 642.224 369.65C642.293 367.682 646.474 365.464 648.182 363.554C653.099 363.727 659.711 362.383 661.308 363.622C670.143 369.058 666.74 372.485 652.766 373.175ZM288.296 400.932C285.962 397.303 279.545 393.135 281.281 390.436C283.045 386.951 289.781 382.064 296.351 381.902C307.046 381.096 310.978 385.965 304.241 390.852C300.019 394.25 294.157 397.591 288.282 401.326L288.296 400.932ZM777.237 450.091C777.237 450.091 769.139 447.046 769.195 445.472C769.264 443.503 772.653 440.469 776.778 439.826C789.96 438.32 795.599 441.278 790.474 447.01C788.78 448.527 782.196 449.083 778.071 449.726L777.237 450.091ZM284.493 462.291L287.923 458.076L291.868 462.55L284.493 462.291ZM645.62 529.413C647.148 532.621 638.8 536.663 626.022 550.009C607.547 515.458 613.13 496.734 648.104 482.199C651.438 480.74 672.634 484.64 674.189 487.06C684.26 503.971 636.396 511.744 646.439 529.442L645.62 529.413ZM746.309 559.372C753.893 553.726 767.977 549.886 778.811 545.144L786.297 542.254L781.228 546.412C774.436 552.873 770.075 560.209 760.06 564.98C750.893 568.993 739.573 564.259 746.295 559.765L746.309 559.372ZM270.69 551.283C276.19 534.922 276.8 517.599 304.302 505.56C310.149 502.613 315.997 499.665 322.636 497.534C324.303 496.805 330.011 497.794 334.095 498.332C324.97 501.164 315.844 503.996 306.718 506.828C289.009 520.394 320.999 543.99 270.69 551.283ZM607.397 589.559L602.633 585.055L609.189 585.286L606.578 589.53L607.397 589.559ZM764.315 677.078C762.746 675.052 759.551 672.574 759.62 670.605C759.87 663.519 765.662 662.147 772.038 667.496C774.441 669.157 773.51 672.278 771.802 674.188C771.76 675.369 766.816 675.983 764.315 677.078ZM586.889 752.421L593.597 748.321C561.106 692.385 558.771 642.242 691.002 615.367C689.212 666.154 617.347 703.039 594.403 748.744L586.069 752.392L586.889 752.421ZM668.41 790.77C671.021 786.526 673.632 782.282 676.244 778.038C690.106 780.498 704.774 783.38 718.636 785.839C714.414 789.238 712.608 793.904 705.983 795.642C691.912 799.088 677.12 799.749 668.41 790.77ZM581.279 795.189L575.681 791.05L583.084 790.523L581.279 795.189ZM616.279 1059.34C616.279 1059.34 611.501 1055.23 606.736 1050.73C627.793 1035.31 660.823 1029.38 700.881 1033.55C709.062 1034.23 722.536 1047.71 718.286 1051.9C695.341 1074.35 652.323 1061.01 616.265 1059.73L616.279 1059.34ZM498.396 1074.9L506.73 1071.25C497.575 1051.61 591.345 1021.8 474.35 1012.16L466.03 1015.42L471.113 1010.87C506.739 977.827 542.366 944.789 579.714 909.446C608.495 930.958 580.619 953.627 618.622 969.551C634.791 976.427 654.07 988.144 630.083 993.605C558.134 1009.6 581.04 1058.1 506.716 1071.64L497.576 1074.87L498.396 1074.9ZM561.485 1100.77L557.221 1105.35L552.47 1100.45L561.485 1100.77ZM619.532 1130.01C614.754 1125.9 608.309 1122.52 607.614 1118.95C607.767 1114.62 612.031 1110.04 615.461 1105.83C619.434 1109.51 627.518 1112.95 627.393 1116.49C627.241 1120.83 622.977 1125.41 619.518 1130.41L619.532 1130.01ZM551.309 1226.55C575.312 1267.21 573.659 1267.54 466.43 1283.47C521.974 1244.04 502.929 1202.38 521.512 1164.01C546.723 1170.41 586.809 1173.8 563.961 1193.49C551.266 1204.47 543.572 1213.27 551.309 1226.55ZM567.953 1313.07L573.022 1308.91C583.856 1304.17 594.69 1299.42 606.344 1294.71C638.915 1278.51 667.43 1260.99 688.653 1240.85C691.752 1269.34 709.435 1303.07 607.955 1295.56C597.121 1300.3 587.093 1305.46 576.259 1310.21L567.953 1313.07ZM145.589 1330.51L149.853 1325.93L153.797 1330.4L145.602 1330.11L145.589 1330.51ZM454.002 1356.75C441.695 1356.71 436.07 1353.36 437.903 1347.9C437.958 1346.33 445.375 1345.41 448.695 1344.34C460.988 1344.77 466.627 1347.73 464.78 1353.58C464.724 1355.15 458.099 1356.89 453.988 1357.14L454.002 1356.75ZM650.324 1420.43C638.851 1420.02 634.031 1417.09 639.129 1412.15C642.546 1408.33 648.407 1404.99 653.463 1401.22C657.463 1404.12 664.714 1407.93 663.811 1410.26C662.853 1414.17 655.366 1417.06 650.324 1420.43ZM422.197 1444.32C417.364 1441.78 420.044 1435.57 419.405 1430.42C431.086 1424.92 417.126 1401.96 461.671 1418.51C481.118 1425.5 500.091 1422.62 512.731 1413.21C524.509 1404.96 527.689 1384.57 561.456 1404.29C572.721 1410.6 573.097 1423.23 569.513 1431.77C565.041 1442.26 438.324 1452.38 422.211 1443.92L422.197 1444.32ZM682.343 1466.49C682.343 1466.49 673.342 1465.78 669.258 1465.24C669.328 1463.28 669.425 1460.52 671.925 1459.42C681.939 1454.65 689.287 1455.7 690.704 1462.06C690.649 1463.63 686.454 1466.24 682.343 1466.49ZM153.942 1466L149.178 1461.5L157.373 1461.79L154.762 1466.03L153.942 1466ZM456.66 1490.86C466.591 1488.45 475.703 1486.02 485.634 1483.61L494.76 1480.77L488.871 1484.9C478.134 1486.89 467.397 1488.88 457.48 1490.89L456.66 1490.86ZM174.544 1533.35C181.739 1538.73 178.336 1542.15 166.807 1543.32C161.182 1539.97 152.264 1536.9 149.931 1533.27C148.403 1530.06 154.278 1526.33 156.875 1522.48C162.501 1525.83 169.765 1529.24 174.544 1533.35ZM629.039 1605.34C629.039 1605.34 621.788 1601.53 622.649 1600.38C624.399 1597.29 629.414 1594.71 632.803 1591.67C635.206 1593.33 637.595 1595.39 639.998 1597.05C636.609 1600.09 632.414 1602.7 629.025 1605.73L629.039 1605.34ZM417.649 1619.96L425.177 1615.89C410.3 1595.66 382.353 1573.78 424.008 1555.93C455.662 1542.47 489.068 1549.16 525.335 1567.78C473.346 1576.2 461.804 1601.02 425.983 1616.31L416.843 1619.54L417.649 1619.96ZM108.655 1656.77C119.419 1630.74 129.335 1605.47 139.251 1580.19L132.834 1576.03L141.738 1579.49C162.389 1614.38 151.361 1640.14 108.655 1656.77ZM635.933 1712.4L630.335 1708.26L638.558 1707.77L635.933 1712.4ZM483.493 1753.94L490.993 1750.66C466.944 1719.06 479.42 1690.99 528.423 1666.44C538.451 1661.27 544.438 1654.39 552.035 1648.35C551.258 1670.4 548.037 1691.96 548.079 1714.04C547.399 1733.33 532.177 1746.19 492.591 1751.89L482.659 1754.3L483.493 1753.94ZM396.985 1717.39C408.305 1722.12 406.541 1725.61 392.582 1725.9C389.304 1725.79 383.637 1723.62 382.053 1721.98C380.47 1720.35 383.831 1718.1 384.734 1715.77C388.831 1715.92 394.568 1716.12 397.804 1717.41L396.985 1717.39ZM118.59 1747.39C125.062 1726.72 109.949 1713.18 137.701 1694.06C133.715 1714.02 147.203 1727.11 118.59 1747.39ZM635.769 1786.9L631.825 1782.42L638.381 1782.65L634.95 1786.87L635.769 1786.9ZM113.397 1778.34C118.314 1778.52 124.05 1778.72 127.287 1780.02C137.774 1785.12 135.177 1788.97 122.051 1788.9C118.773 1788.78 113.119 1786.22 111.536 1784.59C109.952 1782.95 113.314 1780.71 114.202 1778.77L113.397 1778.34ZM429.588 1793.43L421.517 1789.6L431.268 1792.3C466.507 1793.55 500.899 1795.55 536.137 1796.79C500.58 1804.6 463.231 1839.94 429.602 1793.03L429.588 1793.43ZM632.632 1829.36L635.271 1824.33L640.855 1828.86L632.632 1829.36ZM142.668 1902.36C172.74 1910.52 145.433 1917.04 133.724 1923.33C127.862 1926.67 122.793 1930.83 117.723 1934.99C123.307 1939.52 146.212 1941.51 128.697 1949.56C123.932 1945.06 119.987 1940.58 115.209 1936.47C110.528 1929.61 100.11 1922.54 101.957 1916.69C104.749 1907.33 120.708 1896.86 142.654 1902.75L142.668 1902.36ZM129.873 1846.33C125.595 1851.3 121.317 1856.28 117.859 1861.28L108.733 1864.11L116.248 1860.43C118.025 1856.56 119.817 1852.28 122.414 1848.43C122.456 1847.25 127.387 1847.03 130.693 1846.36L129.873 1846.33ZM623.622 1945.32C623.789 1940.6 623.15 1935.45 622.497 1930.7C616.052 1927.32 609.593 1924.33 603.967 1920.98C602.356 1920.14 604.912 1917.47 605.787 1915.92C611.357 1920.85 616.927 1925.77 622.497 1930.7C639.609 1934.06 670.751 1935.16 667.14 1944.49C662.543 1958.52 638.374 1945.84 622.789 1945.69L623.622 1945.32ZM464.028 1957.04C444.346 1956.75 424.65 1956.84 404.148 1956.51C397.37 1962.58 393.829 1969.94 383.828 1974.32C374.661 1978.33 364.146 1974.02 370.049 1969.5C377.633 1963.85 390.897 1959.99 400.912 1955.21C412.745 1922.13 354.183 1884.19 420.048 1854.58C435.258 1865.37 488.359 1871.97 458.247 1888.25C413.078 1912.68 457.471 1933.56 465.694 1956.31C521.282 1962.22 568.549 1948.11 621.136 1946.02C593.191 1970.66 546.757 1984.4 489.211 1987.5C407.831 1991.72 467.737 1968.21 463.194 1957.41L464.028 1957.04ZM604.833 2036.11L607.458 2031.47L613.056 2035.61L604.833 2036.11ZM108.157 2020.19C103.364 2016.47 96.9055 2013.48 97.0026 2010.73C96.3357 2006.37 99.7802 2001.76 100.766 1997.06C104.767 1999.96 111.239 2002.56 111.962 2005.34C112.629 2009.7 110.004 2014.34 108.157 2020.19ZM436.613 2059.75C413.626 2060.12 381.957 2073.98 371.969 2054.71C365.802 2043.46 401.791 2046.7 420.723 2045C425.667 2044.38 431.404 2044.59 436.321 2044.76C448.697 2042.83 466.129 2037.14 472.615 2039.34C496.145 2046.87 478.658 2054.13 468.574 2060.87C465.255 2061.94 461.074 2064.16 457.796 2064.04C450.434 2063.39 443.128 2061.16 436.613 2059.75ZM111.576 2086.14C111.493 2088.5 113.841 2091.73 111.327 2093.22C103.798 2097.29 98.1174 2095.52 97.5476 2088.4C97.617 2086.43 100.978 2084.19 102.687 2082.27C105.923 2083.57 108.34 2084.84 111.562 2086.53L111.576 2086.14ZM371.013 2105.13C371.013 2105.13 364.485 2104.11 360.415 2103.18C362.985 2100.12 366.374 2097.09 369.763 2094.05C373.846 2094.59 377.097 2095.49 381.18 2096.03C377.791 2099.06 375.222 2102.13 371.833 2105.16L371.013 2105.13ZM370.725 2183.17C360.891 2182.82 357.918 2174.05 366.141 2173.55C378.489 2172.41 393.962 2175.71 407.866 2176.99L416.2 2173.34L409.491 2177.44C397.102 2179.76 383.837 2183.63 371.544 2183.2L370.725 2183.17ZM107.233 2186.1C99.9268 2183.88 86.8564 2182.23 85.3006 2179.81C80.7165 2170.19 90.828 2162.66 105.801 2156.88C108.954 2160.54 112.941 2163.84 117.678 2169.13C114.219 2174.13 110.733 2179.92 107.233 2186.1ZM349.42 2228.93L339.627 2227.41L348.725 2225.36L348.6 2228.9L349.42 2228.93ZM82.303 2241.59C82.4001 2238.84 93.2063 2234.88 100.61 2234.36C107.193 2233.8 116.125 2236.48 124.292 2237.55C116.819 2240.05 110.166 2242.58 102.694 2245.07C91.9151 2248.24 81.3031 2246.68 82.303 2241.59ZM57.1598 2512.69C58.6323 2517.47 61.7577 2521.92 61.5913 2526.65C61.4941 2529.4 55.6605 2531.95 51.4242 2535.75C49.1738 2529.75 46.0622 2524.92 47.0344 2520.61C47.1315 2517.86 53.7847 2515.33 57.9793 2512.72L57.1598 2512.69ZM366.246 2356.85C337.381 2314.44 417.303 2305.04 441.943 2281.07L451.096 2277.45L442.762 2281.1C500.241 2326.49 437.389 2340.43 366.246 2356.85ZM437.043 2373.53L444.585 2369.07L452.891 2366.21L447.016 2369.94L437.877 2373.17L437.043 2373.53ZM57.7098 2380.66L63.6267 2375.75C67.8758 2348.3 72.125 2320.86 76.388 2293.02C86.8622 2321.77 105.518 2351.21 66.0575 2376.62L58.5293 2380.69L57.7098 2380.66ZM557.597 2445.18C561.069 2439.79 564.528 2434.79 568 2429.39C578.695 2428.58 568.485 2415.61 590.46 2420.72C584.598 2424.06 578.723 2427.8 572.042 2431.11C566.958 2435.66 561.861 2440.6 556.778 2445.16L557.597 2445.18ZM46.7401 2459.11C43.8089 2449.15 52.2953 2441.17 65.671 2434.16C74.7827 2431.72 61.2534 2419.81 85.7137 2424.22C79.8385 2427.95 73.9632 2431.69 68.0879 2435.42C56.3512 2442.5 80.4508 2457.15 46.7401 2459.11ZM354.697 2544.86C354.35 2554.7 354.004 2564.54 353.657 2574.38C326.946 2563.98 333.877 2553.58 351.461 2543.56C361.461 2539.18 372.268 2535.23 382.268 2530.85C384.254 2521.07 388.685 2511.76 388.212 2501.89C383.376 2452.84 433.533 2473.14 479.787 2487.77C495.192 2493.05 528.402 2482 527.792 2499.32C527.736 2500.89 492.622 2496.11 477.287 2488.87C403.643 2483.12 416.367 2517.86 384.685 2532.12C373.879 2536.07 363.878 2540.45 353.072 2544.41L354.697 2544.86ZM355.282 2574.84C375.964 2570.05 396.632 2565.65 418.133 2560.89C430.509 2558.96 447.107 2553.63 454.427 2555.47C477.971 2562.6 462.929 2570.35 451.206 2577.03C420.358 2614.18 388.077 2598.85 355.282 2574.84ZM56.802 2592.7C56.802 2592.7 64.2747 2590.2 68.3723 2590.35C70.8308 2590.43 73.2061 2592.88 76.4425 2594.18C73.9146 2596.06 72.1784 2598.76 68.8865 2599.04C57.3302 2601 52.4964 2598.46 57.6216 2592.73L56.802 2592.7ZM325.837 2618.73C316.725 2621.17 329.463 2632.26 306.6 2629.09C312.475 2625.36 317.531 2621.6 323.406 2617.86L331.726 2614.61L325.837 2618.73ZM562.161 2641.65L557.397 2637.14L564.772 2637.4L562.161 2641.65ZM468.475 2669.09L463.71 2664.59L471.086 2664.85L468.475 2669.09ZM470.103 2739.31C470.103 2739.31 462.838 2735.9 462.088 2733.91C459.032 2727.49 463.241 2724.49 472.186 2726.77C474.631 2727.25 474.506 2730.8 475.242 2733.19C473.534 2735.1 471.811 2737.4 470.103 2739.31ZM331.067 2796.3C307.51 2789.56 325.9 2779.96 336.817 2772.85C347.734 2765.75 361.096 2759.12 373.652 2752.08C392.14 2762.98 387.695 2772.67 381.64 2781.53C373.876 2792.29 361.112 2805.24 330.234 2796.67L331.067 2796.3ZM31.3695 2918.58L35.3144 2923.05L28.7584 2922.82L32.189 2918.61L31.3695 2918.58ZM327.199 2952.65C264.108 2903.52 267.622 2896.95 362.421 2884.52L371.574 2880.9L363.24 2884.55C352.615 2906.64 375.465 2933.46 328.032 2952.29L327.199 2952.65ZM53.1513 2975.71L43.345 2974.58L51.6233 2972.51L53.1513 2975.71ZM2.66592 3081.15L7.44421 3085.26L0.860432 3085.82L2.66592 3081.15ZM283.379 3031.92L286.004 3027.28L290.769 3031.78L283.393 3031.52L283.379 3031.92ZM491.105 3074.71L491.23 3071.17L500.203 3072.67L491.105 3074.71ZM355.499 3104.23C355.499 3104.23 347.318 3103.55 346.526 3102.73C344.956 3100.7 344.234 3097.92 346.762 3096.04C351.915 3089.52 356.804 3090.48 358.999 3098.04C358.929 3100.01 357.207 3102.32 356.318 3104.26L355.499 3104.23ZM11.5744 3200.9L8.12994 3205.51L4.185 3201.04L11.5606 3201.3L11.5744 3200.9ZM9.85021 3156.69L6.40572 3161.3L2.46077 3156.83L9.83635 3157.09L9.85021 3156.69ZM505.308 3253.78C505.308 3253.78 505.474 3249.05 505.558 3246.69C508.877 3245.63 512.183 3244.95 515.503 3243.89C517.892 3245.94 521.087 3248.42 521.017 3250.39C519.934 3257.84 513.323 3259.18 506.127 3253.81L505.308 3253.78ZM250.888 3301.97C216.566 3298 226.108 3283.36 228.163 3271.6C238.051 3223.86 245.48 3176.03 356.487 3146.05C344.932 3194.52 336.795 3239.17 322.115 3283.19C316.643 3298.77 282.752 3305.85 250.069 3301.94L250.888 3301.97ZM320.675 3393.91C325.716 3367.28 367.941 3356.55 399.651 3341.5C404.707 3337.74 405.665 3333.83 401.72 3329.36L396.136 3324.82L404.22 3328.26C415.527 3333.39 416.18 3338.14 404.526 3342.86C396.305 3366.61 389.708 3390.82 320.689 3393.51L320.675 3393.91ZM397.254 3479.38C397.254 3479.38 393.281 3475.7 391.712 3473.67C395.045 3472.21 398.42 3469.57 401.698 3469.69C416.463 3469.81 419.63 3473.08 409.602 3478.24C407.088 3479.73 399.685 3480.26 397.24 3479.78L397.254 3479.38ZM299.15 3492.48L292.746 3487.92L301.789 3487.45L299.15 3492.48ZM214.839 3510.01C214.839 3510.01 205.894 3507.72 204.31 3506.09C202.727 3504.46 205.268 3502.18 206.171 3499.85C210.255 3500.39 215.186 3500.17 218.422 3501.46C230.562 3506.23 228.798 3509.71 214.853 3509.61L214.839 3510.01ZM-52.4275 3596.77C-53.248 3573.48 -54.9296 3551.35 -53.347 3529.73C-53.1112 3523.03 -41.4022 3516.75 -34.6104 3510.28C-26.3182 3507.82 -39.8613 3496.3 -16.1927 3499.9C-21.2485 3503.66 -26.3043 3507.42 -32.1935 3511.55C6.08851 3542.86 -21.093 3569.1 -53.247 3596.74L-52.4275 3596.77ZM380.635 3648.3C335.852 3615.18 279.016 3644.71 227.692 3634.23C240.289 3602.75 283.472 3588.11 334.989 3569.82C383.216 3598.33 378.3 3621.41 380.635 3648.3ZM564.957 3726.53L557.679 3723.52L565.152 3721.02L564.957 3726.53ZM-44.8101 3729.88L-40.0318 3733.99L-46.6156 3734.54L-44.8101 3729.88ZM281.049 3773.29L289.383 3769.64L297.717 3765.99L290.189 3770.06L281.855 3773.71L281.049 3773.29ZM194.973 3771.04C197.806 3760.5 200.64 3749.96 204.514 3733.14C212.321 3744.46 218.724 3749.02 217.766 3752.93C215.863 3760.35 224.489 3771.69 194.973 3771.04ZM369.515 3800.85C369.515 3800.85 362.223 3798.22 360.64 3796.59C359.07 3794.56 358.375 3790.99 360.889 3789.5C368.417 3785.43 374.099 3787.21 374.668 3794.33C374.599 3796.29 371.238 3798.54 369.515 3800.85ZM-69.2666 3818.49C-69.2666 3818.49 -77.4477 3817.81 -78.2395 3817C-79.8092 3814.97 -80.5316 3812.19 -78.0037 3810.3C-72.8508 3803.78 -67.9615 3804.74 -65.7666 3812.31C-65.8359 3814.28 -67.5582 3816.58 -69.2666 3818.49ZM371.713 3878.18L366.949 3873.68L373.505 3873.91L370.894 3878.15L371.713 3878.18ZM272.165 3885.71C272.317 3881.38 273.275 3877.47 274.248 3873.17C276.651 3874.83 280.693 3876.55 281.443 3878.55C283.012 3880.58 281.29 3882.88 281.221 3884.85C281.193 3885.64 275.456 3885.43 272.984 3885.74L272.165 3885.71ZM466.183 3968.23C435.624 3950.6 420.47 3938.24 443.096 3924.85C446.457 3922.6 465.347 3922.08 466.958 3922.93C480.432 3936.41 482.419 3949.88 467.002 3968.26L466.183 3968.23ZM334.577 4000.65C325.27 3985.34 335.562 3972.69 353.202 3961.1C363.911 3959.9 353.687 3947.32 375.675 3952.03C368.994 3955.35 363.133 3958.69 356.438 3962.39C349.424 3975.15 366.898 3991.54 334.577 4000.65ZM274.447 3983.94C237.554 3959.78 259.305 3947.93 280.251 3935.66C289.599 3949.79 293.225 3963.32 274.447 3983.94ZM340.107 4053.27L342.732 4048.63L348.33 4052.77L340.927 4053.3L340.107 4053.27ZM408.38 4141.61C413.477 4136.66 417.741 4132.08 422.839 4127.14C429.631 4120.67 433.172 4113.31 443.187 4108.54C452.354 4104.52 462.883 4108.44 456.966 4113.36C449.368 4119.4 436.923 4123.3 426.075 4128.43C420.172 4132.95 414.283 4137.08 408.38 4141.61ZM471.72 4183.65C476.789 4179.49 481.845 4175.73 487.734 4171.6L496.846 4169.16L490.971 4172.9C482.679 4175.36 495.416 4186.46 472.539 4183.68L471.72 4183.65ZM228.3 4199.12C206.492 4189.28 229.063 4177.46 243.313 4168.9C258.425 4159.18 279.469 4167.41 298.303 4168.47C308.318 4163.7 318.318 4159.32 328.333 4154.55C312.011 4128.75 248.658 4110.35 263.7 4079.35L256.449 4075.55L265.381 4078.23C284.66 4089.94 301.44 4102.75 324.067 4112.62C359.626 4128.06 357.515 4141.39 329.93 4155.79C319.11 4160.14 309.11 4164.52 298.276 4169.26C293.942 4175.81 291.22 4183.2 283.65 4188.45C271.025 4197.47 253.316 4211.03 227.466 4199.48L228.3 4199.12ZM224.177 4269.53C228.455 4264.56 232.733 4259.58 236.997 4255L246.928 4252.59L239.414 4256.27C236.817 4260.12 235.039 4264 232.442 4267.85C232.4 4269.03 227.469 4269.25 224.983 4269.95L224.177 4269.53ZM315.074 4297.96L321.713 4295.83L327.325 4299.57L315.074 4297.96ZM-65.2306 4332.65C-68.1618 4322.69 -60.4949 4314.68 -46.3135 4308.09C-44.5219 4303.81 -45.1888 4299.46 -47.4947 4295.04C-54.5512 4285.72 -68.1776 4276.57 -67.8585 4267.52C-73.3087 4142.76 -77.1198 4018.07 -80.0975 3893.01C-80.3899 3878.02 -74.14 3863.65 -26.345 3857.85C-87.152 3930.21 -52.0213 4004.37 -50.4903 4077.35C-50.7678 4085.22 -29.738 4093.84 -18.5424 4102.12L-9.40299 4098.9L-16.9312 4102.97C-87.9756 4163.14 -42.7471 4230.17 -43.3695 4294.4C-32.8824 4299.5 -31.4237 4304.67 -43.8966 4309.36C-53.9943 4316.49 -33.1588 4330.63 -64.425 4333.07L-65.2306 4332.65Z" fill="#00B5CB"/>
<path d="M30.5169 497.883L41.1705 498.259L36.0731 503.203L30.5169 497.883Z" fill="#00B5CB"/>
<path d="M32.9933 590.603L36.4655 585.207L43.6885 589.797L32.9933 590.603Z" fill="#00B5CB"/>
</g>
</g>
<defs>
<clipPath id="clip0_56_2190">
<rect width="952" height="1942" fill="white"/>
</clipPath>
</defs>
</svg>
