<svg width="879" height="1198" viewBox="0 0 879 1198" fill="none" xmlns="http://www.w3.org/2000/svg">
<g clip-path="url(#clip0_176_770)">
<path d="M723.631 1080.2C737.212 1080.57 726.8 1095.82 751.749 1089.83C759.052 1078.36 754.359 1074.09 757.272 1066.12C760.274 1058.29 737.622 1063.43 762.372 1044.56C762.969 1044.15 759.305 1044.07 757.339 1044.04C746.616 1044.28 753.642 1035.71 762.1 1026.24C766.852 1020.97 772.613 1016.96 781.349 1013.76C795.603 1008.54 782.382 1017 779.304 1020.35C769.382 1031.14 775.303 1033.19 782.418 1034.42C787.36 1035.26 801.83 1027.53 807.926 1020.72C814.831 1012.9 818.097 1006.5 815.814 1003.03C807.748 991.471 805.918 976.243 791.615 968.352C784.746 964.655 789.244 954.599 787.209 948.179C786.707 946.827 790.176 942.224 787.85 943.019C757.678 952.502 774.922 933.651 773.962 926.2C772.742 915.887 759.498 912.723 762.278 899.691C764.846 887.74 752.798 882.79 752.504 871.669C752.227 864.918 737.127 874.458 723.878 882.381C735.465 882.191 715.279 898.84 723.465 900.478L725.641 899.906L723.077 900.77C713.152 902.874 703.436 904.857 690.651 916.96C688.531 918.594 692.285 918.343 686.617 921.067C687.813 919.762 688.978 918.404 690.174 917.098C700.156 905.929 703.162 897.147 722.476 882.848C744.983 857.195 747.65 842.038 735.584 833.199C724.44 824.99 721.472 811.65 720.533 797.481C719.824 785.642 721.028 771.81 708.083 768.199C692.548 763.962 705.383 745.193 696.231 738.024C686.781 730.821 683.061 720.037 680.415 708.701C677.827 697.947 670.196 690.036 666.951 679.593C665.831 675.724 659.786 675.382 655.89 673.458C651.221 671.159 642.549 672.539 622.322 683.328C637.81 673.496 654.22 664.295 649.496 660.454C637.107 650.09 637.25 632.491 624.444 622.368C618.352 617.605 609.596 627.04 600.729 633.87L598.907 635.537L600.014 634.078C599.959 632.535 599.695 631.114 599.67 629.623C607.4 624.682 620.465 618.37 617.554 615.74C615.683 613.946 604.909 620.851 597.75 624.368C596.829 623.737 588.182 626.608 597.611 621.233C607.487 615.668 611.456 612.897 608.334 611.347L606.307 611.696L608.663 610.952C620.491 600.086 614.659 598.184 610.675 595.626C607.167 593.409 598.493 595.749 584.019 604.926L582.138 606.491L583.065 605.203C581.613 602.689 581.802 599.158 578.709 597.659C575.35 595.699 572.431 595.468 590.392 585.577C599.91 580.356 597.094 575.961 584.569 580.797C580.036 582.593 574.218 586.021 571.687 585.497C597.028 568.13 600.616 563.732 580.938 570.166C566.388 574.872 576.504 568.757 578.898 565.186C583.327 558.386 576.948 559.88 562.596 568.303L560.774 569.971L561.88 568.511C561.768 566.386 561.446 564.382 561.363 562.309C565.72 559.725 573.055 556.995 573.51 554.406C573.816 551.561 565.403 556.282 559.676 558.904C580.818 541.018 581.993 536.782 565.965 537.962C563.844 540.076 562.02 542.223 559.154 544.494C556.676 546.472 554.231 547.062 556.173 545.12C558.295 543.006 561.876 540.527 564.952 538.136C565.879 536.848 567.822 534.426 567.584 534.495C544.951 543.046 544.256 536.537 540.725 531.869L538.937 532.149L541.263 531.354C548.541 528.041 556.057 524.66 564.886 520.657C564.832 518.635 566.509 515.751 564.246 515.69C548.609 515.617 555.17 502.865 552.722 495.247C551.661 491.48 552.748 486.61 541.155 488.719C530.605 490.705 546.523 476.793 542.691 473.532C539.987 471.261 513.794 484.741 530.581 469.439C539.541 461.323 537.587 457.457 517.451 467.44C516.712 465.677 515.973 463.914 515.204 462.1C513.355 462.757 511.715 463.293 510.225 463.606C501.33 469.905 495.894 474.959 498.926 476.835C501.483 478.37 507.898 474.529 514.643 470.293C492.105 496.374 513.216 498.692 520.752 508.368C521.552 509.753 527.604 507.696 521.214 513.027C516.346 517.138 512.82 521.158 516.065 521.474C531.907 522.865 516.27 542.088 526.025 546.925C526.858 547.403 523.631 550.497 522.226 552.403C513.023 532.605 500.449 514.684 493.961 493.318C482.959 457.863 460.44 428.988 445.053 396.065C437.269 379.689 426.144 365.243 421.255 347.128C417.369 332.197 398.834 325.176 397.365 308.644C396.156 294.973 387.159 285.662 387.83 270.905C388.086 265.078 378.736 264.318 376.605 259.664C369.595 243.663 353.574 232.796 355.754 211.489C356.734 202.575 349.809 197.815 346.941 190.918C343.895 183.713 342.699 175.371 339.503 168.39C330.066 147.221 327.553 121.644 285.233 120.214C282.076 120.052 279.875 119.133 270.123 122.984C255.91 134.543 257.923 138.512 262.8 141.171C265.154 140.907 268.999 139.85 269.473 140.671C275.306 152.22 294.984 155.433 294.878 170.684C294.838 183.639 300.825 193.526 307.349 202.897C322.356 224.066 319.55 255.382 338.943 274.019C345.862 280.698 335.836 296.613 345.173 301.692C351.507 304.945 356.498 309.248 354.867 316.553C353.207 323.807 362.197 325.391 352.093 337.314C347.281 342.966 335.026 356.952 366.982 338.502C369.906 336.814 372.822 338.005 369.628 340.191C342.853 358.933 359.902 355.18 366.182 356.892L368.178 356.492L365.644 357.408C348.872 367.912 347.011 372.887 359.384 368.754C379.689 361.957 378.628 367.838 374.524 375.682C371.169 381.93 365.609 388.218 378.931 385.727C388.974 383.829 379.226 396.368 395.773 391.263C397.415 389.767 393.035 390.38 399.3 387.242C398.343 388.479 397.177 389.836 396.22 391.073C378.141 410.406 378.708 409.941 402.584 404.025C411.616 401.822 416.229 403.059 400.32 414.091C398.443 414.217 396.357 414.463 394.51 414.64C393.763 415.276 392.27 416.549 392.509 416.48C394.385 416.354 396.442 416.057 398.498 415.759C388.939 424.767 415.576 412.057 404.585 421.961C403.66 422.289 402.617 422.412 402.02 422.825C399.782 424.255 400.198 424.493 402.972 423.508C414.44 423.113 426.685 422.134 413.238 436.466C411.026 438.906 412.571 440.135 413.312 441.418C418.888 449.147 424.882 456.634 428.996 465.207C433.227 474.465 436.264 484.549 444.702 491.446C448.773 494.638 447.801 500.673 441.848 509.173C455.038 510.795 454.019 512.889 432.321 527.401L430.499 529.069L431.605 527.609C433.045 524.314 431.531 522.657 428.764 521.723C417.276 528.355 415.798 534.477 403.118 541.456L397.162 531.141C406.215 531.867 419.551 524.578 429.272 521.156C435.123 516.819 442.882 511.929 440.684 510.051C437.506 506.959 424.396 508.37 426.882 503.992C434.427 491.014 416.432 492.646 423.142 480.15C426.916 473.181 416.582 472.647 414.661 467.872C413.685 465.699 414.746 459.338 409.557 461.445C383.673 471.599 393.891 461.321 401.186 452.251C404.923 447.63 399.262 448.435 396.345 447.724L394.527 447.953L396.883 447.209C410.115 434.916 389.648 446.254 385.239 446.336C382.348 447.116 381.754 446.569 384.113 444.386C374.47 442.153 387.831 426.707 374.01 426.886C367.451 429.031 367.366 427.438 371.847 423.14C371.26 420.194 379.027 412.905 371.37 413.631C352.093 415.455 347.201 407.947 345.203 399.179C341.297 380.838 336.318 363.049 336.172 342.537C335.973 320.004 324.526 303.554 321.552 282.485C319.512 267.857 301.688 262.068 305.256 244.613C309.156 225.802 295.272 217.191 293.921 201.344C292.045 181.694 270.149 173.193 267.557 153.751C267.065 149.04 269.856 142.297 261.397 142.117C251.357 143.056 251.999 137.416 250.016 133.498C236.423 107.544 214.745 86.3955 194.11 64.644C193.339 63.7895 194.805 61.5059 192.869 61.529C185.661 61.5852 185.769 55.5015 166.526 65.5847C153.28 72.548 134.903 91.8478 137.274 95.9532C140.414 101.393 143.585 106.884 148.187 111.48C157.483 120.345 157.321 134.534 156.622 148.759C156.085 158.923 159.248 166.813 163.276 174.272C176.514 199.131 181.577 228.641 191.443 255.377C196.378 268.266 197.971 283.084 202.488 296.214C205.971 306.588 203.665 320.441 207.087 331.192C214.107 353.961 217.367 378.902 228.593 399.311C241.655 423.382 255.999 446.78 272.821 468.681C293.824 496.377 321.094 520.456 339.382 549.721C351.654 569.047 367.954 586.185 376.198 607.7C387.634 637.637 405.395 664.058 410.714 697.389C414.019 717.102 417.981 736.506 427.076 752.74C440.287 776.588 445.323 805.087 465.248 825.127C471.722 831.516 465.782 845.346 472.851 851.802C484.852 862.459 485.992 879.386 493.815 892.454C502.588 906.685 505.034 924.91 513.598 939.261C522.724 955.067 525.495 974.337 532.681 991.126C535.461 997.869 535.107 1006.42 535.38 1014.61C535.662 1029.57 533.02 1046.22 548.667 1052.58C550.898 1053.55 549.401 1056.26 549.693 1058.21C552.02 1076.23 553.871 1094.39 560.674 1110.03C564.785 1119.57 568.298 1129.99 570.827 1140.64C573.855 1153.61 577.032 1166.82 585.818 1176.74C587.51 1178.7 591.139 1180.17 597.638 1178.4C614.659 1173.63 623.263 1175.03 635.532 1176.02C653.622 1152.85 625.707 1155.14 641.673 1135.05C651.546 1130.44 653.151 1131.77 655.084 1132.71C654.337 1133.35 653.77 1133.81 653.023 1134.45C653.8 1133.86 654.576 1133.28 655.561 1132.57C693.502 1114.84 696.577 1112.45 693.121 1103.09C692.235 1100.59 690.961 1098.38 690.493 1095.64C690.256 1095.23 693.212 1092.63 694.883 1091.67C698.434 1089.62 704.192 1086.57 703.59 1088.42C700.428 1099.82 718.504 1081.45 722.827 1080.26L723.631 1080.2ZM663.149 1115.33L662.669 1116.42L661.299 1116.46L663.179 1115.38L663.149 1115.33ZM231.263 207.618L223.056 193.403C225.774 190.875 230.308 188.6 229.799 189.646C225.364 198.365 239.546 196.883 231.293 207.669L231.263 207.618ZM288.021 397.091C286.472 397.301 284.893 397.46 283.552 397.55C271.689 390.509 261.706 382.383 267.835 365.022C269.158 361.043 267.886 358.356 264.912 356.583C250.078 347.289 260.247 323.901 251.081 311.403C250.577 310.53 252.759 308.039 253.479 306.392C254.255 305.807 255.002 305.17 255.569 304.706C254.793 305.291 254.017 305.876 253.032 306.581C246.648 290.219 239.638 274.218 250.707 248.531C249.996 247.3 249.494 245.947 248.992 244.595C245.473 245.737 245.327 245 247.866 242.645C244.32 233.128 231.108 229.056 238.931 213.181C238.166 219.575 253.814 216.289 250.245 224.097C246.648 231.853 257.967 231.681 248.551 242.386L249.085 243.31L249.618 244.233C256.416 242.019 256.948 243.423 251.84 248.082C251.778 248.939 251.746 249.848 251.892 250.584C258.551 264.53 269.059 276.459 271.064 292.955C272.63 306.762 278.582 318.036 280.328 331.671C283.004 352.707 295.436 368.451 284.537 396.845C286.116 396.686 291.874 393.635 288.289 397.073L288.021 397.091ZM295.299 403.426C293.003 404.273 287.693 407.134 288.444 405.058C288.625 404.406 292.058 401.671 293.788 400.809C298.055 398.551 300.826 398.046 301.239 399.244C301.714 400.065 299.326 401.718 295.091 403.547L295.299 403.426ZM301.083 421.162L298.608 422.18C288.566 423.599 286.013 420.625 293.098 412.155C293.845 411.519 294.682 410.557 295.338 410.246C297.277 409.264 299.276 408.384 301.274 407.504L303.45 406.932L300.886 407.796C298.32 409.141 295.814 410.588 293.575 412.017C295.412 415.199 297.249 418.38 299.116 421.613L301.083 421.162ZM302.101 429.196L301.446 429.026L304.012 427.682L302.101 429.196ZM364.973 459.952L362.169 461.366L364.259 459.68L364.973 459.952ZM379.72 488.388C379.364 487.772 378.979 487.105 378.623 486.489C376.895 486.871 374.569 487.667 373.408 487.584C371.949 487.469 369.565 487.682 373.387 484.654C374.339 484.857 375.292 485.06 376.244 485.262C377.197 485.465 378.358 485.547 379.311 485.75C381.516 485.229 387.067 481.819 385.869 484.085C385.449 484.806 381.899 486.856 379.481 488.457L379.72 488.388ZM395.216 524.875C389.037 519.479 384.35 513.29 381.751 505.895C379.92 500.794 370.631 499.657 379.57 488.611C382.12 502.192 396.843 508.882 395.216 524.875ZM450.843 528.613C446.546 531.299 444.459 532.025 445.088 530.704C445.868 529.159 447.75 527.114 449.394 525.138C451.302 524.584 454.941 523.168 454.85 523.494C454.071 525.039 452.159 527.032 451.023 528.441L450.843 528.613ZM441.54 570.864C440.588 570.662 439.635 570.459 438.683 570.256C437.73 570.054 436.778 569.851 435.825 569.648C418.677 566.958 421.909 552.297 415.712 543.011C418.349 547.578 429.077 545.901 442.79 542.158L444.787 541.757L442.431 542.501C426.975 551.425 427.267 553.378 433.49 554.027C439.684 554.625 458.482 543.772 461.028 548.665C442.147 557.445 428.688 565.968 436.781 568.891C438.51 568.509 440.656 567.885 441.579 568.037C443.038 568.152 445.63 567.819 441.332 570.985L441.54 570.864ZM445.89 589.975L447.683 588.256C438.715 589.123 437.504 585.58 442.113 578.608C454.039 574.665 465.965 570.722 478.13 566.709C470.779 574.237 459.231 581.247 447.951 588.238L445.682 590.096L445.89 589.975ZM530.469 486.61L530.74 485.632L532.319 485.473L530.439 486.558L530.469 486.61ZM511.582 702.309C518.908 702.458 510.659 711.805 526.048 705.178L527.662 703.63L526.764 704.97C522.996 710.019 518.124 715.569 515.906 719.928C512.821 725.678 518.691 724.752 532.744 716.776L534.566 715.108L533.43 716.516C528.471 721.432 526.79 725.756 513.753 732.599C506.087 726.556 504.835 717.152 511.79 702.188L511.582 702.309ZM511.334 695.609C513.541 694.608 515.628 693.882 517.686 693.105C516.133 694.275 514.699 695.65 513.208 696.443C511.269 697.426 509.152 698.1 507.303 698.757C506.918 698.09 508.232 696.989 511.334 695.609ZM476.139 633.203C491.784 630.877 493.939 637.022 489.562 646.323C483.326 659.64 487.534 666.927 497.559 670.786C503.956 673.183 493.791 685.484 509.886 682.007C510.87 681.782 505.313 687.111 499.785 692.971C493.919 682.81 486.913 675.017 484.085 664.813C481.168 654.454 470.225 648.524 476.11 633.152L476.139 633.203ZM479.053 625.226L481.469 624.105L479.29 625.637L479.023 625.175L479.053 625.226ZM452.283 593.811C464.441 591.718 466.929 596.509 480.76 592.971C458.663 611.134 484.715 604.646 473.83 619.073C453.193 617.576 458.333 602.361 452.283 593.811ZM523.052 554.8C520.041 555.854 519.356 555.634 522.163 553.26C522.46 553.774 522.756 554.287 523.052 554.8ZM541.425 585.658C528.189 579.615 517.489 572.176 523.886 554.797C526.836 554.6 531.874 553.197 532.287 554.395C535.89 564.494 538.449 575.196 541.425 585.658ZM597.494 630.195C591.825 633.4 586.605 635.935 582.373 636.804C586.522 633.862 590.462 631.039 594.582 628.045C595.533 628.728 596.513 629.461 597.255 630.265L597.494 630.195ZM601.868 660.924C599.722 661.548 598.172 661.758 596.205 662.21C598.711 660.762 601.367 659.092 603.874 657.645C607.633 655.475 611.393 653.304 615.152 651.133C615.269 651.818 616.102 652.296 615.086 653.43C611.679 657.176 606.667 659.59 601.898 660.976L601.868 660.924ZM622.127 669.002C618.994 670.811 617.295 671.245 617.477 670.113C617.359 669.908 619.09 668.566 620.105 667.912C623.238 666.103 624.937 665.669 624.755 666.801C624.873 667.006 623.083 668.245 622.336 668.882L622.127 669.002ZM603.042 695.759C597.172 696.685 592.7 698.103 592.732 697.195C592.838 681.944 581.845 673.032 575.029 661.708C566.526 646.98 558.022 632.252 550.354 617.041C545.707 607.545 534.914 601.391 541.425 585.658C557.933 583.38 553.313 594.19 552.278 601.561C551.24 609.893 575.895 602.432 563.012 617.26C558.349 622.689 560.873 625.132 565.458 625.837C571.025 626.797 583.326 617.232 592.809 613.399C571.814 628.486 567.828 636.534 580.851 637.546C577.774 650.544 576.367 662.578 596.026 662.381C586.156 675.675 588.807 675.444 616.284 660.812L618.166 659.247L617.238 660.535C584.31 685.02 602.746 685.598 602.863 695.93L603.042 695.759ZM631.62 691.233C629.384 692.183 627.237 692.806 625.12 693.481C626.882 692.19 628.883 690.351 630.613 689.488C632.761 688.385 634.549 688.106 636.636 687.38C636.692 688.442 634.961 689.784 631.591 691.182L631.62 691.233ZM603.489 715.344C609.29 708.026 591.373 713.17 607.83 698.263C606.319 705.293 613.765 705.648 603.489 715.344ZM535.703 762.417C534.747 763.174 533.553 764 532.598 764.757L525.635 752.697C527.724 751.492 529.813 750.286 531.692 749.2C533.109 753.583 534.316 758.086 535.703 762.417ZM555.727 749.83L557.607 748.745L557.097 749.791L555.936 749.709L555.727 749.83ZM615.771 731.312C607.941 730.29 610.038 726.205 611.3 722.603C611.811 721.076 611.845 719.688 613.281 717.833C619.41 710.12 636.685 700.489 644.907 700.258C647.647 700.181 648.324 702.801 641.673 705.751C609.819 720.037 621.876 722.108 615.533 731.381L615.771 731.312ZM542.855 780.594C538.297 780.899 537.678 778.862 539.538 774.367C543.202 774.441 545.853 774.21 547.52 774.685C549.484 775.193 550.613 776.184 542.885 780.646L542.855 780.594ZM649.346 719.523C649.346 719.523 647.198 720.626 646.124 721.177C645.976 720.921 645.739 720.51 646.276 719.995C648.636 717.811 650.575 716.829 651.258 717.529C651.376 717.734 650.331 718.817 649.346 719.523ZM617.763 742.478C617.763 742.478 614.514 743.122 614.188 742.558C613.328 741.549 612.08 740.354 617.989 736.6C622.257 733.862 623.714 734.458 624.457 735.261C624.541 736.854 623.76 738.879 617.763 742.478ZM614.66 890.493L613.285 891.971L611.434 893.587L612.57 892.178L614.69 890.544L614.66 890.493ZM665.238 860.402C668.894 862.876 677.809 859.987 671.827 867.956C664.32 868.459 662.15 867.112 665.238 860.402ZM596.649 877.627L595.066 879.225L593.244 880.893L594.35 879.433L596.649 877.627ZM586.897 852.535L589.431 851.619C592.711 850.547 593.067 851.162 590.498 853.466C591.21 854.218 592.967 854.367 592.576 855.619C592.276 856.546 588.189 858.631 587.804 857.964C587.329 857.143 588.765 855.288 589.335 853.864C589.874 852.869 589.608 852.407 588.476 852.376L586.867 852.484L586.897 852.535ZM562.18 831.43C574.168 826.629 570.579 831.507 569.228 834.955L571.613 834.263L568.899 835.351C562.85 836.449 558.441 836.531 562.389 831.309L562.18 831.43ZM570.078 820.027L572.732 818.837L570.583 820.42L570.287 819.907L570.078 820.027ZM639.407 745.72C631.408 751.159 622.515 756.498 618.556 755.911C615.817 755.508 622.863 749.866 628.267 745.719C631.342 743.328 635.46 740.814 639.072 738.386C639.996 738.058 641.188 737.712 641.994 737.178C644.233 735.749 643.996 735.338 641.402 736.152C642.221 731.3 650.427 726.22 661.762 720.77C661.659 725.414 656.068 732.131 651.582 738.348L653.967 737.656L651.432 738.572C647.464 740.863 643.197 743.121 639.824 745.479L639.407 745.72ZM555.005 801.155C553.665 800.765 552.088 800.444 551.375 799.692C551.02 799.076 551.291 798.099 551.353 797.242C556.335 794.776 554.421 797.25 556.357 797.227C555.936 798.427 555.575 799.731 555.005 801.155ZM665.637 749.187C662.356 750.739 659.854 750.747 658.364 751.06C655.208 750.418 658.552 748.009 663.027 745.631C667.681 743.08 670.273 742.747 671.075 743.653C671.667 744.679 670.857 746.652 665.637 749.187ZM635.416 794.279C639.821 785.509 634.53 782.132 633.057 776.687C631.851 771.704 622.859 770.6 633.412 758.007C643.599 757.805 640.098 763.316 638.356 768.017C636.343 773.695 637.254 777.685 658.142 765.147C667.452 759.566 670.582 758.717 669.052 762.337C667.522 765.958 671.841 765.722 677.564 764.539L679.381 764.311L676.996 765.004C657.69 773.368 646.446 781.547 643.264 789.542C643.264 789.542 639.355 791.936 635.625 794.158L635.416 794.279ZM672.002 781.435C668.426 781.994 665.534 782.774 663.837 782.728C660.889 782.446 663.877 779.421 669.129 775.977C673.367 773.188 677.183 772.08 676.761 773.761C676.369 775.493 674.067 778.259 672.002 781.435ZM645.251 802.148C643.731 802.41 640.899 803.293 641.109 802.692C641.65 801.217 642.73 798.746 645.147 797.145C651.146 793.065 649.32 796.173 649.676 796.789C650.209 797.712 650.145 799.049 645.281 802.2L645.251 802.148ZM678.772 788.338C677.102 788.822 674.389 789.91 673.704 789.69C672.811 789.59 673.709 788.25 673.8 787.444C675.5 787.011 676.99 786.698 678.689 786.264C678.776 786.898 678.864 787.532 678.951 788.166L678.772 788.338ZM711.343 861.153C701.401 869.014 692.696 871.303 689.003 871.177C683.822 870.884 695.404 862.487 698.694 858.055C688.884 851.676 679.91 844.815 690.12 827.288C688.869 827.531 687.288 828.17 685.558 829.032C682.49 829.025 681.035 827.47 672.441 832.842C670.799 833.858 668.44 836.042 668.498 836.624C668.459 839.452 676.037 835.213 681.794 832.642C674.509 838.354 667.433 843.945 654.565 853.974C662.55 843.205 658.328 840.716 657.03 836.539C656.441 834.553 651.438 834.089 662.033 827.356C686.445 811.756 671.725 813.755 673.2 808.592C673.683 806.534 667.867 809.003 661.422 812.792C656.409 815.686 655.534 819.476 649.871 820.761C646.175 821.595 648.598 818.075 652.749 814.652C662.484 806.431 673.528 798.55 689.812 791.543C686.566 801.354 685.467 810.063 688.394 817.063C678.043 822.286 669.307 825.003 664.224 831.633C668.417 833.591 700.11 813.72 690.897 826.703C705.163 826.814 704.093 836.053 704.157 844.364C704.293 848.459 705.506 851.043 715.015 848.701C718.115 847.8 718.471 848.416 716.141 850.651C711.688 855.48 707.235 860.308 711.731 860.86L713.579 860.683L711.403 861.255L711.343 861.153ZM685.196 889.181L683.344 890.798L684.689 889.269C685.705 888.135 686.065 887.311 686.186 886.557C688.635 884.527 691.084 882.498 693.741 880.347C688.137 881.735 685.686 884.725 682.759 887.372C674.921 888.75 671.139 888.47 688.324 879.164C699.989 872.84 707.171 871.773 715.967 868.679C716.776 867.185 717.584 865.692 718.393 864.199C720.242 863.542 722.12 862.936 723.969 862.28C721.55 864.361 719.31 866.269 716.891 868.35C710.731 876.492 696.208 882.208 685.375 889.01L685.196 889.181ZM704.2 888.815L705.157 887.578L707.247 885.893L706.111 887.301L704.2 888.815ZM616.739 941.364C612.148 942.577 617.878 938.995 618.328 937.846C620.209 936.281 621.852 934.785 623.733 933.22C627.248 933.038 619.762 936.471 619.55 937.551C618.623 938.839 617.666 940.076 616.739 941.364ZM696.424 938.054C691.926 938.462 693.398 934.259 692.183 932.155C697.009 931.832 700.492 932.558 708.543 929.62C713.024 925.323 717.714 920.904 722.195 916.607C721.839 915.991 721.454 915.324 721.098 914.708C723.605 913.261 726.111 911.814 728.588 910.315C726.59 911.195 724.77 911.904 722.831 912.886C722.414 913.127 721.815 914.02 721.098 914.708C714.332 916.494 710.43 916.488 717.687 910.246C721.419 907.064 727.804 903.652 732.365 902.387C742.202 899.65 733.396 906.102 729.094 910.228C726.735 912.412 724.584 914.475 722.224 916.658C731.04 916.974 717.794 923.937 708.841 929.654C705.049 932.733 702.859 937.623 696.484 938.157L696.424 938.054ZM741.754 939.39C723.478 944.877 707.67 952.226 720.518 938.786C726.943 932.066 716.954 935.507 705.587 941.864C703.496 943.55 707.668 943.058 701.583 946.024C702.748 944.666 703.914 943.309 704.901 942.124C710.879 935.114 717.656 929.97 728.026 928.636C740.451 927.004 731.722 937.45 741.962 939.269L741.754 939.39ZM731.202 951.503C731.202 951.503 730.011 951.369 730.311 950.923C733.959 946.148 740.846 944.088 746.812 940.917L748.396 939.318L747.528 940.709C743.019 944.475 738.867 948.378 731.382 951.331L731.202 951.503ZM711.535 964.226L711.806 963.249L713.385 963.09L711.505 964.175L711.535 964.226ZM720.37 977.6C708.971 974.738 724.257 963.108 743.152 949.53C752.596 949.004 743.367 957.138 742.849 961.064C736.229 963.586 735.494 960.383 727.107 966.115C717.108 972.914 730.255 969.156 720.37 977.6ZM727.517 988.048L727.245 989.026L725.875 989.064L727.546 988.1L727.517 988.048ZM749.085 986.817L750.639 985.168C746.004 981.48 737.072 979.999 759.711 959.881C753.688 971.638 774.015 967.292 751.145 985.08L749.114 986.869L749.085 986.817ZM755.884 993.771C753.021 995.082 750.128 996.342 747.474 997.532C744.938 998.928 742.372 1000.27 739.865 1001.72C736.315 1003.77 732.764 1005.82 729.422 1007.75C728.833 1005.76 735.127 1002.68 739.126 999.957C741.305 998.425 743.782 996.927 746.2 995.326L748.469 993.468L746.885 995.067L747.419 995.99L747.952 996.914C750.666 995.826 753.35 994.687 756.064 993.599L755.884 993.771ZM762 1000.5C760.84 999.942 759.859 999.208 758.67 998.595L756.464 999.116L759.028 998.251C764.219 995.665 770.603 992.253 771.551 993.895C772.173 994.973 781.627 991.088 774.105 996.389C768.971 1000.04 764.053 1001.17 762.179 1000.33L762 1000.5ZM764.902 1015.66C757.571 1016.95 750.031 1018.36 742.521 1019.82C760.635 1011.65 768.096 1010.26 764.902 1015.66Z" fill="#F68428"/>
<path d="M511.133 458.908L512.717 457.31L510.418 459.116C503.107 463.336 496.784 466.372 496.166 463.854C491.327 439.073 470.793 423.285 464.701 399.227C463.846 396.299 456.549 396.201 467.686 387.514C474.1 384.153 477.14 383.629 477.017 384.864C476.891 396.705 485.329 403.602 490.843 412.188C492.947 415.832 496.783 417.653 504.14 417.854C522.129 418.142 531.552 424.334 526.358 438.007C524.106 443.754 518.311 449.153 530.172 447.026C537.712 445.615 527.797 454.488 515.711 462.013C513.862 462.67 512.222 463.206 510.732 463.519C510.707 462.028 510.92 460.468 510.895 458.977L511.133 458.908Z" fill="#F68428"/>
<path d="M395.552 238.94C410.295 239.392 412.304 244.801 405.152 255.567C389.299 258.014 386.037 253.329 395.552 238.94Z" fill="#F68428"/>
<path d="M376.373 218.743C395.897 213.972 397.79 218.216 389.174 230.785C375.172 231.616 374.77 226.579 376.373 218.743Z" fill="#F68428"/>
<path d="M428.952 323.32C443.489 322.933 443.292 328.862 444.639 336.501C423.539 340.472 425.615 333.457 428.952 323.32Z" fill="#F68428"/>
<path d="M408.087 260.168C408.158 266.08 423.954 263.05 412.151 275.407C403.069 274.629 397.149 272.094 408.087 260.168Z" fill="#F68428"/>
<path d="M455.151 356.638C462.627 356.564 462.198 360.644 459.889 365.809C450.871 366.59 449.292 363.533 455.151 356.638Z" fill="#F68428"/>
<path d="M376.862 194.991C383.465 198.227 385.777 201.75 383.815 210.41C374.319 208.434 366.188 208.338 376.862 194.991Z" fill="#F68428"/>
<path d="M793.361 1040.35C793.361 1040.35 792.05 1040.49 791.514 1040.53C792.259 1040.37 792.795 1040.34 793.57 1040.23C800.969 1036.17 811.626 1028.58 814.122 1030.49C816.766 1032.66 805.154 1041 796.385 1045.11C784.961 1050.4 792.877 1042.89 793.6 1040.28L793.361 1040.35Z" fill="#F68428"/>
<path d="M422.704 321.179C423.287 315.437 421.747 312.769 429.873 304.656C433.917 306.837 437.815 308.281 422.704 321.179Z" fill="#F68428"/>
<path d="M416.272 291.228C412.579 291.102 409.036 290.753 415.01 285.183C424.553 281.452 421.651 285.591 421.167 288.129C421.044 289.363 417.761 291.395 416.272 291.228Z" fill="#F68428"/>
<path d="M589.473 594.114C589.984 592.587 591.658 590.663 596.371 588.215C600.488 586.181 603.409 585.452 603.524 586.617C603.43 588.382 599.995 591.597 594.357 594.373C590.24 596.408 589.2 595.571 589.711 594.045L589.473 594.114Z" fill="#F68428"/>
<path d="M460.966 383.593C461.895 381.825 463.987 379.66 468.253 377.402C469.744 376.609 472.307 376.224 472.603 376.737C473.137 377.661 471.761 379.619 467.404 382.202C462.839 384.907 461.111 384.809 460.757 383.713L460.966 383.593Z" fill="#F68428"/>
<path d="M444.544 347.914C443.713 346.957 438.976 347.434 445.78 343.301C452.374 339.288 453.561 340.861 452.571 343.006C452.001 344.43 449.283 346.957 447.609 348.881L446.417 349.228C445.643 348.853 444.87 348.479 444.306 347.983L444.544 347.914Z" fill="#F68428"/>
<path d="M373.308 188.353C373.308 188.353 375.364 188.056 375.036 188.451C374.258 189.516 372.556 190.909 371.331 192.163C370.199 192.133 369.038 192.05 368.115 191.899C368.924 190.406 370.923 189.046 373.308 188.353Z" fill="#F68428"/>
<path d="M423.617 295.267L422.391 297.001L420.484 297.076L423.617 295.267Z" fill="#F68428"/>
<path d="M558.302 530.959C558.302 530.959 558.781 529.861 559.408 529.499C562.452 527.536 564.092 527 563.821 527.978C563.91 528.132 562.06 529.268 561.104 530.025C560.18 530.354 558.659 531.095 558.331 531.01L558.302 530.959Z" fill="#F68428"/>
<path d="M258.268 113.544C258.268 113.544 260.415 112.441 261.131 112.233C261.608 112.094 261.159 112.764 261.069 113.09C260.024 113.693 258.681 114.742 257.995 115.001C255.252 116.038 255.223 115.507 258.238 113.493L258.268 113.544Z" fill="#F68428"/>
<path d="M464.452 373.712L461.585 375.983L460.723 375.454L464.452 373.712Z" fill="#F68428"/>
<path d="M446.655 349.158L447.848 348.812C446.651 350.598 445.248 351.545 444.266 351.291C444.207 351.188 445.73 349.967 446.685 349.21L446.655 349.158Z" fill="#F68428"/>
<path d="M376.099 425.68C375.447 424.551 374.377 423.664 373.487 422.604C380.166 420.184 386.219 418.127 376.099 425.68Z" fill="#F68428"/>
<path d="M386.969 445.474C386.643 444.909 386.288 444.294 385.962 443.729C390.048 442.123 390.612 442.618 386.969 445.474Z" fill="#F68428"/>
<path d="M698.903 857.935C703.916 855.041 709.196 852.129 714.209 849.235L715.31 849.694L715.157 850.877C708.651 855.043 703.254 857.27 698.903 857.935Z" fill="#F68428"/>
</g>
<defs>
<clipPath id="clip0_176_770">
<rect width="1196.17" height="324.142" fill="white" transform="matrix(0.5 0.866025 0.866025 -0.5 0 162.071)"/>
</clipPath>
</defs>
</svg>
