<svg width="260" height="102" viewBox="0 0 260 102" fill="none" xmlns="http://www.w3.org/2000/svg">
<g clip-path="url(#clip0_180_528)">
<path d="M309 28.469C308.951 29.333 308.903 30.7466 308.838 30.8252C305.679 32.2389 303.12 38.6004 301.046 49.2816C300.868 50.2241 300.463 50.2241 300.171 50.6168L300.026 49.8314L300.139 50.7739C300.738 53.3656 301.338 55.9574 301.905 58.3921C301.969 62.6331 300.738 63.6541 300.836 66.8742C301.192 78.4978 299.248 81.011 297.563 84.9379C296.041 88.5507 294.372 91.4566 293.384 101.667C292.752 92.7132 294.372 85.4092 292.801 80.3827C292.282 84.5452 292.217 90.2 291.294 93.8127C291.148 91.7707 291.391 89.1004 290.792 88.0009C290.711 87.8438 290.419 88.8648 290.387 89.5717C290.225 92.7132 290.792 93.1844 291.262 93.9698C289.885 103.08 288.54 97.4255 287.39 93.1059C286.564 90.0429 286.613 91.1424 286.353 94.7552C286.062 98.8392 285.187 99.7816 284.28 98.6036C281.348 94.7552 278.302 97.6611 275.322 94.7552C273.005 92.4776 272.973 93.5771 272.843 82.3462C272.843 81.2466 272.438 80.3042 272.211 79.2832L272.033 78.812L272.147 79.5973C271.369 92.9488 271.353 92.1634 268.437 94.2054C266.299 95.6976 264.257 90.6712 262.119 93.4986C261.568 94.2054 261.406 90.7497 261.439 88.2365L261.552 87.2941L261.406 88.0795H260.791C260.904 84.3096 261.147 80.6183 260.839 76.927C261.115 75.6704 261.828 77.7124 261.763 74.5709C261.763 74.0997 261.066 75.2777 260.775 76.5344C260.094 80.3827 260.046 84.2311 260.742 88.158C260.677 92.7917 260.353 93.8913 259.381 91.0639C258.588 88.7078 258.62 83.2886 257.599 82.1891L257.421 81.6393L257.535 82.4247C257.761 88.0009 257.502 92.1634 256.012 91.8493C253.452 91.3781 253.452 91.221 253.193 82.5818L253.452 82.4247L253.712 82.5818L253.906 83.1316L253.76 82.2676C253.55 81.3252 253.339 81.3252 253.128 82.2676C251.282 93.1844 250.326 94.2054 247.442 88.158L247.588 87.2941L247.41 88.0009C246.13 95.3835 244.235 92.0064 242.615 93.3415C242.081 93.8127 241.676 91.0639 242.113 88.6292C242.502 86.5087 242.583 84.7023 242.356 82.4247C243.717 82.7389 244.365 77.3197 245.466 74.885C244.348 71.3508 243.409 69.5445 242.955 77.6339C242.858 79.3617 242.55 80.7754 242.34 82.3462C241.011 83.4457 240.363 88.9434 239.327 91.8493C238.436 94.3625 237.982 92.7917 237.95 88.2365L238.533 85.4877L239.213 82.5032L239.327 81.5608L239.165 82.2676L238.468 85.095L237.901 88.0009C237.205 89.0219 236.524 90.2 235.811 90.9068C234.872 91.7707 234.094 90.5141 234.094 85.5662C234.094 82.3462 234.11 80.0686 233.219 79.99C232.523 79.99 232.069 80.4613 231.891 84.1525C231.729 87.5297 231.033 89.4146 230.336 90.5927C228.327 94.284 227.242 90.5141 227.129 79.7544C228.759 83.4195 230.12 82.32 231.211 76.4558L232.215 71.0367L232.345 70.1728L232.183 70.9581C230.271 71.2723 229.072 80.0686 227.096 79.5188C226.481 80.3827 225.93 81.6393 225.687 84.6238C225.444 87.6082 225.557 94.0484 224.407 86.5087C224.051 84.1526 224.067 88.6292 223.791 89.4931C222.965 92.1634 222.301 89.9644 221.912 87.4511C221.507 84.8594 222.172 84.2311 222.625 83.053C223.727 80.2256 223.662 74.6494 224.067 69.8586C221.605 70.2513 219.968 76.0631 218.996 87.3726C219.256 88.0795 219.904 87.9224 219.628 90.0429C219.401 91.6922 218.996 90.1214 218.737 88.8648C217.717 88.4721 216.988 93.42 215.886 92.0064C215.578 87.5297 216.324 85.2521 216.777 82.4247C217.247 79.5188 216.372 78.812 216.307 76.77L216.469 75.9846L216.275 76.6129C216.113 77.0056 215.935 77.2412 215.74 77.2412C214.493 81.0896 212.824 81.8749 211.998 88.8648C211.691 91.4566 210.881 92.4776 210.395 90.1214C209.666 86.6658 210.573 86.0375 211.026 84.4667C211.901 81.4037 212.97 79.2832 213.505 74.4138C212.565 72.9216 211.723 72.6074 210.978 76.6914C210.135 81.2466 209.244 80.3827 208.532 75.5919C208.078 77.0841 208.127 79.0476 208.272 80.7754C208.645 84.8594 208.564 88.2365 207.673 90.5141C207.301 91.4566 206.847 91.4566 206.507 90.0429C205.729 86.9014 206.798 83.9169 206.474 79.99C205.729 81.7179 204.952 83.5242 204.174 85.2521L204.044 86.116L204.206 85.4092C204.595 86.116 204.984 86.9014 205.033 88.9434C205.081 90.7497 204.709 91.4566 204.433 91.221C203.299 90.2 202.036 92.1634 201.048 88.158C201.501 81.9535 202.538 80.6183 203.882 79.5188C205.259 78.4193 205.454 73.0787 205.081 67.0312C204.595 59.3345 203.737 63.6541 202.943 65.1463L202.311 67.8166C200.886 73.1572 201.372 81.0896 200.999 87.9224C200.27 88.0009 199.752 86.5872 199.833 83.1316C199.946 78.4193 199.914 74.0211 199.12 69.3088C198.423 72.2148 197.565 74.4138 197.322 79.2832C199.152 80.5398 198.358 87.137 198.018 89.7288C197.5 93.4986 196.593 91.2995 195.977 88.2365C194.697 87.6868 195.005 82.9745 195.345 80.8539C196.285 75.1207 195.572 72.2148 194.568 70.2513C193.499 68.1308 192.203 66.4029 191.652 73.3143C191.117 80.0686 190.81 79.9115 189.967 74.1782C189.433 70.4869 188.72 73.6284 188.639 76.2987C188.493 81.8749 189.238 89.5717 187.051 89.5717C185.318 89.5717 183.228 94.1269 182.192 83.1316C180.734 93.4986 180.329 93.7342 178.125 85.8804C177.947 86.4302 177.769 86.9014 177.607 87.5297C177.024 89.8073 176.441 92.0064 175.696 89.0219C175.501 88.2365 175.291 86.4302 175.355 85.4877C175.631 81.0896 176.473 81.9535 177.17 82.4247C177.542 82.6603 177.883 84.1525 178.239 85.0165C179.519 85.0165 180.393 77.0841 181.868 81.4037C182.532 79.8329 183.099 72.9216 183.828 81.8749C184.168 86.116 185.917 84.4667 186.015 82.3462C186.322 75.906 188.023 70.1728 186.598 62.0833C184.702 71.9006 181.592 68.9947 179.405 76.2987C178.952 77.791 178.401 76.1417 177.899 75.4348C177.105 74.2567 176.036 78.4193 175.485 72.7645C175.145 76.2202 174.837 79.6759 174.464 83.053C173.347 92.9488 171.419 94.0483 169.297 85.095C171.03 84.8594 172.715 84.7809 173.185 76.2202C173.428 71.5079 172.666 69.4659 171.84 67.9737L171.662 67.5025L171.792 68.2878C171.694 69.5445 171.597 71.8221 171.5 71.8221C168.147 71.665 165.198 75.1207 163.384 91.6922C162.688 84.4667 162.623 79.7544 163.838 76.6914C164.874 74.0997 165.231 70.0157 165.522 65.3819L165.652 64.518L165.49 65.2249C163.902 67.6595 162.445 71.665 160.744 72.6074C160.128 72.9216 159.448 74.5709 159.172 70.8011C158.962 67.9737 158.443 64.4395 159.431 62.1619C159.804 61.298 160.177 60.434 160.177 56.8998C158.881 53.7583 157.633 51.8734 156.564 59.5701L156.451 60.3555L156.629 59.8843C158.411 63.2614 158.265 68.8376 157.423 74.9636C157.018 77.948 155.787 79.99 157.601 82.8959C158.087 83.6813 156.791 88.158 156.111 89.8073C155.22 91.9278 154.685 90.5141 154.766 85.6448L154.879 84.7809L154.701 85.4092C154.296 84.3882 154.15 82.8174 154.167 80.7754C154.199 77.3983 155.495 72.8431 153.745 71.1152C152.579 69.9372 151.461 69.2303 151.073 76.3773C150.959 78.4978 150.927 81.1681 150.003 82.032C150.117 76.4558 149.793 71.8221 148.367 71.1938C148.286 66.8742 148.027 61.7692 149.663 63.6541C150.506 64.5966 151.089 64.2039 151.17 59.4916C147.671 58.7062 147.282 60.277 148.335 71.2723C148.578 73.707 148.95 76.2202 148.027 77.4768C148.545 81.2466 149.679 84.7023 148.4 89.4931C147.395 93.263 145.144 92.6347 144.35 88.3151C144.058 86.7443 144.22 83.2886 144.593 84.1525C146.618 89.179 146.65 79.3617 147.59 76.5344C146.666 74.0211 145.338 72.8431 145.856 65.6176L145.97 64.7536L145.808 65.4605C144.803 66.3244 144.123 69.3088 143.556 72.8431C143.216 74.885 142.892 76.5343 142.276 75.1207C141.515 73.3143 141.061 73.2358 140.64 77.8695C140.268 81.9535 139.587 85.095 140.737 88.5507C140.997 87.9224 141.256 87.137 141.531 86.5872C142.017 85.6448 142.617 85.0165 142.73 88.0009C142.827 90.8283 142.228 91.6137 141.693 91.5351C141.272 91.5351 140.964 90.2 140.721 88.7078C139.911 88.7078 139.425 92.4776 138.745 92.7917C137.757 93.263 136.056 97.9753 136.461 86.1945C136.574 82.7389 134.63 79.6759 136.202 71.8221C134.857 74.4924 134.144 76.6914 133.383 77.2412C132.071 78.1051 131.423 81.6393 131.504 86.7443C131.617 93.8913 130.726 95.2264 129.576 94.6767C127.503 93.8127 125.461 92.3991 123.372 94.3625C122.675 94.9908 122.27 92.0849 122.335 88.6292C123.307 79.5973 124.797 85.4092 126.109 85.9589L126.271 86.4302L126.158 85.6448C125.235 75.0421 124.619 74.1782 122.951 80.6969C122.4 82.8959 122.384 85.6448 122.27 88.3936L121.703 88.8648C121.347 91.7707 120.893 94.5981 120.083 94.441C118.787 94.2054 117.443 94.3625 116.212 92.8703C115.272 91.6922 115.418 85.1735 116.422 79.3617C116.033 77.0056 115.645 74.8065 114.883 75.749C113.069 77.948 111.125 77.5553 109.408 79.5973C107.804 81.4823 106.832 75.906 105.423 77.2412C104.499 78.1051 103.625 77.2412 103.317 82.3462L104.094 83.9169C104.094 83.9169 103.949 84.9379 103.916 84.8594C103.657 84.3096 103.414 83.6813 103.155 83.1316C102.475 88.4721 103.528 91.5351 104.111 89.5717C106.006 83.1316 108.549 91.6137 110.266 83.2101C110.542 81.8749 111.125 83.1315 111.319 84.9379C111.643 87.7653 111.498 91.0639 110.882 92.3205C109.942 94.284 108.841 96.8757 107.934 96.1689C105.002 93.8913 102.07 95.6976 99.1537 94.2054C98.7973 94.0483 98.4733 92.3991 98.1331 91.3781C94.4073 99.8602 90.406 96.7186 86.4858 97.2684C85.7082 97.347 85.4814 94.5196 85.4328 91.3781C85.5624 90.6712 86.0646 92.0064 85.9188 89.6502L85.4166 91.221C83.8291 94.7552 82.4036 100.017 80.4596 99.7816C79.5687 99.7031 79.0989 98.6036 79.1313 94.441C80.3786 94.8337 79.8927 84.7809 81.3992 86.8228C82.9543 88.9434 84.1693 84.074 85.7568 83.8384C85.4328 81.9535 85.3518 80.8539 85.206 80.6969C83.0353 78.1836 80.9456 85.3306 78.7101 82.032C78.4509 81.6393 77.6734 84.6238 77.6086 86.5087C77.4142 91.2995 78.6939 86.9799 78.8883 90.0429C78.9693 91.3781 79.0017 92.7917 79.0503 94.1269C77.5438 99.2319 76.0534 100.174 74.0771 98.9177C71.4366 97.1899 68.6827 99.0748 66.026 95.7762C65.4914 95.1479 64.6167 97.2684 64.5195 92.7917C64.4223 88.4721 65.6048 85.7233 65.8964 86.5087C67.8404 91.7707 69.9787 83.1316 71.9712 89.2575C73.1375 92.7917 74.2715 87.0585 75.3082 84.6238C75.3082 82.5032 75.0491 81.0896 74.7737 81.3252C67.4516 85.6448 60.2429 77.0841 52.9694 77.4768C49.5999 70.7225 46.1494 76.1417 42.7638 76.77C41.0304 77.0841 39.7669 74.8065 38.4223 71.2723L38.2603 70.5655L38.4061 71.4294C38.4385 74.1782 36.6242 75.9846 38.1794 79.4403C38.8435 80.9325 39.2161 82.7389 38.6977 85.7233C38.2441 88.3936 37.661 88.3151 37.1426 85.7233L36.527 82.6603L36.3488 82.032L36.4784 82.8174C34.9719 90.5141 33.19 86.8228 31.6348 83.9955C31.084 82.9745 30.3875 83.8384 29.7881 80.6969C31.327 72.0577 33.8541 82.1106 35.3283 74.8065C32.542 74.5709 29.7557 69.2303 26.9208 74.1782C26.4996 71.8221 26.0784 72.1362 25.6573 74.1782L25.4953 74.885L25.7059 74.4138L26.856 74.6494L27.0018 79.5973C27.6174 78.3407 28.2816 75.3563 28.7675 80.2256C28.9619 82.1106 28.7675 84.3096 28.3787 84.9379C27.4392 86.5872 27.099 83.6813 26.8884 80.2256C24.4099 83.6813 21.9476 84.7023 19.4043 81.2466C18.5133 80.0686 17.509 80.3042 16.5694 80.6183C14.0099 81.5608 11.5638 79.2046 9.05293 77.5553C6.00745 75.5919 3.12396 68.6805 -0.0673062 71.1938C-0.261698 71.3508 -0.601884 71.1152 -0.666682 70.5655C-2.15702 57.6852 -5.72088 63.2614 -7.6648 54.4651C-8.10218 52.4232 -8.78255 51.7949 -9.44673 52.3446C-12.7514 55.172 -15.1327 47.7894 -17.2062 37.658C-18.567 30.9823 -18 23.9924 -16.0399 22.2645C-15.1813 21.5577 -14.3713 23.207 -13.5452 23.6782C-12.2978 24.4636 -11.0667 26.9768 -9.93271 19.9869C-9.28473 15.9815 -7.5676 16.5312 -6.32025 16.4527C-1.76824 16.1385 2.78378 16.1385 7.3358 16.2171C7.95137 16.2171 9.03673 14.8819 8.63175 21.0079C8.55075 22.186 8.55075 24.6992 8.82614 23.3641C10.8673 13.7039 13.4753 18.6518 15.6623 19.0445C18.9831 19.5942 22.3202 17.8664 25.6249 20.3796L27.4878 21.8718C28.1844 18.7303 28.8647 18.7303 29.5451 22.0289C29.7071 22.5787 29.9501 23.3641 30.1445 23.9924C30.3389 24.6207 30.5009 25.1704 30.5009 25.0919C32.2666 15.1176 34.5021 21.4791 36.527 21.5577C37.5314 21.5577 38.4871 24.1494 39.5077 20.3796C40.1557 17.9449 41.1924 18.5732 41.9538 19.8298C43.2497 21.9504 44.3999 23.8353 45.7606 20.2225C46.4248 18.4947 46.7164 22.9714 47.17 24.7777L47.5588 24.0709L47.413 25.8773C49.0167 32.0032 50.6528 29.5686 51.7382 23.8353C53.1637 16.2171 53.4391 20.144 53.7955 26.3485C54.1195 32.0818 54.8323 28.9403 55.4479 27.8407L55.6422 28.7046C56.1768 30.9823 56.8572 30.0398 56.9382 27.7622C57.3432 16.1386 58.4609 24.6207 59.3033 25.7987C59.4977 26.1914 59.2547 28.5476 59.7245 27.7622L59.3843 25.5631C59.4491 17.8664 60.7612 20.3011 61.7008 19.6728C63.3369 18.6518 62.689 26.8983 63.6285 29.1759C64.7625 29.0188 64.1793 22.8928 64.8759 21.0865C65.2647 20.0655 65.6372 19.4372 66.0422 20.5367C66.4148 21.4791 66.8036 23.0499 66.4958 24.9348C65.6048 30.4325 66.188 30.1969 67.2086 29.2544C68.6017 27.8407 70.0111 26.7412 71.4204 25.5631C71.5338 27.2124 71.5662 29.2544 72.1008 29.4115C72.1656 29.4115 72.2952 28.8617 72.2952 28.5476C72.2628 26.1129 71.793 26.1914 71.4366 25.4846C72.1494 17.1595 73.7531 18.8088 75.1949 18.4947C76.6852 18.1805 78.0621 18.7303 78.8235 28.2334C79.7793 17.2381 81.4964 15.7459 83.5213 16.3742C84.8821 16.7669 86.2752 17.3952 87.6197 15.6673C88.2353 14.8819 88.9643 13.6253 89.0939 17.9449C89.2073 21.7933 88.3649 23.4426 87.8465 22.5001C86.0484 19.2801 84.2989 24.6207 82.5332 22.5001C81.4478 21.165 81.0428 23.8353 80.6054 28.8617C84.6391 28.6261 88.3487 24.3851 92.1394 23.9924C93.3057 23.9138 94.1967 24.228 94.9095 28.469L94.7475 29.1759L94.9419 28.6261H96.2054L96.3674 29.1759L96.254 28.312C95.9462 26.0344 95.7842 23.4426 96.5294 22.8928C97.226 22.3431 97.9873 23.2855 98.7001 23.3641C102.07 23.5211 105.471 26.9768 108.776 21.165C109.959 19.123 111.336 23.6782 112.502 18.0235C112.129 16.5312 111.012 18.0235 111.141 13.7039C111.238 10.5623 111.903 10.955 112.405 10.798C116.471 9.30573 120.585 9.2272 124.635 7.49936C132.103 4.20076 139.555 5.5359 147.023 5.14321C147.881 5.14321 149.971 1.609 148.853 13.3897C148.497 17.081 149.922 18.9659 150.975 17.9449C153.324 15.7459 155.673 20.0655 158.119 17.3952C159.221 16.2171 160.808 20.8508 162.299 19.6728L162.428 18.8874L162.331 19.8298C162.445 21.7148 162.558 23.2855 163.125 23.1284C164.113 22.8143 164.712 18.8088 165.976 17.5522C165.506 24.5421 166.835 31.1393 165.603 37.658L165.166 38.4434L165.344 36.4799C165.263 35.1448 165.279 33.4169 165.101 32.3959C164.712 30.1183 164.55 31.532 164.275 33.4955C163.044 42.1347 163.012 42.0561 161.132 34.8306L160.517 37.5009L159.869 40.3283C160.031 42.5274 160.209 44.6479 160.403 47.1611C161.651 45.1977 162.72 39.3073 164.372 44.5693C165.101 46.847 166.754 39.2288 166.835 34.2023C166.883 31.3749 166.786 28.469 166.899 25.7202C167.061 21.0865 167.758 16.3742 168.714 17.3166C171.03 19.5942 173.282 15.9815 175.55 17.2381C175.809 17.3952 176.02 18.8874 176.263 19.7513L176.117 20.4581L176.311 19.9869C177.316 18.1805 178.061 15.5102 179.438 17.2381C182.58 21.2435 185.901 18.3376 189.141 18.5732C189.967 18.5732 190.842 16.8454 191.522 19.7513C192.575 24.3851 193.499 27.5266 194.147 18.2591C195.556 18.0235 197.046 16.3742 198.375 17.8664C201.679 21.5577 204.887 16.9239 208.143 17.0025C209.536 17.0025 210.832 17.5522 211.836 22.5001L211.723 23.2855L211.901 22.7358C213.829 16.9239 216.178 16.6098 218.235 16.8454C222.479 17.2381 226.74 14.5678 231 18.2591C232.766 19.8298 234.71 17.4737 236.573 17.1595C238.743 16.7669 240.963 13.7824 243.004 19.8298C242.647 22.6572 241.87 22.5787 241.011 24.6992C242.232 24.3327 242.907 22.6834 243.036 19.7513C243.603 15.8244 244.51 16.3742 245.32 16.4527C247.945 16.6098 250.585 16.8454 253.209 17.4737C256.093 18.1805 259.025 16.2171 261.973 17.081C266.104 18.2591 270.267 17.5522 274.398 17.6308C278.318 17.7879 282.19 20.6938 286.159 19.9084C289.658 19.2015 293.238 22.8928 296.818 21.4006C289.01 18.4947 281.251 14.2536 273.394 13.1541C269.652 12.6829 265.78 14.4892 262.103 10.0911C260.904 8.67743 260.062 16.9239 258.928 11.1121L259.09 10.4053L258.879 10.8765C254.975 8.67743 251.087 13.3897 247.102 10.4838C245.596 9.38427 243.636 8.99158 241.967 11.976C240.995 13.7039 240.137 11.1906 239.213 11.1121L239.035 10.4838L239.181 11.2692C239.035 11.8975 238.857 13.0756 238.727 13.0756C232.15 10.7194 225.541 14.4107 218.98 10.0911C218.786 9.93404 218.559 9.93404 218.365 10.1697C215.044 14.2536 211.691 11.7404 208.353 11.7404C204.142 11.7404 199.914 11.7404 195.718 12.9185C194.244 13.3112 192.721 8.04912 191.231 13.6253C190.955 14.6463 190.178 12.8399 190.113 9.93404C190.064 7.02813 190.534 5.61444 191.085 5.37883C191.814 4.98614 192.559 4.98614 193.304 4.98614C199.33 4.98614 205.357 6.16421 211.367 4.75052C223.775 1.68754 236.2 3.02269 248.625 1.92315C257.535 1.13777 266.428 1.76608 275.322 2.39438C282.725 2.94415 290.079 6.94959 297.434 10.798C298.973 11.5833 299.977 17.5522 301.629 17.7093C300.868 21.7148 299.621 19.5942 299.102 24.228C301.224 26.8983 303.201 24.0709 305.177 21.2435C306.117 19.9084 306.295 20.144 306.214 25.7202C306.165 29.49 306.635 27.8407 306.878 28.0763C307.591 28.6261 308.352 27.6051 309.049 29.333L309 28.469ZM-5.68848 23.0499C-6.74144 22.2645 -7.6324 21.8718 -8.63676 23.4426C-7.6 24.3851 -6.70904 24.8563 -5.68848 23.0499ZM-0.763877 62.476C-0.763877 62.0833 -0.763878 61.455 -0.812476 61.2194C-1.02307 60.277 -1.18506 60.5126 -1.20126 61.7692C-1.20126 62.0833 -1.10406 62.6331 -1.02307 62.7116C-0.95827 62.8687 -0.844874 62.5546 -0.763877 62.476ZM6.55823 20.6152C3.28596 23.7567 -0.0025089 21.6362 -3.24238 23.2855C-0.2131 23.7567 2.81618 23.7567 5.84546 23.6782C6.15324 23.6782 6.42863 22.7358 6.55823 20.6152ZM9.49031 68.2093L9.40931 67.3454L9.32832 68.2093H9.49031ZM12.4386 67.1883L12.2766 67.6595C12.0012 68.2878 11.7258 68.8376 11.4504 69.5445C11.4018 69.7015 11.418 70.644 11.418 70.644C11.9202 71.1152 12.0336 68.9162 12.3414 67.8952L12.4548 67.1883H12.4386ZM23.8267 73.4714C20.7489 69.623 15.0629 68.9947 13.0866 73.4714H23.8267ZM29.3183 22.5001L27.747 22.6572C28.2816 23.9924 28.8161 29.2544 29.3183 22.5001ZM31.1164 55.0149C31.0354 54.2295 30.9868 52.9729 30.8572 52.7373C30.4685 52.1875 30.3227 53.5227 30.3227 55.0149C30.3227 55.8003 30.4361 57.0569 30.5657 57.2925C30.9544 57.8423 31.0678 56.5071 31.1164 55.0149ZM40.6254 56.1144C40.674 55.4076 40.5769 54.5437 40.5607 53.7583C40.4473 54.3866 40.2853 54.9364 40.2367 55.5647C40.1881 56.193 40.2529 57.0569 40.2853 57.7637C40.4149 57.214 40.5931 56.7428 40.6417 56.1144H40.6254ZM46.7002 44.4908C46.7002 44.4908 46.6354 43.5483 46.5868 43.4698C46.5058 43.4698 46.3762 43.5483 46.3276 43.8625C46.1656 44.8835 46.2466 45.5118 46.5058 45.3547C46.5706 45.3547 46.6354 44.805 46.7002 44.4908ZM51.7058 52.9729C50.6042 53.7583 49.4865 54.0725 48.4335 55.4076C48.0447 55.8788 47.8018 58.8633 47.5102 60.6697L47.7856 62.6331L49.1625 60.0414C50.0859 58.235 51.2684 58.3135 51.7058 52.9729ZM53.5363 46.2186C53.4391 46.0616 53.3581 45.826 53.2609 45.826C52.9532 45.9045 52.8884 46.3757 53.1151 46.9255C53.1961 47.0826 53.3095 47.004 53.4067 46.9255C53.4553 46.9255 53.4877 46.4543 53.5363 46.2186ZM56.9058 61.3765C56.9058 61.3765 56.7762 60.7482 56.7114 60.7482C56.6304 60.7482 56.4846 61.0623 56.4684 61.3765C56.4036 62.6331 56.517 63.1043 56.76 62.5546C56.841 62.3975 56.8572 61.8477 56.9058 61.455V61.3765ZM60.2591 46.4543C59.0279 45.5118 58.3961 47.3967 57.7968 53.4441C58.7687 50.5382 59.7245 51.5592 60.2591 46.4543ZM62.7376 62.319C62.5594 62.6331 62.3002 62.7116 62.2516 63.1829C62.041 64.9893 61.3282 67.5025 61.9438 68.6805C62.3002 69.3874 62.7214 65.3034 62.7538 62.2404L62.7376 62.319ZM69.1201 71.5864C69.0391 71.5864 68.9419 71.8221 68.8609 71.9791L69.0391 72.686C69.1363 72.686 69.2659 72.8431 69.3307 72.686C69.5089 72.0577 69.4279 71.5864 69.1363 71.5864H69.1201ZM70.497 48.1036L70.4484 47.2396L70.3674 48.025H70.5132L70.497 48.1036ZM73.5749 60.277C73.5749 60.277 73.6073 59.413 73.5749 59.1774C73.5425 59.0204 73.3967 58.9418 73.3481 59.0989C73.1213 59.8057 73.1213 60.5126 73.3481 60.8267C73.4129 60.9053 73.5101 60.5126 73.5911 60.277H73.5749ZM75.0167 22.8928C74.5631 22.5001 74.2229 23.2855 74.1419 25.406C74.1095 26.1914 74.2229 27.6837 74.3039 27.7622C74.7575 27.9978 75.0167 26.5056 75.2273 25.0134C75.3406 23.9138 75.2758 23.1284 75.0167 22.8928ZM79.7793 63.6541L79.6011 63.34V63.9683L79.7793 63.6541ZM81.8366 40.0927C81.7394 40.0927 81.6584 40.3283 81.5612 40.4854C81.626 40.721 81.6746 41.1137 81.7394 41.1922C81.8204 41.3493 81.9662 41.4278 82.0148 41.1922C82.193 40.5639 82.112 40.0927 81.8204 40.0927H81.8366ZM84.8011 44.8835C84.8011 43.784 84.6553 43.3127 84.4771 44.0196C84.3637 44.4908 84.3151 45.5118 84.2989 46.2972C84.2827 47.5538 84.4285 47.9465 84.5743 47.1611C84.6877 46.5328 84.7363 45.6689 84.8011 44.8835ZM86.1132 58.8633L85.9512 59.3345L85.854 60.1199L86.016 59.6487L86.1294 58.8633H86.1132ZM87.3606 81.0896C87.2634 81.0896 87.1338 81.0896 87.069 81.3252C86.8908 82.032 86.907 82.8959 87.1014 83.5242C87.1662 83.6813 87.312 83.5242 87.3768 83.3672C87.555 82.6603 87.5388 81.7964 87.3444 81.0896H87.3606ZM91.0864 44.0196L91.6048 45.3547C93.3381 48.3392 95.0715 48.3392 96.7886 45.0406C97.226 47.3182 97.6634 47.0826 98.0845 45.0406L98.2303 44.3337L98.0359 44.8835L96.8048 45.0406C96.7724 42.2917 97.7443 41.2707 97.388 37.9721C95.3954 38.9931 93.9213 48.6533 91.6696 45.1191C91.4752 44.7264 91.4266 42.6059 91.0864 44.1767V44.0196ZM98.0197 53.6012L97.9063 54.3081L98.0845 53.8368L98.1979 52.9729L98.0359 53.5227L98.0197 53.6012ZM89.0291 63.5756L89.2073 63.9683V63.34L89.0291 63.5756ZM96.011 79.3617C93.8403 79.2047 92.2366 77.2412 90.7138 74.8065C90.0983 77.948 91.5724 84.1525 89.8229 85.0165C89.6123 84.7809 89.4989 82.5032 89.1911 84.4667L89.7905 85.3306C89.9363 88.6292 90.2926 90.1214 91.1026 89.3361C92.7711 87.7653 94.2939 84.9379 96.011 79.4403V79.3617ZM98.2465 68.602C98.5381 68.2093 98.8297 65.6176 98.8297 64.0468C98.8297 61.7692 98.4247 60.8267 97.9387 61.9263L95.4602 67.8952L95.363 68.602L95.525 68.1308C96.4646 66.0102 97.3556 69.7801 98.2465 68.5235V68.602ZM97.2584 78.1837C97.2422 77.791 97.2422 77.0841 97.1774 77.0056C96.9992 76.6914 96.9182 77.3197 96.983 78.4978C96.9992 78.812 97.0802 79.0476 97.1288 79.3617L97.2422 78.1837H97.2584ZM101.47 79.9115C101.47 79.2046 101.292 77.948 101.146 77.7124C100.369 76.5344 99.6073 77.3197 99.1537 80.3042C98.6677 83.5242 97.4366 85.3306 98.0683 90.9068C98.7487 89.5717 99.4453 88.4721 100.077 86.9014C100.709 85.3306 101.454 83.9169 101.47 79.9115ZM102.329 47.3967C101.519 42.6844 100.838 41.742 99.7693 45.7474C100.709 47.7109 101.405 48.025 102.329 47.3967ZM106.816 34.7521L106.362 36.4014C105.747 37.8151 105.147 39.2288 104.499 40.721C105.52 42.6059 106.055 40.4068 106.411 36.637C106.476 35.6945 106.978 36.637 106.816 34.7521ZM109.91 53.2871C109.116 53.9154 108.306 53.8368 108.112 58.4706C108.031 60.1984 108.339 62.9473 108.711 62.9473C109.635 62.9473 109.683 58.8633 109.942 55.8788C109.975 55.4861 109.942 54.9364 109.91 53.2085V53.2871ZM111.708 43.3913C111.643 42.5274 111.611 41.1137 111.514 41.0351C110.914 40.2497 110.59 42.4488 110.266 44.1767C110.023 45.4333 110.121 46.7684 110.509 46.847C111.06 47.004 111.498 45.983 111.708 43.4698V43.3913ZM115.499 39.6214C114.673 38.9931 113.895 38.9931 113.474 44.6479C114.397 45.2762 115.078 44.962 115.547 41.9776C115.628 41.4278 115.547 39.6214 115.499 39.6214ZM118.48 22.7358C118.868 24.3851 119.468 23.4426 119.937 22.186C120.294 21.165 120.683 20.2225 120.683 18.0235C120.683 14.8819 120.164 14.4107 119.63 14.018C117.929 12.8399 116.309 15.3532 114.737 17.4737C114.43 17.8664 115.126 20.2225 115.24 21.9504C116.325 21.9504 117.41 18.0235 118.496 22.7358H118.48ZM121.525 87.6082C120.877 76.6914 120.877 76.5344 118.884 80.3042C118.318 81.4037 117.783 82.5032 117.151 82.3462L117.119 85.1735L116.957 85.8804L117.167 85.4092C118.058 84.3096 118.982 88.6292 119.937 83.7599C120.618 80.3042 120.99 86.116 121.525 87.6082ZM123.064 56.3501C122.983 54.2295 122.432 54.3081 122.06 54.9364C121.687 55.4861 121.347 56.5857 120.828 57.8423C121.363 58.7062 121.736 59.413 122.124 59.8057C122.74 60.434 123.194 59.256 123.08 56.3501H123.064ZM124.684 37.9721L120.164 43.784L120.294 46.7684C121.817 44.8835 123.518 45.3547 124.684 37.9721ZM130.192 79.1261C129.365 79.9115 128.523 78.812 128.215 83.4457C128.167 84.074 128.313 85.7233 128.41 85.8018C129.365 86.3516 129.835 83.7599 130.208 79.1261H130.192ZM128.475 72.5289C128.475 72.5289 128.475 73.3928 128.539 73.6284C128.734 74.6494 128.879 74.4924 128.896 73.2357C128.896 72.9216 128.815 72.4504 128.734 72.2933C128.669 72.1362 128.555 72.3718 128.475 72.4504V72.5289ZM128.977 45.6689C129.106 45.6689 129.203 44.5693 129.317 43.941C129.155 43.6269 129.009 43.0771 128.847 42.9986C128.604 42.8415 128.442 43.6269 128.539 44.4908C128.62 45.1191 128.831 45.826 128.977 45.7474V45.6689ZM134.533 30.1969C133.642 32.9457 133.642 36.3228 134.177 39.9356C134.225 40.3283 134.614 40.2497 134.744 39.8571C135.748 36.3228 135.1 33.3384 134.533 30.1969ZM138.599 74.9636L138.081 76.4558C137.919 76.6914 137.741 76.927 137.579 77.3197C137.53 77.3983 137.514 77.791 137.498 78.0266C137.822 78.5763 137.951 77.3983 138.113 76.6129C138.259 75.906 138.729 77.3197 138.599 74.9636ZM141.353 40.1712L141.142 40.4854L141.337 40.9566V40.1712H141.353ZM141.726 22.5787C141.58 21.7933 141.45 22.1074 141.434 23.4426C141.434 23.8353 141.499 24.228 141.547 24.6207C141.612 24.3851 141.677 24.1494 141.742 23.8353C141.742 23.4426 141.79 22.8143 141.742 22.5001L141.726 22.5787ZM141.985 34.6735L141.774 34.9092L141.969 35.3804V34.6735H141.985ZM146.31 10.955C142.876 11.7404 139.555 12.5258 136.218 13.2326C132.395 11.2692 128.572 13.2326 124.765 14.2536C122.027 15.039 122.027 15.1961 122.805 28.312C122.934 26.5841 122.999 23.5211 123.194 23.3641C125.915 20.9294 128.491 15.1176 131.358 15.6673C131.99 15.8244 132.719 15.8244 132.881 19.4372C133.253 27.6837 134.339 21.8718 134.841 20.8508C135.424 19.5942 135.456 14.9605 136.202 13.3897C136.817 16.2956 138.129 15.9815 138.097 21.8718L137.514 21.0865C137.157 20.6938 136.688 19.4372 136.655 22.3431C136.639 23.7567 137.06 24.3065 137.336 23.9138C137.611 23.5997 137.854 22.6572 138.113 21.9504C139.555 14.7249 141.353 13.7039 143.232 16.8454C145.144 20.0655 145.111 20.4581 146.31 10.8765V10.955ZM147.266 48.4177C147.331 47.3182 147.217 46.6899 146.974 46.6899C146.893 46.6899 146.764 47.004 146.747 47.3182C146.683 48.4177 146.796 49.046 147.039 49.1246C147.12 48.8889 147.25 48.7319 147.282 48.4177H147.266ZM149.048 40.9566C148.837 41.3493 148.74 42.2132 148.902 43.0771C149.161 44.4908 148.805 49.046 149.517 47.3182C150.036 46.0616 149.566 42.6844 149.048 41.0351V40.9566ZM153.713 33.6525C152.822 33.3384 153.098 30.1969 153.405 27.7622L153.519 27.0553L153.357 27.5266C152.142 29.8827 151.996 35.2233 151.413 39.3073C152.45 42.4488 153.195 38.1292 153.988 39.5429L154.167 40.0141L154.037 39.3073C153.972 37.4224 155.365 34.2809 153.713 33.7311V33.6525ZM157.941 27.291C157.941 27.291 157.893 26.6627 157.876 26.3485L157.471 27.2124L157.552 28.2334C157.682 27.9193 157.828 27.6837 157.941 27.291ZM159.626 38.8361L160.241 35.8516L160.679 33.0242C159.502 33.0242 158.616 36.5846 158.022 43.7054C158.589 41.9776 159.107 40.4068 159.626 38.8361ZM161.78 52.8158L161.618 53.2871L161.505 54.0725L161.667 53.6012L161.764 52.8944L161.78 52.8158ZM169.264 57.9994C168.244 58.3921 168.244 62.319 167.92 65.0678L167.823 65.7746L167.985 65.3034C168.373 62.8687 169.248 62.0833 169.264 57.9994ZM173.687 37.1082C172.877 34.7521 172.245 32.3959 171.5 32.7886C170.852 33.1028 170.415 35.6945 170.236 38.6004C170.172 39.6214 170.366 41.3493 170.56 42.2917C171.014 44.4123 171.5 43.3913 171.954 41.9776C172.488 40.3283 173.055 38.9146 173.671 37.1868L173.687 37.1082ZM176.83 26.5056C176.068 24.9348 175.404 24.8563 174.918 28.7046C175.744 31.2964 176.263 28.7046 176.83 26.5056ZM177.526 36.7941C177.526 36.7941 177.299 35.2233 177.154 35.0662C176.457 34.5165 176.425 37.2653 176.246 39.2288C175.939 40.2497 175.566 41.1922 175.582 43.2342C175.582 43.5484 175.939 44.1767 176.084 43.941C176.668 43.1557 176.246 40.9566 176.344 39.4644C176.732 38.4434 177.364 39.4644 177.542 36.7941H177.526ZM178.822 25.9558L178.628 26.27L178.822 26.5841V25.9558ZM182.759 40.0141L182.645 39.1502C181.997 33.574 180.669 36.2443 179.713 34.2023C179.81 38.2863 178.611 41.4278 179.276 46.5328C180.426 44.0196 181.511 41.6634 182.597 39.3073L182.759 40.0141ZM189.303 26.8983C189.4 26.8983 189.481 26.5841 189.562 26.5056C189.514 26.27 189.465 25.8773 189.4 25.7202C189.319 25.5631 189.173 25.4846 189.109 25.7202C188.93 26.3485 189.011 26.8983 189.303 26.8983ZM184.719 30.1183C184.427 28.9403 184.184 29.7256 184.119 31.2179C184.087 31.9247 184.2 32.7886 184.249 33.6525C184.411 33.2599 184.638 33.1028 184.719 32.553C184.8 31.9247 184.816 30.511 184.719 30.1969V30.1183ZM185.853 48.9675L185.658 49.1246L185.82 49.5958L185.853 48.9675ZM189.886 59.5701L189.53 62.2404L189.416 63.0258L189.578 62.5546L189.87 59.6487L189.886 59.5701ZM191.895 52.9729C191.911 51.6378 191.846 50.3026 191.458 49.9099C190.988 50.5382 190.939 52.3446 190.955 54.151C190.955 55.0149 191.085 56.4286 191.198 56.5071C191.765 56.8213 191.846 54.8578 191.879 52.9729H191.895ZM192.154 32.3959C190.923 32.3959 190.226 40.5639 188.768 36.0087C187.764 32.9457 186.776 36.0087 186.403 39.5429C185.934 43.784 187.149 45.4333 187.683 48.1036L187.861 48.6533L187.732 47.8679C188.039 44.7264 188.704 44.7264 189.319 44.1767C190.761 42.8415 191.636 38.7575 192.154 32.3959ZM195.362 48.9675L195.167 49.2031L195.345 49.5958V48.9675H195.362ZM196.836 37.658C195.799 35.6945 195.556 29.6471 195.216 29.6471C194.325 29.6471 193.677 33.3384 193.369 37.7365C194.422 39.2288 195.426 39.3073 196.836 37.7365V37.658ZM196.35 83.8384C195.961 84.7809 196.01 86.5087 195.945 88.0795C196.285 87.0585 196.398 85.6448 196.35 83.8384ZM201.566 34.8306C200.481 36.0872 198.634 34.0452 199.168 42.1347C199.816 51.8734 198.796 56.8998 197.354 62.0048C196.949 63.4185 196.56 65.2249 197.111 69.0732C197.775 62.2404 200.14 64.2824 200.189 55.172C200.238 47.7894 200.95 41.6634 201.55 34.8306H201.566ZM202.344 51.7949L202.149 52.109L202.327 52.4232V51.7949H202.344ZM206.28 35.5375L206.118 36.0872C205.13 38.6005 203.51 31.6891 202.846 41.0351C204.142 41.1922 205.162 38.8361 206.167 36.3228L206.28 35.5375ZM206.896 26.427L206.717 26.0344V26.6627L206.896 26.427ZM208.159 49.4387L207.981 48.9675V49.6743L208.159 49.3602V49.4387ZM215.789 35.5375C213.391 37.5795 210.751 31.6891 208.402 40.4854C211.043 42.8415 213.537 45.2762 215.789 35.5375ZM214.833 64.8322C213.861 65.6961 212.792 66.7956 213.861 72.8431L215.465 75.4348L215.497 71.5864L214.785 69.4659C215.19 67.3454 215.449 69.1518 215.74 70.1728C216.307 65.3819 215.838 63.8897 214.833 64.7536V64.8322ZM221.41 37.4224L221.216 37.7365L221.41 38.0507V37.3438V37.4224ZM224.796 33.8096C224.796 32.9457 224.585 32.7101 224.326 33.3384C224.213 33.7311 224.067 34.2023 223.905 34.6735C224.083 34.9092 224.261 35.3804 224.423 35.2233C224.569 35.0662 224.796 34.2809 224.796 33.7311V33.8096ZM226.4 26.5841L226.594 26.27L226.4 25.8773V26.5841ZM226.756 53.13C226.756 53.13 226.659 52.2661 226.594 52.1875C226.513 52.0305 226.416 52.3446 226.319 52.4232C226.335 52.8158 226.319 53.3656 226.367 53.6012C226.578 54.6222 226.724 54.4651 226.74 53.13H226.756ZM231.956 37.0297C230.741 39.6214 229.299 34.8306 227.825 39.5429C229.607 44.3337 230.871 43.1557 231.956 37.0297ZM234.694 34.8306L234.434 34.3594C234.337 34.4379 234.191 34.4379 234.175 34.6735C234.11 35.4589 234.24 35.7731 234.499 35.4589C234.564 35.3804 234.629 35.0662 234.694 34.8306ZM235.828 42.8415L235.99 42.3703C236.087 41.4278 236.54 42.4488 236.443 40.5639L235.925 42.1347L235.828 42.8415ZM236.459 80.6969L235.957 82.3462L235.795 83.053L236.006 82.5818C236.103 81.6393 236.589 82.7389 236.459 80.6969ZM238.144 23.9924C238.225 23.9924 238.322 23.8353 238.419 23.7567C238.403 23.4426 238.403 23.0499 238.355 22.9714C238.274 22.8928 238.16 22.8143 238.079 22.9714C237.804 23.4426 237.82 23.8353 238.144 24.0709V23.9924ZM239.715 72.2148C238.954 71.1152 238.533 72.8431 238.063 76.927C238.97 76.3773 239.278 74.0211 239.715 72.2148ZM238.581 63.8897L238.614 63.1043L238.403 63.34L238.581 63.8897ZM239.084 56.5857C239.213 56.193 239.246 55.2505 239.327 54.5437L238.889 53.13C238.824 53.9154 238.727 54.7008 238.727 55.4861C238.727 56.5857 238.889 57.214 239.084 56.5857ZM242.097 37.5795C241.983 34.6735 241.497 35.9302 241.157 36.637C240.882 37.1868 240.671 38.2863 240.428 39.1502H238.565C238.549 38.1292 238.549 37.2653 238.565 36.3228L238.727 35.616L238.517 36.0872C238.517 36.0872 238.371 36.7941 238.371 37.1082C238.371 37.8151 238.452 38.5219 238.5 39.2288C239.148 41.6634 239.796 41.899 240.444 39.2288C240.736 39.6214 241.028 40.1712 241.335 40.4068C241.838 40.8781 242.178 39.7 242.097 37.5009V37.5795ZM245.482 53.7583C245.482 53.7583 245.596 53.0515 245.644 52.6588C245.58 52.4232 245.515 52.0305 245.45 52.0305C245.369 52.0305 245.223 52.3446 245.207 52.6588C245.142 53.9154 245.256 54.3081 245.482 53.7583ZM245.968 68.1308C246.195 68.7591 246.357 68.3664 246.406 66.9527C246.179 66.3244 245.952 65.6176 245.693 64.9892C245.45 64.3609 245.207 64.9892 245.304 65.6961C245.434 66.7171 245.725 67.4239 245.968 68.1308ZM246.762 80.8539L246.13 82.1891L244.851 85.095L244.721 85.8804L244.915 85.3306L246.179 82.4247L246.778 80.7754L246.762 80.8539ZM246.811 35.9302C246.827 35.2233 246.616 33.6525 246.519 33.6525C245.661 33.8882 245.029 35.6945 244.834 40.4068C245.385 37.658 246.616 41.4278 246.811 35.9302ZM248.447 36.8726C248.447 36.8726 248.609 36.7155 248.69 36.637C248.738 36.2443 248.819 35.8516 248.819 35.4589C248.819 35.2233 248.657 34.8306 248.609 34.9092C248.366 35.2233 248.317 35.9302 248.463 36.8726H248.447ZM248.544 71.7435C248.431 70.4869 248.317 70.5655 248.269 72.0577C248.269 72.4504 248.317 72.9216 248.333 73.3143C248.398 73.2358 248.528 73.2358 248.528 73.0787C248.56 72.686 248.576 72.1362 248.528 71.7435H248.544ZM248.852 80.8539L248.641 80.3827V81.2466L248.852 80.8539ZM250.763 35.5375L250.569 36.0872L250.326 39.1502L250.618 36.3228L250.763 35.5375ZM254.943 33.6525C253.517 34.2023 252.562 35.5375 252.286 43.5484C253.631 41.3493 254.262 38.2078 254.943 33.6525ZM263.82 80.6183C263.561 80.4613 263.366 80.1471 263.172 80.2256C263.059 80.2256 262.945 80.8539 262.832 81.2466C263.026 81.4037 263.221 81.6393 263.415 81.6393C263.545 81.6393 263.658 81.0896 263.82 80.6969V80.6183ZM267.254 66.4815L267.06 66.1673V66.7956L267.254 66.4815ZM270.397 83.053C269.781 83.2886 269.328 82.9745 269.036 83.7599C268.728 84.5452 268.583 86.5872 268.372 88.0009L268.21 88.7863L268.404 88.158C269.069 87.2155 269.96 88.158 270.397 83.053ZM281.17 86.8228C280.052 85.3306 279.258 85.2521 278.545 88.0795L278.383 88.7863L278.594 88.3151C279.371 87.8438 280.133 87.4512 281.17 86.8228ZM281.267 29.8042L281.105 30.511C280.975 31.2179 280.505 29.9613 280.619 32.1603L281.137 30.6681L281.267 29.8042ZM283.292 88.5507C283.292 87.3726 283.113 86.1945 283.016 84.9379L282.822 84.4667L282.968 85.1735C282.935 86.4302 282.822 87.8438 282.887 89.0219C282.935 89.8073 283.275 89.5717 283.275 88.5507H283.292Z" fill="#1B1B1B"/>
<path d="M167.661 6.94947C165.539 3.41525 154.167 2.78695 150.668 6.63532C158.881 13.6252 165.539 13.4681 167.661 6.94947Z" fill="#1B1B1B"/>
<path d="M175.615 12.8399C177.996 9.7769 180.393 10.0911 182.791 11.2691C183.909 11.8189 184.864 11.2691 185.707 7.97052C186.744 11.5047 187.683 12.0545 188.525 6.55684C187.553 2.31578 186.727 5.14315 185.885 6.55684C183.471 1.45186 180.912 4.67192 178.417 4.27923C172.699 3.41531 172.699 3.808 171.419 8.83444C172.715 12.6043 174.124 14.7248 175.615 12.7613V12.8399Z" fill="#1B1B1B"/>
<path d="M49.6647 79.8328C47.4292 82.4246 45.1451 81.7178 42.861 81.7963C41.9539 78.4977 41.0305 77.6338 40.1071 81.5607C39.8803 82.5817 39.8479 84.3881 40.1071 85.252C41.0629 88.5506 41.7919 84.1524 42.6504 83.4456C42.7638 85.3305 42.9906 87.5296 43.428 87.294C44.8697 86.43 46.2467 86.9013 47.6074 89.5716C48.4336 91.2209 49.2274 88.6291 50.0373 88.315C50.7501 88.0008 51.1551 85.8017 50.9445 82.3461C50.7663 79.5187 50.2155 79.2831 49.6809 79.9114L49.6647 79.8328Z" fill="#1B1B1B"/>
<path d="M56.3226 81.875C55.4154 82.6604 54.492 83.2887 53.5849 84.1526C52.8397 84.8594 52.8559 87.5297 53.1961 89.4932C53.8279 93.1845 56.0958 94.5196 56.9219 91.8493C57.4241 90.2786 58.0073 88.3937 57.8453 85.0951C57.6671 81.5608 56.9381 81.9535 56.3226 81.875Z" fill="#1B1B1B"/>
<path d="M61.7979 83.6027C60.421 83.7598 59.0116 83.3671 58.4285 92.9488C59.6758 94.9908 60.826 94.441 61.9437 94.0483C62.6241 93.8127 63.1749 92.3205 63.0291 88.6292C62.9157 85.7233 62.6079 83.4457 61.7979 83.5242V83.6027Z" fill="#1B1B1B"/>
<path d="M166.802 80.4613C166.073 82.032 165.231 83.1316 164.891 88.4722C165.733 89.2575 166.397 90.0429 167.078 90.5927C167.661 91.0639 168.066 89.6502 168.309 87.3726C168.519 85.4877 168.422 83.7599 168.147 82.1891C167.79 80.1471 167.321 79.3617 166.786 80.4613H166.802Z" fill="#1B1B1B"/>
<path d="M99.2185 17.1596C101.843 20.5368 107.885 17.6309 109.894 11.5049C107.351 8.83458 104.953 9.14874 102.62 10.7195C101.6 11.4263 100.207 10.0127 99.4777 15.5889C98.1169 10.7195 97.2908 10.8766 95.1201 17.0025C96.5456 21.2436 97.8739 19.9085 99.2023 17.1596H99.2185Z" fill="#1B1B1B"/>
<path d="M93.9375 16.2957C92.7819 13.6777 91.405 13.5992 89.8066 16.06C91.3942 19.2016 92.7711 19.2801 93.9375 16.2957Z" fill="#1B1B1B"/>
<path d="M133.351 83.6028C133.043 82.1106 132.573 84.074 132.46 86.116C132.281 89.179 132.427 92.0064 133.14 93.1844C133.836 94.3625 134.322 92.3205 134.76 89.8858C134.889 85.2521 133.804 85.8018 133.351 83.6028Z" fill="#1B1B1B"/>
<path d="M113.28 86.9015C112.648 86.5873 112.291 88.2366 112.372 90.9069C112.453 93.9699 113.053 93.8914 113.555 93.7343C113.944 93.5772 114.365 93.106 114.381 90.6713C114.251 87.9225 113.782 87.1371 113.28 86.9015Z" fill="#1B1B1B"/>
<path d="M152.174 83.2102C151.607 82.8175 151.186 83.917 150.862 85.959C150.862 87.8439 151.186 88.1581 151.478 88.1581C151.98 88.2366 152.579 88.7078 152.757 85.8019C152.838 84.3882 152.482 83.3672 152.174 83.1316V83.2102Z" fill="#1B1B1B"/>
<path d="M192.478 81.4822C192.008 82.1105 191.863 83.9955 191.927 85.9589C191.927 86.4301 192.251 86.6658 192.43 87.0584C192.835 86.1945 193.191 85.0164 192.964 82.7388C192.899 82.1105 192.608 81.3252 192.462 81.4822H192.478Z" fill="#1B1B1B"/>
<path d="M169.637 8.44178C169.767 7.10663 169.637 5.85002 169.264 5.77148C169.135 5.77148 169.005 6.71394 168.859 7.18517C168.957 7.89201 169.005 8.99155 169.135 9.22716C169.264 9.46278 169.572 8.99155 169.621 8.44178H169.637Z" fill="#1B1B1B"/>
<path d="M185.577 70.7226C185.577 70.7226 185.512 70.1728 185.48 69.8586C185.302 70.2513 185.286 70.8011 185.448 71.4294C185.448 71.4294 185.577 70.9582 185.577 70.7226Z" fill="#1B1B1B"/>
<path d="M170.722 79.6758L170.949 79.7543L170.852 78.6548L170.722 79.6758Z" fill="#1B1B1B"/>
<path d="M69.0066 20.8509C69.039 19.5943 68.9094 19.3586 68.6827 20.144C68.6503 20.2226 68.7151 20.8509 68.7475 21.165L69.0229 20.7723L69.0066 20.8509Z" fill="#1B1B1B"/>
<path d="M55.6423 26.3486C55.5451 26.5842 55.4803 26.8983 55.3993 27.2125L55.5937 28.0764C55.5937 28.0764 55.7395 27.3696 55.7881 26.9769C55.7881 26.8983 55.6585 26.27 55.6423 26.3486Z" fill="#1B1B1B"/>
<path d="M158.962 86.0375L159.091 85.1736L159.188 84.3882L159.075 85.1736L158.962 86.0375Z" fill="#1B1B1B"/>
<path d="M203.801 67.8166C203.85 65.2248 203.38 65.0677 202.943 65.1463L202.344 68.0522C202.311 69.9371 202.295 72.2147 202.813 72.4503C203.445 72.6859 203.753 70.3298 203.801 67.8166Z" fill="#1B1B1B"/>
</g>
<defs>
<clipPath id="clip0_180_528">
<rect width="327" height="101" fill="white" transform="translate(-18 0.666504)"/>
</clipPath>
</defs>
</svg>
