<svg width="1440" height="142" viewBox="0 0 1440 142" fill="none" xmlns="http://www.w3.org/2000/svg">
<g clip-path="url(#clip0_95_650)">
<path d="M-32.833 -73.5804C-30.25 -27.1748 -26.1173 -13.3706 -14.3218 -11.6083C-12.5997 -22.4755 -15.7854 -31.2867 -15.5271 -41.5664C-15.2688 -50.0839 -15.5271 -60.3636 -11.997 -61.5384C-8.12257 -63.007 -8.29469 -52.7272 -7.95033 -44.2097C-7.43373 -30.6992 -2.78443 -33.93 -0.718029 -26.5874C-2.26783 -25.4125 -4.4203 -24.5314 -4.33424 -18.951C-4.33424 -13.3706 -2.18165 -12.4894 -0.545789 -12.1957C0.831775 -8.37754 2.20946 -8.08384 3.67308 -12.1957C9.0974 0.433646 14.005 10.126 12.2831 39.2029C11.0776 58.8812 18.9126 65.3428 26.5754 52.7134C28.1252 54.1819 29.675 55.063 31.2248 56.8253C33.3773 59.1749 35.6158 60.6435 37.0796 54.1819C38.7154 47.4267 37.51 41.5525 35.6158 36.8532C32.6024 29.5106 29.5889 22.4616 26.5754 15.119C26.8337 11.8882 26.8337 7.4826 27.4365 5.42666C35.1854 -19.2447 30.1916 -23.6503 21.7539 -23.0629C34.9271 -43.0349 39.3181 -39.8041 48.1002 -5.4405C47.8419 -4.26566 47.2392 -2.79713 47.3254 -1.91601C47.4975 1.31477 48.1864 1.31477 49.1335 -2.20972C52.2331 0.72735 55.3326 3.37071 58.4322 6.30776C63.0817 -2.30762 67.5013 2.78329 71.6915 21.5805C66.5255 23.3427 64.2008 0.139934 58.6044 7.1889C57.2268 14.8253 62.9955 47.4267 52.7496 24.2239C50.1667 18.3497 47.4977 19.8183 46.0339 28.6295C44.6564 36.5595 45.3452 45.3707 47.2394 52.4197C53.1802 73.8603 59.896 72.3917 67.5587 47.7204C71.7776 54.7693 69.9695 74.154 74.1883 80.9092C74.5327 81.7903 74.8772 82.6715 75.2215 83.2589C75.3077 83.2589 75.8242 81.7903 75.8242 81.4966C75.652 80.3218 75.3076 79.147 75.0493 77.9721C78.235 67.105 81.2485 76.2099 84.3481 79.147L85.2951 82.084L84.4342 79.147C87.792 71.5106 90.8055 58.8812 94.9382 77.3847C97.0908 87.077 99.5016 97.6505 103.548 100C108.284 102.35 109.059 93.8323 107.853 81.2029C108.111 79.147 108.37 77.091 108.628 75.0351C107.939 75.9162 107.337 76.5036 106.648 77.3847C105.184 72.9791 100.621 64.4617 105.529 62.6994C113.364 59.7623 111.9 41.8463 113.45 28.0421C102.343 30.6854 90.7193 38.9092 84.4342 -3.67824C84.7786 -4.26564 85.4674 -5.14678 85.4674 -5.73419C85.2953 -8.37755 84.8647 -7.79013 84.3481 -3.97196C76.3121 -8.27965 72.0072 -25.7062 71.4332 -56.2517C67.817 -70.0559 64.2009 -84.1538 57.0547 -78.5734C63.6843 -84.4475 69.8834 -86.2098 76.0825 -88.5594C78.8376 -89.7342 80.0432 -85.3286 80.2153 -77.3986C80.6459 -57.7202 77.1157 -74.1678 75.5659 -72.1118C73.4134 -69.4685 72.1219 -64.4755 71.9498 -56.8391C78.4933 -36.5734 88.5669 -47.4405 95.4548 -29.2307C97.2629 -24.5314 101.826 -26.8811 100.363 -14.8391C98.8127 -2.50342 99.5876 7.1889 102.343 12.1819C107.164 20.9931 105.356 -9.55237 110.264 -3.97195C111.125 -6.02789 109.747 -13.3705 112.072 -11.6083C111.556 -8.96495 110.953 -6.32159 110.436 -3.38454C109.833 8.65742 111.641 18.056 113.622 27.1609C117.496 45.3707 123.265 59.4686 124.556 83.2589C124.987 90.6015 127.053 101.762 130.067 94.126C131.444 90.6015 130.842 78.8533 131.1 70.3358C134.802 75.3288 136.696 84.4337 138.504 95.0071C139.968 103.231 144.359 102.643 145.048 93.8323C148.492 45.9581 159.685 65.6365 168.639 65.0491C169.156 76.5036 169.845 87.9582 170.189 99.7064C170.361 107.343 170.964 113.804 173.461 114.979C175.872 115.86 177.938 111.161 178.282 104.112C179.832 76.2099 184.309 91.7764 188.528 95.3008C192.833 98.8253 195.847 119.385 202.476 103.525C194.297 82.084 188.873 55.9442 188.787 21.2868C192.489 45.9582 200.926 51.8323 206.953 67.3987C214.444 86.4896 214.1 65.0491 214.875 50.3637C217.888 57.7064 221.332 60.9372 225.034 61.2309C227.789 61.5246 231.234 64.7554 231.147 73.2729C230.803 111.748 237.088 90.8953 241.738 87.0771C242.943 86.1959 244.579 90.3078 246.042 92.0701C246.731 92.9512 247.42 93.8323 248.195 94.7134C247.937 92.3638 247.592 90.3078 247.334 87.9582C247.764 81.4966 248.195 74.7414 248.539 68.2798C254.911 86.1959 264.64 46.8393 270.581 83.2589C273.078 98.5316 278.158 77.9722 282.29 79.4407C282.29 75.9162 282.29 72.6855 282.29 69.161C285.476 71.2169 287.715 62.6994 292.106 58.8812C289.437 74.7414 291.331 101.175 282.29 79.7344C280.827 89.7204 277.899 99.7064 281.257 111.161C284.787 123.203 287.801 111.161 290.9 107.637C292.364 106.168 293.655 103.231 295.033 101.175C296.497 108.224 298.563 112.042 301.146 112.923C302.524 117.623 303.987 117.623 305.365 112.923C315.18 117.916 315.438 117.916 313.114 92.6575C312.339 83.8463 313.2 76.2099 313.286 67.9861C313.717 28.3358 307.517 16.2938 296.238 34.7973C292.794 2.48961 306.398 -17.1887 301.577 -51.5524C309.67 -34.8111 310.531 2.19591 321.035 6.6015L321.896 3.95815L321.207 7.18892C320.604 16.5875 330.248 16.0001 323.015 35.3847C319.571 44.7833 329.214 52.7134 330.161 67.6924C328.526 72.098 328.353 76.5036 330.075 81.2029C331.108 90.6016 325.598 106.755 331.97 108.224C333.519 108.518 344.196 124.965 340.924 87.9582C340.063 77.9722 345.487 66.8113 344.282 52.126C351.17 60.3498 346.951 79.7344 347.553 92.9512C348.415 111.748 350.395 121.441 356.077 123.497C356.508 124.378 356.852 125.553 357.283 126.14C357.455 126.14 358.058 124.378 357.972 123.79C357.885 122.322 357.455 121.147 357.197 119.972C355.475 96.7694 355.389 73.5666 357.111 50.3638C362.018 65.0491 367.959 76.5036 371.489 96.182C372.781 103.525 374.589 112.336 377.602 106.462C380.443 100.881 379.152 91.189 378.119 83.5526C377.516 78.8533 376.569 74.4477 375.794 70.0421C374.761 66.8113 373.814 63.5806 372.781 60.3498C371.575 56.8253 370.284 53.5945 369.251 49.7763C367.701 43.6085 364.429 39.7903 366.237 28.9232C366.668 26.2798 368.045 23.6365 368.82 23.9302C372.35 25.9861 371.833 35.9722 372.178 43.9022C372.436 48.8952 372.781 53.8882 373.039 58.8812C374.072 62.112 375.019 65.3428 376.052 68.5736C380.53 72.6855 388.279 55.3568 388.279 88.2519C386.04 91.7764 382.682 96.7694 384.232 104.993C386.815 117.916 390.948 124.378 395.683 112.63C403.26 136.713 412.042 133.483 420.996 123.203C421.341 124.084 421.685 125.259 422.029 125.553C422.116 125.553 422.632 124.084 422.632 123.79C422.46 122.616 422.115 121.441 421.857 120.266C419.963 94.7135 414.022 99.119 408.426 101.469L407.479 103.818L408.167 100.881C414.625 69.4547 416.089 68.2799 424.612 85.0211C427.626 90.8952 430.984 95.3009 434.169 100.588C432.275 102.35 429.692 101.469 429.52 110.867C429.52 112.923 430.811 117.035 431.414 116.741C434.255 116.154 433.997 107.93 434.6 101.762C437.958 103.231 440.799 107.343 442.952 115.86C444.243 120.853 447.17 129.665 447.515 126.14C450.098 97.6505 462.582 137.007 463.615 101.175C462.582 97.6505 461.463 94.4198 460.43 90.8953L459.569 88.2519L460.516 90.6016C461.549 94.126 462.668 97.3568 463.701 100.881C469.212 89.4267 464.649 75.9162 464.304 63.5806C464.046 53.8883 463.96 39.7903 459.396 43.0211C457.502 44.1959 456.211 55.3568 453.628 66.2239C450.356 43.6085 447.343 23.0491 443.727 -1.32855C450.356 -8.67122 456.039 21.8743 461.721 -3.97192C463.357 -11.3146 467.834 11.0071 471.45 17.7624C477.047 28.0421 470.073 43.3148 472.914 55.9442C480.06 58.0001 489.101 52.126 487.809 93.8323C487.465 104.112 493.32 112.923 498.313 116.448C500.983 97.0631 498.4 75.6225 502.102 56.8253C504.685 43.6085 499.347 33.0351 496.591 22.7554C492.631 8.07004 492.975 -2.79709 498.399 -15.1328C505.89 -32.4614 505.46 -33.3426 497.539 -57.1328C495.903 -62.1258 494.783 -71.8181 496.247 -80.6293C509.334 -87.3845 512.434 -58.6013 514.844 -27.1747C512.261 -24.8251 509.42 -23.0628 508.215 -14.5453C506.062 0.139973 510.97 69.161 515.447 73.8603C528.706 87.6645 540.158 115.567 554.192 122.616C556.861 124.084 559.702 124.378 561.769 118.21C562.802 115.273 563.663 109.986 563.749 105.287C563.749 99.7065 562.113 98.5316 560.477 97.0631C557.55 94.7134 553.245 114.686 551.695 91.7764C552.039 90.6016 552.642 89.4267 552.642 88.5456C552.47 85.3148 551.781 85.6086 551.006 89.4268C541.966 94.126 540.674 45.9582 530.342 57.7064C530.256 57.7064 529.051 52.126 529.309 50.3638C533.786 15.4127 524.918 6.60152 518.547 -7.7901C517.513 -10.1398 517.427 -16.6013 516.911 -21.3006C519.666 -28.6433 519.58 -47.4405 524.057 -45.6782C528.018 -44.2097 530.084 -32.7551 529.051 -18.3635C528.534 -10.7272 529.653 -2.79708 531.892 -2.20968C541.88 -0.153726 544.549 25.105 548.681 47.7204C551.092 60.9372 555.483 68.8673 560.391 72.9792C562.888 75.0351 567.107 80.6155 567.107 84.4337C566.934 145.525 580.108 105.581 586.996 112.042C593.137 127.119 596.782 120.853 597.93 93.2449C600.169 99.7065 599.05 114.686 603.441 116.154C605.593 69.7484 608.004 65.0491 624.449 77.6785C628.151 80.6156 632.284 85.6086 635.039 75.3288C638.225 63.2869 642.271 74.154 645.715 67.3988C648.04 51.8323 641.41 50.6575 640.894 39.4967C640.636 33.6225 641.238 29.2169 642.616 26.2799C644.079 23.0491 646.404 23.3428 646.749 27.7484C649.762 67.6925 660.955 69.7484 670.254 81.203C671.717 82.9652 672.923 86.7834 674.3 89.7204C674.3 89.7204 674.473 90.3079 674.645 90.6016L674.3 89.7204C669.393 91.4827 665.002 96.4757 662.246 118.21C669.565 115.273 676.195 131.427 682.222 111.748C685.493 101.175 684.632 90.0142 681.705 79.7344C682.308 75.0351 682.738 70.0421 683.599 65.6365C685.579 55.3568 692.467 52.126 689.023 33.9162C686.613 21.2869 679.208 26.5736 674.214 43.6085C673.181 47.133 672.837 53.0071 669.737 52.7134C668.618 35.3848 658.63 30.9792 664.141 -0.447431C667.24 -18.3635 658.544 -17.7761 651.828 -25.9999C659.147 -30.9929 663.107 -35.1048 667.154 -35.9859C671.287 -37.1607 675.42 -38.6293 677.744 -20.7132C682.135 13.9442 693.759 28.0421 700.561 56.2379C704.091 70.9233 709.601 72.0981 714.853 70.6295C717.694 86.7834 710.72 102.056 714.767 115.567C718.9 129.371 723.721 111.161 728.887 117.035C730.351 96.7694 723.119 82.3778 726.304 62.1121C728.026 51.2449 729.059 43.6086 733.192 50.0701C736.55 60.9372 740.769 70.3358 742.663 83.2589C743.352 88.2519 736.722 99.1191 743.266 110.867C747.313 117.916 751.273 119.679 755.32 121.734C758.764 123.203 761.605 115.567 761.605 103.525C761.605 87.6645 756.697 95.5946 753.856 89.4268C756.87 68.8673 764.016 72.0981 768.493 61.8184C770.818 72.9792 773.745 81.203 778.136 82.9652C778.394 85.9023 778.567 88.5456 778.653 91.4827C779.514 94.4198 780.375 97.3568 781.236 100.588C780.461 100.881 779.6 101.175 778.739 101.469C778.739 98.238 778.567 95.0072 778.567 91.7764C777.361 93.5386 776.156 95.0072 774.95 96.7694C776.07 98.8254 777.275 100.588 778.394 102.644C779.514 107.93 780.805 107.637 782.097 103.231C793.72 111.455 805.343 117.623 816.622 99.1191C821.1 91.7764 824.974 103.231 829.193 103.231C831.345 103.231 834.015 103.231 834.962 96.7694C836.511 87.0771 833.842 81.7904 831.862 75.9163C827.385 62.9932 823.166 58.2939 817.656 72.0981C813.609 82.3778 808.701 83.8463 804.396 70.6295L803.622 67.9862L804.655 70.0421C808.357 61.5246 812.145 52.7135 817.397 40.6715C806.291 28.6295 807.238 -6.02783 802.416 -29.2306C806.463 -34.8111 810.251 -25.9999 814.298 -23.0628C816.45 -30.1118 818.603 -37.1607 820.755 -44.2097L821.702 -45.9719L821.013 -43.6223C820.411 -31.874 818.086 -25.1187 814.556 -22.1817C815.417 -5.73412 820.325 -2.20966 823.424 6.89525C823.252 9.83231 822.908 12.7694 822.822 15.7065C822.822 16.8813 823.51 18.0561 823.855 18.9372C826.007 32.7414 828.762 44.7834 833.24 51.5386C833.67 50.3638 834.101 49.189 834.531 48.0141C835.65 42.7274 836.856 40.3778 838.406 46.2519C837.114 46.8393 835.823 47.4267 834.531 48.0141C834.101 49.189 833.67 50.3638 833.24 51.5386C836.167 61.8183 838.319 79.147 843.916 62.1121C844.863 84.7275 844.433 111.455 855.97 98.8254C857.692 97.0631 860.103 102.056 862.169 103.525C864.235 104.993 866.302 107.637 868.454 103.525C871.123 91.189 869.315 77.0911 869.832 63.5806C870.09 55.0631 870.348 45.0771 874.051 45.9582C876.72 46.5456 879.389 50.3638 879.475 61.5246C879.561 73.2729 878.183 85.6086 881.886 100C884.383 75.3289 890.582 59.7624 890.582 31.8603C898.847 41.2589 898.933 65.9303 898.503 75.6226C897.125 107.93 901.344 102.937 907.285 94.7135C912.107 87.9582 915.55 77.9722 915.034 59.4687C914.862 52.126 913.226 43.9023 911.073 49.189C901.086 73.2729 902.98 45.9582 902.291 29.217C902.119 25.6925 901.947 22.4617 901.861 18.9372C894.112 16.2939 890.237 6.01414 891.873 -22.1817C893.595 -50.6712 899.45 -45.6782 905.305 -43.916C907.457 -51.5523 909.524 -51.846 911.59 -43.916C909.61 -43.3285 907.629 -43.0348 905.649 -42.4474C905.649 -35.9859 904.874 -27.4684 905.907 -23.0628C908.232 -12.7831 913.484 -4.26559 904.788 0.727425C902.808 1.90224 902.119 10.4197 902.377 17.7624C904.96 19.8184 907.629 21.2869 910.212 23.9302C922.18 36.5596 922.18 36.8533 921.577 79.4408C921.491 86.7834 921.836 93.8324 923.988 96.7694C926.571 100.294 927.432 92.9513 928.552 86.7834C933.545 60.6435 935.181 33.6226 931.737 3.9582C929.757 -13.0768 927.777 -30.4055 927.863 -52.7271C936.559 -43.3285 931.823 -4.85299 940.778 -2.50333C941.208 -16.0138 941.725 -29.818 942.155 -43.3285C953.233 -48.2236 959.92 -33.6362 962.216 0.433729C954.984 -10.4334 947.838 -28.3495 941.294 -1.32851C946.632 33.0351 952.487 40.9652 965.574 30.6855C967.296 44.7834 965.574 56.8254 963.25 68.2799C959.375 47.7205 953.348 60.9373 948.268 58.5876C948.182 53.8883 948.096 49.189 947.924 44.4897C947.063 45.6645 945.513 47.1331 945.599 47.7205C945.944 52.4198 946.46 56.8254 946.977 61.231C949.273 79.6366 954.955 83.2589 964.024 72.0981C966.521 75.3289 968.932 79.4407 970.826 68.8673C972.72 58.5876 974.615 48.6016 976.595 38.3219L977.542 36.2659L976.853 39.203C977.714 47.4268 978.403 55.6505 979.436 63.5806C980.814 74.4478 981.933 89.7205 986.669 86.4897C991.748 82.9652 990.457 67.3988 989.596 56.5316C988.304 41.2589 990.801 34.21 994.159 27.4547C998.895 18.0561 1000.01 3.95819 999.411 -12.7831C998.292 -16.0138 997.259 -18.9509 996.139 -22.1817C988.649 -18.6572 983.225 -27.4684 979.608 -48.909C986.496 -65.3565 993.126 -65.9439 1000.01 -56.2516C1001.82 -56.2516 1003.72 -55.6642 1005.52 -55.6642C1005.78 -66.825 1005.95 -78.2796 1006.21 -89.4404C1007.07 -77.6922 1013.88 -65.3565 1006.04 -53.902C1005.78 -50.6712 1005.78 -47.1467 1006.04 -43.9159L1006.64 -41.2726L1005.78 -43.0348C1003.72 -46.853 1001.65 -50.9649 999.583 -54.7831C996.57 -55.3705 992.782 -58.3076 991.232 -48.6152C988.993 -34.2236 994.331 -31.2866 996.226 -23.0628C997.259 -19.832 998.292 -16.6013 999.325 -13.3705C1003.97 -2.79706 1004.92 13.3568 1006.3 29.8044C1007.5 43.9023 1010.6 53.8883 1015.43 39.4967C1018.53 40.0841 1021.54 40.9652 1024.64 41.5526C1026.1 46.5456 1027.48 45.9582 1028.77 40.9652C1032.22 41.8463 1033.94 48.0142 1034.28 58.5876C1034.02 59.7624 1033.51 61.231 1033.59 62.1121C1033.76 65.3429 1034.54 65.3429 1035.4 62.1121C1039.36 67.3988 1044.53 69.4547 1047.02 78.8534C1054.08 105.581 1061.83 72.3918 1069.24 83.5527C1071.13 86.4897 1074.15 65.9303 1073.2 54.182C1071.91 37.4407 1070.44 21.5806 1073.46 0.72744C1079.05 11.8883 1086.2 14.8253 1080.86 44.196C1079.31 53.0072 1080 67.1051 1084.05 68.8673C1088.44 70.6296 1094.29 88.8394 1097.31 61.8184C1097.65 59.4687 1097.91 57.1191 1098.25 54.7694C1097.48 55.6505 1096.79 56.8254 1096.01 57.7065C1089.3 45.3708 1094.55 27.4547 1093.69 11.3009C1098.86 13.9442 1104.19 13.0631 1102.99 37.147C1102.39 48.0142 1103.94 57.4128 1105.4 66.5177C1107.72 82.0841 1111.94 85.3149 1116.25 79.1471C1120.38 72.9792 1118.31 61.8184 1116.42 53.3009C1114.35 43.9023 1114.1 34.7974 1115.9 24.5177C1118.57 8.95123 1120.81 -6.32151 1114.87 -21.0068C1113.32 -24.825 1113.58 -34.5173 1116.08 -37.7481C1118.4 -40.3915 1119.95 -34.2236 1121.41 -29.2306C1124.17 -19.832 1122.53 -9.846 1122.19 0.140026C1121.33 25.6925 1123.91 48.0142 1129.16 66.8114C1132.95 80.6156 1137.51 77.3848 1138.55 59.4687C1139.49 42.7275 1138.89 25.1051 1138.98 8.0701C1140.1 4.83932 1141.3 1.60856 1142.42 -1.62221C1148.45 10.7135 1153.53 29.5107 1161.62 28.3358L1162.48 25.6925L1161.71 28.6296C1160.68 39.4967 1159.13 47.4268 1154.91 45.0771C1151.29 43.0212 1149.31 27.7484 1143.89 32.7415C1144.4 62.9932 1152.15 72.0981 1158.78 76.5037C1169.46 83.5527 1166.53 41.5526 1172.64 30.0981C1174.71 58.2939 1182.54 71.217 1191.5 68.2799C1200.71 65.0492 1210.1 68.2799 1219.39 68.5736C1219.14 70.6296 1218.79 72.6855 1218.53 75.0352C1219.22 74.1541 1219.83 73.2729 1220.51 72.3918C1224.22 77.9722 1230.67 87.6646 1228.44 63.8743C1225.85 35.9722 1232.31 6.30787 1225.25 -20.1257C1223.18 -27.7621 1226.37 -38.9229 1230.59 -33.3425C1232.57 -30.6991 1234.29 -26.881 1236.18 -23.6502C1237.22 -26.881 1238.25 -30.4054 1239.28 -33.6362C1240.32 -34.811 1240.75 -43.0348 1242.47 -36.867C1241.44 -35.6921 1240.49 -34.2236 1239.46 -33.0488C1238.42 -29.5243 1237.48 -26.2935 1236.44 -22.7691C1233.34 7.189 1242.04 33.3289 1238.85 64.1681C1238.08 72.0981 1241.61 80.3219 1245.83 75.9163C1258.4 62.6995 1270.54 71.217 1281.82 87.9583C1286.55 75.6226 1281.64 64.168 1282.68 53.3009C1283.71 42.4338 1286.21 49.7764 1288.02 48.8953C1288.02 42.1401 1288.02 35.3848 1288.02 28.6296L1287.41 25.9862L1288.36 27.7485C1289.82 35.0911 1296.11 42.1401 1288.36 49.7764C1288.53 67.6925 1293.1 75.3289 1296.45 85.9023C1301.62 83.5527 1297.57 68.2799 1299.98 61.5247C1303.43 51.8324 1305.84 64.168 1308.68 65.0492C1321.68 69.4548 1335.2 65.6366 1347.34 86.196C1347.77 86.7834 1348.97 82.6716 1349.84 80.6156C1357.41 69.1611 1365.51 71.8044 1373.25 75.0352C1378.33 77.3848 1383.24 82.3779 1386 66.5177C1389.01 49.4827 1382.47 43.6086 1379.97 32.4478C1383.84 29.5107 1386.17 34.7974 1388.84 41.8464C1392.54 51.5387 1394.61 45.6645 1394.35 31.2729C1394.18 23.9303 1393.92 16.2939 1396.85 16.5876C1399.08 16.5876 1400.29 23.6366 1400.72 30.6855C1400.98 35.6785 1400.98 40.9652 1400.89 45.9583C1400.72 57.4128 1398.65 71.217 1403.3 77.3848C1407.95 83.5527 1409.59 68.8674 1412.09 60.6436C1416.48 46.252 1419.4 50.0702 1420.78 68.8674C1420.44 70.0422 1419.75 71.217 1419.75 72.0981C1419.92 75.6226 1420.61 75.0352 1421.38 70.9233C1430.68 87.3709 1440.84 62.4058 1450.4 76.5037C1452.12 79.1471 1453.58 68.8674 1454.45 62.4058C1456.34 48.0142 1461.51 48.3079 1464.78 39.203C1466.76 33.6226 1469.69 43.9023 1471.41 49.7764C1474.42 60.3499 1469.77 57.4128 1468.91 61.231C1466.67 71.217 1468.05 80.3219 1470.98 79.1471C1485.36 72.3918 1499.91 86.7835 1514.11 73.5667C1516.35 71.5107 1517.73 66.5177 1518.42 59.4688C1516.18 55.9443 1514.03 52.7135 1511.79 49.189C1511.53 48.0142 1511.01 46.5457 1511.1 45.6646C1511.19 43.3149 1511.62 40.9653 1511.87 38.3219C1513.08 33.9163 1511.87 19.8184 1515.75 26.5736C1516.44 27.7485 1513.68 35.3848 1512.05 38.6156C1512.05 41.8464 1512.05 45.0771 1512.05 48.3079C1514.54 49.7765 1516.87 52.4198 1518.42 59.1751C1530.47 72.0981 1542.7 87.9583 1553.12 47.7205C1554.23 43.3149 1555.96 39.4967 1556.99 42.7275C1561.64 56.5317 1565.34 54.7695 1568.7 38.6156C1594.96 64.1681 1618.46 17.7625 1643.43 8.36386C1656.78 3.37085 1669.44 -14.2515 1680.11 -42.1536C1688.55 -64.1816 1687.86 -80.0418 1678.65 -97.0767C1673.31 -107.063 1667.37 -107.356 1661.6 -111.175C1638.87 -126.154 1616.31 -134.965 1592.98 -121.161C1578.17 -112.349 1562.93 -122.042 1547.78 -121.161C1509.55 -118.811 1471.24 -117.636 1433.01 -127.329C1411.05 -132.909 1388.92 -129.678 1366.8 -129.972C1317.29 -130.853 1267.87 -143.482 1218.28 -143.776C1204.41 -143.776 1190.29 -141.426 1176.86 -144.951C1145.52 -153.468 1114.27 -152.881 1083.1 -148.182C1041.77 -142.014 1000.36 -145.245 959.031 -131.44C938.711 -124.685 918.047 -126.741 897.642 -127.329C869.66 -128.21 841.763 -134.965 813.867 -121.454C813.351 -121.454 812.748 -120.573 812.231 -120.867C790.018 -138.783 767.632 -115.874 745.418 -124.979C740.855 -126.741 736.464 -130.559 734.053 -115.58C730.781 -95.902 736.981 -89.7342 740.597 -79.1607C734.828 -73.874 730.954 -77.3985 730.093 -96.7831C729.06 -119.986 724.324 -122.923 718.297 -122.042C678.95 -115.874 639.602 -120.867 600.255 -117.343C584.929 -115.874 569.259 -112.643 553.761 -118.811C551.609 -119.692 549.198 -121.161 547.304 -119.105C527.932 -97.0768 507.957 -117.049 488.326 -110.587C470.331 -104.42 452.078 -114.112 433.997 -105.888C426.076 -102.364 425.99 -93.2587 430.553 -76.5174C430.467 -70.937 433.136 -60.951 429.52 -61.5384C426.765 -62.1258 422.029 -67.7062 422.89 -79.4545C425.301 -111.175 419.016 -109.413 412.903 -109.413C399.988 -109.413 386.987 -110.294 374.072 -109.413C361.76 -108.531 361.243 -105.301 365.032 -64.7692C363.138 -61.8321 361.071 -65.944 360.985 -69.4685C359.608 -111.762 350.739 -111.175 340.579 -110.294C324.135 -108.825 307.69 -106.769 291.072 -110.294C277.297 -113.524 263.004 -109.413 249.228 -111.762C231.406 -114.993 213.755 -110.881 196.105 -113.818C187.581 -115.287 180.09 -99.1328 171.395 -108.238C149.095 -131.734 126.02 -111.762 103.29 -115.287C88.6531 -117.636 73.4134 -110.587 58.5183 -110.294C42.9343 -109.706 27.1782 -107.944 12.0248 -100.308C-0.0291798 -94.1398 -13.8911 -99.7203 -24.0509 -66.8251C-26.72 -58.3076 -29.7335 -83.2727 -33.9524 -73.2867L-32.833 -73.5804ZM1643.43 -30.1117C1644.38 -30.9928 1645.33 -32.755 1646.28 -32.755C1647.05 -32.755 1647.82 -30.6991 1648.6 -29.5243C1647.65 -28.6432 1646.71 -27.762 1645.76 -26.8809C1644.98 -28.0557 1644.21 -28.9369 1643.43 -30.1117ZM1620.62 -17.776C1621.39 -19.2445 1622 -21.3005 1622.6 -21.3005C1623.54 -21.3005 1624.58 -20.4194 1625.53 -19.832C1624.92 -18.6571 1624.41 -16.3075 1623.8 -16.3075C1622.86 -16.3075 1621.82 -17.1886 1620.53 -17.776L1620.62 -17.776ZM1581.1 -0.153635C1582.04 -1.62217 1582.91 -3.09071 1583.85 -4.55923C1588.85 -15.7201 1594.96 -8.96484 1600.3 -14.5452C1603.74 -24.825 1607.27 -41.2725 1610.54 -13.9578L1611.15 -10.7271L1610.29 -13.0767C1606.93 -2.20957 1603.66 -0.153633 1600.47 -13.6641C1595.73 0.433784 1589.45 -8.67112 1584.2 -2.79699C1583.16 -1.62217 1582.73 6.0142 1581.1 0.140067L1581.1 -0.153635ZM1561.3 11.0072L1562.33 11.8883L1561.38 13.3569L1561.38 11.0072L1561.3 11.0072ZM1539 11.8883L1539 38.0282C1539.25 41.259 1541.84 43.0212 1539.77 48.3079C1539.43 45.0772 1539.08 41.8464 1538.82 38.6156C1536.76 30.3918 1535.12 21.8743 1539.08 11.8883L1539 11.8883ZM1524.96 45.3709C1524.96 45.3709 1525.65 43.9023 1525.99 43.0212C1526.51 44.7834 1527.03 46.8394 1527.54 48.6016C1527.2 49.4827 1526.68 50.9513 1526.6 50.9513C1525.99 49.189 1525.48 47.4268 1524.88 45.3709L1524.96 45.3709ZM1486.04 25.1051L1486.99 27.4548C1490.78 37.4408 1494.91 42.7275 1499.82 37.4408L1500.77 35.6785L1500.08 38.3219C1492.5 61.5247 1489.49 59.1751 1486.82 28.0422L1486.04 25.1051ZM1428.44 23.3429C1428.44 23.3429 1429.13 20.9932 1429.56 20.6995C1431.03 19.8184 1431.63 21.2869 1431.2 24.224C1431.03 25.1051 1430.25 25.1051 1429.82 25.3988C1429.39 24.8114 1428.87 23.9303 1428.44 23.3429ZM1412.52 -84.1537C1417.94 -80.0418 1415.36 -69.4684 1415.44 -62.7131C1415.44 -56.5453 1417.6 -47.7341 1414.24 -41.86C1413.29 -56.2516 1410.71 -69.1747 1412.6 -84.1537L1412.52 -84.1537ZM1411.74 -10.1397L1412.77 -9.25854L1411.91 -7.49632L1411.74 -10.1397ZM1390.22 -81.5103L1389.27 -80.3355L1389.27 -82.6852L1390.22 -81.5103ZM1382.9 -42.4474C1382.9 -42.4474 1383.24 -45.6781 1383.67 -46.2656C1385.48 -49.2026 1386.51 -45.0907 1387.63 -41.86C1388.41 -39.5103 1389.01 -36.867 1389.79 -34.5173L1390.3 -31.8739L1389.44 -33.6362C1388.41 -34.5173 1387.46 -35.3984 1386.43 -36.2795C1385.05 -37.4544 1383.24 -36.2795 1382.9 -42.4474ZM1379.02 1.60859L1379.97 0.433765L1379.97 2.78341L1379.02 1.60859ZM1371.36 -45.3844C1372.05 -52.1397 1373.08 -57.1327 1374.55 -55.0768C1375.41 -53.9019 1375.75 -46.853 1375.75 -42.1537C1375.75 -37.4544 1375.23 -31.2865 1373.25 -34.811C1372.22 -36.5733 1371.79 -42.4474 1371.27 -45.0907L1371.36 -45.3844ZM1359.74 37.7345C1360.25 37.4408 1361.03 41.8464 1361.8 44.4897C1361.54 46.8394 1361.54 50.9513 1360.94 52.4198C1359.99 54.7695 1358.88 53.0072 1358.53 48.8953C1358.1 44.196 1357.76 38.6156 1359.82 37.7345L1359.74 37.7345ZM1347.17 37.7345C1347.42 34.7974 1347.68 32.1541 1348.03 29.5107C1348.11 28.9233 1348.63 28.6296 1348.89 28.0422C1349.58 33.3289 1348.2 35.3848 1347.34 38.3219C1348.8 51.8324 1350.7 64.7555 1350.52 79.7345C1348.29 72.6855 1345.62 66.8114 1343.81 58.8813C1340.88 45.9583 1343.98 41.5527 1347.25 38.0282L1347.17 37.7345ZM1339.93 -21.5942L1340.62 -24.5313C1341.4 -30.1117 1341.57 -38.6292 1344.15 -38.3355C1345.96 -38.3355 1346.48 -31.874 1346.05 -27.1747C1345.01 -17.4823 1342.6 -25.1187 1340.79 -23.9439L1339.85 -21.8879L1339.93 -21.5942ZM1326.67 23.6366C1327.97 20.9932 1329.43 18.6436 1330.72 16.2939C1331.5 11.8883 1332.01 6.60159 1333.05 3.66454C1333.99 0.727463 1335.11 3.66454 1334.51 7.18901C1333.73 11.3009 1332.27 14.238 1331.15 17.4687C1329.69 21.5806 1329.17 29.5107 1326.59 27.7485C1326.59 27.7485 1326.42 24.224 1326.67 23.6366ZM1325.64 -40.3914C1326.07 -43.3285 1326.24 -46.853 1326.93 -48.6152C1327.28 -49.4963 1329 -47.4404 1329.17 -45.6782C1329.69 -40.3914 1328.74 -36.5733 1327.19 -34.811C1326.93 -34.5173 1326.16 -38.3355 1325.64 -40.3914ZM1310.75 20.1121L1311.26 17.4687C1312.3 16.0002 1311.09 8.36383 1313.33 10.1261C1312.73 13.0631 1312.21 15.7065 1311.61 18.6436L1310.75 20.4058L1310.75 20.1121ZM1304.29 -94.1397C1306.18 -94.1397 1309.02 -95.902 1308.42 -85.0348C1308.16 -80.6292 1307.04 -74.4614 1305.92 -73.2866C1303.08 -70.3495 1302.65 -78.867 1301.88 -84.7411C1301.19 -91.7901 1302.65 -94.1397 1304.37 -94.1397L1304.29 -94.1397ZM1271.74 25.1051L1272.6 26.8673C1274.15 30.0981 1276.56 20.6995 1277.51 30.3918C1277.68 32.154 1276.74 36.5596 1275.96 37.7345C1272.69 42.7275 1273.38 31.5666 1272.26 28.0422L1271.66 25.3988L1271.74 25.1051ZM1263.39 -67.7061C1269.33 -72.9929 1271.83 -59.7761 1275.79 -59.4824C1280.01 -59.4824 1282.51 -48.6152 1283.97 -37.4544C1285.17 -28.3495 1286.38 -15.7201 1282.33 -11.0208C1279.41 -7.79003 1277.6 -16.6012 1277.25 -25.9998C1277 -33.9299 1278.37 -44.797 1273.38 -38.9229C1265.54 -29.5243 1264.94 -47.7341 1263.39 -67.7061ZM1260.46 8.36382C1260.72 5.42677 1260.89 2.48969 1261.15 -0.74108C1261.5 1.60857 1262.01 3.95823 1262.1 6.30787C1262.1 9.24494 1261.76 12.4757 1261.5 15.4128C1261.15 13.0631 1260.81 10.7135 1260.46 8.36382ZM1251.08 -97.6642L1251.77 -97.6642L1251.51 -94.7271L1251.08 -97.6642ZM1244.11 -2.79702C1244.28 -5.73409 1244.54 -8.96485 1244.71 -11.9019C1245.05 -8.96485 1245.66 -6.3215 1245.66 -3.38444C1245.66 -0.447365 1245.22 2.78339 1245.05 5.72047C1244.71 3.07711 1244.36 0.140037 1244.02 -2.79702L1244.11 -2.79702ZM1214.57 -103.245C1213.54 -100.895 1212.77 -102.07 1212.59 -106.182C1212.59 -107.063 1213.02 -109.412 1213.2 -109.412C1213.63 -109.412 1214.06 -107.944 1214.4 -107.357C1214.4 -106.182 1214.75 -103.832 1214.57 -103.538L1214.57 -103.245ZM1213.37 33.3289L1214.31 31.8603L1214.31 34.21L1213.37 33.3289ZM1210.27 -18.3635C1213.8 -39.5103 1207.34 -48.6152 1205.53 -70.6432C1218.28 -47.1467 1218.19 -46.853 1210.27 -18.3635ZM1190.38 -13.6642C1190.81 -10.7271 1191.33 -7.79004 1191.76 -4.85296C1194.43 4.83934 1196.06 19.231 1201.66 13.3568C1205.1 9.53865 1207 15.7065 1206.05 25.9862C1204.84 38.6156 1200.97 42.14 1197.35 44.196C1194.25 46.2519 1192.79 39.203 1191.93 30.0981C1190.9 18.6435 1189.6 7.7764 1191.41 -3.97186C1190.81 -6.90892 1188.57 -8.08374 1190.38 -13.6642ZM1171.95 -24.825C1171.44 -36.867 1176.35 -43.0348 1175.05 -55.6642L1174.36 -58.3075L1175.31 -56.5453C1177.67 -42.4474 1176.55 -31.874 1171.95 -24.825ZM1147.93 -96.1957L1147.24 -95.6083L1147.42 -98.839L1147.93 -96.1957ZM1132.18 -11.0208L1132.95 -13.9579C1134.21 -49.9859 1140.21 -65.846 1150.95 -61.5383C1141.82 -48.3215 1141.99 -26.2935 1142.42 -4.26555C1141.47 -0.741075 1140.44 3.0771 1139.49 6.60158C1138.46 6.60158 1137.34 6.60158 1136.31 7.18899L1135.53 9.83235L1136.14 6.60158C1136.74 -2.50333 1135.45 -8.96486 1133.21 -13.6642L1132.35 -11.0208L1132.18 -11.0208ZM1104.97 -14.5453L1105.74 -15.1327L1105.49 -11.9019L1104.97 -14.839L1104.97 -14.5453ZM1103.68 -118.811L1104.8 -120.573L1103.85 -117.93C1104.45 -108.825 1107.72 -102.951 1106.26 -87.0908C1104.37 -99.4265 1096.62 -100.308 1103.59 -118.517L1103.68 -118.811ZM1074.75 -60.3635C1078.79 -63.0069 1083.01 -64.1817 1086.89 -67.9999C1094.38 -75.6362 1092.74 -55.6642 1094.21 -44.7971C1094.55 -41.5663 1097.05 -40.0978 1095.07 -34.5173C1094.64 -37.7481 1094.29 -40.6852 1093.86 -43.9159C1090.16 -43.9159 1088.18 -38.0418 1086.72 -27.4684C1085.34 -16.8949 1083.79 -17.4824 1084.13 -29.818C1084.74 -52.1397 1075.35 -40.9789 1074.75 -60.3635ZM1065.88 -13.0768L1066.31 -16.3075L1066.74 -13.0768L1065.88 -13.0768ZM1062.61 34.21C1062.61 34.21 1062.61 30.9792 1062.69 29.8044C1062.69 29.217 1063.3 29.5107 1063.56 29.217C1063.56 32.154 1063.38 35.0911 1063.3 38.0281C1063.04 36.8533 1062.61 35.6785 1062.52 34.5037L1062.61 34.21ZM1060.71 -104.713L1061.23 -107.65C1062.35 -108.238 1062.87 -116.168 1064.5 -110.587C1063.56 -109.412 1062.52 -107.944 1061.57 -106.769L1060.71 -104.713ZM1056.24 47.7205L1057.18 47.1331L1056.84 50.6575L1056.24 47.4268L1056.24 47.7205ZM1034.02 -69.1747C1041.86 -59.1887 1048.75 -50.9649 1055.63 -41.86C1057.61 -39.2166 1059.68 -34.2236 1058.65 -26.5873C1057.87 -21.0068 1056.06 -15.7201 1054.34 -12.7831C1051.85 -8.96488 1050.47 -15.1327 1049.69 -21.888C1048.49 -32.1677 1047.63 -41.2726 1043.32 -30.6991C1040.57 -23.9439 1037.12 -20.4194 1033.68 -15.1327C1032.65 -32.1677 1032.65 -47.1467 1033.94 -69.1747L1034.02 -69.1747ZM1030.15 -100.601C1030.15 -103.538 1030.67 -106.475 1030.92 -109.412C1031.7 -107.65 1032.9 -106.475 1033.08 -104.419C1033.25 -102.364 1032.65 -98.2516 1032.04 -96.7831C1031.1 -94.4334 1030.15 -96.7831 1030.15 -100.601ZM1027.14 35.3848L1027.82 33.6226L1028.34 36.2659L1027.05 35.3848L1027.14 35.3848ZM1014.31 -13.0768C1014.31 -13.0768 1014.91 -15.7201 1015.17 -15.4264C1015.6 -15.4264 1016.2 -14.2516 1016.37 -13.0768C1016.89 -9.25859 1016.37 -7.49634 1015.08 -9.25857C1014.74 -9.84599 1014.65 -11.9019 1014.39 -13.0768L1014.31 -13.0768ZM976.25 -0.741105L976.767 -3.67816L977.714 -5.44042L977.111 -2.50333L976.25 -0.741105ZM966.866 -85.0349L967.382 -87.6782L968.329 -89.4404L967.727 -86.5034L966.866 -84.7411L966.866 -85.0349ZM925.194 -84.7411C925.108 -86.5034 926.399 -89.1467 927.088 -91.4964C927.949 -90.6153 928.81 -89.7342 929.671 -88.853C929.326 -86.2097 929.154 -82.0978 928.552 -81.2167C927.346 -79.4544 925.538 -78.2796 925.28 -84.7411L925.194 -84.7411ZM918.306 -33.0488C916.498 -36.867 914.603 -40.3915 912.795 -44.2097C914.776 -40.9789 916.842 -37.7481 918.822 -34.2236C919.425 -31.5803 919.942 -28.9369 920.544 -26.5873C918.306 -23.6502 919.425 -32.1677 918.306 -33.0488ZM902.377 -88.2656C903.324 -93.846 903.583 -103.245 906.424 -100.601C907.629 -99.4265 908.749 -93.2586 909.007 -88.853C909.696 -77.9859 907.027 -78.867 904.96 -79.1607C903.324 -79.1607 901.689 -80.923 902.291 -88.2656L902.377 -88.2656ZM875.342 -3.97189C875.342 -3.97189 875.859 -7.49636 876.203 -7.49636C878.958 -7.79006 878.958 1.02112 880.25 5.72043C880.508 9.24491 883.263 5.72043 882.316 12.7694C881.541 10.7134 880.766 8.95119 879.905 6.89525C878.183 4.2519 875.601 4.5456 875.342 -3.97189ZM876.548 -87.6782L877.409 -89.4405L876.892 -86.7971C876.978 -80.6293 877.064 -74.1677 877.236 -67.9999C878.27 -63.888 881.541 -63.5943 879.561 -54.4894C879.044 -52.1397 877.667 -49.7901 877.15 -50.6712C874.395 -55.0768 877.15 -61.5383 876.72 -67.1188C873.706 -73.874 874.826 -80.923 876.634 -87.9719L876.548 -87.6782ZM853.645 -77.9859C853.387 -72.6992 851.665 -70.3495 850.115 -70.9369C848.307 -72.6992 846.929 -75.6363 847.532 -81.5104C847.704 -83.5663 849.426 -84.4474 850.373 -84.4474C851.837 -84.4474 853.903 -85.0349 853.645 -77.9859ZM864.235 6.89525C863.719 6.89525 863.116 2.48966 862.427 -0.741115C863.288 -4.26559 864.149 -8.08377 865.01 -11.902C865.355 -9.2586 865.871 -6.61525 865.957 -3.97189C865.957 0.43372 866.302 6.30784 864.235 6.89525ZM855.625 65.9303C856.917 56.5317 858.811 47.7205 862.169 46.5456C864.666 45.9582 865.785 53.5946 865.269 60.6435C864.494 72.0981 861.825 77.0911 858.294 76.21C856.572 75.6226 855.625 71.8044 855.625 65.6365L855.625 65.9303ZM832.12 11.5946C832.12 9.53862 833.326 7.77637 834.015 5.72043C834.617 8.07007 835.736 10.4197 835.909 13.0631C836.253 19.2309 835.22 23.0491 833.24 20.112C832.551 18.9372 832.12 14.2379 832.206 11.5946L832.12 11.5946ZM830.484 -37.7481C830.226 -39.5104 830.829 -45.0908 831.518 -45.9719C835.134 -51.846 835.909 -40.6852 837.631 -34.8111C839.18 -35.1048 840.816 -35.1048 842.366 -35.9859C846.068 -37.7481 849.512 -54.1957 853.559 -39.8041C857.692 -25.1187 854.42 -11.3145 852.354 2.19596C851.234 9.53861 850.373 17.7624 847.274 20.6995C840.644 8.9512 842.366 -18.9509 837.458 -33.9299C834.962 -32.1677 832.206 -26.2936 830.484 -37.4544L830.484 -37.7481ZM825.318 10.7134L825.835 14.2379L824.716 16.8813C824.802 14.8253 824.974 12.7694 825.318 10.7134ZM804.138 -92.0838C810.251 -85.916 813.523 -93.8461 815.934 -83.5663C812.748 -76.2237 809.993 -76.2237 804.138 -92.0838ZM798.369 -82.6852L799.317 -81.5104L798.369 -80.3356L798.369 -82.6852ZM792.945 -63.0069L792.084 -64.7691C791.051 -68.2936 789.846 -71.2307 788.985 -75.0488C787.865 -79.7481 785.885 -86.2097 788.985 -89.7342C790.62 -91.4964 791.051 -84.4475 791.395 -79.7481C791.74 -75.0488 792.084 -70.3495 792.429 -65.6502L793.031 -62.7132L792.945 -63.0069ZM796.389 -1.91594C783.876 -11.7061 777.189 -34.4195 776.328 -70.0558C776.242 -75.0488 775.725 -80.3356 775.467 -85.3286C775.123 -88.853 772.54 -85.3286 773.401 -92.3775C774.176 -90.3216 774.95 -88.5593 775.725 -86.5034C784.507 -64.1817 790.707 -35.1048 796.389 -1.91594ZM759.625 0.139995C762.036 -16.0139 766.599 -8.37749 769.526 -6.02784C783.646 6.01413 791.137 39.4967 796.131 84.4338C789.932 82.0841 784.852 80.0281 779.686 77.9722C780.202 70.0421 780.805 62.1121 781.236 54.182C781.58 48.3079 782.785 40.0841 780.461 38.0281C779.255 37.147 777.361 44.7834 775.811 48.6016C774.262 54.4757 772.281 57.1191 769.871 56.8253C769.698 54.182 769.44 51.5386 769.182 48.8953C767.374 40.6715 765.566 32.154 763.671 23.9302C761.949 16.5876 757.386 14.5316 759.625 0.139995ZM748.432 59.7624C748.432 55.6505 749.121 53.5946 750.412 54.4757C750.757 54.4757 751.187 56.8253 751.273 58.2939C751.359 62.4058 750.67 64.4617 749.379 63.2869C749.035 63.2869 748.776 60.9372 748.518 59.4687L748.432 59.7624ZM749.637 6.01412C750.67 4.5456 749.379 -3.9719 751.704 -1.03483C751.101 1.60853 750.498 4.25189 749.982 7.18896C751.101 14.2379 752.22 20.9932 753.339 28.0421L753.942 30.6855L752.995 28.9232C749.982 24.2239 745.935 20.9932 749.637 6.01412ZM748.518 -71.2307C749.465 -97.0768 750.843 -96.7831 759.625 -76.5174L760.4 -73.5803L759.539 -76.5174C753.77 -76.5174 751.876 -65.3565 752.737 -49.4964C754.545 -17.1887 748.432 -27.1747 743.61 -29.5244C741.802 -48.0279 747.915 -54.7831 748.518 -71.5244L748.518 -71.2307ZM723.033 -39.5104C722.172 -41.5663 721.397 -43.3286 720.536 -45.3845C719.416 -48.3216 718.383 -51.5523 717.264 -54.4894C714.164 -70.0558 706.846 -62.4195 704.091 -80.0419C707.276 -64.1817 718.211 -93.2587 717.608 -55.6642C718.642 -52.4335 719.761 -49.4964 720.794 -46.2656C721.224 -43.0349 723.721 -46.2656 723.033 -39.5104ZM697.719 -34.2237L697.117 -37.4544L697.892 -34.8111C701.249 -31.874 705.038 -40.3915 708.31 -28.3495C712.27 -13.9579 717.264 -7.49638 723.894 -10.1397C729.662 -12.1957 735.259 -3.38448 740.252 7.18896L741.113 9.83231L740.08 8.07006C737.067 6.60154 734.742 8.65749 735.517 20.6995C736.206 30.9792 736.292 40.6715 733.709 48.6016C730.093 12.182 729.059 9.83231 720.88 17.175L721.569 20.112L720.708 17.4687C712.959 11.0071 706.157 -12.1957 697.633 6.89524C694.103 -8.6712 699.7 -21.3006 697.719 -34.5174L697.719 -34.2237ZM688.421 -77.9859C688.076 -84.1538 690.143 -83.5663 691.52 -84.1538C693.414 -83.2726 695.911 -83.86 695.567 -74.4614C695.567 -72.6992 694.017 -70.3496 693.156 -70.0558C691.09 -69.4684 688.765 -70.937 688.421 -78.2796L688.421 -77.9859ZM685.063 -29.5244C685.493 -30.1118 686.01 -30.9929 686.44 -31.5803C686.957 -31.2866 687.732 -30.9929 687.818 -30.1118C688.162 -26.5873 687.474 -24.8251 686.01 -26.5873C685.579 -26.881 685.321 -28.3495 684.977 -29.5244L685.063 -29.5244ZM657.425 -78.5733C657.683 -81.8041 657.942 -84.4475 658.114 -87.0908C659.061 -83.8601 660.352 -81.2167 660.869 -77.6922C661.299 -74.4614 661.816 -67.7062 659.836 -67.9999C658.975 -67.9999 658.114 -75.0489 657.339 -78.5733L657.425 -78.5733ZM675.764 91.4827C676.539 90.8953 677.314 90.8953 678.089 91.189L676.969 94.4198L675.764 91.4827ZM630.39 -32.7551L629.529 -34.5174L629.012 -37.4544L629.873 -35.6922L630.476 -33.0488L630.39 -32.7551ZM640.808 -85.916L641.066 -89.1468L641.497 -86.2097L640.808 -86.2097L640.808 -85.916ZM600.341 31.8603L601.374 32.7414L600.427 34.2099L600.427 31.8603L600.341 31.8603ZM587.943 -18.0698C592.592 -33.3425 597.93 -22.7691 603.096 -23.3565C610.156 -24.2376 612.395 -40.0978 608.004 -58.0139C606.11 -65.6503 603.01 -70.3496 600.427 -76.2237C599.652 -74.1677 599.05 -71.5244 598.189 -70.3496C596.983 -68.881 595.52 -66.5314 594.573 -72.1118C595.52 -72.9929 596.467 -73.5803 597.414 -74.4614C598.361 -75.3426 599.308 -76.2237 600.169 -77.3985C608.004 -95.3146 613.256 -64.4754 622.727 -71.8181C615.753 -51.5523 615.581 -33.3425 616.958 -14.2516C620.058 -10.7271 622.641 -5.73415 622.899 6.30781C622.555 7.18893 622.038 8.36377 622.038 9.24489C622.21 12.1819 622.813 11.8882 623.502 8.36377C625.913 13.3568 625.999 26.2799 629.701 26.8673C630.648 23.6365 631.681 20.4057 632.628 17.175C634.006 8.65749 634.178 -2.79709 637.794 -5.44045C638.311 -5.73415 639.172 -1.91595 639.861 -0.153717C637.622 6.01411 635.297 12.182 633.059 18.3498C632.112 21.5806 631.078 24.8113 630.131 28.0421C623.502 34.5036 616.872 53.8883 610.329 28.0421C619.886 25.9862 613.342 -1.32854 616.614 -13.0768C610.472 -10.1397 608.348 3.56657 610.243 28.0421C603.527 9.24489 592.85 10.126 587.943 -17.7761L587.943 -18.0698ZM592.506 86.4897C593.625 82.0841 594.659 82.0841 595.692 86.4897C594.659 86.4897 593.539 86.4897 592.506 86.4897ZM587.684 110.28C588.373 105.287 588.976 100.294 589.665 95.5946C589.923 101.762 589.406 106.755 587.684 110.28ZM583.638 66.2239C583.638 66.2239 584.327 63.8743 584.671 63.8743C585.102 63.8743 585.79 65.0491 585.876 65.9302C586.221 70.3358 585.618 71.8044 584.499 69.7484C584.154 69.161 583.982 67.1051 583.724 65.9302L583.638 66.2239ZM577.008 24.8113L577.783 27.161C579.419 30.3917 582.518 23.0491 583.121 34.5036C580.883 35.3848 579.161 32.154 577.525 28.0421L576.922 24.8113L577.008 24.8113ZM559.616 -13.9579C561.08 -33.0489 566.762 -32.1677 571.412 -34.5174C572.359 -38.6293 573.392 -38.3356 574.511 -34.5174L575.2 -31.5803L574.167 -33.0488L572.961 -33.93L571.756 -33.0488C565.987 -13.9579 566.16 8.95118 568.398 35.9722C565.04 22.7554 560.305 38.9092 557.722 25.6925C554.881 11.3008 558.755 -0.741142 559.702 -13.3705L559.616 -13.9579ZM538.866 -74.1677C546.873 -84.7412 554.278 -77.6922 561.682 -75.6363C562.285 -72.9929 562.802 -70.3496 563.404 -67.9999C561.166 -65.0629 562.285 -73.5803 561.166 -74.4614C553.934 -72.6992 546.959 -40.9789 538.78 -74.1677L538.866 -74.1677ZM537.919 -27.4684C539.038 -30.6992 540.416 -33.3426 541.88 -35.1048C543.085 -36.5733 543.774 -34.2237 543.602 -30.1118C542.568 -24.2376 541.277 -18.3635 538.866 -19.8321C538.436 -19.8321 537.747 -26.881 538.005 -27.4684L537.919 -27.4684ZM528.362 -70.937L529.309 -72.1118L529.309 -69.7622L528.362 -70.937ZM483.418 31.8603L484.451 33.0351L483.504 34.5036L483.504 31.8603L483.418 31.8603ZM478.338 -27.4684C478.166 -32.1677 478.855 -34.5174 479.716 -32.1677C480.921 -28.937 482.127 -25.4125 483.074 -21.3006C483.677 -18.6572 482.816 -16.6013 481.352 -17.1887C479.544 -18.3635 478.51 -21.888 478.338 -27.4684ZM467.232 -70.0559C468.609 -69.4685 470.073 -66.8251 471.192 -63.888C471.709 -62.4195 471.709 -55.958 471.623 -55.958C469.384 -53.902 467.662 -57.4265 466.198 -62.4195C465.682 -66.2377 466.026 -70.6433 467.232 -70.0559ZM447.515 -70.0559C447.343 -85.3286 450.184 -84.7412 452.767 -83.5664C455.264 -82.6852 458.794 -80.6293 457.416 -69.7622C456.297 -61.2447 453.025 -54.4894 449.839 -55.3705C448.892 -55.3705 448.117 -66.2377 447.515 -69.7622L447.515 -70.0559ZM437.958 77.0911C437.958 77.0911 439.852 74.4477 440.541 75.3288C441.918 77.091 443.124 80.6156 444.415 83.5526C443.726 85.0211 443.038 86.7834 442.349 88.2519C440.282 86.7834 438.216 85.3148 437.958 76.7973L437.958 77.0911ZM423.493 -31.874C429.52 -24.5314 433.911 -19.2447 438.216 -13.9579L439.077 -16.6013L438.474 -13.0768C433.308 8.07005 443.727 19.5246 441.574 38.6155C442.607 41.8463 443.64 45.0771 444.674 48.3078L445.362 50.9512L444.329 49.1889C443.296 45.9582 442.263 42.7274 441.23 39.4966C439.594 33.0351 438.302 22.168 436.322 20.6994C428.056 13.9442 425.99 -5.14675 423.407 -31.5803L423.493 -31.874ZM422.632 21.8742C423.493 23.6365 424.44 25.3987 425.301 26.8673C426.507 29.2169 427.712 31.5666 428.917 33.6225C428.315 35.6784 427.626 37.4407 427.023 39.4966C426.334 35.6784 425.732 31.5666 425.043 27.7484C424.354 25.105 421.857 30.098 422.632 21.5805L422.632 21.8742ZM384.49 -72.9929C384.49 -72.9929 383.629 -70.937 383.199 -70.937C382.94 -70.937 382.596 -72.6992 382.338 -73.5803C382.596 -75.0489 382.768 -77.1048 383.113 -77.3985C384.404 -78.8671 384.921 -76.8111 384.404 -72.6992L384.49 -72.9929ZM396.888 -68.5873L396.286 -65.6503L395.339 -63.888L396.027 -66.5314L396.888 -68.5873ZM404.465 -65.0629L403.69 -65.0629L403.949 -67.9999L404.465 -65.0629ZM390.689 92.9512C394.65 90.6016 398.524 88.2519 404.551 84.7274C400.332 96.4757 398.008 102.644 395.769 109.105C393.358 106.168 391.723 100.588 390.689 92.9512ZM383.026 6.89521C383.026 -3.38451 383.026 -13.6642 383.026 -24.2377C382.51 -28.3496 381.563 -32.1677 381.563 -36.2796C381.563 -39.8041 383.285 -40.6852 383.543 -37.7482C383.887 -33.6363 383.285 -28.937 383.113 -24.2377C391.12 -30.6992 399.213 -38.3356 401.796 -0.741155C403.088 17.7624 409.114 17.4687 412.558 27.4547L413.161 30.6854L412.386 28.0421C409.115 31.2729 408.684 62.112 402.657 38.3218L401.796 40.9652L402.571 38.0281C399.816 19.2309 397.922 -6.02787 390.775 29.2169C388.967 38.0281 384.318 45.6645 381.218 34.5036C379.238 27.161 380.53 15.119 383.113 6.89521L383.026 6.89521ZM342.732 -77.1048L342.474 -73.8741L342.043 -76.8111L342.732 -76.8111L342.732 -77.1048ZM343.162 32.154C343.162 36.5596 343.249 40.9652 343.335 45.077C341.441 40.9652 341.268 36.5596 343.162 32.154ZM334.983 -19.8321C335.758 -17.7761 336.619 -15.7202 337.394 -13.6642C338.341 -12.4894 339.288 -11.6083 340.235 -11.6083C341.785 -6.90899 343.249 -0.447459 345.401 -8.96495C344.109 -11.6083 342.732 -13.9579 341.441 -16.6013C345.573 -36.867 352.117 -18.3635 357.111 -28.3496C353.064 -7.20269 346.865 10.7134 353.064 36.8533C349.878 36.8533 347.295 31.8603 344.884 25.6924C343.335 10.7134 336.533 6.89521 336.963 -12.4894C336.619 -16.0139 333.95 -12.4894 334.897 -19.8321L334.983 -19.8321ZM327.062 -81.5104L328.009 -82.6853L328.009 -80.3356L327.062 -81.5104ZM312.253 -60.6573C314.147 -59.7762 316.3 -57.1328 317.763 -53.3146C319.227 -49.2027 318.108 -42.7412 316.644 -43.3286C314.836 -43.916 313.2 -48.909 312.769 -49.7901C310.875 -57.1328 311.134 -61.5384 312.339 -60.951L312.253 -60.6573ZM263.348 -64.1817C263.348 -64.1817 262.66 -66.2377 262.401 -67.4125C262.573 -68.5873 262.746 -70.937 262.918 -70.937C263.349 -70.937 264.037 -70.3496 264.209 -69.4685C265.07 -65.6503 264.726 -63.5943 263.348 -64.1817ZM295.636 100C299.51 90.6015 302.782 87.6645 303.987 107.93L302.438 107.93C300.629 101.175 298.133 100.294 295.55 100L295.636 100ZM274.369 -76.5174C285.304 -85.6223 292.106 -71.5244 299.166 -72.4055C292.02 -67.7062 284.873 -64.7692 274.369 -76.5174ZM251.467 -20.7132C253.619 -38.923 259.13 -18.951 262.918 -24.5314L263.779 -27.1747L263.004 -24.2377C262.746 -15.4265 263.262 -7.49642 264.64 0.139951C266.62 11.0071 268.945 20.4057 273.336 17.7623C279.966 13.6505 276.005 0.433669 275.402 -9.84606C274.714 -21.5943 277.641 -23.6503 279.793 -27.7622C282.721 -33.0489 285.132 -28.3496 286.681 -21.0069C288.403 -13.0768 291.417 1.90219 288.662 5.72038C278.157 20.112 284.529 48.6015 282.376 69.161C279.966 68.8673 277.813 66.5176 276.349 60.0561C276.608 58.8812 276.866 58.0001 277.038 56.8253C276.522 56.8253 276.005 56.8253 275.488 57.119C272.131 50.9512 273.508 19.5246 265.759 37.147C261.713 46.5456 257.838 50.9512 254.394 37.7344C249.917 20.6994 248.97 -1.62229 251.295 -21.0069L251.467 -20.7132ZM222.624 -77.3986L222.279 -74.1678L221.763 -77.3986L222.624 -77.3986ZM239.068 -6.02788C239.929 -8.96495 240.877 -8.67124 241.565 -5.44048C241.738 -4.55936 241.565 -1.91599 241.393 -1.03487C240.532 1.90219 239.671 1.31477 238.81 -1.62229C238.81 -3.09082 238.81 -5.14676 239.068 -6.32158L239.068 -6.02788ZM242.599 -37.4545L243.459 -35.6922L243.976 -33.0489L243.115 -34.8111L242.599 -37.4545ZM239.929 -65.6503L239.413 -68.5874L240.274 -66.5314C242.857 -62.4195 246.301 -67.7062 248.539 -58.6013C245.354 -57.1328 242.512 -59.1887 240.016 -65.6503L239.929 -65.6503ZM195.761 -26.5873C196.88 -30.1118 198.43 -37.1608 198.946 -36.5733C204.026 -29.8181 209.364 -27.1748 213.927 -12.4894C218.146 1.02107 220.385 -45.972 227.445 -24.8251C227.962 -21.888 230.459 -25.9999 229.684 -18.3635C228.823 -20.1258 228.048 -22.1817 227.187 -23.944C220.901 4.83926 229.598 13.063 233.989 26.8672C237.002 32.154 241.307 32.4477 241.651 54.1819C238.38 43.3148 236.055 35.6784 233.73 28.0421C230.028 36.8533 226.928 50.3637 221.16 39.4966C218.663 34.7973 216.08 41.5526 213.841 46.5456C209.364 34.2099 202.476 28.6295 204.112 0.727364C204.887 -13.6643 200.066 -21.5943 195.761 -25.9999L195.761 -26.5873ZM189.734 -21.0069C190.939 -21.0069 192.144 -21.0069 193.35 -21.3006C192.23 -16.3076 191.025 -16.0139 189.734 -21.0069ZM182.243 -2.20971C184.826 0.727362 191.025 -8.67124 187.753 14.2379C185.17 11.3008 183.448 5.42666 182.243 -2.20971ZM182.243 -25.4125C183.534 -30.4055 184.912 -33.3426 186.72 -27.4685C185.256 -26.8811 183.707 -26.2936 182.243 -25.4125ZM150.3 23.049C151.936 -19.2447 152.022 -18.951 163.129 -35.3985C169.931 -45.3845 169.586 -60.0699 165.195 -76.2237L164.679 -78.8671L165.54 -77.1048C174.752 -74.4615 183.879 -77.1048 192.403 -87.0909C197.052 -92.6713 200.668 -91.2028 204.543 -84.1538C206.867 -80.0419 209.967 -76.2237 208.675 -65.3566C207.47 -55.6643 203.423 -54.7831 201.787 -59.1887C194.469 -79.1608 187.237 -69.4685 179.402 -63.8881C175.355 -60.951 171.653 -62.7132 171.653 -46.5594C171.653 -29.2307 168.811 -5.73419 178.455 -3.38453C179.402 -9.55236 180.435 -16.0139 181.382 -22.1817C181.382 -16.3076 181.382 -10.4335 181.382 -4.55935C180.435 -3.97195 179.574 -3.67823 178.627 -3.09081C178.541 0.43366 178.455 3.95814 178.196 7.18891C177.593 14.5316 179.229 26.2798 175.527 27.7484C172.772 28.9232 170.619 22.4616 169.759 13.063C168.898 3.37072 169.242 -8.96495 165.368 -12.1957C161.924 -15.1328 157.619 -20.7132 157.446 -0.153759C157.332 12.1819 154.978 20.0141 150.386 23.3427L150.3 23.049ZM148.406 -73.5804L149.009 -76.5174C150.214 -79.1608 151.419 -80.6293 152.539 -76.5174C154.088 -75.0489 155.724 -73.8741 157.102 -71.5244C158.221 -69.4685 160.288 -66.8251 158.48 -60.951C158.221 -60.0699 156.499 -62.7132 155.724 -64.7692C154.519 -67.9999 153.486 -72.1118 152.453 -75.93L150.903 -76.5174L149.353 -75.93L148.492 -73.8741L148.406 -73.5804ZM129.378 -2.20972C127.398 -6.02789 125.417 -9.84607 123.437 -13.6643C122.748 -16.3076 121.973 -18.3636 121.543 -21.3006C120.94 -25.4125 120.079 -29.8181 121.801 -33.6363C122.146 -30.6992 122.49 -27.4685 122.834 -24.5314C123.179 -21.3006 123.523 -18.3636 123.868 -15.1328C125.848 -11.3146 127.742 -7.20271 129.722 -3.38454C133.511 -1.6223 135.577 5.72037 136.524 17.1749L137.127 20.112L136.266 17.7623C130.842 15.7064 137.213 49.1889 129.722 40.3777C125.331 35.091 122.662 24.8113 120.854 10.7134C124.212 6.89519 128 9.83226 129.378 -2.5034L129.378 -2.20972ZM115.947 -63.5944L116.721 -66.2377L117.582 -68.8811L116.894 -65.6503L115.86 -63.5944L115.947 -63.5944ZM106.906 -75.0489C106.906 -75.0489 108.111 -80.6293 108.973 -82.0979C110.35 -84.4475 111.986 -85.6223 113.536 -87.3846L114.397 -89.7342L113.794 -86.7972C112.675 -82.979 111.728 -78.8671 110.436 -75.6363C109.403 -72.993 107.939 -67.4125 106.906 -75.6363L106.906 -75.0489ZM82.7121 45.6644C82.7121 45.6644 83.4872 43.0211 83.8315 43.3148C85.2091 43.9022 85.2951 46.2519 84.1759 49.4826C83.9176 50.3638 83.3149 50.07 82.9704 50.07C82.8844 48.6015 82.6261 46.8393 82.7121 45.6644ZM63.3398 -31.2866C63.3398 -31.2866 63.1676 -34.5174 63.3398 -35.3985C63.5121 -35.986 64.287 -36.2797 64.5453 -35.6922C65.6645 -33.0489 65.6645 -30.4055 64.5453 -29.2307C64.2008 -28.937 63.6843 -30.4055 63.2538 -30.9929L63.3398 -31.2866ZM28.5558 -83.8601C36.563 -85.6223 42.4177 -79.1608 45.6034 -55.6643L46.12 -53.0209L45.259 -54.7832C41.2986 -72.993 30.9665 -51.5524 28.4696 -84.1538L28.5558 -83.8601ZM25.1118 20.6994C25.0256 28.6295 24.9396 36.5595 24.7674 44.4896C19.171 35.9721 19.1709 35.6784 25.1118 20.6994ZM9.18346 -38.923C10.2167 -41.2727 10.9914 -40.0978 11.2497 -35.986C11.2497 -35.1048 10.8193 -32.7552 10.6471 -32.7552C10.2167 -32.7552 9.78612 -34.2237 9.35558 -34.8111C9.35558 -35.986 9.01122 -38.3356 9.18346 -38.6293L9.18346 -38.923ZM0.745594 -21.0069C1.5205 -20.7132 1.95116 -19.2447 2.03722 -16.6013L0.831775 -16.6013L0.831776 -21.0069L0.745594 -21.0069Z" fill="#F68428"/>
<path d="M636.244 91.7764C640.291 86.7834 648.04 99.7065 648.987 112.923C649.331 117.916 648.47 122.322 646.576 124.672C642.616 118.797 637.966 114.979 634.781 103.525C633.834 100 634.608 93.5386 636.244 91.4827L636.244 91.7764Z" fill="#F68428"/>
<path d="M153.572 84.4337C155.724 85.0211 157.877 89.133 157.963 96.7694C158.049 106.462 155.81 112.042 152.969 113.511C150.3 114.685 149.439 108.224 149.181 100.588C149.181 91.7764 150.128 83.8463 153.572 84.7274L153.572 84.4337Z" fill="#F68428"/>
<path d="M1003.2 59.7624C1005.27 59.7624 1007.85 60.6436 1008.02 68.8673C1008.28 81.7904 1004.58 78.2659 1002.42 80.3219C1000.44 78.2659 997.689 78.5597 998.292 68.5736C998.808 60.6436 1001.05 59.4687 1003.2 59.7624Z" fill="#F68428"/>
<path d="M264.64 106.462C266.104 107.93 267.653 108.811 269.117 109.986C270.236 107.93 271.356 105.581 272.561 103.525C272.561 103.525 273.078 105.581 273.422 106.755C272.217 108.518 271.011 110.28 269.72 112.336C267.826 114.979 266.017 119.678 264.123 119.678C260.421 119.678 256.891 115.567 254.566 105.581C254.222 103.818 254.566 98.2379 255.169 96.7694C259.474 87.0771 261.454 103.231 264.554 106.462L264.64 106.462Z" fill="#F68428"/>
<path d="M614.203 98.8254C616.7 102.644 618.68 108.518 617.905 118.21C617.303 125.553 615.236 129.077 612.912 126.727C610.587 124.378 610.156 117.035 610.242 109.986C610.329 102.644 611.276 97.0631 614.203 98.8254Z" fill="#F68428"/>
<path d="M369.939 117.329C373.125 118.21 376.311 121.147 377.43 132.308C378.119 138.769 376.569 141.413 374.933 142C371.317 142.881 368.992 137.007 367.787 127.902C367.184 120.266 368.131 116.448 370.025 117.035L369.939 117.329Z" fill="#F68428"/>
<path d="M512.003 100.588C514.93 100.881 517.083 106.168 518.202 114.392C518.891 119.385 518.116 123.79 516.05 124.965C512.95 123.497 509.678 121.147 508.904 109.105C508.559 103.231 510.281 100.588 512.003 100.588Z" fill="#F68428"/>
<path d="M697.461 98.5317C698.753 95.8883 700.044 92.3638 701.422 91.189C703.402 89.4268 706.243 89.4268 706.329 97.9443C706.501 108.224 703.574 103.818 701.766 103.818C700.733 103.818 699.7 103.818 698.58 103.818C696.17 112.336 693.845 124.378 689.884 110.867C689.023 107.93 688.593 100.294 689.196 97.6505C691.865 85.9023 694.706 95.3009 697.375 98.5317L697.461 98.5317Z" fill="#F68428"/>
<path d="M472.914 94.4198C476.616 91.7764 477.305 100.588 477.822 109.399C478.08 110.574 478.51 112.042 478.597 113.217C478.597 113.804 478.08 115.567 477.908 115.567C477.477 115.273 477.047 113.804 476.702 112.923C474.55 112.042 472.311 110.867 471.795 102.644C471.623 100 472.397 94.7135 473 94.1261L472.914 94.4198Z" fill="#F68428"/>
<path d="M222.193 77.3847C223.054 82.0841 222.451 86.4897 220.643 86.7834C219.954 86.7834 219.179 83.8463 218.491 82.3778C218.835 79.7344 219.093 75.6225 219.696 74.7414C220.385 73.8603 221.848 75.3288 222.193 77.3847Z" fill="#F68428"/>
<path d="M626.601 103.818C627.893 103.818 628.323 106.168 627.893 109.692C627.721 110.867 627.29 112.336 626.86 112.923C625.74 114.686 624.707 113.511 624.879 109.692C624.879 107.637 625.999 105.581 626.601 103.818Z" fill="#F68428"/>
<path d="M1020.42 69.161C1021.19 72.3918 1020.94 75.6226 1019.73 76.7974C1018.09 78.2659 1016.89 75.6226 1016.8 70.3359C1016.8 68.2799 1017.66 66.224 1018.18 64.168C1018.96 65.9303 1019.82 67.1051 1020.42 69.161Z" fill="#F68428"/>
<path d="M39.4042 21.5805C39.4042 21.5805 39.232 23.9302 39.1459 25.105C38.7154 24.8113 38.1988 24.5176 37.9405 23.6365C37.7683 23.3427 38.1127 21.2868 38.1988 20.112C38.6293 20.4057 39.1459 20.4057 39.4042 21.2868L39.4042 21.5805Z" fill="#F68428"/>
<path d="M779.083 90.3079L779.083 90.0142L779.169 90.3079L779.083 90.3079Z" fill="#F68428"/>
<path d="M213.239 101.469L211.947 101.762L212.464 97.3568L213.239 101.469Z" fill="#F68428"/>
<path d="M5.39502 38.6155C5.39502 38.6155 4.62008 39.7903 4.44788 39.4966C4.18957 38.9092 4.18954 37.4407 4.01733 36.2658C4.36175 35.9721 4.62006 35.6784 4.96448 35.091C5.13668 36.2658 5.22281 37.4407 5.39502 38.3218L5.39502 38.6155Z" fill="#F68428"/>
<path d="M771.765 31.2729C775.467 29.5106 775.639 39.4967 775.725 48.3079C773.659 48.3079 771.593 48.3079 769.526 48.3079C769.354 41.2589 769.354 32.7414 771.765 31.5666L771.765 31.2729Z" fill="#F68428"/>
<path d="M388.02 15.7064C388.106 17.4686 386.901 21.8742 386.384 21.8742C383.629 21.2868 383.457 13.6505 383.026 7.18893C385.007 8.07005 387.417 7.18893 388.02 15.7064Z" fill="#F68428"/>
</g>
<defs>
<clipPath id="clip0_95_650">
<rect width="1738" height="294" fill="white" transform="matrix(-1 -8.74228e-08 -8.74228e-08 1 1687 -152)"/>
</clipPath>
</defs>
</svg>
