<svg width="1440" height="58" viewBox="0 0 1440 58" fill="none" xmlns="http://www.w3.org/2000/svg">
<path d="M1880.43 -37.3246C1876.5 -16.8051 1870.23 -10.7012 1852.33 -9.92197C1849.71 -14.7272 1854.55 -18.6233 1854.16 -23.1687C1853.77 -26.935 1854.16 -31.4804 1848.8 -31.9999C1842.92 -32.6493 1843.18 -28.1038 1842.66 -24.3376C1841.87 -18.3635 1834.82 -19.7921 1831.68 -16.5454C1834.03 -16.0259 1837.3 -15.6363 1837.17 -13.1687C1837.17 -10.7012 1833.9 -10.3116 1831.42 -10.1817C1829.33 -8.49339 1827.24 -8.36352 1825.02 -10.1817C1816.78 -4.59728 1809.33 -0.311563 1811.95 12.5456C1813.78 21.2469 1801.88 24.1041 1790.25 18.5196C1787.9 19.169 1785.55 19.5586 1783.2 20.3378C1779.93 21.3768 1776.53 22.0261 1774.31 19.169C1771.83 16.182 1773.66 13.5846 1776.53 11.5066C1781.11 8.25988 1785.68 5.14299 1790.25 1.89623C1789.86 0.467657 1789.86 -1.4804 1788.95 -2.38949C1777.18 -13.2986 1784.76 -15.2467 1797.57 -14.9869C1777.58 -23.8181 1770.91 -22.3895 1757.58 -7.1947C1757.97 -6.67522 1758.89 -6.02586 1758.76 -5.63625C1758.5 -4.20767 1757.45 -4.20768 1756.01 -5.76612C1751.31 -4.46742 1746.6 -3.29859 1741.9 -1.99988C1734.84 -5.80941 1728.13 -3.55833 1721.77 4.75338C1729.62 5.5326 1733.14 -4.72716 1741.64 -1.61027C1743.73 1.76636 1734.97 16.182 1750.52 5.92221C1754.45 3.3248 1758.5 3.97416 1760.72 7.87027C1762.81 11.3768 1761.76 15.2729 1758.89 18.3898C1749.87 27.8703 1739.68 27.221 1728.05 16.3118C1721.64 19.4287 1724.39 28.0002 1717.98 30.9872C1717.46 31.3768 1716.94 31.7664 1716.42 32.0262C1716.29 32.0262 1715.5 31.3768 1715.5 31.2469C1715.76 30.7274 1716.29 30.208 1716.68 29.6885C1711.84 24.8833 1707.27 28.9093 1702.56 30.208L1701.13 31.5067L1702.43 30.208C1697.34 26.8313 1692.76 21.2469 1686.49 29.4287C1683.22 33.7145 1679.56 38.3898 1673.42 39.4288C1666.23 40.4677 1665.06 36.7015 1666.89 31.1171C1666.49 30.208 1666.1 29.2989 1665.71 28.3898C1666.76 28.7794 1667.67 29.0391 1668.72 29.4287C1670.94 27.4807 1677.86 23.7144 1670.42 22.9352C1658.52 21.6365 1660.74 13.7144 1658.39 7.61053C1675.25 8.77936 1692.89 12.4157 1702.43 -6.41547C1701.91 -6.67521 1700.86 -7.06482 1700.86 -7.32456C1701.13 -8.4934 1701.78 -8.23366 1702.56 -6.54534C1714.76 -8.45011 1721.3 -16.1557 1722.17 -29.6623C1727.66 -35.7662 1733.14 -41.9999 1743.99 -39.5324C1733.93 -42.1298 1724.52 -42.909 1715.11 -43.948C1710.93 -44.4675 1709.1 -42.5194 1708.84 -39.0129C1708.18 -30.3116 1713.54 -37.5844 1715.89 -36.6753C1719.16 -35.5064 1721.12 -33.2986 1721.38 -29.922C1711.45 -20.961 1696.16 -25.7662 1685.71 -17.7142C1682.96 -15.6363 1676.03 -16.6752 1678.26 -11.3505C1680.61 -5.89599 1679.43 -1.61027 1675.25 0.597529C1667.93 4.49364 1670.68 -9.01288 1663.23 -6.54534C1661.92 -7.45443 1664.01 -10.7012 1660.48 -9.92197C1661.27 -8.75314 1662.18 -7.58431 1662.97 -6.2856C1663.88 -0.960918 1661.14 3.19493 1658.13 7.22091C1652.25 15.2729 1643.49 21.5067 1641.53 32.0262C1640.88 35.2729 1637.74 40.208 1633.17 36.8314C1631.08 35.2729 1631.99 30.0781 1631.6 26.3119C1625.98 28.5197 1623.11 32.5456 1620.36 37.221C1618.14 40.8573 1611.48 40.5976 1610.43 36.7015C1605.2 15.5326 1588.21 24.2339 1574.62 23.9742C1573.84 29.0391 1572.79 34.1041 1572.27 39.2989C1572.01 42.6755 1571.09 45.5327 1567.3 46.0522C1563.65 46.4418 1560.51 44.3638 1559.99 41.2469C1557.63 28.9093 1550.84 35.7924 1544.44 37.3508C1537.9 38.9093 1533.33 48.0002 1523.26 40.9872C1535.68 31.5067 1543.91 19.9482 1544.04 4.62351C1538.42 15.5326 1525.62 18.13 1516.47 25.0131C1505.1 33.4547 1505.62 23.9742 1504.45 17.4807C1499.87 20.7274 1494.64 22.156 1489.03 22.2859C1484.84 22.4157 1479.62 23.8443 1479.75 27.6106C1480.27 44.6236 1470.73 35.4028 1463.67 33.7145C1461.84 33.3249 1459.36 35.143 1457.14 35.9223C1456.09 36.3119 1455.05 36.7015 1453.87 37.0911C1454.26 36.0521 1454.79 35.143 1455.18 34.1041C1454.52 31.2469 1453.87 28.2599 1453.35 25.4028C1443.68 33.3249 1428.91 15.9222 1419.89 32.0262C1416.1 38.7794 1408.39 29.6885 1402.12 30.3378C1402.12 28.7794 1402.12 27.3508 1402.12 25.7924C1397.28 26.7015 1393.89 22.9352 1387.22 21.2469C1391.27 28.2599 1388.4 39.9482 1402.12 30.4677C1404.34 34.8833 1408.78 39.2989 1403.69 44.3638C1398.33 49.6885 1393.76 44.3638 1389.05 42.8054C1386.83 42.156 1384.87 40.8573 1382.78 39.9482C1380.56 43.0651 1377.42 44.7535 1373.5 45.1431C1371.41 47.221 1369.19 47.221 1367.1 45.1431C1352.2 47.3509 1351.81 47.3509 1355.33 36.182C1356.51 32.2859 1355.2 28.9093 1355.07 25.2729C1354.42 7.74039 1363.83 2.41571 1380.95 10.5975C1386.18 -3.68819 1365.53 -12.3895 1372.85 -27.5843C1360.56 -20.1817 1359.26 -3.81806 1343.31 -1.87001L1342 -3.03884L1343.05 -1.61027C1343.97 2.54558 1329.33 2.28584 1340.31 10.8573C1345.53 15.0131 1330.9 18.5196 1329.46 25.143C1331.94 27.0911 1332.2 29.0391 1329.59 31.1171C1328.02 35.2729 1336.39 42.4158 1326.71 43.0651C1324.36 43.195 1308.16 50.4677 1313.12 34.1041C1314.43 29.6885 1306.2 24.7534 1308.03 18.2599C1297.57 21.8963 1303.98 30.4677 1303.06 36.3119C1301.75 44.6236 1298.75 48.9093 1290.12 49.8184C1289.47 50.208 1288.95 50.7275 1288.29 50.9872C1288.03 50.9872 1287.12 50.208 1287.25 49.9483C1287.38 49.2989 1288.03 48.7794 1288.42 48.2599C1291.04 38.0002 1291.17 27.7404 1288.55 17.4807C1281.11 23.9742 1272.09 29.0391 1266.73 37.7404C1264.77 40.9872 1262.03 44.8833 1257.45 42.2859C1253.14 39.8184 1255.1 35.5327 1256.67 32.156C1257.58 30.0781 1259.02 28.13 1260.2 26.182C1261.76 24.7534 1263.2 23.3248 1264.77 21.8963C1266.6 20.3378 1268.56 18.9092 1270.13 17.2209C1272.48 14.4937 1277.45 12.8053 1274.7 8.00013C1274.05 6.8313 1271.96 5.66247 1270.78 5.79234C1265.42 6.70143 1266.21 11.117 1265.69 14.6235C1265.29 16.8313 1264.77 19.0391 1264.38 21.2469C1262.81 22.6755 1261.37 24.1041 1259.8 25.5326C1253.01 27.3508 1241.25 19.6885 1241.25 34.234C1244.64 35.7924 1249.74 38.0002 1247.39 41.6366C1243.47 47.3509 1237.2 50.208 1230.01 45.0132C1218.51 55.6626 1205.18 54.234 1191.59 49.6885C1191.06 50.0781 1190.54 50.5976 1190.02 50.7275C1189.89 50.7275 1189.1 50.0781 1189.1 49.9483C1189.37 49.4288 1189.89 48.9093 1190.28 48.3898C1193.16 37.0911 1202.17 39.0392 1210.67 40.0781L1212.1 41.1171L1211.06 39.8184C1201.26 25.9222 1199.04 25.4028 1186.1 32.8054C1181.52 35.4028 1176.43 37.3508 1171.59 39.6885C1174.47 40.4677 1178.39 40.0781 1178.65 44.234C1178.65 45.1431 1176.69 46.9612 1175.77 46.8314C1171.46 46.5716 1171.85 42.9353 1170.94 40.208C1165.84 40.8573 1161.53 42.6755 1158.26 46.4418C1156.3 48.6496 1151.86 52.5457 1151.34 50.9872C1147.42 38.3898 1128.47 55.7924 1126.9 39.9482C1128.47 38.3898 1130.17 36.9612 1131.73 35.4028L1133.04 34.234L1131.6 35.2729C1130.03 36.8314 1128.34 38.2599 1126.77 39.8184C1118.4 34.7534 1125.33 28.7794 1125.85 23.3248C1126.24 19.0391 1126.38 12.8053 1133.3 14.2339C1136.18 14.7534 1138.14 19.6885 1142.06 24.4937C1147.02 14.4937 1151.6 5.40273 1157.09 -5.37651C1147.02 -8.62327 1138.4 4.88325 1129.77 -6.54534C1127.29 -9.7921 1120.49 0.0780484 1115.01 3.06507C1106.51 7.61053 1117.1 14.3638 1112.78 19.9482C1101.94 20.8573 1088.22 18.2599 1090.18 36.7015C1090.7 41.2469 1081.81 45.1431 1074.23 46.7015C1070.18 38.1301 1074.1 28.6495 1068.48 20.3378C1064.56 14.4937 1072.66 9.81832 1076.85 5.27286C1082.86 -1.22066 1082.33 -6.02586 1074.1 -11.4804C1062.73 -19.1428 1063.39 -19.5324 1075.41 -30.0519C1077.89 -32.2597 1079.59 -36.5454 1077.37 -40.4415C1057.5 -43.4285 1052.8 -30.7012 1049.14 -16.8051C1053.06 -15.7661 1057.37 -14.9869 1059.2 -11.2207C1062.47 -4.72716 1055.02 25.7924 1048.23 27.8703C1028.1 33.9742 1010.72 46.3119 989.418 49.4288C985.367 50.0781 981.054 50.208 977.917 47.4807C976.349 46.182 975.042 43.8444 974.912 41.7664C974.912 39.2989 977.395 38.7794 979.878 38.1301C984.321 37.0911 990.855 45.9223 993.208 35.7924C992.685 35.2729 991.77 34.7534 991.77 34.3638C992.031 32.9352 993.077 33.0651 994.253 34.7534C1007.97 36.8314 1009.94 15.5326 1025.62 20.7274C1025.75 20.7274 1027.58 18.2599 1027.19 17.4807C1020.39 2.0261 1033.85 -1.87001 1043.52 -8.23366C1045.09 -9.27262 1045.22 -12.1298 1046 -14.2077C1041.82 -17.4545 1041.95 -25.7662 1035.16 -24.9869C1029.15 -24.3376 1026.01 -19.2726 1027.58 -12.909C1028.36 -9.53236 1026.66 -6.02586 1023.27 -5.76612C1008.11 -4.85703 1004.05 6.31183 997.782 16.3118C994.122 22.156 987.457 25.6625 980.008 27.4807C976.219 28.3898 969.815 30.8573 969.815 32.5456C970.076 59.5587 950.082 41.8963 939.627 44.7534C930.305 51.4201 924.772 48.6496 923.03 36.4417C919.632 39.2989 921.331 45.9223 914.666 46.5716C911.399 26.0521 907.74 23.9742 882.779 29.5586C877.16 30.8573 870.887 33.0651 866.705 28.5196C861.869 23.195 855.727 28.0002 850.5 25.0131C846.971 18.13 857.034 17.6105 857.818 12.6755C858.21 10.0781 857.295 8.13001 855.204 6.83131C852.983 5.40273 849.454 5.5326 848.932 7.48065C844.358 25.143 827.369 26.0521 813.255 31.1171C811.033 31.8963 809.203 33.5846 807.113 34.8833C807.113 34.8833 806.851 35.143 806.59 35.2729L807.113 34.8833C814.562 35.6625 821.226 37.8703 825.408 47.4807C814.3 46.182 804.237 53.3249 795.089 44.6236C790.123 39.9482 791.43 35.0132 795.874 30.4677C794.959 28.3898 794.305 26.182 792.999 24.2339C789.993 19.6885 779.538 18.2599 784.765 10.2079C788.425 4.62351 799.663 6.96117 807.243 14.4937C808.811 16.0521 809.334 18.6495 814.039 18.5196C815.738 10.8573 830.897 8.90923 822.533 -4.9869C817.829 -12.909 831.028 -12.6492 841.221 -16.2856C830.113 -18.4934 824.101 -20.3116 817.959 -20.7012C811.686 -21.2207 805.414 -21.87 801.885 -13.948C795.22 1.37675 777.578 7.61053 767.254 20.0781C761.896 26.5716 753.532 27.0911 745.56 26.4417C741.248 33.5846 751.833 40.3378 745.691 46.3119C739.418 52.4158 732.1 44.3638 724.258 46.9612C722.037 38.0002 733.014 31.6365 728.179 22.6755C725.565 17.8703 723.997 14.4937 717.724 17.3508C712.628 22.156 706.224 26.3119 703.349 32.0262C702.303 34.234 712.366 39.0391 702.434 44.234C696.292 47.3508 690.28 48.1301 684.138 49.0392C678.911 49.6885 674.598 46.3119 674.598 40.9872C674.598 33.9742 682.047 37.4807 686.36 34.7534C681.786 25.6625 670.939 27.0911 664.144 22.5456C660.615 27.4807 656.172 31.1171 649.507 31.8963C649.115 33.195 648.853 34.3638 648.723 35.6625C647.416 36.9612 646.109 38.2599 644.802 39.6885C645.978 39.8184 647.285 39.9482 648.592 40.0781C648.592 38.6495 648.853 37.221 648.853 35.7924C650.683 36.5716 652.513 37.221 654.342 38.0002C652.643 38.9093 650.814 39.6885 649.115 40.5976C647.416 42.9353 645.456 42.8054 643.495 40.8573C625.853 44.4937 608.21 47.221 591.091 39.0392C584.295 35.7924 578.414 40.8573 572.011 40.8573C568.744 40.8573 564.693 40.8573 563.255 38.0002C560.903 33.7145 564.954 31.3768 567.96 28.7794C574.755 23.0651 581.159 20.9872 589.523 27.0911C595.665 31.6365 603.114 32.2859 609.648 26.4417L610.824 25.2729L609.256 26.182C603.637 22.4157 597.886 18.5196 589.915 13.195C606.773 7.87027 605.335 -7.45444 612.654 -17.7142C606.512 -20.1817 600.761 -16.2856 594.619 -14.9869C591.352 -18.1038 588.085 -21.2207 584.818 -24.3376L583.38 -25.1168L584.426 -24.0778C585.341 -18.883 588.869 -15.896 594.227 -14.5973C592.92 -7.32456 585.471 -5.76612 580.767 -1.74014C581.028 -0.441438 581.551 0.857268 581.682 2.15597C581.682 2.67545 580.636 3.19494 580.113 3.58455C576.846 9.68845 572.664 15.0131 565.869 18.0002C565.215 17.4807 564.562 16.9612 563.908 16.4417C562.21 14.104 560.38 13.0651 558.028 15.6625C559.988 15.9222 561.948 16.182 563.908 16.4417C564.562 16.9612 565.215 17.4807 565.869 18.0002C561.425 22.5456 558.158 30.208 549.664 22.6755C548.226 32.6755 548.88 44.4937 531.368 38.9093C528.754 38.1301 525.095 40.3379 521.959 40.9872C518.822 41.6366 515.686 42.8054 512.419 40.9872C508.367 35.5326 511.112 29.2989 510.328 23.3248C509.936 19.5586 509.544 15.143 503.924 15.5326C499.873 15.7924 495.822 17.4807 495.691 22.4157C495.56 27.6106 497.651 33.0651 492.032 39.4288C488.242 28.5197 478.833 21.6365 478.833 9.29884C466.287 13.4547 466.156 24.3638 466.81 28.6495C468.901 42.9353 462.497 40.7275 453.48 37.0911C446.162 34.1041 440.934 29.6885 441.718 21.5067C441.98 18.2599 444.463 14.6235 447.73 16.9612C462.889 27.6106 460.014 15.5326 461.06 8.13001C461.321 6.57156 461.582 5.14299 461.713 3.58455C473.475 2.41571 479.355 -2.12975 476.872 -14.5973C474.259 -27.1947 465.372 -24.9869 456.486 -24.2077C453.219 -27.5843 450.082 -27.7142 446.946 -24.2077C449.951 -23.948 452.957 -23.8181 455.963 -23.5584C455.963 -20.7012 457.139 -16.935 455.571 -14.9869C452.042 -10.4415 444.071 -6.67521 457.27 -4.46742C460.275 -3.94794 461.321 -0.181692 460.929 3.06507C457.008 3.97416 452.957 4.6235 449.037 5.79234C430.871 11.3768 430.871 11.5066 431.786 30.3378C431.917 33.5846 431.394 36.7015 428.127 38.0002C424.207 39.5586 422.9 36.3119 421.201 33.5846C413.621 22.0261 411.138 10.0781 416.366 -3.03884C419.371 -10.5713 422.377 -18.2337 422.246 -28.1038C409.047 -23.948 416.235 -6.93495 402.644 -5.89599C401.99 -11.87 401.206 -17.9739 400.553 -23.948C383.738 -26.1125 373.588 -19.6622 370.103 -4.59729C381.081 -9.40249 391.927 -17.3246 401.859 -5.37651C393.757 9.81832 384.871 13.3248 365.006 8.77936C362.393 15.0131 365.006 20.3378 368.535 25.4028C374.416 16.3118 383.564 22.156 391.274 21.117C391.405 19.0391 391.535 16.9612 391.797 14.8833C393.104 15.4027 395.456 16.0521 395.325 16.3118C394.803 18.3898 394.018 20.3378 393.234 22.2859C389.749 30.4244 381.124 32.0262 367.359 27.0911C363.569 28.5197 359.91 30.3378 357.035 25.6625C354.16 21.117 351.285 16.7015 348.279 12.156L346.841 11.2469L347.887 12.5456C346.58 16.182 345.534 19.8183 343.966 23.3248C341.875 28.13 340.176 34.8833 332.989 33.4547C325.278 31.8963 327.239 25.0132 328.545 20.2079C330.506 13.4547 326.716 10.3378 321.619 7.35079C314.431 3.19494 312.733 -3.03885 313.647 -10.4415C315.346 -11.87 316.914 -13.1687 318.613 -14.5973C329.983 -13.0389 338.216 -16.935 343.705 -26.4155C333.25 -33.6882 323.187 -33.948 312.733 -29.6623C309.988 -29.6623 307.113 -29.4025 304.369 -29.4025C303.977 -34.3376 303.715 -39.4025 303.323 -44.3376C302.016 -39.1428 291.692 -33.6882 303.585 -28.6233C303.977 -27.1947 303.977 -25.6363 303.585 -24.2077L302.67 -23.0389L303.977 -23.8181C307.113 -25.5064 310.25 -27.3246 313.386 -29.0129C317.96 -29.2727 323.71 -30.5714 326.062 -26.2856C329.46 -19.922 321.358 -18.6233 318.483 -14.9869C316.915 -13.5583 315.346 -12.1298 313.778 -10.7012C306.721 -6.02586 305.284 1.11701 303.193 8.38975C301.363 14.6235 296.658 19.0391 289.34 12.6755C284.635 12.9352 280.061 13.3248 275.357 13.5846C273.135 15.7924 271.044 15.5326 269.084 13.3248C263.856 13.7144 261.243 16.4417 260.72 21.117C261.112 21.6365 261.896 22.2859 261.766 22.6755C261.504 24.1041 260.328 24.1041 259.021 22.6755C253.01 25.0132 245.169 25.9222 241.379 30.0781C230.663 41.8963 218.901 27.221 207.662 32.156C204.787 33.4547 200.213 24.3638 201.651 19.169C203.611 11.7664 205.833 4.75338 201.259 -4.46742C192.764 0.467654 181.917 1.76636 190.02 14.7534C192.372 18.6495 191.327 24.8833 185.184 25.6625C178.519 26.4417 169.633 34.4937 165.059 22.5456C164.536 21.5067 164.144 20.4677 163.621 19.4287C164.798 19.8183 165.843 20.3378 167.019 20.7274C177.213 15.2729 169.241 7.35078 170.548 0.207915C162.707 1.37675 154.604 0.987139 156.434 11.6365C157.349 16.4417 154.996 20.5976 152.775 24.6235C149.246 31.5067 142.843 32.9352 136.308 30.208C130.035 27.4807 133.172 22.5456 136.047 18.7794C139.183 14.6235 139.575 10.5975 136.831 6.05208C132.78 -0.831043 129.382 -7.5843 138.399 -14.0778C140.752 -15.7661 140.36 -20.0519 136.57 -21.4804C133.041 -22.6493 130.689 -19.922 128.467 -17.7142C124.285 -13.5583 126.768 -9.14275 127.291 -4.72716C128.598 6.57156 124.677 16.4417 116.706 24.7534C110.956 30.8573 104.029 29.4287 102.461 21.5067C101.024 14.104 101.938 6.31182 101.808 -1.22066C100.109 -2.64923 98.2792 -4.07781 96.5803 -5.50638C87.4323 -0.0518263 79.7219 8.25988 67.4376 7.74039L66.1307 6.57157L67.3069 7.87027C68.8751 12.6755 71.2274 16.182 77.631 15.143C83.1197 14.2339 86.1255 7.48065 94.3586 9.68845C93.5745 23.0651 81.8129 27.0911 71.7502 29.0391C55.5453 32.156 59.9886 13.5846 50.71 8.51962C47.5735 20.9872 35.6812 26.7015 22.09 25.4028C8.10676 23.9742 -6.13784 25.4028 -20.2518 25.5326C-19.8597 26.4417 -19.337 27.3508 -18.9449 28.3898C-19.9904 28.0002 -20.9052 27.6106 -21.9507 27.2209C-27.5701 29.6885 -37.3715 33.9742 -33.9737 23.4547C-30.0532 11.117 -39.8545 -1.99988 -29.1383 -13.6882C-26.0019 -17.0648 -30.8373 -21.9999 -37.2408 -19.5324C-40.2466 -18.3635 -42.8602 -16.6752 -45.7353 -15.2467C-47.3035 -16.6752 -48.8717 -18.2337 -50.4399 -19.6622C-52.0082 -20.1817 -52.6616 -23.8181 -55.2753 -21.0908C-53.707 -20.5713 -52.2695 -19.922 -50.7013 -19.4025C-49.1331 -17.8441 -47.6955 -16.4155 -46.1273 -14.857C-41.4227 -1.61027 -54.6219 9.94819 -49.7865 23.5846C-48.6104 27.0911 -53.9684 30.7275 -60.372 28.7794C-79.4519 22.9352 -97.8784 26.7015 -114.998 34.1041C-122.186 28.6495 -114.737 23.5846 -116.305 18.7794C-117.873 13.9742 -121.663 17.2209 -124.407 16.8313C-124.407 13.8443 -124.407 10.8573 -124.407 7.87027L-123.493 6.70143L-124.93 7.48065C-127.152 10.7274 -136.692 13.8443 -124.93 17.2209C-125.192 25.143 -132.118 28.5197 -137.215 33.195C-145.056 32.156 -138.913 25.4028 -142.573 22.4157C-147.8 18.13 -151.459 23.5846 -155.772 23.9742C-175.505 25.9222 -196.023 24.2339 -214.449 33.3249C-215.103 33.5846 -216.932 31.7664 -218.239 30.8573C-229.739 25.7924 -242.024 26.9612 -253.785 28.3898C-261.496 29.4287 -268.945 31.6365 -273.127 24.6235C-277.701 17.0911 -267.768 14.4937 -263.979 9.55858C-269.859 8.25988 -273.388 10.5975 -277.439 13.7144C-283.059 18.0002 -286.195 15.4027 -285.803 9.0391C-285.542 5.79234 -285.15 2.41571 -289.593 2.54558C-292.991 2.54558 -294.82 5.66247 -295.474 8.77936C-295.866 10.9872 -295.866 13.3248 -295.735 15.5326C-295.474 20.5976 -292.337 26.7015 -299.394 29.4287C-306.451 32.156 -308.934 25.6625 -312.724 22.0261C-319.389 15.6625 -323.832 17.3508 -325.923 25.6625C-325.4 26.182 -324.355 26.7015 -324.355 27.0911C-324.616 28.6495 -325.662 28.3898 -326.838 26.5716C-340.952 33.8443 -356.373 22.8054 -370.879 29.0391C-373.492 30.208 -375.714 25.6625 -377.021 22.8054C-379.896 16.4417 -387.737 16.5716 -392.703 12.5456C-395.709 10.0781 -400.152 14.6235 -402.766 17.2209C-407.34 21.8963 -400.283 20.5976 -398.976 22.2859C-395.578 26.7015 -397.669 30.7274 -402.112 30.208C-423.937 27.2209 -446.022 33.5846 -467.585 27.7404C-470.983 26.8313 -473.074 24.6235 -474.12 21.5067C-470.722 19.9482 -467.455 18.5196 -464.057 16.9612C-463.665 16.4417 -462.881 15.7924 -463.011 15.4027C-463.142 14.3638 -463.795 13.3248 -464.187 12.156C-466.017 10.2079 -464.187 3.97416 -470.068 6.96117C-471.114 7.48065 -466.932 10.8573 -464.449 12.2859C-464.449 13.7144 -464.449 15.143 -464.449 16.5716C-468.239 17.2209 -471.767 18.3898 -474.12 21.3768C-492.415 27.0911 -510.973 34.1041 -526.785 16.3118C-528.484 14.3638 -531.098 12.6755 -532.666 14.104C-539.723 20.208 -545.343 19.4287 -550.439 12.2859C-590.298 23.5846 -625.975 3.06506 -663.874 -1.09079C-684.13 -3.29858 -703.34 -11.0908 -719.545 -23.4285C-732.352 -33.1688 -731.307 -40.1818 -717.324 -47.7142C-709.221 -52.1298 -700.204 -52.2597 -691.448 -53.948C-656.947 -60.5714 -622.708 -64.4675 -587.292 -58.3636C-564.815 -54.4675 -541.683 -58.7532 -518.683 -58.3636C-460.659 -57.3246 -402.504 -56.8052 -344.48 -61.0909C-311.156 -63.5584 -277.57 -62.1299 -243.984 -62.2597C-168.84 -62.6493 -93.8273 -68.2338 -18.5529 -68.3636C2.48731 -68.3636 23.9196 -67.3247 44.3064 -68.8831C91.8756 -72.6493 139.314 -72.3896 186.622 -70.3117C249.351 -67.5844 312.21 -69.013 374.938 -62.9091C405.78 -59.9221 437.144 -60.8311 468.117 -61.0909C510.589 -61.4805 552.931 -64.4675 595.273 -58.4935C596.057 -58.4935 596.972 -58.1039 597.756 -58.2337C631.472 -66.1558 665.45 -56.0259 699.167 -60.0519C706.093 -60.8311 712.758 -62.5195 716.417 -55.8961C721.383 -47.1948 711.974 -44.4675 706.485 -39.7922C715.241 -37.4545 721.122 -39.0129 722.429 -47.5844C723.997 -57.8441 731.185 -59.1428 740.333 -58.7532C800.056 -56.0259 859.778 -58.2337 919.501 -56.6753C942.763 -56.0259 966.548 -54.5974 990.071 -57.3246C993.338 -57.7143 996.997 -58.3636 999.872 -57.4545C1029.28 -47.7142 1059.6 -56.5454 1089.39 -53.6883C1116.7 -50.961 1144.41 -55.2467 1171.85 -51.6104C1183.88 -50.0519 1184.01 -46.0259 1177.08 -38.6233C1177.21 -36.1558 1173.16 -31.7402 1178.65 -31.9999C1182.83 -32.2597 1190.02 -34.7272 1188.71 -39.922C1185.05 -53.948 1194.59 -53.1688 1203.87 -53.1688C1223.47 -53.1688 1243.21 -53.5584 1262.81 -53.1688C1281.5 -52.7792 1282.28 -51.3506 1276.53 -33.4285C1279.41 -32.1298 1282.54 -33.948 1282.67 -35.5064C1284.76 -54.2078 1298.23 -53.948 1313.65 -53.5584C1338.61 -52.9091 1363.57 -52 1388.79 -53.5584C1409.7 -54.987 1431.39 -53.1688 1452.3 -54.2078C1479.35 -55.6363 1506.14 -53.8181 1532.94 -55.1169C1545.87 -55.7662 1557.24 -48.6233 1570.44 -52.6493C1604.29 -63.0389 1639.31 -54.2078 1673.81 -55.7662C1696.03 -56.8052 1719.16 -53.6883 1741.77 -53.5584C1765.42 -53.2987 1789.34 -52.5194 1812.34 -49.1428C1830.63 -46.4155 1851.67 -48.8831 1867.1 -34.3376C1871.15 -30.5714 1875.72 -41.6103 1882.12 -37.1947L1880.43 -37.3246ZM-663.874 -18.1038C-665.311 -18.4934 -666.749 -19.2726 -668.186 -19.2726C-669.362 -19.2726 -670.539 -18.3635 -671.715 -17.8441C-670.277 -17.4545 -668.84 -17.0648 -667.402 -16.6752C-666.226 -17.1947 -665.05 -17.5843 -663.874 -18.1038ZM-629.242 -12.6492C-630.418 -13.2986 -631.333 -14.2077 -632.248 -14.2077C-633.685 -14.2077 -635.254 -13.8181 -636.691 -13.5583C-635.776 -13.0389 -634.992 -11.9999 -634.077 -11.9999C-632.64 -11.9999 -631.072 -12.3895 -629.111 -12.6492H-629.242ZM-569.258 -4.85703C-570.695 -5.50638 -572.002 -6.15573 -573.44 -6.80508C-581.02 -11.7402 -590.298 -8.75314 -598.401 -11.2207C-603.628 -15.7661 -608.986 -23.0389 -613.952 -10.9609L-614.867 -9.53236L-613.56 -10.5713C-608.463 -5.76612 -603.497 -4.85703 -598.662 -10.8311C-591.474 -4.59729 -581.934 -8.62327 -573.963 -6.02586C-572.394 -5.50638 -571.741 -2.12975 -569.258 -4.72716V-4.85703ZM-539.2 0.0780482L-540.769 0.467656L-539.331 1.11701V0.0780482H-539.2ZM-505.353 0.467656V12.0261C-505.745 13.4547 -509.666 14.2339 -506.529 16.5716C-506.007 15.143 -505.484 13.7144 -505.092 12.2859C-501.955 8.64949 -499.472 4.88325 -505.484 0.467656H-505.353ZM-484.052 15.2729C-484.052 15.2729 -485.097 14.6235 -485.62 14.2339C-486.404 15.0131 -487.188 15.9222 -487.972 16.7014C-487.449 17.0911 -486.665 17.7404 -486.535 17.7404C-485.62 16.9612 -484.836 16.182 -483.921 15.2729H-484.052ZM-424.982 6.31183L-426.42 7.35079C-432.17 11.7664 -438.443 14.104 -445.892 11.7664L-447.329 10.9872L-446.284 12.156C-434.783 22.4157 -430.209 21.3768 -426.158 7.61053L-424.982 6.31183ZM-337.554 5.5326C-337.554 5.5326 -338.6 4.49364 -339.253 4.36377C-341.475 3.97416 -342.389 4.62351 -341.736 5.92221C-341.475 6.31182 -340.298 6.31182 -339.645 6.44169C-338.992 6.18195 -338.207 5.79234 -337.554 5.5326ZM-313.377 -41.9999C-321.611 -40.1818 -317.69 -35.5064 -317.821 -32.5194C-317.821 -29.7921 -321.088 -25.896 -315.991 -23.2986C-314.554 -29.6623 -310.633 -35.3766 -313.508 -41.9999H-313.377ZM-312.201 -9.27262L-313.769 -8.88301L-312.463 -8.10379L-312.201 -9.27262ZM-279.53 -40.8311L-278.093 -40.3116V-41.3506L-279.53 -40.8311ZM-268.422 -23.5584C-268.422 -23.5584 -268.945 -24.9869 -269.598 -25.2467C-272.342 -26.5454 -273.911 -24.7272 -275.61 -23.2986C-276.786 -22.2597 -277.7 -21.0908 -278.877 -20.0519L-279.661 -18.883L-278.354 -19.6622C-276.786 -20.0519 -275.348 -20.4415 -273.78 -20.8311C-271.689 -21.3506 -268.945 -20.8311 -268.422 -23.5584ZM-262.541 -4.07781L-263.979 -4.59729V-3.55832L-262.541 -4.07781ZM-250.91 -24.8571C-251.956 -27.8441 -253.524 -30.0519 -255.745 -29.1428C-257.052 -28.6233 -257.575 -25.5064 -257.575 -23.4285C-257.575 -21.3506 -256.791 -18.6233 -253.785 -20.1817C-252.217 -20.961 -251.564 -23.5584 -250.779 -24.7272L-250.91 -24.8571ZM-233.268 11.8962C-234.052 11.7664 -235.228 13.7144 -236.404 14.8833C-236.012 15.9222 -236.012 17.7404 -235.097 18.3898C-233.66 19.4287 -231.961 18.6495 -231.438 16.8313C-230.785 14.7534 -230.262 12.2859 -233.398 11.8962H-233.268ZM-214.188 11.8962C-214.58 10.5975 -214.972 9.42871 -215.495 8.25988C-215.625 8.00013 -216.409 7.87027 -216.801 7.61053C-217.847 9.94819 -215.756 10.8573 -214.449 12.156C-216.671 18.13 -219.546 23.8443 -219.284 30.4677C-215.887 27.3508 -211.835 24.7534 -209.091 21.2469C-204.648 15.5326 -209.352 13.5846 -214.318 12.0261L-214.188 11.8962ZM-203.21 -14.3376L-204.256 -15.6363C-205.432 -18.1038 -205.693 -21.87 -209.614 -21.7402C-212.358 -21.7402 -213.142 -18.883 -212.489 -16.8051C-210.921 -12.5194 -207.262 -15.896 -204.517 -15.3765L-203.08 -14.4674L-203.21 -14.3376ZM-183.085 5.66247C-185.045 4.49364 -187.267 3.45467 -189.227 2.41571C-190.403 0.467657 -191.187 -1.87001 -192.755 -3.16871C-194.193 -4.46741 -195.892 -3.16871 -194.977 -1.61027C-193.801 0.207917 -191.579 1.50662 -189.88 2.93519C-187.659 4.75338 -186.875 8.25988 -182.954 7.48065C-182.954 7.48065 -182.693 5.92221 -183.085 5.66247ZM-181.517 -22.6493C-182.17 -23.948 -182.431 -25.5064 -183.477 -26.2856C-184 -26.6752 -186.613 -25.7662 -186.875 -24.9869C-187.659 -22.6493 -186.221 -20.961 -183.869 -20.1817C-183.477 -20.0519 -182.301 -21.7402 -181.517 -22.6493ZM-158.908 4.10403L-159.692 2.93519C-161.261 2.28584 -159.431 -1.09079 -162.829 -0.311566C-161.914 0.987138 -161.13 2.15597 -160.215 3.45467L-158.908 4.2339V4.10403ZM-149.107 -46.4155C-151.982 -46.4155 -156.294 -47.1948 -155.38 -42.3896C-154.988 -40.4415 -153.289 -37.7142 -151.59 -37.1947C-147.277 -35.896 -146.624 -39.6623 -145.448 -42.2597C-144.402 -45.3766 -146.624 -46.4155 -149.238 -46.4155H-149.107ZM-99.7081 6.31183L-101.015 7.09105C-103.367 8.51962 -107.026 4.36377 -108.464 8.64949C-108.725 9.42871 -107.288 11.3768 -106.112 11.8962C-101.146 14.104 -102.191 9.16897 -100.492 7.61053L-99.5773 6.44169L-99.7081 6.31183ZM-87.0316 -34.7272C-96.0489 -37.0649 -99.8388 -31.2207 -105.85 -31.0908C-112.254 -31.0908 -116.044 -26.2856 -118.265 -21.3506C-120.095 -17.3246 -121.924 -11.7402 -115.782 -9.66223C-111.339 -8.23365 -108.595 -12.1298 -108.072 -16.2856C-107.68 -19.7921 -109.771 -24.5973 -102.191 -21.9999C-90.2987 -17.8441 -89.3839 -25.896 -87.0316 -34.7272ZM-82.5883 -1.09079C-82.9804 -2.38949 -83.2418 -3.68819 -83.6338 -5.11677C-84.1566 -4.0778 -84.9407 -3.03884 -85.0714 -1.99988C-85.0714 -0.701178 -84.5487 0.727395 -84.1566 2.0261C-83.6339 0.987136 -83.1111 -0.0518242 -82.5883 -1.09079ZM-68.3437 -47.974H-69.3892L-68.9971 -46.6753L-68.3437 -47.974ZM-57.7583 -6.02586C-58.0197 -7.32457 -58.4117 -8.75314 -58.6731 -10.0518C-59.1958 -8.75314 -60.1106 -7.58431 -60.1106 -6.2856C-60.1106 -4.9869 -59.4572 -3.55833 -59.1958 -2.25962C-58.673 -3.42846 -58.1503 -4.72716 -57.6276 -6.02586H-57.7583ZM-12.9335 -50.4415C-11.3653 -49.4026 -10.1891 -49.922 -9.92773 -51.7402C-9.92773 -52.1298 -10.5811 -53.1688 -10.8425 -53.1688C-11.4959 -53.1688 -12.1494 -52.5194 -12.6721 -52.2597C-12.6721 -51.7402 -13.1948 -50.7013 -12.9335 -50.5714V-50.4415ZM-11.1039 9.94819L-12.5414 9.29884V10.3378L-11.1039 9.94819ZM-6.39924 -12.909C-11.7573 -22.2597 -1.95597 -26.2856 0.788407 -36.0259C-18.5529 -25.6363 -18.4222 -25.5064 -6.39924 -12.909ZM23.7889 -10.8311C23.1355 -9.53236 22.3514 -8.23365 21.698 -6.93495C17.6468 -2.64923 15.1637 3.71442 6.66923 1.11701C1.44184 -0.571305 -1.4332 2.15597 0.00433116 6.70143C1.83392 12.2859 7.7147 13.8443 13.2035 14.7534C17.9081 15.6625 20.1298 12.5456 21.4366 8.51962C23.0048 3.45467 24.9651 -1.35053 22.2207 -6.54534C23.1355 -7.84405 26.5333 -8.36353 23.7889 -10.8311ZM51.7554 -15.7661C52.5395 -21.0908 45.0905 -23.8181 47.0508 -29.4025L48.0963 -30.5714L46.6587 -29.7921C43.0867 -23.5584 44.7856 -18.883 51.7554 -15.7661ZM88.2165 -47.3246L89.2619 -47.0649L89.0005 -48.4935L88.2165 -47.3246ZM112.132 -9.66223L110.955 -10.9609C109.039 -26.8917 99.9345 -33.9047 83.6425 -31.9999C97.495 -26.1558 97.2337 -16.4155 96.5803 -6.67521C98.0178 -5.11677 99.586 -3.42845 101.024 -1.87001C102.592 -1.87001 104.291 -1.87001 105.859 -1.61027L107.035 -0.441433L106.12 -1.87001C105.205 -5.89599 107.166 -8.75314 110.563 -10.8311L111.87 -9.66223H112.132ZM153.428 -11.2207L152.252 -11.4804L152.644 -10.0518L153.428 -11.3505V-11.2207ZM155.388 -57.3246L153.689 -58.1039L155.127 -56.935C154.212 -52.9091 149.246 -50.3116 151.468 -43.2987C154.343 -48.7532 166.104 -49.1428 155.519 -57.1948L155.388 -57.3246ZM199.298 -31.4805C193.156 -32.6493 186.753 -33.1688 180.872 -34.8571C169.502 -38.2337 171.985 -29.4025 169.764 -24.5973C169.241 -23.1687 165.451 -22.5194 168.457 -20.0519C169.11 -21.4804 169.633 -22.7791 170.286 -24.2077C175.906 -24.2077 178.912 -21.6103 181.133 -16.935C183.224 -12.2596 185.576 -12.5194 185.054 -17.9739C184.139 -27.8441 198.384 -22.909 199.298 -31.4805ZM212.759 -10.5713L212.105 -11.9999L211.452 -10.5713H212.759ZM217.725 10.3378C217.725 10.3378 217.725 8.90923 217.594 8.38975C217.594 8.13001 216.679 8.25988 216.287 8.13001C216.287 9.42871 216.549 10.7274 216.679 12.0261C217.071 11.5066 217.725 10.9872 217.856 10.4677L217.725 10.3378ZM220.6 -51.0909L219.816 -52.3896C218.117 -52.6493 217.333 -56.1558 214.85 -53.6883C216.287 -53.1688 217.856 -52.5194 219.293 -52L220.6 -51.0909ZM227.396 16.3118L225.958 16.0521L226.481 17.6105L227.396 16.182V16.3118ZM261.112 -35.3766C249.22 -30.961 238.765 -27.3246 228.31 -23.2986C225.305 -22.1298 222.168 -19.922 223.736 -16.5454C224.913 -14.0778 227.657 -11.7402 230.271 -10.4415C234.06 -8.75314 236.151 -11.4804 237.328 -14.4674C239.157 -19.0129 240.464 -23.0389 246.998 -18.3635C251.18 -15.3765 256.407 -13.8181 261.635 -11.4804C263.203 -19.0129 263.203 -25.6363 261.243 -35.3766H261.112ZM266.993 -49.2727C266.993 -50.5714 266.209 -51.8701 265.817 -53.1688C264.641 -52.3896 262.811 -51.8701 262.55 -50.961C262.288 -50.0519 263.203 -48.2337 264.118 -47.5844C265.555 -46.5454 266.993 -47.5844 266.993 -49.2727ZM271.567 10.8573L270.521 10.0781L269.737 11.2469L271.698 10.8573H271.567ZM291.039 -10.5713C291.039 -10.5713 290.124 -11.7402 289.732 -11.6103C289.079 -11.6103 288.164 -11.0908 287.902 -10.5713C287.118 -8.88301 287.903 -8.10378 289.863 -8.88301C290.386 -9.14275 290.516 -10.0518 290.908 -10.5713H291.039ZM348.802 -5.11677L348.017 -6.41547L346.58 -7.1947L347.495 -5.89599L348.802 -5.11677ZM363.046 -42.3896L362.262 -43.5584L360.825 -44.3376L361.739 -43.0389L363.046 -42.2597V-42.3896ZM426.298 -42.2597C426.428 -43.0389 424.468 -44.2077 423.422 -45.2467C422.116 -44.8571 420.809 -44.4675 419.502 -44.0779C420.025 -42.909 420.286 -41.0909 421.201 -40.7012C423.03 -39.922 425.775 -39.4025 426.167 -42.2597H426.298ZM436.752 -19.4025C439.497 -21.0908 442.372 -22.6493 445.116 -24.3376C442.11 -22.909 438.974 -21.4804 435.968 -19.922C435.053 -18.7532 434.269 -17.5843 433.354 -16.5454C436.752 -15.2467 435.053 -19.0129 436.752 -19.4025ZM460.929 -43.8181C459.491 -46.2857 459.099 -50.4415 454.787 -49.2727C452.957 -48.7532 451.258 -46.0259 450.866 -44.0779C449.821 -39.2727 453.872 -39.6623 457.008 -39.7922C459.491 -39.7922 461.974 -40.5714 461.06 -43.8181H460.929ZM501.964 -6.54534C501.964 -6.54534 501.18 -8.10379 500.657 -8.10379C496.475 -8.23366 496.475 -4.33755 494.515 -2.25962C494.123 -0.701178 489.941 -2.25962 491.378 0.85727C492.555 -0.0518229 493.731 -0.831049 495.038 -1.74014C497.651 -2.90897 501.572 -2.7791 501.964 -6.54534ZM500.134 -43.5584L498.827 -44.3376L499.612 -43.1688C499.481 -40.4415 499.35 -37.5844 499.089 -34.8571C497.521 -33.0389 492.555 -32.909 495.56 -28.883C496.344 -27.8441 498.435 -26.8051 499.22 -27.1947C503.401 -29.1428 499.22 -31.9999 499.873 -34.4675C504.447 -37.4545 502.748 -40.5714 500.004 -43.6883L500.134 -43.5584ZM534.896 -39.2727C535.289 -36.935 537.902 -35.896 540.254 -36.1558C542.999 -36.935 545.09 -38.2337 544.175 -40.8311C543.914 -41.7402 541.3 -42.1298 539.862 -42.1298C537.641 -42.1298 534.504 -42.3896 534.896 -39.2727ZM518.822 -1.74014C519.606 -1.74014 520.521 -3.68819 521.567 -5.11677C520.26 -6.67521 518.953 -8.36353 517.646 -10.0518C517.123 -8.88301 516.339 -7.71418 516.209 -6.54534C516.209 -4.59729 515.686 -1.99988 518.822 -1.74014ZM531.891 24.3638C529.93 20.208 527.055 16.3118 521.959 15.7924C518.169 15.5326 516.47 18.9092 517.254 22.0261C518.43 27.0911 522.481 29.2989 527.839 28.9093C530.453 28.6495 531.891 26.9612 531.891 24.2339V24.3638ZM567.568 0.337789C567.568 -0.571304 565.738 -1.35053 564.693 -2.25962C563.778 -1.22066 562.079 -0.181697 561.817 0.987137C561.295 3.71441 562.863 5.40273 565.869 4.10403C566.914 3.58455 567.568 1.50662 567.437 0.337789H567.568ZM570.051 -21.4804C570.443 -22.2597 569.528 -24.7272 568.482 -25.1168C562.994 -27.7142 561.817 -22.7791 559.204 -20.1817C556.851 -20.3116 554.368 -20.3116 552.016 -20.7012C546.397 -21.4804 541.169 -28.7532 535.027 -22.3895C528.754 -15.896 533.72 -9.7921 536.857 -3.81806C538.556 -0.571306 539.862 3.06507 544.567 4.36377C554.63 -0.831045 552.016 -13.1687 559.465 -19.7921C563.255 -19.0129 567.437 -16.4155 570.051 -21.3506V-21.4804ZM577.892 -0.0518252L577.108 1.50662L578.806 2.67545C578.676 1.76636 578.414 0.857267 577.892 -0.0518252ZM610.04 -45.5064C600.762 -42.7792 595.795 -46.2857 592.136 -41.7402C596.972 -38.4934 601.154 -38.4934 610.04 -45.5064ZM618.796 -41.3506L617.358 -40.8311L618.796 -40.3116V-41.3506ZM627.029 -32.6493L628.336 -33.4285C629.904 -34.9869 631.734 -36.2857 633.041 -37.974C634.74 -40.0519 637.745 -42.909 633.041 -44.4675C630.558 -45.2467 629.904 -42.1298 629.381 -40.0519C628.859 -37.974 628.336 -35.896 627.813 -33.8181L626.898 -32.5194L627.029 -32.6493ZM621.802 -5.63625C640.795 -9.96526 650.944 -20.0086 652.251 -35.7662C652.382 -37.974 653.166 -40.3116 653.558 -42.5194C654.081 -44.0779 658.001 -42.5194 656.695 -45.6363C655.518 -44.7272 654.342 -43.948 653.166 -43.0389C639.836 -33.1688 630.427 -20.3116 621.802 -5.63625ZM677.604 -4.72716C673.945 -11.87 667.019 -8.4934 662.575 -7.45444C641.143 -2.12975 629.773 12.6755 622.194 32.5456C631.603 31.5067 639.313 30.5976 647.154 29.6885C646.37 26.182 645.456 22.6755 644.802 19.169C644.279 16.5716 642.45 12.9352 645.978 12.0261C647.808 11.6365 650.683 15.0131 653.035 16.7014C655.388 19.2989 658.393 20.4677 662.053 20.3378C662.314 19.169 662.706 18.0002 663.098 16.8313C665.842 13.195 668.587 9.42871 671.462 5.79234C674.076 2.54558 681.002 1.63649 677.604 -4.72716ZM694.593 21.6365C694.593 19.8183 693.548 18.9092 691.587 19.2989C691.065 19.2989 690.411 20.3378 690.28 20.9872C690.15 22.8054 691.195 23.7144 693.156 23.195C693.678 23.195 694.07 22.156 694.462 21.5067L694.593 21.6365ZM692.763 -2.12975C691.195 -2.7791 693.155 -6.54534 689.627 -5.24664C690.542 -4.07781 691.457 -2.90897 692.241 -1.61027C690.542 1.50662 688.843 4.49364 687.144 7.61053L686.229 8.77936L687.667 8.00013C692.241 5.92221 698.383 4.49364 692.763 -2.12975ZM694.462 -36.2857C693.025 -47.7142 690.934 -47.5844 677.604 -38.6233L676.428 -37.3246L677.735 -38.6233C686.491 -38.6233 689.366 -33.6882 688.059 -26.6752C685.314 -12.3895 694.593 -16.8051 701.911 -17.8441C704.656 -26.0259 695.377 -29.0129 694.462 -36.4155V-36.2857ZM733.145 -22.2597C734.452 -23.1687 735.628 -23.948 736.935 -24.8571C738.634 -26.1558 740.202 -27.5843 741.901 -28.883C746.605 -35.7662 757.714 -32.3895 761.896 -40.1818C757.06 -33.1688 740.463 -46.0259 741.378 -29.4025C739.81 -27.9739 738.111 -26.6752 736.543 -25.2467C735.889 -23.8181 732.1 -25.2467 733.145 -22.2597ZM771.566 -19.922L772.481 -21.3506L771.305 -20.1817C766.208 -18.883 760.458 -22.6493 755.492 -17.3246C749.481 -10.9609 741.901 -8.10379 731.838 -9.27262C723.082 -10.1817 714.588 -6.2856 707.008 -1.61027L705.701 -0.441433L707.27 -1.22066C711.843 -1.87001 715.372 -0.960916 714.196 4.36377C713.15 8.90923 713.02 13.1949 716.94 16.7014C722.429 0.597526 723.997 -0.441433 736.412 2.80533L735.367 4.10403L736.674 2.93519C748.435 0.0780455 758.759 -10.1817 771.697 -1.74014C777.055 -8.62327 768.561 -14.2077 771.566 -20.0519V-19.922ZM785.68 -39.2727C786.203 -41.9999 783.067 -41.7402 780.976 -41.9999C778.101 -41.6103 774.311 -41.8701 774.833 -37.7142C774.833 -36.935 777.186 -35.896 778.493 -35.7662C781.629 -35.5064 785.158 -36.1558 785.68 -39.4025V-39.2727ZM790.777 -17.8441C790.124 -18.1038 789.339 -18.4934 788.686 -18.7532C787.902 -18.6233 786.726 -18.4934 786.595 -18.1038C786.072 -16.5454 787.118 -15.7661 789.339 -16.5454C789.993 -16.6752 790.385 -17.3246 790.908 -17.8441H790.777ZM832.727 -39.5324C832.335 -40.961 831.943 -42.1298 831.681 -43.2987C830.244 -41.8701 828.283 -40.7012 827.499 -39.1428C826.846 -37.7142 826.062 -34.7272 829.068 -34.8571C830.374 -34.8571 831.681 -37.974 832.857 -39.5324H832.727ZM804.891 35.6625C803.715 35.4028 802.539 35.4028 801.362 35.5326L803.061 36.9612L804.891 35.6625ZM873.762 -19.2726L875.069 -20.0519L875.853 -21.3506L874.546 -20.5713L873.631 -19.4025L873.762 -19.2726ZM857.949 -42.7792L857.557 -44.2077L856.903 -42.909H857.949V-42.7792ZM919.371 9.29884L917.802 9.68845L919.24 10.3378V9.29884H919.371ZM938.189 -12.7791C931.132 -19.5324 923.03 -14.857 915.189 -15.1168C904.473 -15.5064 901.075 -22.5194 907.74 -30.4415C910.615 -33.8181 915.319 -35.896 919.24 -38.4934C920.416 -37.5844 921.331 -36.4155 922.638 -35.896C924.467 -35.2467 926.689 -34.2077 928.126 -36.6753C926.689 -37.0649 925.251 -37.3246 923.814 -37.7142C922.376 -38.1038 920.939 -38.4934 919.632 -39.0129C907.74 -46.935 899.768 -33.2986 885.393 -36.5454C895.978 -27.5843 896.239 -19.5324 894.148 -11.0908C889.444 -9.53236 885.523 -7.32457 885.131 -1.99988C885.654 -1.61027 886.438 -1.09079 886.438 -0.701179C886.177 0.597524 885.262 0.467657 884.216 -1.09079C880.557 1.11701 880.427 6.83131 874.807 7.09105C873.37 5.66247 871.801 4.2339 870.364 2.80533C868.273 -0.960914 868.012 -6.02586 862.523 -7.1947C861.739 -7.32457 860.432 -5.63625 859.386 -4.85703C862.784 -2.12975 866.313 0.59753 869.71 3.32481C871.148 4.75338 872.716 6.18195 874.154 7.61053C884.216 10.4677 894.279 19.0391 904.211 7.61053C889.705 6.70143 899.637 -5.37651 894.671 -10.5713C903.993 -9.27262 907.217 -3.212 904.342 7.61053C914.535 -0.701175 930.74 -0.311563 938.189 -12.6492V-12.7791ZM931.263 33.4547C929.564 31.5067 927.996 31.5067 926.428 33.4547C927.996 33.4547 929.695 33.4547 931.263 33.4547ZM938.581 43.9742C937.536 41.7664 936.621 39.5586 935.575 37.4807C935.183 40.208 935.968 42.4158 938.581 43.9742ZM944.723 24.4937C944.723 24.4937 943.678 23.4547 943.155 23.4547C942.502 23.4547 941.456 23.9742 941.326 24.3638C940.803 26.3119 941.718 26.9612 943.417 26.0521C943.939 25.7924 944.201 24.8833 944.593 24.3638L944.723 24.4937ZM954.786 6.18195L953.61 7.22091C951.127 8.64949 946.423 5.40273 945.508 10.4677C948.906 10.8573 951.519 9.42871 954.002 7.61053L954.917 6.18195H954.786ZM981.185 -10.9609C978.963 -19.4025 970.338 -19.0129 963.281 -20.0519C961.843 -21.87 960.275 -21.7402 958.576 -20.0519L957.531 -18.7532L959.099 -19.4025L960.928 -19.7921L962.758 -19.4025C971.514 -10.9609 971.252 -0.831046 967.855 11.117C972.951 5.27286 980.139 12.4157 984.06 6.57157C988.372 0.207918 982.491 -5.11677 981.054 -10.7012L981.185 -10.9609ZM1012.68 -37.5844C1000.53 -42.2597 989.287 -39.1428 978.048 -38.2337C977.133 -37.0649 976.349 -35.896 975.434 -34.8571C978.832 -33.5584 977.133 -37.3246 978.832 -37.7142C989.81 -36.935 1000.4 -22.909 1012.81 -37.5844H1012.68ZM1014.12 -16.935C1012.42 -18.3635 1010.33 -19.5324 1008.11 -20.3116C1006.28 -20.961 1005.23 -19.922 1005.49 -18.1038C1007.06 -15.5064 1009.02 -12.909 1012.68 -13.5583C1013.33 -13.5583 1014.38 -16.6752 1013.99 -16.935H1014.12ZM1028.62 -36.1558L1027.19 -36.6753V-35.6363L1028.62 -36.1558ZM1096.84 9.29884L1095.27 9.81832L1096.71 10.4677V9.29884H1096.84ZM1104.55 -16.935C1104.81 -19.0129 1103.77 -20.0519 1102.46 -19.0129C1100.63 -17.5843 1098.8 -16.0259 1097.36 -14.2077C1096.45 -13.0389 1097.76 -12.1298 1099.98 -12.3895C1102.72 -12.909 1104.29 -14.4674 1104.55 -16.935ZM1121.41 -35.7662C1119.32 -35.5064 1117.1 -34.3376 1115.4 -33.0389C1114.61 -32.3895 1114.61 -29.5324 1114.74 -29.5324C1118.14 -28.6233 1120.76 -30.1817 1122.98 -32.3895C1123.76 -34.0779 1123.24 -36.0259 1121.41 -35.7662ZM1151.34 -35.7662C1151.6 -42.5194 1147.28 -42.2597 1143.36 -41.7402C1139.57 -41.3506 1134.22 -40.4415 1136.31 -35.6363C1138.01 -31.8701 1142.97 -28.883 1147.81 -29.2727C1149.24 -29.2727 1150.42 -34.0779 1151.34 -35.6363V-35.7662ZM1165.84 29.2989C1165.84 29.2989 1162.97 28.13 1161.92 28.5196C1159.83 29.2989 1158 30.8573 1156.04 32.156C1157.09 32.8054 1158.13 33.5846 1159.18 34.234C1162.31 33.5846 1165.45 32.9352 1165.84 29.169V29.2989ZM1187.8 -18.883C1178.65 -15.6363 1171.98 -13.2986 1165.45 -10.9609L1164.14 -12.1298L1165.06 -10.5713C1172.9 -1.22066 1157.09 3.84428 1160.35 12.2859C1158.78 13.7144 1157.22 15.143 1155.65 16.5716L1154.6 17.7404L1156.17 16.9612C1157.74 15.5326 1159.31 14.104 1160.88 12.6755C1163.36 9.81832 1165.32 5.01312 1168.32 4.36377C1180.87 1.37675 1184.01 -7.06483 1187.93 -18.7532L1187.8 -18.883ZM1189.1 4.88325C1187.8 5.66247 1186.36 6.44169 1185.05 7.09105C1183.22 8.13001 1181.39 9.16897 1179.56 10.0781C1180.48 10.9872 1181.52 11.7664 1182.44 12.6755C1183.48 10.9872 1184.4 9.16897 1185.44 7.48065C1186.49 6.31182 1190.28 8.51962 1189.1 4.75338V4.88325ZM1247 -37.0649C1247 -37.0649 1248.3 -36.1558 1248.96 -36.1558C1249.35 -36.1558 1249.87 -36.935 1250.26 -37.3246C1249.87 -37.974 1249.61 -38.8831 1249.09 -39.0129C1247.13 -39.6623 1246.34 -38.7532 1247.13 -36.935L1247 -37.0649ZM1228.18 -35.1168L1229.09 -33.8181L1230.53 -33.0389L1229.49 -34.2077L1228.18 -35.1168ZM1216.68 -33.5584H1217.85L1217.46 -34.8571L1216.68 -33.5584ZM1237.59 36.3119C1231.58 35.2729 1225.7 34.234 1216.55 32.6755C1222.95 37.8703 1226.48 40.5976 1229.88 43.4547C1233.54 42.156 1236.02 39.6885 1237.59 36.3119ZM1249.22 -1.74014C1249.22 -6.2856 1249.22 -10.8311 1249.22 -15.5064C1250 -17.3246 1251.44 -19.0129 1251.44 -20.8311C1251.44 -22.3895 1248.83 -22.7791 1248.43 -21.4804C1247.91 -19.6622 1248.83 -17.5843 1249.09 -15.5064C1236.93 -18.3635 1224.65 -21.7402 1220.73 -5.11677C1218.77 3.06506 1209.62 2.9352 1204.39 7.35079L1203.48 8.77936L1204.66 7.61053C1209.62 9.0391 1210.27 22.6755 1219.42 12.156L1220.73 13.3248L1219.55 12.0261C1223.74 3.71441 1226.61 -7.45443 1237.46 8.13001C1240.2 12.0261 1247.26 15.4027 1251.96 10.4677C1254.97 7.22091 1253.01 1.89623 1249.09 -1.74014H1249.22ZM1310.38 -38.8831L1310.77 -37.4545L1311.42 -38.7532H1310.38V-38.8831ZM1309.73 9.42871C1309.73 11.3768 1309.59 13.3248 1309.46 15.143C1312.34 13.3248 1312.6 11.3768 1309.73 9.42871ZM1322.14 -13.5583C1320.96 -12.6492 1319.66 -11.7402 1318.48 -10.8311C1317.04 -10.3116 1315.61 -9.92197 1314.17 -9.92197C1311.82 -7.84404 1309.6 -4.9869 1306.33 -8.75314C1308.29 -9.92197 1310.38 -10.9609 1312.34 -12.1298C1306.07 -21.0908 1296.13 -12.909 1288.55 -17.3246C1294.7 -7.97392 1304.11 -0.0518267 1294.7 11.5066C1299.53 11.5066 1303.45 9.29884 1307.11 6.57157C1309.46 -0.0518221 1319.79 -1.74014 1319.14 -10.3116C1319.66 -11.87 1323.71 -10.3116 1322.27 -13.5583H1322.14ZM1334.16 -40.8311L1332.73 -41.3506V-40.3116L1334.16 -40.8311ZM1356.64 -31.6103C1353.77 -31.2207 1350.5 -30.0519 1348.28 -28.3636C1346.06 -26.5454 1347.75 -23.6882 1349.98 -23.948C1352.72 -24.2077 1355.2 -26.4155 1355.86 -26.8051C1358.73 -30.0519 1358.34 -31.9999 1356.51 -31.7402L1356.64 -31.6103ZM1430.87 -33.1688C1430.87 -33.1688 1431.92 -34.0779 1432.31 -34.5973C1432.05 -35.1168 1431.79 -36.1558 1431.52 -36.1558C1430.87 -36.1558 1429.82 -35.896 1429.56 -35.5064C1428.26 -33.8181 1428.78 -32.909 1430.87 -33.1688ZM1381.86 39.4288C1375.98 35.2729 1371.02 33.9742 1369.19 42.9353H1371.54C1374.28 39.9482 1378.07 39.5586 1381.99 39.4288H1381.86ZM1414.14 -38.6233C1397.55 -42.6493 1387.22 -36.4155 1376.51 -36.8051C1387.35 -34.7272 1398.2 -33.4285 1414.14 -38.6233ZM1448.9 -13.948C1445.64 -21.9999 1437.27 -13.1687 1431.52 -15.6363L1430.22 -16.8051L1431.39 -15.5064C1431.79 -11.6103 1431 -8.10379 1428.91 -4.72716C1425.9 0.0780435 1422.38 4.2339 1415.71 3.06507C1405.65 1.24688 1411.66 -4.59728 1412.57 -9.14275C1413.62 -14.3376 1409.18 -15.2467 1405.91 -17.0648C1401.47 -19.4025 1397.81 -17.3246 1395.45 -14.0778C1392.84 -10.5713 1388.27 -3.94794 1392.45 -2.25962C1408.39 4.10403 1398.72 16.7015 1401.99 25.7924C1405.65 25.6625 1408.92 24.6235 1411.14 21.7664C1410.74 21.2469 1410.35 20.8573 1410.09 20.3378C1410.88 20.3378 1411.66 20.3378 1412.44 20.4677C1417.54 17.7404 1415.45 3.84429 1427.21 11.6365C1433.35 15.7924 1439.23 17.7404 1444.46 11.8962C1451.26 4.36377 1452.69 -5.50638 1449.17 -14.0778L1448.9 -13.948ZM1492.68 -39.0129L1493.21 -37.5844L1493.99 -39.0129H1492.68ZM1467.72 -7.45444C1466.42 -8.75314 1464.98 -8.62327 1463.93 -7.1947C1463.67 -6.80509 1463.93 -5.63625 1464.19 -5.24664C1465.5 -3.94794 1466.81 -4.20768 1468.12 -5.50638C1468.12 -6.15573 1468.12 -7.06482 1467.72 -7.5843V-7.45444ZM1462.37 -21.3506L1461.06 -20.5713L1460.27 -19.4025L1461.58 -20.1817L1462.37 -21.3506ZM1466.42 -33.8181L1467.2 -35.1168L1465.89 -34.2077C1461.97 -32.3895 1456.75 -34.7272 1453.35 -30.7012C1458.18 -30.0519 1462.5 -30.961 1466.29 -33.8181H1466.42ZM1533.46 -16.5454C1531.76 -18.1038 1529.41 -21.2207 1528.62 -20.9609C1520.91 -17.9739 1512.81 -16.8051 1505.88 -10.3116C1499.48 -4.33755 1496.08 -25.1168 1485.37 -15.7661C1484.58 -14.4674 1480.79 -16.2856 1481.97 -12.909C1483.27 -13.6882 1484.45 -14.5973 1485.76 -15.3765C1495.3 -2.64923 1482.1 0.98714 1475.43 7.09105C1470.86 9.42871 1464.33 9.55858 1463.8 19.169C1468.77 14.3638 1472.3 10.9872 1475.83 7.61053C1481.45 11.5066 1486.15 17.4807 1494.91 12.6755C1498.7 10.5975 1502.62 13.5846 1506.01 15.7924C1512.81 10.3378 1523.26 7.87026 1520.78 -4.46742C1519.61 -10.8311 1526.92 -14.3376 1533.46 -16.2856V-16.5454ZM1542.61 -14.0778C1540.78 -14.0778 1538.95 -14.0778 1537.12 -14.2077C1538.82 -11.9999 1540.65 -11.87 1542.61 -14.0778ZM1553.98 -5.76612C1550.05 -4.46742 1540.65 -8.62327 1545.61 1.50662C1549.53 0.207914 1552.15 -2.38949 1553.98 -5.76612ZM1553.98 -16.0259C1552.02 -18.2337 1549.92 -19.5324 1547.18 -16.935C1549.4 -16.6752 1551.75 -16.4155 1553.98 -16.0259ZM1602.46 5.40273C1599.98 -13.2986 1599.85 -13.1687 1582.99 -20.4415C1572.66 -24.8571 1573.19 -31.3506 1579.85 -38.4934L1580.63 -39.6623L1579.33 -38.8831C1565.34 -37.7142 1551.49 -38.8831 1538.55 -43.2987C1531.5 -45.7662 1526.01 -45.1168 1520.13 -41.9999C1516.6 -40.1818 1511.89 -38.4934 1513.86 -33.6882C1515.68 -29.4025 1521.83 -29.0129 1524.31 -30.961C1535.42 -39.7922 1546.4 -35.5064 1558.29 -33.0389C1564.43 -31.7402 1570.05 -32.5194 1570.05 -25.3765C1570.05 -17.7142 1574.36 -7.32456 1559.73 -6.2856C1558.29 -9.01288 1556.72 -11.87 1555.28 -14.5973C1555.28 -11.9999 1555.28 -9.40249 1555.28 -6.80508C1556.72 -6.54534 1558.03 -6.41547 1559.46 -6.15573C1559.59 -4.59728 1559.73 -3.03884 1560.12 -1.61027C1561.03 1.63649 1558.55 6.8313 1564.17 7.48065C1568.35 8.00014 1571.62 5.14299 1572.92 0.987137C1574.23 -3.29859 1573.71 -8.75314 1579.59 -10.1817C1584.82 -11.4804 1591.35 -13.948 1591.61 -4.85703C1591.79 0.597528 1595.36 4.06073 1602.33 5.5326L1602.46 5.40273ZM1605.33 -37.3246L1604.42 -38.6233C1602.59 -39.7922 1600.76 -40.4415 1599.06 -38.6233C1596.71 -37.974 1594.23 -37.4545 1592.14 -36.4155C1590.44 -35.5064 1587.3 -34.3376 1590.04 -31.7402C1590.44 -31.3506 1593.05 -32.5194 1594.23 -33.4285C1596.06 -34.8571 1597.62 -36.6753 1599.19 -38.3636L1601.54 -38.6233L1603.9 -38.3636L1605.2 -37.4545L1605.33 -37.3246ZM1634.22 -5.76612C1637.22 -7.45444 1640.23 -9.14275 1643.23 -10.8311C1644.28 -11.9999 1645.45 -12.909 1646.11 -14.2077C1647.02 -16.0259 1648.33 -17.9739 1645.72 -19.6622C1645.19 -18.3635 1644.67 -16.935 1644.15 -15.6363C1643.62 -14.2077 1643.1 -12.909 1642.58 -11.4804C1639.57 -9.7921 1636.7 -7.97392 1633.69 -6.2856C1627.94 -5.50638 1624.81 -2.25962 1623.37 2.80533L1622.45 4.10403L1623.76 3.06507C1631.99 2.15597 1622.32 16.9612 1633.69 13.0651C1640.36 10.7274 1644.41 6.18195 1647.15 -0.0518252C1642.06 -1.74014 1636.31 -0.441434 1634.22 -5.89599V-5.76612ZM1654.6 -32.909L1653.43 -34.0779L1652.12 -35.2467L1653.16 -33.8181L1654.73 -32.909H1654.6ZM1668.32 -37.974C1668.32 -37.974 1666.49 -40.4415 1665.19 -41.0909C1663.1 -42.1298 1660.61 -42.6493 1658.26 -43.4285L1656.95 -44.4675L1657.87 -43.1688C1659.57 -41.4805 1661.01 -39.6623 1662.97 -38.2337C1664.53 -37.0649 1666.76 -34.5973 1668.32 -38.2337V-37.974ZM1705.05 15.4027C1705.05 15.4027 1703.87 14.2339 1703.35 14.3638C1701.26 14.6235 1701.13 15.6625 1702.83 17.0911C1703.22 17.4807 1704.13 17.3508 1704.65 17.3508C1704.79 16.7015 1705.18 15.9222 1705.05 15.4027ZM1734.45 -18.6233C1734.45 -18.6233 1734.71 -20.0519 1734.45 -20.4415C1734.19 -20.7012 1733.01 -20.8311 1732.62 -20.5713C1730.92 -19.4025 1730.92 -18.2337 1732.62 -17.7142C1733.14 -17.5843 1733.93 -18.2337 1734.58 -18.4934L1734.45 -18.6233ZM1787.25 -41.8701C1775.09 -42.6493 1766.21 -39.7922 1761.37 -29.4025L1760.59 -28.2337L1761.89 -29.0129C1767.91 -37.0649 1783.59 -27.5843 1787.38 -41.9999L1787.25 -41.8701ZM1792.47 4.36377C1792.61 7.87027 1792.74 11.3768 1793 14.8833C1801.49 11.117 1801.49 10.9872 1792.47 4.36377ZM1816.65 -21.9999C1815.08 -23.0389 1813.91 -22.5194 1813.51 -20.7012C1813.51 -20.3116 1814.17 -19.2726 1814.43 -19.2726C1815.08 -19.2726 1815.74 -19.922 1816.39 -20.1817C1816.39 -20.7012 1816.91 -21.7402 1816.65 -21.87V-21.9999ZM1829.46 -14.0778C1828.28 -13.948 1827.63 -13.2986 1827.5 -12.1298H1829.33V-14.0778H1829.46Z" fill="#0082C8"/>
<path d="M864.875 35.7924C858.733 33.5846 846.971 39.2989 845.534 45.1431C845.011 47.3509 846.318 49.299 849.193 50.3379C855.205 47.7405 862.262 46.0522 867.097 40.9873C868.534 39.4288 867.358 36.5717 864.875 35.6626V35.7924Z" fill="#0082C8"/>
<path d="M307.897 21.6365C304.761 21.6365 300.84 22.0261 300.579 25.6625C300.187 31.3768 305.806 29.8183 309.074 30.7274C312.079 29.8183 316.261 29.9482 315.346 25.5326C314.562 22.0261 311.164 21.5066 307.897 21.6365Z" fill="#0082C8"/>
<path d="M1428.91 42.286C1426.69 42.9353 1424.34 43.3249 1422.11 43.8444C1420.42 42.9353 1418.72 41.8964 1416.89 40.9873C1416.89 40.9873 1416.1 41.8964 1415.58 42.4158C1417.41 43.1951 1419.24 43.9743 1421.2 44.8834C1424.07 46.0522 1426.82 48.1301 1429.69 48.1301C1435.31 48.1301 1440.67 46.312 1444.2 41.8964C1444.72 41.1171 1444.2 38.6496 1443.29 38.0003C1436.75 33.7145 1433.75 40.8574 1429.04 42.286H1428.91Z" fill="#0082C8"/>
<path d="M898.331 38.9092C894.541 40.5976 891.535 43.195 892.711 47.4807C893.626 50.7275 896.762 52.2859 900.291 51.2469C903.819 50.208 904.473 46.9612 904.342 43.8443C904.211 40.5976 902.774 38.13 898.331 38.9092Z" fill="#0082C8"/>
<path d="M1269.08 47.0911C1264.25 47.4807 1259.41 48.7794 1257.71 53.7145C1256.67 56.5716 1259.02 57.7405 1261.5 58.0002C1266.99 58.3898 1270.52 55.7924 1272.35 51.7664C1273.26 48.3898 1271.83 46.7015 1268.95 46.9612L1269.08 47.0911Z" fill="#0082C8"/>
<path d="M1053.45 39.6885C1049.01 39.8183 1045.74 42.156 1044.04 45.7924C1043 48.0002 1044.17 49.9482 1047.31 50.4677C1052.02 49.8184 1056.98 48.7794 1058.16 43.4547C1058.68 40.8573 1056.07 39.6885 1053.45 39.6885Z" fill="#0082C8"/>
<path d="M771.958 38.7794C769.998 37.6106 768.038 36.0521 765.947 35.5327C762.941 34.7534 758.629 34.7534 758.498 38.5197C758.236 43.0651 762.68 41.1171 765.424 41.1171C766.992 41.1171 768.561 41.1171 770.259 41.1171C773.919 44.8833 777.447 50.208 783.458 44.234C784.765 42.9353 785.419 39.5586 784.504 38.3898C780.453 33.195 776.14 37.3508 772.089 38.7794H771.958Z" fill="#0082C8"/>
<path d="M1112.78 36.9612C1107.16 35.7924 1106.12 39.6885 1105.34 43.5846C1104.94 44.1041 1104.29 44.7534 1104.16 45.2729C1104.16 45.5326 1104.94 46.3119 1105.2 46.3119C1105.86 46.182 1106.51 45.5327 1107.03 45.143C1110.3 44.7534 1113.7 44.2339 1114.48 40.5976C1114.74 39.4287 1113.57 37.0911 1112.65 36.8313L1112.78 36.9612Z" fill="#0082C8"/>
<path d="M879.512 41.1171C877.552 41.1171 876.898 42.156 877.552 43.7145C877.813 44.2339 878.466 44.8833 879.12 45.143C880.819 45.9223 882.387 45.4028 882.126 43.7145C882.126 42.8054 880.427 41.8963 879.512 41.1171Z" fill="#0082C8"/>
<path d="M281.76 25.7924C280.584 27.221 280.976 28.6495 282.806 29.169C285.289 29.8184 287.119 28.6495 287.249 26.3119C287.249 25.4028 285.942 24.4937 285.158 23.5846C283.982 24.3638 282.675 24.8833 281.76 25.7924Z" fill="#0082C8"/>
<path d="M648.069 35.1431V35.0132L647.939 35.1431H648.069Z" fill="#0082C8"/>
<path d="M659.178 9.03909C653.558 8.25987 653.297 12.6755 653.166 16.5716C656.302 16.5716 659.439 16.5716 662.575 16.5716C662.837 13.4547 662.837 9.68844 659.178 9.16896V9.03909Z" fill="#0082C8"/>
<path d="M1241.64 2.15601C1241.51 2.93523 1243.34 4.88329 1244.12 4.88329C1248.3 4.62354 1248.57 1.24692 1249.22 -1.61023C1246.21 -1.22062 1242.55 -1.61023 1241.64 2.15601Z" fill="#0082C8"/>
</svg>
