<svg width="1440" height="65" viewBox="0 0 1440 65" fill="none" xmlns="http://www.w3.org/2000/svg">
<g clip-path="url(#clip0_95_571)">
<path d="M-702.426 95.3251C-698.505 74.8056 -692.232 68.7017 -674.328 67.9224C-671.715 72.7276 -676.55 76.6238 -676.158 81.1692C-675.766 84.9355 -676.158 89.4809 -670.8 90.0004C-664.919 90.6498 -665.18 86.1043 -664.658 82.338C-663.874 76.364 -656.817 77.7926 -653.68 74.5458C-656.032 74.0263 -659.3 73.6367 -659.169 71.1692C-659.169 68.7017 -655.902 68.312 -653.419 68.1822C-651.328 66.4939 -649.237 66.364 -647.015 68.1822C-638.782 62.5977 -631.333 58.312 -633.947 45.4549C-635.776 36.7535 -623.884 33.8964 -612.253 39.4808C-609.901 38.8315 -607.548 38.4419 -605.196 37.6626C-601.929 36.6237 -598.531 35.9743 -596.31 38.8315C-593.827 41.8185 -595.656 44.4159 -598.531 46.4938C-603.105 49.7406 -607.679 52.8575 -612.253 56.1042C-611.861 57.5328 -611.861 59.4809 -610.946 60.39C-599.185 71.2991 -606.764 73.2471 -619.572 72.9874C-599.577 81.8186 -592.912 80.39 -579.582 65.1952C-579.974 64.6757 -580.889 64.0263 -580.758 63.6367C-580.497 62.2081 -579.451 62.2081 -578.014 63.7666C-573.309 62.4679 -568.604 61.299 -563.9 60.0003C-556.843 63.8099 -550.134 61.5588 -543.774 53.2471C-551.615 52.4679 -555.144 62.7276 -563.638 59.6107C-565.729 56.2341 -556.973 41.8185 -572.525 52.0783C-576.446 54.6757 -580.497 54.0263 -582.718 50.1302C-584.809 46.6237 -583.764 42.7276 -580.889 39.6107C-571.872 30.1302 -561.678 30.7795 -550.047 41.6886C-543.644 38.5717 -546.388 30.0003 -539.985 27.0133C-539.462 26.6237 -538.939 26.234 -538.416 25.9743C-538.286 25.9743 -537.501 26.6237 -537.501 26.7535C-537.763 27.273 -538.286 27.7925 -538.678 28.312C-533.842 33.1172 -529.268 29.0912 -524.564 27.7925L-523.126 26.4938L-524.433 27.7925C-519.336 31.1691 -514.762 36.7535 -508.49 28.5717C-505.222 24.286 -501.563 19.6107 -495.421 18.5717C-488.233 17.5327 -487.057 21.299 -488.887 26.8834C-488.495 27.7925 -488.103 28.7016 -487.711 29.6107C-488.756 29.2211 -489.671 28.9613 -490.717 28.5717C-492.938 30.5198 -499.864 34.286 -492.415 35.0652C-480.523 36.3639 -482.745 44.286 -480.392 50.3899C-497.25 49.2211 -514.893 45.5847 -524.433 64.4159C-523.91 64.6757 -522.865 65.0653 -522.865 65.325C-523.126 66.4939 -523.78 66.2341 -524.564 64.5458C-536.761 66.4506 -543.295 74.1562 -544.167 87.6627C-549.655 93.7666 -555.144 100 -565.991 97.5329C-555.928 100.13 -546.519 100.909 -537.11 101.948C-532.927 102.468 -531.098 100.52 -530.836 97.0134C-530.183 88.3121 -535.541 95.5848 -537.894 94.6757C-541.161 93.5069 -543.121 91.2991 -543.382 87.9225C-533.45 78.9614 -518.16 83.7666 -507.706 75.7147C-504.961 73.6367 -498.035 74.6757 -500.256 69.351C-502.609 63.8964 -501.433 59.6107 -497.251 57.4029C-489.932 53.5068 -492.677 67.0133 -485.228 64.5458C-483.921 65.4549 -486.012 68.7016 -482.483 67.9224C-483.267 66.7536 -484.182 65.5848 -484.966 64.2861C-485.881 58.9614 -483.137 54.8055 -480.131 50.7795C-474.25 42.7276 -465.494 36.4938 -463.534 25.9743C-462.881 22.7275 -459.744 17.7925 -455.17 21.1691C-453.079 22.7275 -453.994 27.9224 -453.602 31.6886C-447.983 29.4808 -445.107 25.4548 -442.363 20.7795C-440.142 17.1431 -433.477 17.4029 -432.431 21.299C-427.204 42.4678 -410.215 33.7665 -396.624 34.0263C-395.839 28.9613 -394.794 23.8964 -394.271 18.7016C-394.01 15.3249 -393.095 12.4678 -389.305 11.9483C-385.646 11.5587 -382.51 13.6366 -381.987 16.7535C-379.635 29.0912 -372.839 22.2081 -366.435 20.6496C-359.901 19.0912 -355.327 10.0002 -345.264 17.0132C-357.679 26.4938 -365.913 38.0522 -366.043 53.3769C-360.424 42.4678 -347.617 39.8704 -338.469 32.9873C-327.099 24.5457 -327.622 34.0262 -326.446 40.5198C-321.872 37.273 -316.645 35.8444 -311.025 35.7146C-306.843 35.5847 -301.616 34.1561 -301.746 30.3899C-302.269 13.3769 -292.729 22.5977 -285.672 24.286C-283.843 24.6756 -281.36 22.8574 -279.138 22.0782C-278.093 21.6886 -277.047 21.299 -275.871 20.9093C-276.263 21.9483 -276.786 22.8574 -277.178 23.8964C-276.524 26.7535 -275.871 29.7405 -275.348 32.5977C-265.677 24.6756 -250.91 42.0782 -241.893 25.9743C-238.103 19.221 -230.393 28.3119 -224.12 27.6626C-224.12 29.221 -224.12 30.6496 -224.12 32.2081C-219.284 31.299 -215.886 35.0652 -209.222 36.7535C-213.273 29.7405 -210.398 18.0522 -224.12 27.5327C-226.341 23.1171 -230.785 18.7015 -225.688 13.6366C-220.33 8.31191 -215.756 13.6366 -211.051 15.195C-208.83 15.8444 -206.869 17.1431 -204.778 18.0522C-202.557 14.9353 -199.42 13.247 -195.5 12.8574C-193.409 10.7794 -191.187 10.7794 -189.096 12.8574C-174.198 10.6496 -173.806 10.6496 -177.335 21.8184C-178.511 25.7145 -177.204 29.0912 -177.073 32.7275C-176.42 50.26 -185.829 55.5847 -202.949 47.4029C-208.176 61.6886 -187.528 70.3899 -194.846 85.5848C-182.562 78.1822 -181.255 61.8185 -165.312 59.8704L-164.005 61.0393L-165.05 59.6107C-165.965 55.4548 -151.328 55.7146 -162.306 47.1431C-167.533 42.9873 -152.896 39.4808 -151.459 32.8574C-153.942 30.9093 -154.204 28.9613 -151.59 26.8834C-150.022 22.7275 -158.386 15.5847 -148.715 14.9353C-146.363 14.8054 -130.157 7.53268 -135.124 23.8963C-136.43 28.3119 -128.197 33.247 -130.027 39.7405C-119.572 36.1042 -125.976 27.5327 -125.061 21.6885C-123.754 13.3768 -120.748 9.09112 -112.123 8.18203C-111.47 7.79242 -110.947 7.27293 -110.293 7.01319C-110.032 7.01319 -109.117 7.79241 -109.248 8.05216C-109.379 8.70151 -110.032 9.22099 -110.424 9.74047C-113.038 20.0002 -113.169 30.26 -110.555 40.5198C-103.106 34.0262 -94.0885 28.9613 -88.7304 20.26C-86.7702 17.0132 -84.0259 13.1171 -79.4519 15.7145C-75.1393 18.182 -77.0996 22.4678 -78.6679 25.8444C-79.5827 27.9223 -81.02 29.8704 -82.1962 31.8184C-83.7644 33.247 -85.202 34.6756 -86.7703 36.1042C-88.5999 37.6626 -90.5601 39.0912 -92.1283 40.7795C-94.4807 43.5068 -99.4465 45.1951 -96.7022 50.0003C-96.0487 51.1691 -93.958 52.338 -92.7817 52.2081C-87.4237 51.299 -88.2079 46.8834 -87.6851 43.3769C-87.2931 41.1691 -86.7703 38.9613 -86.3782 36.7535C-84.8099 35.3249 -83.3723 33.8964 -81.8041 32.4678C-75.0086 30.6496 -63.247 38.3119 -63.247 23.7665C-66.6448 22.208 -71.7415 20.0002 -69.3892 16.3639C-65.4686 10.6496 -59.1957 7.79242 -52.0081 12.9872C-40.5078 2.33785 -27.178 3.76643 -13.5868 8.3119C-13.064 7.92229 -12.5414 7.4028 -12.0186 7.27293C-11.888 7.27293 -11.1039 7.92228 -11.1039 8.05215C-11.3652 8.57163 -11.888 9.09111 -12.28 9.61059C-15.155 20.9093 -24.1723 18.9613 -32.6668 17.9223L-34.1044 16.8833L-33.0588 18.182C-23.2575 32.0782 -21.0358 32.5976 -8.09803 25.195C-3.52406 22.5976 1.57262 20.6496 6.40795 18.3119C3.53295 17.5327 -0.387705 17.9223 -0.649058 13.7664C-0.649058 12.8574 1.31115 11.0392 2.22594 11.169C6.53856 11.4288 6.14647 15.0651 7.06127 17.7924C12.1579 17.1431 16.4706 15.3249 19.7377 11.5587C21.698 9.35086 26.1412 5.45474 26.6639 7.01318C30.5845 19.6106 49.5339 2.20798 51.102 18.0522C49.5339 19.6106 47.8348 21.0392 46.2666 22.5976L44.96 23.7665L46.3975 22.7275C47.9657 21.169 49.6645 19.7405 51.2327 18.182C59.5965 23.247 52.6703 29.221 52.1476 34.6756C51.7555 38.9613 51.6247 45.1951 44.6985 43.7665C41.8234 43.247 39.8632 38.3119 35.9426 33.5067C30.9767 43.5068 26.4027 52.5977 20.9139 63.3769C30.9767 66.6237 39.6018 53.1172 48.227 64.5457C50.7101 67.7925 57.5057 57.9224 62.9945 54.9353C71.4889 50.3899 60.9034 43.6366 65.2161 38.0522C76.0629 37.1431 89.7847 39.7405 87.8245 21.2989C87.3017 16.7535 96.1882 12.8573 103.768 11.2989C107.819 19.8703 103.899 29.3509 109.518 37.6626C113.439 43.5067 105.336 48.1821 101.154 52.7275C95.1428 59.2211 95.6655 64.0263 103.899 69.4808C115.268 77.1432 114.615 77.5328 102.592 88.0523C100.109 90.2601 98.4098 94.5458 100.631 98.4419C120.496 101.429 125.2 88.7016 128.859 74.8055C124.939 73.7665 120.626 72.9873 118.797 69.2211C115.53 62.7276 122.979 32.208 129.774 30.1301C149.9 24.0262 167.281 11.6885 188.582 8.57161C192.633 7.92226 196.946 7.79239 200.083 10.5197C201.651 11.8184 202.958 14.156 203.088 16.234C203.088 18.7015 200.605 19.221 198.122 19.8703C193.679 20.9093 187.145 12.0781 184.792 22.208C185.315 22.7275 186.23 23.247 186.23 23.6366C185.969 25.0652 184.923 24.9353 183.747 23.247C170.025 21.169 168.065 42.4678 152.383 37.273C152.252 37.273 150.422 39.7405 150.814 40.5197C157.61 55.9743 144.149 59.8704 134.479 66.2341C132.911 67.273 132.78 70.1302 131.996 72.2081C136.178 75.4549 136.047 83.7666 142.843 82.9873C148.854 82.338 151.99 77.273 150.422 70.9094C149.638 67.5328 151.337 64.0263 154.735 63.7665C169.894 62.8574 173.946 51.6886 180.218 41.6886C183.878 35.8444 190.542 32.3379 197.991 30.5197C201.781 29.6106 208.185 27.1431 208.185 25.4548C207.923 -1.55828 227.918 16.1041 238.373 13.2469C247.695 6.58027 253.228 9.35083 254.97 21.5586C258.368 18.7015 256.669 12.0781 263.334 11.4288C266.601 31.9483 270.26 34.0262 295.221 28.4418C300.84 27.1431 307.113 24.9353 311.295 29.4807C316.131 34.8054 322.273 30.0002 327.5 32.9872C331.029 39.8704 320.966 40.3898 320.182 45.3249C319.79 47.9223 320.704 49.8704 322.795 51.1691C325.017 52.5976 328.546 52.4678 329.068 50.5197C333.642 32.8574 350.631 31.9483 364.745 26.8833C366.967 26.1041 368.796 24.4158 370.887 23.1171C370.887 23.1171 371.149 22.8573 371.41 22.7275L370.887 23.1171C363.438 22.3379 356.774 20.1301 352.592 10.5197C363.7 11.8184 373.763 4.6755 382.91 13.3768C387.876 18.0521 386.57 22.9872 382.126 27.5327C383.041 29.6106 383.694 31.8184 385.001 33.7665C388.007 38.3119 398.462 39.7405 393.234 47.7924C389.575 53.3769 378.337 51.0392 370.757 43.5067C369.189 41.9483 368.666 39.3509 363.961 39.4807C362.262 47.1431 347.103 49.0912 355.467 62.9873C360.171 70.9094 346.972 70.6496 336.779 74.286C347.887 76.4938 353.898 78.312 360.041 78.7016C366.313 79.2211 372.586 79.8704 376.115 71.9483C382.78 56.6236 400.422 50.3898 410.746 37.9223C416.104 31.4288 424.468 30.9093 432.44 31.5586C436.752 24.4158 426.167 17.6625 432.309 11.6885C438.582 5.58458 445.9 13.6365 453.741 11.0391C455.963 20.0002 444.986 26.3638 449.821 35.3249C452.435 40.1301 454.003 43.5067 460.276 40.6496C465.372 35.8444 471.776 31.6885 474.651 25.9742C475.697 23.7664 465.634 18.9612 475.566 13.7664C481.708 10.6495 487.719 9.87029 493.862 8.96121C499.089 8.31185 503.402 11.6885 503.402 17.0132C503.402 24.0262 495.953 20.5197 491.64 23.2469C496.214 32.3379 507.061 30.9093 513.856 35.4547C517.385 30.5197 521.828 26.8833 528.493 26.1041C528.885 24.8054 529.146 23.6365 529.277 22.3378C530.584 21.0391 531.891 19.7404 533.198 18.3119C532.022 18.182 530.715 18.0521 529.408 17.9222C529.408 19.3508 529.146 20.7794 529.146 22.208C527.317 21.4287 525.487 20.7794 523.658 20.0002C525.357 19.0911 527.186 18.3119 528.885 17.4028C530.584 15.0651 532.544 15.195 534.505 17.143C552.147 13.5067 569.789 10.7794 586.909 18.9612C593.705 22.208 599.586 17.143 605.989 17.143C609.256 17.143 613.307 17.143 614.745 20.0002C617.097 24.2859 613.046 26.6236 610.04 29.221C603.245 34.9353 596.841 37.0132 588.477 30.9093C582.335 26.3638 574.886 25.7145 568.352 31.5586L567.176 32.7275L568.744 31.8184C574.363 35.5846 580.114 39.4807 588.085 44.8054C571.227 50.1301 572.665 65.4548 565.346 75.7146C571.488 78.1821 577.238 74.286 583.381 72.9873C586.648 76.1042 589.915 79.2211 593.182 82.3379L594.62 83.1172L593.574 82.0782C592.659 76.8834 589.131 73.8964 583.773 72.5977C585.079 65.3249 592.529 63.7665 597.233 59.7405C596.972 58.4418 596.449 57.1431 596.318 55.8444C596.318 55.3249 597.364 54.8054 597.887 54.4158C601.154 48.3119 605.336 42.9872 612.131 40.0002C612.785 40.5197 613.438 41.0392 614.091 41.5586C615.79 43.8963 617.62 44.9353 619.972 42.3379C618.012 42.0781 616.052 41.8184 614.091 41.5586C613.438 41.0392 612.785 40.5197 612.131 40.0002C616.574 35.4547 619.842 27.7924 628.336 35.3249C629.774 25.3249 629.12 13.5067 646.632 19.0911C649.246 19.8703 652.905 17.6625 656.041 17.0131C659.178 16.3638 662.314 15.195 665.581 17.0131C669.632 22.4677 666.888 28.7015 667.672 34.6755C668.064 38.4418 668.456 42.8573 674.076 42.4677C678.127 42.208 682.178 40.5197 682.309 35.5846C682.44 30.3898 680.349 24.9352 685.968 18.5716C689.758 29.4807 699.167 36.3638 699.167 48.7015C711.713 44.5457 711.844 33.6365 711.19 29.3508C709.099 15.0651 715.503 17.2729 724.52 20.9093C731.838 23.8963 737.066 28.3119 736.282 36.4937C736.02 39.7405 733.537 43.3768 730.27 41.0392C715.111 30.3898 717.986 42.4677 716.94 49.8703C716.679 51.4288 716.418 52.8574 716.287 54.4158C704.525 55.5846 698.645 60.1301 701.127 72.5977C703.741 85.1951 712.628 82.9873 721.514 82.2081C724.781 85.5847 727.918 85.7146 731.054 82.2081C728.049 81.9483 725.043 81.8184 722.037 81.5587C722.037 78.7016 720.861 74.9353 722.429 72.9873C725.958 68.4418 733.929 64.6756 720.73 62.4678C717.724 61.9483 716.679 58.182 717.071 54.9353C720.992 54.0262 725.043 53.3768 728.963 52.208C747.128 46.6236 747.128 46.4937 746.214 27.6625C746.083 24.4158 746.606 21.2989 749.873 20.0002C753.793 18.4417 755.1 21.6885 756.799 24.4157C764.379 35.9742 766.862 47.9223 761.634 61.0392C758.629 68.5717 755.623 76.234 755.754 86.1042C768.953 81.9483 761.765 64.9353 775.356 63.8963C776.01 69.8704 776.794 75.9743 777.447 81.9483C794.262 84.1128 804.412 77.6626 807.897 62.5976C796.919 67.4028 786.073 75.3249 776.14 63.3769C784.243 48.182 793.129 44.6755 812.994 49.221C815.607 42.9872 812.994 37.6625 809.465 32.5976C803.584 41.6885 794.436 35.8443 786.726 36.8833C786.595 38.9612 786.465 41.0392 786.203 43.1171C784.896 42.5976 782.544 41.9482 782.675 41.6885C783.197 39.6106 783.982 37.6625 784.766 35.7145C788.251 27.5759 796.876 25.9742 810.641 30.9093C814.431 29.4807 818.09 27.6625 820.965 32.3378C823.84 36.8833 826.715 41.2989 829.721 45.8443L831.159 46.7534L830.113 45.4547C831.42 41.8184 832.466 38.182 834.034 34.6755C836.125 29.8703 837.824 23.117 845.011 24.5456C852.722 26.1041 850.761 32.9872 849.454 37.7924C847.494 44.5456 851.284 47.6625 856.381 50.6496C863.568 54.8054 865.267 61.0392 864.353 68.4418C862.654 69.8704 861.085 71.1691 859.387 72.5976C848.017 71.0392 839.784 74.9353 834.295 84.4158C844.75 91.6886 854.813 91.9483 865.267 87.6626C868.012 87.6626 870.887 87.4029 873.631 87.4029C874.023 92.3379 874.285 97.4029 874.677 102.338C875.984 97.1431 886.308 91.6886 874.415 86.6236C874.023 85.1951 874.023 83.6366 874.415 82.208L875.33 81.0392L874.023 81.8184C870.887 83.5067 867.75 85.3249 864.614 87.0132C860.04 87.273 854.29 88.5717 851.938 84.286C848.54 77.9223 856.642 76.6236 859.517 72.9873C861.085 71.5587 862.654 70.1301 864.222 68.7015C871.279 64.0262 872.716 56.8833 874.807 49.6106C876.637 43.3768 881.342 38.9612 888.66 45.3249C893.365 45.0651 897.939 44.6755 902.643 44.4158C904.865 42.208 906.956 42.4677 908.916 44.6755C914.143 44.2859 916.757 41.5586 917.28 36.8833C916.888 36.3638 916.104 35.7145 916.234 35.3248C916.496 33.8963 917.672 33.8963 918.979 35.3248C924.99 32.9872 932.831 32.0781 936.621 27.9222C947.337 16.104 959.099 30.7794 970.338 25.8443C973.213 24.5456 977.787 33.6365 976.349 38.8313C974.389 46.2339 972.167 53.247 976.741 62.4677C985.236 57.5327 996.083 56.234 987.98 43.2469C985.628 39.3508 986.673 33.117 992.816 32.3378C999.48 31.5586 1008.37 23.5066 1012.94 35.4547C1013.46 36.4937 1013.86 37.5326 1014.38 38.5716C1013.2 38.182 1012.16 37.6625 1010.98 37.2729C1000.79 42.7275 1008.76 50.6495 1007.45 57.7924C1015.29 56.6236 1023.4 57.0132 1021.57 46.3638C1020.65 41.5586 1023 37.4028 1025.23 33.3768C1028.75 26.4937 1035.16 25.0651 1041.69 27.7924C1047.96 30.5196 1044.83 35.4547 1041.95 39.2209C1038.82 43.3768 1038.42 47.4028 1041.17 51.9482C1045.22 58.8314 1048.62 65.5846 1039.6 72.0781C1037.25 73.7665 1037.64 78.0522 1041.43 79.4808C1044.96 80.6496 1047.31 77.9223 1049.53 75.7145C1053.71 71.5587 1051.23 67.1431 1050.71 62.7275C1049.4 51.4288 1053.32 41.5586 1061.29 33.2469C1067.04 27.143 1073.97 28.5716 1075.54 36.4937C1076.98 43.8963 1076.06 51.6885 1076.19 59.221C1077.89 60.6495 1079.72 62.0781 1081.42 63.5067C1090.57 58.0521 1098.28 49.7404 1110.56 50.2599L1111.87 51.4287L1110.69 50.13C1109.12 45.3248 1106.77 41.8183 1100.37 42.8573C1094.88 43.7664 1091.87 50.5197 1083.64 48.3119C1084.43 34.9352 1096.19 30.9092 1106.25 28.9612C1122.45 25.8443 1118.01 44.4158 1127.29 49.4807C1130.43 37.0131 1142.32 31.2988 1155.91 32.5975C1169.89 34.0261 1184.14 32.5975 1198.25 32.4677C1197.86 31.5586 1197.34 30.6495 1196.94 29.6105C1197.99 30.0001 1198.91 30.3897 1199.95 30.7794C1205.57 28.3118 1215.37 24.0261 1211.97 34.5456C1208.05 46.8833 1217.85 60.0002 1207.14 71.6885C1204 75.0651 1208.84 80.0002 1215.24 77.5327C1218.25 76.3638 1220.86 74.6755 1223.74 73.247C1225.3 74.6755 1226.87 76.234 1228.44 77.6625C1230.01 78.182 1230.66 81.8184 1233.28 79.0911C1231.71 78.5716 1230.27 77.9223 1228.7 77.4028C1227.13 75.8444 1225.7 74.4158 1224.13 72.8573C1219.42 59.6106 1232.62 48.0521 1227.79 34.4157C1226.61 30.9092 1231.97 27.2729 1238.37 29.2209C1257.45 35.0651 1275.88 31.2988 1293 23.8962C1300.19 29.3508 1292.74 34.4157 1294.3 39.2209C1295.87 44.0261 1299.66 40.7794 1302.41 41.169C1302.41 44.156 1302.41 47.143 1302.41 50.13L1301.49 51.2989L1302.93 50.5196C1305.15 47.2729 1314.69 44.156 1302.93 40.7794C1303.19 32.8573 1310.12 29.4806 1315.21 24.8053C1323.06 25.8443 1316.91 32.5975 1320.57 35.5845C1325.8 39.8703 1329.46 34.4157 1333.77 34.0261C1353.51 32.0781 1374.02 33.7664 1392.45 24.6754C1393.1 24.4157 1394.93 26.2339 1396.24 27.143C1407.74 32.2079 1420.02 31.0391 1431.79 29.6105C1439.5 28.5715 1446.94 26.3637 1451.13 33.3767C1455.7 40.9092 1445.77 43.5066 1441.98 48.4417C1447.86 49.7404 1451.39 47.4027 1455.44 44.2859C1461.06 40.0001 1464.19 42.5975 1463.8 48.9612C1463.54 52.2079 1463.15 55.5846 1467.59 55.4547C1470.99 55.4547 1472.82 52.3378 1473.47 49.2209C1473.87 47.0131 1473.87 44.6755 1473.73 42.4677C1473.47 37.4027 1470.34 31.2988 1477.39 28.5715C1484.45 25.8443 1486.93 32.3378 1490.72 35.9741C1497.39 42.3378 1501.83 40.6495 1503.92 32.3378C1503.4 31.8183 1502.35 31.2988 1502.35 30.9092C1502.62 29.3508 1503.66 29.6105 1504.84 31.4287C1518.95 24.1559 1534.37 35.1949 1548.88 28.9611C1551.49 27.7923 1553.71 32.3378 1555.02 35.1949C1557.9 41.5586 1565.74 41.4287 1570.7 45.4547C1573.71 47.9222 1578.15 43.3768 1580.77 40.7793C1585.34 36.104 1578.28 37.4027 1576.98 35.7144C1573.58 31.2988 1575.67 27.2728 1580.11 27.7923C1601.94 30.7793 1624.02 24.4157 1645.59 30.2598C1648.98 31.1689 1651.07 33.3767 1652.12 36.4936C1648.72 38.0521 1645.45 39.4806 1642.06 41.0391C1641.66 41.5586 1640.88 42.2079 1641.01 42.5975C1641.14 43.6365 1641.8 44.6754 1642.19 45.8443C1644.02 47.7923 1642.19 54.0261 1648.07 51.0391C1649.11 50.5196 1644.93 47.143 1642.45 45.7144C1642.45 44.2858 1642.45 42.8573 1642.45 41.4287C1646.24 40.7793 1649.77 39.6105 1652.12 36.6235C1670.42 30.9092 1688.97 23.8962 1704.79 41.6884C1706.48 43.6365 1709.1 45.3248 1710.67 43.8962C1717.72 37.7923 1723.34 38.5715 1728.44 45.7144C1768.3 34.4157 1803.97 54.9352 1841.87 59.091C1862.13 61.2988 1881.34 69.0911 1897.55 81.4287C1910.35 91.169 1909.31 98.182 1895.32 105.714C1887.22 110.13 1878.2 110.26 1869.45 111.948C1834.95 118.572 1800.71 122.468 1765.29 116.364C1742.81 112.468 1719.68 116.753 1696.68 116.364C1638.66 115.325 1580.5 114.805 1522.48 119.091C1489.16 121.559 1455.57 120.13 1421.98 120.26C1346.84 120.65 1271.83 126.234 1196.55 126.364C1175.51 126.364 1154.08 125.325 1133.69 126.883C1086.12 130.65 1038.69 130.39 991.378 128.312C928.649 125.585 865.79 127.013 803.061 120.909C772.22 117.922 740.856 118.831 709.883 119.091C667.411 119.481 625.069 122.468 582.727 116.494C581.943 116.494 581.028 116.104 580.244 116.234C546.528 124.156 512.55 114.026 478.833 118.052C471.907 118.832 465.242 120.52 461.583 113.896C456.617 105.195 466.026 102.468 471.515 97.7925C462.759 95.4549 456.878 97.0133 455.571 105.585C454.003 115.845 446.815 117.143 437.667 116.754C377.944 114.026 318.222 116.234 258.499 114.676C235.237 114.026 211.452 112.598 187.929 115.325C184.662 115.715 181.003 116.364 178.128 115.455C148.724 105.715 118.405 114.546 88.6085 111.689C61.2954 108.961 33.5903 113.247 6.1466 109.611C-5.87647 108.052 -6.00708 104.026 0.919309 96.6237C0.788571 94.1562 4.8396 89.7406 -0.649051 90.0003C-4.83106 90.2601 -12.0187 92.7276 -10.7119 97.9224C-7.05274 111.948 -16.5925 111.169 -25.8711 111.169C-45.4739 111.169 -65.2073 111.559 -84.8101 111.169C-103.498 110.78 -104.282 109.351 -98.5317 91.4289C-101.407 90.1302 -104.543 91.9484 -104.674 93.5069C-106.765 112.208 -120.226 111.948 -135.646 111.559C-160.607 110.909 -185.568 110 -210.79 111.559C-231.699 112.987 -253.393 111.169 -274.303 112.208C-301.354 113.637 -328.145 111.819 -354.935 113.117C-367.873 113.767 -379.242 106.624 -392.442 110.65C-426.289 121.039 -461.313 112.208 -495.813 113.767C-518.03 114.806 -541.161 111.689 -563.769 111.559C-587.423 111.299 -611.338 110.52 -634.339 107.143C-652.635 104.416 -673.675 106.884 -689.096 92.3381C-693.147 88.5718 -697.721 99.6108 -704.125 95.1952L-702.426 95.3251ZM1841.87 76.1041C1843.31 76.4937 1844.75 77.2729 1846.19 77.2729C1847.36 77.2729 1848.54 76.3638 1849.71 75.8443C1848.28 75.4547 1846.84 75.0651 1845.4 74.6755C1844.23 75.195 1843.05 75.5846 1841.87 76.1041ZM1807.24 70.6495C1808.42 71.2989 1809.33 72.2079 1810.25 72.2079C1811.69 72.2079 1813.25 71.8183 1814.69 71.5586C1813.78 71.0391 1812.99 70.0001 1812.08 70.0001C1810.64 70.0001 1809.07 70.3898 1807.11 70.6495L1807.24 70.6495ZM1747.26 62.8573C1748.7 63.5066 1750 64.156 1751.44 64.8053C1759.02 69.7404 1768.3 66.7534 1776.4 69.2209C1781.63 73.7664 1786.99 81.0391 1791.95 68.9612L1792.87 67.5326L1791.56 68.5716C1786.46 63.7664 1781.5 62.8573 1776.66 68.8313C1769.47 62.5975 1759.93 66.6235 1751.96 64.0261C1750.39 63.5066 1749.74 60.13 1747.26 62.7274L1747.26 62.8573ZM1717.2 57.9222L1718.77 57.5326L1717.33 56.8832L1717.33 57.9222L1717.2 57.9222ZM1683.35 57.5326L1683.35 45.9741C1683.75 44.5456 1687.67 43.7663 1684.53 41.4287C1684.01 42.8573 1683.48 44.2858 1683.09 45.7144C1679.96 49.3508 1677.47 53.117 1683.48 57.5326L1683.35 57.5326ZM1662.05 42.7274C1662.05 42.7274 1663.1 43.3767 1663.62 43.7664C1664.4 42.9871 1665.19 42.078 1665.97 41.2988C1665.45 40.9092 1664.67 40.2599 1664.53 40.2599C1663.62 41.0391 1662.84 41.8183 1661.92 42.7274L1662.05 42.7274ZM1602.98 51.6884L1604.42 50.6495C1610.17 46.2339 1616.44 43.8962 1623.89 46.2339L1625.33 47.0131L1624.28 45.8443C1612.78 35.5845 1608.21 36.6235 1604.16 50.3897L1602.98 51.6884ZM1515.55 52.4677C1515.55 52.4677 1516.6 53.5066 1517.25 53.6365C1519.47 54.0261 1520.39 53.3768 1519.74 52.0781C1519.47 51.6885 1518.3 51.6885 1517.64 51.5586C1516.99 51.8183 1516.21 52.2079 1515.55 52.4677ZM1491.38 100C1499.61 98.182 1495.69 93.5067 1495.82 90.5197C1495.82 87.7924 1499.09 83.8963 1493.99 81.2989C1492.55 87.6625 1488.63 93.3768 1491.51 100L1491.38 100ZM1490.2 67.2729L1491.77 66.8833L1490.46 66.1041L1490.2 67.2729ZM1457.53 98.8314L1456.09 98.3119L1456.09 99.3509L1457.53 98.8314ZM1446.42 81.5586C1446.42 81.5586 1446.94 82.9872 1447.6 83.247C1450.34 84.5457 1451.91 82.7275 1453.61 81.2989C1454.79 80.2599 1455.7 79.0911 1456.88 78.0521L1457.66 76.8833L1456.35 77.6625C1454.79 78.0521 1453.35 78.4418 1451.78 78.8314C1449.69 79.3508 1446.94 78.8314 1446.42 81.5586ZM1440.54 62.0781L1441.98 62.5976L1441.98 61.5586L1440.54 62.0781ZM1428.91 82.8573C1429.96 85.8444 1431.52 88.0522 1433.75 87.1431C1435.05 86.6236 1435.57 83.5067 1435.57 81.4288C1435.57 79.3508 1434.79 76.6236 1431.79 78.182C1430.22 78.9612 1429.56 81.5586 1428.78 82.7275L1428.91 82.8573ZM1411.27 46.104C1412.05 46.2339 1413.23 44.2859 1414.4 43.117C1414.01 42.0781 1414.01 40.2599 1413.1 39.6105C1411.66 38.5716 1409.96 39.3508 1409.44 41.169C1408.78 43.2469 1408.26 45.7144 1411.4 46.104L1411.27 46.104ZM1392.19 46.104C1392.58 47.4027 1392.97 48.5716 1393.49 49.7404C1393.63 50.0002 1394.41 50.13 1394.8 50.3898C1395.85 48.0521 1393.76 47.143 1392.45 45.8443C1394.67 39.8703 1397.55 34.156 1397.28 27.5326C1393.89 30.6495 1389.84 33.2469 1387.09 36.7534C1382.65 42.4677 1387.35 44.4157 1392.32 45.9742L1392.19 46.104ZM1381.21 72.3379L1382.26 73.6366C1383.43 76.1041 1383.69 79.8703 1387.61 79.7405C1390.36 79.7405 1391.14 76.8833 1390.49 74.8054C1388.92 70.5197 1385.26 73.8963 1382.52 73.3768L1381.08 72.4677L1381.21 72.3379ZM1361.08 52.3378C1363.05 53.5067 1365.27 54.5456 1367.23 55.5846C1368.4 57.5326 1369.19 59.8703 1370.76 61.169C1372.19 62.4677 1373.89 61.169 1372.98 59.6106C1371.8 57.7924 1369.58 56.4937 1367.88 55.0651C1365.66 53.2469 1364.87 49.7404 1360.95 50.5196C1360.95 50.5196 1360.69 52.0781 1361.08 52.3378ZM1359.52 80.6496C1360.17 81.9483 1360.43 83.5067 1361.48 84.2859C1362 84.6755 1364.61 83.7664 1364.87 82.9872C1365.66 80.6496 1364.22 78.9612 1361.87 78.182C1361.48 78.0521 1360.3 79.7405 1359.52 80.6496ZM1336.91 53.8963L1337.69 55.0651C1339.26 55.7145 1337.43 59.0911 1340.83 58.3119C1339.91 57.0132 1339.13 55.8443 1338.21 54.5456L1336.91 53.7664L1336.91 53.8963ZM1327.11 104.416C1329.98 104.416 1334.29 105.195 1333.38 100.39C1332.99 98.4418 1331.29 95.7145 1329.59 95.195C1325.28 93.8963 1324.62 97.6626 1323.45 100.26C1322.4 103.377 1324.62 104.416 1327.24 104.416L1327.11 104.416ZM1277.71 51.6885L1279.01 50.9092C1281.37 49.4807 1285.03 53.6365 1286.46 49.3508C1286.73 48.5716 1285.29 46.6235 1284.11 46.1041C1279.15 43.8963 1280.19 48.8313 1278.49 50.3898L1277.58 51.5586L1277.71 51.6885ZM1265.03 92.7275C1274.05 95.0652 1277.84 89.221 1283.85 89.0911C1290.25 89.0911 1294.04 84.2859 1296.27 79.3509C1298.09 75.3249 1299.92 69.7405 1293.78 67.6625C1289.34 66.234 1286.59 70.1301 1286.07 74.2859C1285.68 77.7924 1287.77 82.5976 1280.19 80.0002C1268.3 75.8444 1267.38 83.8963 1265.03 92.7275ZM1260.59 59.0911C1260.98 60.3898 1261.24 61.6885 1261.63 63.1171C1262.16 62.0781 1262.94 61.0391 1263.07 60.0002C1263.07 58.7015 1262.55 57.2729 1262.16 55.9742C1261.63 57.0132 1261.11 58.0521 1260.59 59.0911ZM1246.34 105.974L1247.39 105.974L1247 104.676L1246.34 105.974ZM1235.76 64.0262C1236.02 65.3249 1236.41 66.7534 1236.67 68.0521C1237.2 66.7534 1238.11 65.5846 1238.11 64.2859C1238.11 62.9872 1237.46 61.5586 1237.2 60.2599C1236.67 61.4288 1236.15 62.7275 1235.63 64.0262L1235.76 64.0262ZM1190.93 108.442C1189.37 107.403 1188.19 107.922 1187.93 109.741C1187.93 110.13 1188.58 111.169 1188.84 111.169C1189.5 111.169 1190.15 110.52 1190.67 110.26C1190.67 109.741 1191.19 108.702 1190.93 108.572L1190.93 108.442ZM1189.1 48.0521L1190.54 48.7015L1190.54 47.6625L1189.1 48.0521ZM1184.4 70.9093C1189.76 80.26 1179.96 84.2859 1177.21 94.0262C1196.55 83.6366 1196.42 83.5067 1184.4 70.9093ZM1154.21 68.8314C1154.86 67.5327 1155.65 66.234 1156.3 64.9353C1160.35 60.6495 1162.84 54.2859 1171.33 56.8833C1176.56 58.5716 1179.43 55.8443 1178 51.2989C1176.17 45.7144 1170.29 44.156 1164.8 43.2469C1160.09 42.3378 1157.87 45.4547 1156.56 49.4807C1155 54.5456 1153.03 59.3508 1155.78 64.5457C1154.86 65.8444 1151.47 66.3638 1154.21 68.8314ZM1126.24 73.7664C1125.46 79.0911 1132.91 81.8184 1130.95 87.4028L1129.9 88.5717L1131.34 87.7924C1134.91 81.5587 1133.21 76.8833 1126.24 73.7664ZM1089.78 105.325L1088.74 105.065L1089 106.494L1089.78 105.325ZM1065.87 67.6625L1067.04 68.9613C1068.96 84.892 1078.07 91.905 1094.36 90.0002C1080.5 84.1561 1080.77 74.4158 1081.42 64.6755C1079.98 63.1171 1078.41 61.4288 1076.98 59.8703C1075.41 59.8703 1073.71 59.8703 1072.14 59.6106L1070.96 58.4417L1071.88 59.8703C1072.79 63.8963 1070.83 66.7535 1067.44 68.8314L1066.13 67.6625L1065.87 67.6625ZM1024.57 69.221L1025.75 69.4807L1025.36 68.0522L1024.57 69.3509L1024.57 69.221ZM1022.61 115.325L1024.31 116.104L1022.87 114.935C1023.79 110.909 1028.75 108.312 1026.53 101.299C1023.66 106.754 1011.9 107.143 1022.48 115.195L1022.61 115.325ZM978.702 89.4808C984.844 90.6496 991.247 91.1691 997.128 92.8574C1008.5 96.234 1006.01 87.4028 1008.24 82.5976C1008.76 81.1691 1012.55 80.5197 1009.54 78.0522C1008.89 79.4808 1008.37 80.7795 1007.71 82.208C1002.09 82.208 999.088 79.6106 996.867 74.9353C994.776 70.26 992.424 70.5197 992.946 75.9743C993.861 85.8444 979.616 80.9093 978.702 89.4808ZM965.241 68.5716L965.895 70.0002L966.548 68.5716L965.241 68.5716ZM960.275 47.6625C960.275 47.6625 960.275 49.0911 960.406 49.6106C960.406 49.8703 961.32 49.7404 961.713 49.8703C961.713 48.5716 961.451 47.2729 961.321 45.9742C960.928 46.4937 960.275 47.0132 960.144 47.5327L960.275 47.6625ZM957.4 109.091L958.184 110.39C959.883 110.65 960.667 114.156 963.15 111.689C961.713 111.169 960.144 110.52 958.707 110L957.4 109.091ZM950.604 41.6885L952.042 41.9482L951.519 40.3898L950.604 41.8184L950.604 41.6885ZM916.888 93.3769C928.78 88.9613 939.235 85.3249 949.69 81.2989C952.695 80.1301 955.832 77.9223 954.264 74.5457C953.087 72.0782 950.343 69.7405 947.729 68.4418C943.939 66.7535 941.849 69.4807 940.672 72.4678C938.843 77.0132 937.536 81.0392 931.002 76.3639C926.82 73.3769 921.592 71.8184 916.365 69.4807C914.797 77.0132 914.797 83.6366 916.757 93.3769L916.888 93.3769ZM911.007 107.273C911.007 108.572 911.791 109.87 912.183 111.169C913.359 110.39 915.189 109.87 915.45 108.961C915.712 108.052 914.797 106.234 913.882 105.585C912.445 104.546 911.007 105.585 911.007 107.273ZM906.433 47.143L907.479 47.9223L908.263 46.7534L906.302 47.143L906.433 47.143ZM886.961 68.5717C886.961 68.5717 887.876 69.7405 888.268 69.6106C888.921 69.6106 889.836 69.0911 890.097 68.5717C890.882 66.8833 890.097 66.1041 888.137 66.8833C887.614 67.1431 887.484 68.0522 887.092 68.5717L886.961 68.5717ZM829.198 63.1171L829.983 64.4158L831.42 65.195L830.505 63.8963L829.198 63.1171ZM814.954 100.39L815.738 101.559L817.175 102.338L816.261 101.039L814.954 100.26L814.954 100.39ZM751.702 100.26C751.572 101.039 753.532 102.208 754.578 103.247C755.884 102.857 757.191 102.468 758.498 102.078C757.975 100.909 757.714 99.0912 756.799 98.7016C754.97 97.9224 752.225 97.4029 751.833 100.26L751.702 100.26ZM741.248 77.4028C738.503 79.0912 735.628 80.6496 732.884 82.3379C735.89 80.9094 739.026 79.4808 742.032 77.9223C742.947 76.7535 743.731 75.5847 744.646 74.5457C741.248 73.247 742.947 77.0132 741.248 77.4028ZM717.071 101.818C718.509 104.286 718.901 108.442 723.213 107.273C725.043 106.754 726.742 104.026 727.134 102.078C728.179 97.273 724.128 97.6626 720.991 97.7925C718.509 97.7925 716.026 98.5717 716.94 101.818L717.071 101.818ZM676.036 64.5457C676.036 64.5457 676.82 66.1041 677.343 66.1041C681.525 66.234 681.525 62.3379 683.485 60.26C683.877 58.7015 688.059 60.26 686.621 57.1431C685.445 58.0522 684.269 58.8314 682.962 59.7405C680.349 60.9093 676.428 60.7795 676.036 64.5457ZM677.866 101.559L679.172 102.338L678.388 101.169C678.519 98.4419 678.65 95.5847 678.911 92.8574C680.479 91.0392 685.445 90.9094 682.44 86.8834C681.656 85.8444 679.565 84.8055 678.78 85.1951C674.599 87.1431 678.78 90.0003 678.127 92.4678C673.553 95.4548 675.252 98.5717 677.996 101.689L677.866 101.559ZM643.104 97.273C642.711 94.9354 640.098 93.8964 637.745 94.1561C635.001 94.9354 632.91 96.2341 633.825 98.8315C634.086 99.7406 636.7 100.13 638.137 100.13C640.359 100.13 643.495 100.39 643.104 97.273ZM659.178 59.7405C658.394 59.7405 657.479 61.6885 656.433 63.1171C657.74 64.6756 659.047 66.3639 660.354 68.0522C660.877 66.8834 661.661 65.7145 661.791 64.5457C661.791 62.5976 662.314 60.0002 659.178 59.7405ZM646.109 33.6366C648.07 37.7924 650.945 41.6885 656.041 42.208C659.831 42.4677 661.53 39.0911 660.746 35.9742C659.57 30.9093 655.519 28.7015 650.161 29.0911C647.547 29.3508 646.109 31.0391 646.109 33.7664L646.109 33.6366ZM610.432 57.6626C610.432 58.5717 612.262 59.3509 613.307 60.26C614.222 59.221 615.921 58.1821 616.182 57.0132C616.705 54.2859 615.137 52.5976 612.131 53.8963C611.086 54.4158 610.432 56.4937 610.563 57.6626L610.432 57.6626ZM607.949 79.4808C607.557 80.26 608.472 82.7275 609.518 83.1172C615.006 85.7146 616.182 80.7795 618.796 78.1821C621.148 78.312 623.631 78.312 625.984 78.7016C631.603 79.4808 636.831 86.7535 642.973 80.3899C649.246 73.8964 644.28 67.7925 641.143 61.8184C639.444 58.5717 638.137 54.9353 633.433 53.6366C623.37 58.8314 625.984 71.1691 618.535 77.7925C614.745 77.0133 610.563 74.4158 607.949 79.3509L607.949 79.4808ZM600.108 58.0522L600.892 56.4937L599.193 55.3249C599.324 56.234 599.585 57.1431 600.108 58.0522ZM567.96 103.507C577.238 100.78 582.204 104.286 585.864 99.7406C581.028 96.4938 576.846 96.4938 567.96 103.507ZM559.204 99.351L560.641 98.8315L559.204 98.312L559.204 99.351ZM550.971 90.6496L549.664 91.4289C548.096 92.9873 546.266 94.286 544.959 95.9743C543.26 98.0523 540.255 100.909 544.959 102.468C547.442 103.247 548.096 100.13 548.619 98.0523C549.141 95.9743 549.664 93.8964 550.187 91.8185L551.102 90.5198L550.971 90.6496ZM556.198 63.6366C537.205 67.9656 527.056 78.0089 525.749 93.7665C525.618 95.9743 524.834 98.312 524.442 100.52C523.919 102.078 519.999 100.52 521.305 103.637C522.482 102.728 523.658 101.948 524.834 101.039C538.164 91.1691 547.573 78.312 556.198 63.6366ZM500.396 62.7275C504.055 69.8704 510.981 66.4938 515.425 65.4548C536.857 60.1301 548.226 45.3249 555.806 25.4547C546.397 26.4937 538.687 27.4028 530.845 28.3119C531.63 31.8184 532.544 35.3249 533.198 38.8314C533.72 41.4288 535.55 45.0652 532.022 45.9742C530.192 46.3639 527.317 42.9872 524.965 41.2989C522.612 38.7015 519.607 37.5327 515.947 37.6625C515.686 38.8314 515.294 40.0002 514.902 41.169C512.157 44.8054 509.413 48.5717 506.538 52.208C503.924 55.4548 496.998 56.3639 500.396 62.7275ZM483.407 36.3638C483.407 38.182 484.452 39.0911 486.413 38.7015C486.935 38.7015 487.589 37.6626 487.719 37.0132C487.85 35.195 486.805 34.2859 484.844 34.8054C484.322 34.8054 483.93 35.8444 483.538 36.4937L483.407 36.3638ZM485.236 60.1301C486.805 60.7795 484.844 64.5457 488.373 63.247C487.458 62.0782 486.543 60.9093 485.759 59.6106C487.458 56.4937 489.157 53.5067 490.856 50.3898L491.771 49.221L490.333 50.0002C485.759 52.0782 479.617 53.5067 485.236 60.1301ZM483.538 94.286C484.975 105.715 487.066 105.585 500.396 96.6237L501.572 95.325L500.265 96.6237C491.509 96.6237 488.634 91.6886 489.941 84.6756C492.685 70.3899 483.407 74.8055 476.088 75.8444C473.344 84.0263 482.623 87.0133 483.538 94.4159L483.538 94.286ZM444.855 80.26C443.548 81.1691 442.372 81.9483 441.065 82.8574C439.366 84.1561 437.798 85.5847 436.099 86.8834C431.394 93.7665 420.286 90.3899 416.104 98.1821C420.94 91.1691 437.537 104.026 436.622 87.4029C438.19 85.9743 439.889 84.6756 441.457 83.247C442.11 81.8185 445.9 83.247 444.855 80.26ZM406.434 77.9224L405.519 79.3509L406.695 78.1821C411.792 76.8834 417.542 80.6496 422.508 75.325C428.519 68.9613 436.099 66.1042 446.162 67.273C454.918 68.1821 463.412 64.286 470.992 59.6106L472.299 58.4418L470.73 59.221C466.156 59.8704 462.628 58.9613 463.804 53.6366C464.85 49.0911 464.98 44.8054 461.06 41.2989C455.571 57.4028 454.003 58.4418 441.588 55.195L442.633 53.8963L441.326 55.0652C429.565 57.9223 419.241 68.1821 406.303 59.7405C400.945 66.6236 409.439 72.2081 406.434 78.0522L406.434 77.9224ZM392.32 97.273C391.797 100 394.933 99.7406 397.024 100C399.899 99.6107 403.689 99.8705 403.167 95.7146C403.167 94.9354 400.814 93.8964 399.507 93.7665C396.371 93.5068 392.842 94.1562 392.32 97.4029L392.32 97.273ZM387.223 75.8444C387.876 76.1042 388.661 76.4938 389.314 76.7535C390.098 76.6237 391.274 76.4938 391.405 76.1042C391.928 74.5457 390.882 73.7665 388.661 74.5457C388.007 74.6756 387.615 75.325 387.092 75.8444L387.223 75.8444ZM345.273 97.5328C345.665 98.9614 346.057 100.13 346.319 101.299C347.756 99.8705 349.717 98.7016 350.501 97.1432C351.154 95.7146 351.938 92.7276 348.932 92.8575C347.625 92.8575 346.319 95.9743 345.143 97.5328L345.273 97.5328ZM373.109 22.3379C374.285 22.5976 375.461 22.5976 376.638 22.4677L374.939 21.0392L373.109 22.3379ZM304.238 77.273L302.931 78.0522L302.147 79.3509L303.454 78.5717L304.369 77.4029L304.238 77.273ZM320.051 100.78L320.443 102.208L321.097 100.909L320.051 100.909L320.051 100.78ZM258.629 48.7015L260.198 48.3119L258.76 47.6626L258.76 48.7015L258.629 48.7015ZM239.811 70.7795C246.868 77.5328 254.97 72.8574 262.811 73.1172C273.527 73.5068 276.925 80.5198 270.26 88.4419C267.385 91.8185 262.681 93.8964 258.76 96.4938C257.584 95.5847 256.669 94.4159 255.362 93.8964C253.533 93.2471 251.311 92.2081 249.874 94.6757C251.311 95.0653 252.749 95.325 254.186 95.7146C255.624 96.1042 257.061 96.4938 258.368 97.0133C270.26 104.935 278.232 91.299 292.607 94.5458C282.022 85.5847 281.76 77.5328 283.851 69.0912C288.556 67.5327 292.477 65.3249 292.869 60.0003C292.346 59.6107 291.562 59.0912 291.562 58.7016C291.823 57.4029 292.738 57.5327 293.784 59.0912C297.443 56.8834 297.573 51.1691 303.193 50.9093C304.63 52.3379 306.199 53.7665 307.636 55.1951C309.727 58.9613 309.988 64.0262 315.477 65.1951C316.261 65.325 317.568 63.6366 318.614 62.8574C315.216 60.1301 311.687 57.4029 308.289 54.6756C306.852 53.247 305.284 51.8184 303.846 50.3899C293.783 47.5327 283.721 38.9613 273.789 50.3899C288.295 51.299 278.363 63.3769 283.329 68.5717C274.007 67.273 270.783 61.2124 273.658 50.3899C263.465 58.7016 247.26 58.312 239.811 70.6496L239.811 70.7795ZM246.737 24.5457C248.436 26.4937 250.004 26.4937 251.572 24.5457C250.004 24.5457 248.305 24.5457 246.737 24.5457ZM239.419 14.0262C240.464 16.234 241.379 18.4418 242.424 20.5197C242.817 17.7924 242.032 15.5846 239.419 14.0262ZM233.276 33.5067C233.276 33.5067 234.322 34.5457 234.845 34.5457C235.498 34.5457 236.544 34.0262 236.674 33.6366C237.197 31.6885 236.282 31.0392 234.583 31.9483C234.061 32.208 233.799 33.1171 233.407 33.6366L233.276 33.5067ZM223.214 51.8184L224.39 50.7795C226.873 49.3509 231.577 52.5977 232.492 47.5327C229.094 47.1431 226.481 48.5717 223.998 50.3899L223.083 51.8184L223.214 51.8184ZM196.815 68.9613C199.037 77.4029 207.662 77.0133 214.719 78.0522C216.157 79.8704 217.725 79.7406 219.424 78.0522L220.469 76.7535L218.901 77.4029L217.072 77.7925L215.242 77.4029C206.486 68.9613 206.747 58.8314 210.145 46.8834C205.049 52.7275 197.861 45.5847 193.94 51.4288C189.628 57.7925 195.509 63.1172 196.946 68.7016L196.815 68.9613ZM165.32 95.5848C177.474 100.26 188.713 97.1432 199.952 96.2341C200.867 95.0653 201.651 93.8964 202.566 92.8575C199.168 91.5588 200.867 95.325 199.168 95.7146C188.19 94.9354 177.605 80.9094 165.19 95.5848L165.32 95.5848ZM163.883 74.9354C165.582 76.3639 167.673 77.5328 169.894 78.312C171.724 78.9613 172.769 77.9224 172.508 76.1042C170.94 73.5068 168.979 70.9094 165.32 71.5587C164.667 71.5587 163.622 74.6756 164.014 74.9354L163.883 74.9354ZM149.377 94.1562L150.814 94.6757L150.814 93.6367L149.377 94.1562ZM81.1595 48.7016L82.7278 48.1821L81.2902 47.5327L81.2902 48.7016L81.1595 48.7016ZM73.4491 74.9354C73.1877 77.0133 74.2333 78.0523 75.54 77.0133C77.3696 75.5847 79.1992 74.0263 80.6367 72.2081C81.5515 71.0393 80.2447 70.1302 78.0231 70.3899C75.2787 70.9094 73.7104 72.4678 73.4491 74.9354ZM56.5908 93.7666C58.6818 93.5068 60.9033 92.338 62.6022 91.0393C63.3863 90.3899 63.3863 87.5328 63.2557 87.5328C59.8579 86.6237 57.2443 88.1822 55.0227 90.3899C54.2385 92.0783 54.7612 94.0263 56.5908 93.7666ZM26.6639 93.7666C26.4026 100.52 30.7152 100.26 34.6357 99.7406C38.4255 99.351 43.7837 98.4419 41.6927 93.6367C39.9939 89.8705 35.0278 86.8834 30.1925 87.2731C28.755 87.2731 27.5787 92.0783 26.6639 93.6367L26.6639 93.7666ZM12.158 28.7015C12.158 28.7015 15.0331 29.8704 16.0785 29.4808C18.1694 28.7015 19.999 27.1431 21.9592 25.8444C20.9138 25.195 19.8684 24.4158 18.823 23.7665C15.6865 24.4158 12.55 25.0652 12.158 28.8314L12.158 28.7015ZM-9.797 76.8834C-0.649053 73.6367 6.01599 71.299 12.5502 68.9613L13.8569 70.1302L12.9423 68.5717C5.10119 59.2211 20.9139 54.1561 17.6468 45.7146C19.2151 44.286 20.7833 42.8574 22.3516 41.4288L23.3968 40.26L21.8287 41.0392C20.2605 42.4678 18.6923 43.8964 17.124 45.3249C14.641 48.1821 12.6809 52.9873 9.67504 53.6366C-2.87061 56.6237 -6.00709 65.0652 -9.92762 76.7536L-9.797 76.8834ZM-11.1039 53.1172C-9.79713 52.3379 -8.35938 51.5587 -7.0525 50.9094C-5.22291 49.8704 -3.39332 48.8314 -1.56385 47.9223C-2.47852 47.0133 -3.52406 46.234 -4.43885 45.3249C-5.48438 47.0133 -6.3993 48.8314 -7.44471 50.5198C-8.49024 51.6886 -12.28 49.4808 -11.1039 53.247L-11.1039 53.1172ZM-68.9971 95.0653C-68.9971 95.0653 -70.3038 94.1562 -70.9573 94.1562C-71.3494 94.1562 -71.8722 94.9354 -72.2642 95.325C-71.8722 95.9744 -71.6108 96.8835 -71.0881 97.0133C-69.1278 97.6627 -68.3436 96.7536 -69.1277 94.9354L-68.9971 95.0653ZM-50.1785 93.1172L-51.0934 91.8185L-52.5309 91.0393L-51.4854 92.2081L-50.1785 93.1172ZM-38.6783 91.5588L-39.8545 91.5588L-39.4624 92.8575L-38.6783 91.5588ZM-59.5878 21.6885C-53.5763 22.7275 -47.6954 23.7665 -38.5476 25.3249C-44.9511 20.1301 -48.4796 17.4028 -51.8775 14.5457C-55.5366 15.8444 -58.0195 18.3119 -59.5878 21.6885ZM-71.2188 59.7406C-71.2188 64.286 -71.2188 68.8315 -71.2188 73.5068C-72.0028 75.325 -73.4403 77.0133 -73.4403 78.8315C-73.4403 80.3899 -70.8267 80.7795 -70.4347 79.4808C-69.9119 77.6627 -70.8268 75.5847 -71.0881 73.5068C-58.9345 76.364 -46.6502 79.7406 -42.7296 63.1172C-40.7693 54.9354 -31.6213 55.0652 -26.394 50.6496L-25.4791 49.2211L-26.6552 50.3899C-31.6212 48.9613 -32.2747 35.3249 -41.4226 45.8444L-42.7296 44.6756L-41.5532 45.9743C-45.7351 54.286 -48.6104 65.4549 -59.4572 49.8704C-62.2015 45.9743 -69.2586 42.5977 -73.9631 47.5327C-76.9689 50.7795 -75.0087 56.1042 -71.0881 59.7406L-71.2188 59.7406ZM-132.379 96.8835L-132.771 95.4549L-133.425 96.7536L-132.379 96.7536L-132.379 96.8835ZM-131.726 48.5717C-131.726 46.6237 -131.595 44.6756 -131.464 42.8574C-134.339 44.6756 -134.601 46.6237 -131.726 48.5717ZM-144.141 71.5588C-142.965 70.6497 -141.658 69.7406 -140.482 68.8315C-139.044 68.312 -137.607 67.9224 -136.169 67.9224C-133.817 65.8445 -131.595 62.9873 -128.328 66.7536C-130.288 67.9224 -132.379 68.9614 -134.339 70.1302C-128.067 79.0912 -118.135 70.9094 -110.555 75.325C-116.697 65.9743 -126.106 58.0522 -116.697 46.4938C-121.532 46.4938 -125.453 48.7016 -129.112 51.4289C-131.464 58.0522 -141.789 59.7406 -141.135 68.312C-141.658 69.8704 -145.709 68.312 -144.271 71.5588L-144.141 71.5588ZM-156.164 98.8315L-154.726 99.351L-154.726 98.3121L-156.164 98.8315ZM-178.642 89.6107C-175.766 89.2211 -172.499 88.0523 -170.278 86.364C-168.056 84.5458 -169.755 81.6887 -171.977 81.9484C-174.721 82.2081 -177.204 84.4159 -177.857 84.8055C-180.732 88.0523 -180.341 90.0004 -178.511 89.7406L-178.642 89.6107ZM-252.87 91.1692C-252.87 91.1692 -253.916 92.0783 -254.308 92.5978C-254.047 93.1173 -253.785 94.1562 -253.524 94.1562C-252.87 94.1562 -251.825 93.8965 -251.563 93.5069C-250.257 91.8185 -250.78 90.9095 -252.87 91.1692ZM-203.864 18.5717C-197.983 22.7275 -193.017 24.0262 -191.187 15.0652L-193.54 15.0652C-196.284 18.0522 -200.074 18.4418 -203.994 18.5717L-203.864 18.5717ZM-236.143 96.6237C-219.546 100.65 -209.222 94.4159 -198.506 94.8056C-209.353 92.7276 -220.199 91.4289 -236.143 96.6237ZM-270.905 71.9484C-267.638 80.0004 -259.274 71.1692 -253.524 73.6367L-252.217 74.8055L-253.393 73.5068C-253.785 69.6107 -253.001 66.1042 -250.91 62.7276C-247.904 57.9224 -244.376 53.7665 -237.711 54.9354C-227.648 56.7536 -233.66 62.5977 -234.574 67.1432C-235.62 72.338 -231.177 73.2471 -227.91 75.0653C-223.466 77.4029 -219.807 75.325 -217.455 72.0783C-214.841 68.5718 -210.267 61.9484 -214.449 60.2601C-230.393 53.8964 -220.722 41.299 -223.989 32.2081C-227.648 32.3379 -230.915 33.3769 -233.137 36.234C-232.745 36.7535 -232.353 37.1431 -232.092 37.6626C-232.875 37.6626 -233.66 37.6626 -234.444 37.5327C-239.541 40.26 -237.45 54.1561 -249.211 46.3639C-255.354 42.2081 -261.234 40.26 -266.462 46.1042C-273.257 53.6367 -274.695 63.5068 -271.166 72.0783L-270.905 71.9484ZM-314.684 97.0134L-315.207 95.5848L-315.991 97.0134L-314.684 97.0134ZM-289.723 65.4549C-288.417 66.7536 -286.979 66.6237 -285.934 65.1951C-285.672 64.8055 -285.934 63.6367 -286.195 63.2471C-287.502 61.9484 -288.809 62.2081 -290.115 63.5068C-290.115 64.1562 -290.115 65.0653 -289.723 65.5847L-289.723 65.4549ZM-284.365 79.351L-283.059 78.5718L-282.274 77.4029L-283.581 78.1822L-284.365 79.351ZM-288.417 91.8186L-289.201 93.1173L-287.894 92.2082C-283.973 90.39 -278.746 92.7276 -275.348 88.7017C-280.184 88.0523 -284.496 88.9614 -288.286 91.8186L-288.417 91.8186ZM-355.458 74.5458C-353.759 76.1042 -351.406 79.2211 -350.623 78.9614C-342.912 75.9744 -334.81 74.8055 -327.883 68.312C-321.48 62.338 -318.082 83.1172 -307.366 73.7666C-306.582 72.4679 -302.792 74.2861 -303.968 70.9094C-305.275 71.6886 -306.451 72.5977 -307.758 73.377C-317.298 60.6497 -304.099 57.0133 -297.434 50.9094C-292.86 48.5717 -286.326 48.4419 -285.803 38.8315C-290.769 43.6367 -294.297 47.0133 -297.826 50.3899C-303.445 46.4938 -308.15 40.5198 -316.906 45.325C-320.696 47.4029 -324.616 44.4159 -328.014 42.2081C-334.81 47.6626 -345.264 50.1302 -342.781 62.4679C-341.605 68.8315 -348.924 72.338 -355.458 74.2861L-355.458 74.5458ZM-364.606 72.0783C-362.776 72.0783 -360.947 72.0783 -359.117 72.2081C-360.816 70.0003 -362.645 69.8705 -364.606 72.0783ZM-375.975 63.7666C-372.055 62.4679 -362.646 66.6237 -367.612 56.4938C-371.532 57.7925 -374.146 60.3899 -375.975 63.7666ZM-375.975 74.0263C-374.015 76.2341 -371.924 77.5328 -369.18 74.9354C-371.401 74.6757 -373.754 74.4159 -375.975 74.0263ZM-424.459 52.5977C-421.976 71.299 -421.846 71.1692 -404.987 78.4419C-394.663 82.8575 -395.186 89.351 -401.851 96.4939L-402.635 97.6627L-401.328 96.8835C-387.345 95.7147 -373.492 96.8835 -360.554 101.299C-353.498 103.767 -348.009 103.117 -342.128 100C-338.599 98.1822 -333.895 96.4939 -335.855 91.6887C-337.685 87.403 -343.827 87.0134 -346.31 88.9614C-357.418 97.7926 -368.396 93.5069 -380.288 91.0393C-386.43 89.7406 -392.05 90.5199 -392.05 83.377C-392.05 75.7146 -396.362 65.325 -381.726 64.286C-380.288 67.0133 -378.72 69.8705 -377.282 72.5977C-377.282 70.0003 -377.282 67.4029 -377.282 64.8055C-378.72 64.5458 -380.027 64.4159 -381.464 64.1562C-381.595 62.5977 -381.726 61.0393 -382.117 59.6107C-383.032 56.364 -380.549 51.1691 -386.169 50.5198C-390.351 50.0003 -393.618 52.8575 -394.925 57.0133C-396.231 61.299 -395.709 66.7536 -401.589 68.1822C-406.817 69.4809 -413.351 71.9484 -413.612 62.8575C-413.787 57.4029 -417.359 53.9397 -424.329 52.4678L-424.459 52.5977ZM-427.334 95.3251L-426.42 96.6238C-424.59 97.7926 -422.761 98.442 -421.062 96.6238C-418.709 95.9744 -416.226 95.4549 -414.135 94.416C-412.436 93.5069 -409.3 92.338 -412.044 89.7406C-412.436 89.351 -415.05 90.5199 -416.226 91.429C-418.056 92.8575 -419.624 94.6757 -421.192 96.364L-423.544 96.6238L-425.897 96.364L-427.204 95.4549L-427.334 95.3251ZM-456.216 63.7666C-459.221 65.4549 -462.227 67.1432 -465.233 68.8315C-466.279 70.0003 -467.455 70.9094 -468.108 72.2081C-469.023 74.0263 -470.33 75.9744 -467.716 77.6627C-467.193 76.364 -466.67 74.9354 -466.148 73.6367C-465.625 72.2081 -465.102 70.9094 -464.58 69.4809C-461.574 67.7926 -458.698 65.9744 -455.693 64.286C-449.943 63.5068 -446.806 60.2601 -445.369 55.1951L-444.454 53.8964L-445.761 54.9354C-453.994 55.8445 -444.323 41.0393 -455.693 44.9354C-462.358 47.273 -466.409 51.8185 -469.153 58.0523C-464.057 59.7406 -458.307 58.4419 -456.216 63.8964L-456.216 63.7666ZM-476.603 90.9095L-475.426 92.0783L-474.119 93.2471L-475.165 91.8186L-476.733 90.9095L-476.603 90.9095ZM-490.324 95.9744C-490.324 95.9744 -488.495 98.442 -487.188 99.0913C-485.097 100.13 -482.614 100.65 -480.262 101.429L-478.955 102.468L-479.87 101.169C-481.569 99.4809 -483.006 97.6627 -484.966 96.2342C-486.534 95.0653 -488.756 92.5978 -490.324 96.2342L-490.324 95.9744ZM-527.047 42.5977C-527.047 42.5977 -525.871 43.7665 -525.348 43.6367C-523.257 43.3769 -523.126 42.338 -524.825 40.9094C-525.217 40.5198 -526.132 40.6496 -526.655 40.6496C-526.785 41.299 -527.177 42.0782 -527.047 42.5977ZM-556.451 76.6237C-556.451 76.6237 -556.712 78.0523 -556.451 78.4419C-556.189 78.7017 -555.013 78.8315 -554.621 78.5718C-552.922 77.403 -552.922 76.2341 -554.621 75.7147C-555.144 75.5848 -555.928 76.2341 -556.581 76.4939L-556.451 76.6237ZM-609.247 99.8705C-597.094 100.65 -588.207 97.7926 -583.372 87.403L-582.588 86.2342L-583.895 87.0134C-589.906 95.0653 -605.588 85.5848 -609.378 100L-609.247 99.8705ZM-614.475 53.6367C-614.605 50.1302 -614.736 46.6237 -614.998 43.1172C-623.492 46.8834 -623.492 47.0133 -614.475 53.6367ZM-638.651 80.0004C-637.083 81.0393 -635.907 80.5199 -635.515 78.7017C-635.515 78.3121 -636.168 77.2731 -636.43 77.2731C-637.083 77.2731 -637.737 77.9225 -638.39 78.1822C-638.39 78.7017 -638.913 79.7406 -638.651 79.8705L-638.651 80.0004ZM-651.459 72.0783C-650.282 71.9484 -649.629 71.2991 -649.498 70.1302L-651.328 70.1302L-651.328 72.0783L-651.459 72.0783Z" fill="#0082C8"/>
<path d="M313.125 22.208C319.267 24.4158 331.029 18.7015 332.466 12.8574C332.989 10.6496 331.682 8.70153 328.807 7.66257C322.795 10.26 315.738 11.9483 310.903 17.0132C309.466 18.5717 310.642 21.4288 313.125 22.3379L313.125 22.208Z" fill="#0082C8"/>
<path d="M870.103 36.3639C873.239 36.3639 877.16 35.9742 877.421 32.3379C877.813 26.6236 872.194 28.182 868.926 27.2729C865.921 28.182 861.739 28.0522 862.654 32.4677C863.438 35.9742 866.836 36.4937 870.103 36.3639Z" fill="#0082C8"/>
<path d="M279.669 19.0911C283.459 17.4028 286.465 14.8054 285.289 10.5197C284.374 7.27291 281.238 5.71447 277.709 6.75343C274.181 7.7924 273.527 11.0392 273.658 14.156C273.789 17.4028 275.226 19.8703 279.669 19.0911Z" fill="#0082C8"/>
<path d="M124.547 18.3119C128.99 18.182 132.257 15.8444 133.956 12.208C135.001 10.0002 133.825 8.05213 130.689 7.53265C125.984 8.182 121.018 9.22096 119.842 14.5456C119.319 17.1431 121.933 18.3119 124.547 18.3119Z" fill="#0082C8"/>
<path d="M406.042 19.221C408.002 20.3898 409.962 21.9482 412.053 22.4677C415.059 23.2469 419.371 23.2469 419.502 19.4807C419.763 14.9352 415.32 16.8833 412.576 16.8833C411.008 16.8833 409.439 16.8833 407.74 16.8833C404.081 13.117 400.553 7.79236 394.541 13.7664C393.235 15.0651 392.581 18.4417 393.496 19.6106C397.547 24.8054 401.86 20.6495 405.911 19.221L406.042 19.221Z" fill="#0082C8"/>
<path d="M65.216 21.0392C70.8355 22.208 71.8808 18.3119 72.6649 14.4158C73.057 13.8963 73.7104 13.2469 73.8411 12.7275C73.8411 12.4677 73.0571 11.6885 72.7958 11.6885C72.1423 11.8184 71.4887 12.4677 70.966 12.8573C67.6988 13.2469 64.3011 13.7664 63.517 17.4028C63.2556 18.5716 64.4318 20.9093 65.3466 21.169L65.216 21.0392Z" fill="#0082C8"/>
<path d="M298.488 16.8833C300.448 16.8833 301.102 15.8443 300.448 14.2859C300.187 13.7664 299.534 13.1171 298.88 12.8573C297.181 12.0781 295.613 12.5976 295.874 14.2859C295.874 15.195 297.573 16.1041 298.488 16.8833Z" fill="#0082C8"/>
<path d="M896.24 32.208C897.416 30.7794 897.024 29.3508 895.194 28.8313C892.711 28.182 890.881 29.3508 890.751 31.6885C890.751 32.5976 892.058 33.5067 892.842 34.4158C894.018 33.6365 895.325 33.1171 896.24 32.208Z" fill="#0082C8"/>
<path d="M529.931 22.8573L529.931 22.9872L530.061 22.8573L529.931 22.8573Z" fill="#0082C8"/>
<path d="M518.822 48.9613C524.442 49.7405 524.703 45.3249 524.834 41.4288C521.697 41.4288 518.561 41.4288 515.425 41.4288C515.163 44.5457 515.163 48.3119 518.822 48.8314L518.822 48.9613Z" fill="#0082C8"/>
</g>
<defs>
<clipPath id="clip0_95_571">
<rect width="2638" height="130" fill="white" transform="translate(1908 130) rotate(180)"/>
</clipPath>
</defs>
</svg>
