<svg width="260" height="102" viewBox="0 0 260 102" fill="none" xmlns="http://www.w3.org/2000/svg">
<g clip-path="url(#clip0_180_455)">
<path d="M271.32 46.7328C270.105 50.8332 270.073 58.7463 267.983 59.8254C266.558 60.5448 265.116 61.1203 263.383 61.9116C263.674 54.9337 263.933 48.9629 264.193 42.9921C264.565 43.2079 264.938 43.4237 265.327 43.4956C265.975 43.7114 266.363 42.4166 266.201 40.4023C265.991 37.5968 265.391 39.2513 265.003 39.8988C264.662 40.4023 264.403 41.5533 264.112 42.3446C263.059 43.2798 262.88 39.611 261.908 36.8774C262.524 49.97 259.56 52.9194 257.616 58.7463C258.199 66.8753 260.758 66.3717 262.135 70.3282C261.844 74.5006 261.082 74.2848 260.434 74.6445C256.952 76.5868 256.741 75.8674 257.211 63.2064C257.243 62.2713 257.162 61.2641 257.146 60.329C256.142 60.6167 255.623 63.2065 255.575 66.012C255.429 74.6445 253.971 77.522 251.816 77.8097C251.525 78.7449 251.249 79.752 250.958 80.6872C250.78 80.975 250.601 81.1908 250.423 81.4785C250.488 80.8311 250.569 80.2556 250.634 79.6082C250.909 78.601 251.185 77.5939 251.46 76.5868C252.011 69.6089 254.457 65.9401 253.857 56.4443C253.631 52.9194 251.379 46.3731 254.279 42.8482C254.716 42.3446 253.971 40.0426 253.533 39.0355C252.642 36.9493 252.059 37.9564 251.622 41.1217C250.861 46.517 250.893 53.4949 249.079 56.7321L248.933 57.5234L249.143 57.0198C249.791 56.5882 250.569 55.5811 250.974 58.0989C251.266 59.9693 250.812 61.8396 250.31 62.559C248.317 65.5084 246.309 68.1701 244.316 70.9757C244.672 72.4144 245.061 73.9251 244.948 76.0832C244.915 76.5868 244.608 76.9465 244.429 77.3062C244.284 75.5077 244.138 73.7093 243.992 71.9109C243.312 75.0042 243.603 78.601 243.538 81.9821C244.478 82.126 245.434 82.2698 246.373 82.4137C246.406 81.9101 246.422 81.4785 246.454 80.975C246.616 78.2413 246.487 74.8603 247.491 73.9251C248.252 73.2057 248.382 75.6516 248.414 77.522C248.495 81.4785 248.593 85.7228 246.827 84.428C246.066 91.1181 243.668 89.8952 242.647 95.2905C242.55 95.5063 242.469 95.866 242.356 96.0099C242.323 96.0099 242.178 95.5782 242.194 95.4344C242.242 95.0747 242.323 94.715 242.388 94.4272C242.388 91.4778 242.129 88.8161 241.595 86.5141C240.979 86.2264 239.748 85.1473 240.023 84.428C241.918 79.2485 241.06 71.8389 241.562 65.6523C241.983 60.6167 242.453 55.725 242.955 50.1858C241.692 50.9771 240.59 53.7107 239.651 48.1715C239.003 44.3589 237.69 39.5391 236.735 48.1715C236.443 50.0419 236.152 51.9842 235.86 53.8546L235.73 54.574L235.941 54.0704C236.249 52.2 236.557 50.3297 236.864 48.3874C238.338 47.3802 239.165 53.1352 238.776 54.4301C237.123 59.9693 239.521 61.48 239.375 65.0768C239.91 67.2349 239.942 69.465 239.375 71.6951C239.553 73.997 239.894 77.3062 238.792 76.6587C237.804 76.0832 237.269 77.8817 236.589 79.2485C236.006 80.5433 235.066 76.0832 234.694 80.6153C234.645 81.2627 234.791 82.6295 234.969 82.9892C235.973 84.9315 236.281 81.9821 236.67 79.752C238.873 83.4208 238.209 87.4493 236.783 91.6217C237.253 92.0533 237.885 91.8375 237.723 94.6431C237.707 95.0027 237.561 95.5063 237.464 95.5063C236.67 95.7941 236.832 93.4201 236.702 91.9094C234.515 86.3703 233.624 94.2114 232.296 97.5206C231.13 81.8382 231.535 77.7378 234.953 69.7527C233.106 67.3069 231.988 70.5441 230.757 74.5725C229.834 77.5939 229.364 74.8603 229.348 71.2634C229.704 63.4942 230.061 55.725 230.433 48.0277C229.299 52.1281 228.457 55.725 227.566 59.2499C227.064 59.2499 226.562 59.3218 226.076 59.3938C224.294 52.7036 227.517 49.97 227.08 44.3589C223.759 42.8482 223.338 43.7834 224.034 53.0633C224.439 58.4586 224.391 64.9329 225.995 68.5298L226.221 69.0334L226.076 68.2421C226.076 66.2998 226.043 64.4294 226.027 62.4871C226.61 61.8396 227.226 61.408 227.614 59.4657C228.7 62.4151 229.251 66.2998 229.283 71.1196C228.036 75.6516 225.768 72.918 224.763 78.0975C224.747 80.3995 225.055 80.2556 225.249 80.7592C226.351 83.8525 227.582 73.0619 228.149 80.1837C228.586 85.7228 226.092 84.7876 225.298 88.4565C225.379 88.96 225.46 89.5355 225.557 90.0391C225.411 89.7513 225.249 89.4636 225.104 89.1758C224.537 87.881 223.97 86.5861 222.657 83.4928C224.504 95.3624 222.657 98.2399 220.098 101.189C221.54 91.8375 218.057 87.6651 218.883 78.0255C219.223 74.069 217.182 74.3567 216.243 75.5077C215.173 76.8745 215.303 79.6082 216.307 81.5505C216.729 82.3418 216.826 83.7086 216.631 85.1473C215.109 96.2976 209.066 102.916 205.324 97.5206C208.418 97.4486 207.382 88.6723 207.786 82.9173C207.009 84.2121 206.296 86.3703 205.324 85.6509C204.806 84.6438 204.287 83.5647 203.753 82.5576C203.672 79.752 204.109 76.8026 204.79 77.7378C206.782 80.4714 207.09 74.7884 207.851 71.1915L207.997 70.4721L207.77 70.9757C205 71.4792 202.262 72.4144 199.93 80.5433C201.469 78.9607 202.473 82.7015 203.672 82.9173C204.044 84.9315 204.644 85.4351 205.243 86.0106C204.66 89.8952 205.454 93.7079 205.276 97.5925C204.773 97.8083 204.271 98.0241 203.769 98.2399C203.672 98.5277 203.575 98.8154 203.461 98.9593C203.413 98.9593 203.267 98.4557 203.283 98.3119C203.315 97.8802 203.413 97.5925 203.477 97.2328C203.558 91.6936 203.04 88.2406 201.42 91.9814C200.367 94.3553 199.719 96.2976 198.844 91.262C198.326 88.3126 197.37 90.1829 196.641 91.4059C195.41 93.4201 194.195 95.6502 192.964 97.7364C191.83 99.6067 190.712 100.038 190.469 94.5711C190.243 89.1758 191.312 90.0391 192.349 90.5426C194.066 91.3339 194.001 87.3774 193.758 83.205C194.195 80.3995 194.519 77.1623 195.102 74.7884C196.884 67.4508 194.373 71.0476 193.968 67.6666C193.871 73.7812 193.79 78.4572 193.709 83.0611C192.3 78.0255 192.867 70.1124 191.344 64.4294C189.595 65.7962 189.384 71.1196 189.611 76.0832C190.064 86.1544 190.178 86.0825 187.165 86.2264C186.889 87.6651 186.549 87.809 186.177 86.658C185.35 89.8233 184.573 93.2762 183.682 96.1537C181.9 101.909 181.446 97.9522 181.365 91.8375C181.463 90.9023 182.062 90.5426 181.592 89.0319C181.479 89.8952 181.365 90.6865 181.252 91.4778C180.005 92.413 179.405 89.8233 179.357 86.0825C179.276 80.3995 181.317 84.428 181.657 80.3275C180.296 74.7164 179.308 78.673 178.53 82.3418C177.818 85.7228 177.494 90.9743 175.858 88.0968C174.059 85.0035 175.112 80.0398 175.372 75.6516C175.598 71.8389 176.587 70.7599 177.251 68.4579L177.413 67.7385L177.186 68.2421C175.566 70.5441 173.93 65.2207 172.083 69.8966C170.058 74.9322 168.843 79.5362 169.475 88.3845C169.653 86.5861 169.783 84.7157 170.026 83.0611C170.706 78.4572 171.273 72.7022 173.249 75.2919C174.205 76.5868 174.4 90.3988 173.476 93.9237C172.958 95.866 172.148 98.5277 171.387 96.8012C170.512 94.8589 171.387 91.7656 171.468 89.1039L171.63 88.2406L171.419 88.96C170.933 89.3197 170.431 89.7513 169.945 90.111C169.767 92.5569 169.459 94.7869 168.633 94.7869C167.742 94.7869 166.932 93.3482 166.705 90.3988C166.462 87.3774 166.883 83.205 165.312 83.8525C164.145 84.356 164.048 87.1616 163.676 90.6146C162.914 97.9522 162.218 97.3767 160.663 88.8161L160.452 88.3126L160.582 89.1039C160.792 93.3482 160.193 95.9379 159.091 95.7221C157.682 95.4344 158.492 91.3339 158.524 89.1758C158.589 83.1331 159.367 76.299 156.645 75.0042C156.111 76.0113 155.576 77.0904 155.041 78.0975C154.426 82.3418 153.567 85.8667 152.579 89.1758C151.154 93.8518 150.522 90.9743 149.971 86.3703C150.327 85.7228 150.732 85.3631 150.992 84.428C151.218 83.5647 151.008 82.6295 150.732 83.205C150.408 83.9244 150.182 85.1473 149.906 86.0825C149.42 87.5213 149.307 89.4636 149.226 91.5498C149.291 91.9094 149.42 92.2691 149.404 92.5569C149.355 93.4201 149.177 93.4201 148.95 92.5569C147.541 95.0027 146.31 94.8589 146.699 87.9529C146.974 83.0611 147.314 77.8097 148.772 72.6302C146.326 75.22 144.204 74.2129 142.811 79.3204C142.292 81.1908 139.765 82.7015 142.05 88.3845C142.357 89.1758 141.888 91.5498 141.499 91.3339C139.992 90.6865 138.518 88.8161 136.979 90.2549C136.898 88.8881 136.623 86.8019 136.769 86.2983C138.259 80.975 137.919 72.2706 139.62 67.4508C140.008 66.2998 140.43 64.7891 140.203 62.1993C139.134 61.3361 137.287 71.767 137.174 59.106C135.829 62.4871 136.866 65.0049 136.947 67.4508C137.222 77.522 135.667 85.507 132.962 88.0968C130.985 89.9671 130.046 87.6651 130.094 80.3995C130.354 79.5362 130.629 78.673 130.888 77.7378L131.034 76.8745L130.807 77.45C130.532 78.3133 130.273 79.1765 129.997 80.1117C128.377 85.0754 126.887 91.262 124.376 86.0106C124.133 85.507 123.598 86.5861 123.226 87.1616C122.351 88.6003 121.347 90.5426 120.731 86.5861C120.002 81.9821 121.541 80.4714 122.367 77.3062C121.007 74.5725 119.37 79.4643 118.528 74.1409C118.253 73.8532 118.528 71.4792 117.977 72.2706C118.139 72.9899 118.285 73.7093 118.447 74.3567C116.827 83.0611 115.79 71.1915 114.365 72.918C113.312 85.3631 110.088 87.881 107.48 78.0255C106.784 75.3639 106.217 74.8603 105.407 76.5868C105.974 77.3781 106.751 77.522 106.605 80.6872C106.573 81.3347 106.314 82.2698 106.136 82.3418C105.228 82.8453 105.196 80.0398 104.969 78.0975C104.499 76.8026 104.03 75.5797 103.576 74.2848L103.349 73.7812L103.511 74.5725C103.43 76.4429 103.349 79.824 103.252 79.824C101.114 80.0398 98.8945 80.975 96.8533 79.2485C95.93 78.5291 97.5175 75.2919 97.5823 72.7022C96.6265 71.9828 95.363 71.1915 94.958 74.4287C93.8403 83.277 92.0907 79.0327 90.4708 78.0255C90.3574 78.3133 90.2602 78.673 90.1468 78.8168C90.0982 78.8168 89.9362 78.3133 89.9524 78.0975C89.9848 77.6659 90.0982 77.3062 90.1792 76.9465C90.325 75.5797 90.649 74.1409 90.5842 72.9899C90.4546 70.5441 89.92 70.2563 89.353 71.4073C88.3001 73.6374 87.3767 76.6587 86.1294 77.45C85.4814 77.8817 84.7362 78.673 84.1531 77.9536C83.1649 76.8026 83.9263 70.7599 82.7599 69.9686C81.2048 68.9614 82.4683 76.1552 81.3668 76.7307C80.33 77.3062 79.5524 75.148 78.8397 72.918C78.4509 71.6951 77.9163 69.2492 77.5923 71.2634C75.9886 81.3346 74.482 71.9828 72.9593 71.2634C72.6839 70.2563 72.4571 68.9614 72.1331 68.2421C71.8577 67.6666 71.6148 68.6737 71.8415 69.5369C72.0845 70.5441 72.5057 70.9757 72.8459 71.6951C72.5057 76.371 71.7443 77.8817 70.3998 76.371C69.363 75.22 68.4559 73.6374 67.8565 70.3282C66.9655 73.1338 66.1556 74.5725 65.1026 70.7599C64.4546 68.4579 63.5961 69.8247 62.7861 70.7599C61.3444 72.2706 59.8864 73.7812 58.3961 74.5006C56.6466 75.3639 56.5008 73.8532 57.3107 65.7243C57.5699 64.861 57.8453 63.9258 58.1045 63.0626C58.9469 58.027 58.9793 52.9194 58.0721 47.8838L57.8291 47.3802L58.0073 48.0996C58.2989 52.9913 58.2017 57.8831 58.0397 62.7748C57.7643 63.6381 57.4889 64.5013 57.2135 65.3646C55.6584 67.5227 52.8559 60.1851 52.6615 72.918C52.6453 74.2129 51.9164 74.4287 51.5924 73.5654C49.8104 69.2492 47.8989 72.1267 46.0522 72.0547C42.4073 71.9828 39.1351 66.2278 35.6198 64.1416C34.4049 63.4223 34.8908 59.8973 35.0204 57.2356C35.1014 56.2285 35.8304 57.2356 35.555 55.1495C35.3444 55.725 35.1338 56.3005 34.9232 56.804C34.7774 57.5953 34.6154 58.3866 34.4859 59.2499C33.9837 62.7029 34.3401 69.9686 32.5419 67.8824C30.679 65.7243 32.4933 60.6886 32.4447 56.9479C33.0765 50.7613 34.1457 46.517 36.2192 46.6609C34.0701 46.5649 32.7957 49.946 32.3961 56.804C31.3432 55.5092 30.1444 53.2072 30.2092 60.329C30.2902 67.6666 28.5083 67.6666 27.7469 65.4365C25.6572 59.2499 23.5351 61.8396 21.332 62.7748C19.5015 63.5661 18.4161 60.8325 18.3837 53.9265L18.5457 53.2072L18.3189 53.7107C17.185 55.4372 15.97 55.0775 14.8198 58.027C13.2161 62.1274 12.2604 59.8254 11.013 51.4087C11.0778 50.4016 11.742 51.4087 11.5152 49.3945C11.3208 49.97 11.1264 50.5455 10.932 51.121C10.5918 50.2577 10.0248 48.5312 9.96004 48.747C6.84977 58.3147 3.93389 51.6245 0.758814 48.9629C-0.682928 47.7399 -2.22187 45.2221 -4.10099 46.0854C-7.16267 47.4522 -10.3863 45.8695 -13.4642 42.7043C-14.5658 41.5533 -15.4729 39.4671 -16.2991 36.9493C-18.5994 29.8995 -18.4374 24.5761 -15.7969 18.7492C-15.4405 17.9579 -15.0841 17.0227 -14.6954 16.8069C-9.33338 13.4978 -4.36018 4.28978 1.21239 3.71428C5.45662 3.28266 9.71705 3.06684 13.9775 2.2036C17.2336 1.55616 20.7002 1.19647 24.1021 2.92297C27.4715 4.64947 30.9706 3.71428 34.4049 3.71428C44.1893 3.71428 53.9899 3.28266 63.7743 3.93009C70.8048 4.36172 77.7381 0.189351 84.7848 0.692912C98.6353 1.77197 112.502 0.836787 126.352 0.908724C127.94 0.908724 129.689 -1.10552 131.05 4.00203C131.212 4.64947 131.601 5.44078 131.698 5.22496C135.942 -4.41464 140.332 6.08821 144.674 4.1459C149.161 2.2036 153.762 3.13878 158.297 4.00203C160.873 4.50559 163.416 6.87952 166.041 6.23209C167.175 5.94434 168.26 7.5989 168.098 13.0661L167.904 13.7855L168.163 13.2819C168.924 8.89377 169.912 6.16015 171.5 6.51984C174.481 7.23921 177.445 6.87952 180.458 8.46214C184.751 10.6922 189.19 9.68508 193.563 9.82895C195.75 9.90089 197.629 11.5554 198.666 19.2527C199.509 27.4536 198.034 30.8347 196.253 33.5683L196.058 34.2876L196.317 33.7841C198.618 32.0096 199.438 27.0939 198.78 19.0369C198.666 14.6488 199.347 12.2029 200.464 12.8503C206.426 16.5191 212.468 16.663 218.446 18.8931C220.017 19.4686 221.167 22.9935 221.637 30.6908C222.269 18.3176 222.593 17.0227 225.233 19.2527C229.494 22.8496 233.851 22.7057 238.176 24.0725C240.12 24.648 241.87 29.8995 243.976 26.8781C244.138 26.6623 244.656 29.6117 245.013 31.0505C245.304 31.3382 245.013 33.856 245.612 32.9208C245.45 32.2015 245.304 31.4101 245.142 30.6908C245.207 26.2307 245.644 23.8567 246.908 27.1658C247.993 29.9714 247.361 35.2228 248.188 39.4671C249.565 29.1801 251.509 27.4536 254.619 29.1082C258.588 31.1943 262.702 33.6402 266.785 30.6908C268.242 29.6117 269.474 32.2734 270.77 33.7841C271.32 34.4315 271.677 36.3738 271.11 38.1723C270.851 39.0355 270.348 38.9636 269.96 39.3233C269.231 36.9493 268.728 37.7406 268.518 40.9059C268.356 43.2798 268.323 45.7257 268.242 48.0996L268.113 48.8909L268.323 48.3874C269.101 45.9415 268.858 41.2656 269.943 39.5391C270.494 42.0569 272.114 44.5747 271.45 46.8767L271.32 46.7328ZM17.5251 42.7762C16.7152 38.7478 15.5812 40.1865 14.4635 40.762C15.4678 40.1146 16.2778 44.7905 17.5251 42.7762ZM24.8148 43.4237C24.7015 43.2798 24.5881 42.9921 24.4747 42.9921C24.0697 43.064 24.0049 43.5676 24.2803 44.0711C24.3775 44.2869 24.5395 44.215 24.6529 44.0711C24.7176 44.0711 24.7662 43.6395 24.8148 43.3517V43.4237ZM27.4877 43.9992C27.4877 43.9992 27.2933 43.7114 27.1799 43.5676C27.099 43.8553 26.9532 44.1431 26.9532 44.4308C26.9208 45.7976 27.099 46.0134 27.3905 45.0782C27.4715 44.8624 27.5363 44.215 27.5039 43.9992H27.4877ZM45.5662 53.9985C45.3556 51.2649 45.2584 48.3874 44.902 45.9415C44.6104 43.8553 43.9949 44.4308 43.5575 45.9415C43.0391 47.668 42.5045 49.5384 43.7519 50.4016C43.9301 50.1139 44.1245 49.8261 44.3027 49.5384C44.2217 50.1858 44.1407 50.8332 44.0759 51.4807C43.9787 54.0704 43.8653 56.6601 43.7681 59.2499C43.2659 59.2499 42.7637 59.3938 42.2615 59.4657L42.0347 58.9621L42.1967 59.7535C42.3749 61.1922 41.646 63.7819 42.4721 64.0697C43.1525 64.2855 43.5089 61.6238 43.8977 59.8254C44.4808 58.2428 44.5618 54.9337 45.4204 54.3582C45.631 57.1637 45.8578 59.9693 46.1494 63.9258C47.0565 58.4586 46.1494 56.4443 45.5662 53.9985ZM55.9824 52.1281C55.8528 51.4087 55.707 50.1139 55.5936 50.1858C54.6864 50.3297 54.5244 53.5668 53.9737 55.2214C54.2167 55.5092 54.4596 55.9408 54.7026 55.9408C55.4154 55.9408 55.9824 55.1495 55.9986 52.1281H55.9824ZM61.7656 34.7193C62.0733 34.0718 62.4621 33.4244 62.7537 32.4892C62.9319 31.9137 62.6889 31.0505 62.3487 31.4102C61.9761 31.7698 61.5874 32.4892 61.3444 33.4244C61.15 34.2157 61.3768 34.9351 61.7656 34.7193ZM63.4665 54.8617C63.4341 53.6388 63.1749 53.2791 62.8833 54.0704C62.3001 55.5092 62.2029 57.8831 61.9113 61.48C63.1749 60.1851 63.5637 58.027 63.4665 54.8617ZM67.0141 52.4878C66.107 53.2791 65.6048 54.9337 65.945 58.3147C66.0098 58.9622 66.4958 59.8254 66.512 59.7535C67.0303 57.6673 67.3057 55.2933 67.0141 52.4878ZM73.4453 29.1801C73.3967 28.3888 73.3967 27.4536 73.2671 26.8062C73.0727 25.799 72.7973 26.0149 72.7811 27.1658C72.7811 27.9572 72.9107 28.8204 73.0241 29.5398C73.2023 30.7627 73.3643 30.6188 73.4453 29.1801ZM78.1593 53.423C77.9163 53.8546 77.3007 54.2862 77.0253 55.5811C76.8147 56.5882 77.3007 58.0989 77.7219 58.3147C78.3213 58.6025 78.8073 57.5953 79.0179 55.653C79.196 53.9985 78.9693 52.9913 78.1593 53.351V53.423ZM81.9175 52.1281C81.8041 51.9842 81.6745 51.6965 81.5611 51.6965C81.1562 51.7684 81.0752 52.272 81.3668 52.7755C81.464 52.9913 81.626 52.9194 81.7393 52.7755C81.8041 52.7755 81.8527 52.3439 81.9013 52.0562L81.9175 52.1281ZM84.5256 52.8475C83.8453 52.7036 83.8453 55.2214 83.5699 56.6601C83.3755 57.3076 83.1811 57.8831 83.0029 58.6025C82.7599 59.6096 82.4197 60.6167 82.6951 62.1274C82.7599 62.4871 82.9219 62.8468 83.0029 62.7748C83.5051 62.4151 83.4241 60.8325 83.5051 59.6096C83.5699 58.7463 83.5861 57.8111 83.6347 56.876C84.1045 56.876 84.6876 58.8183 84.963 56.0127C85.0926 54.7178 84.963 52.9194 84.5094 52.8475H84.5256ZM89.2558 17.1666L89.4664 17.5982L89.515 16.9507L89.2558 17.0946V17.1666ZM87.2795 18.1737C87.2795 18.1737 87.0851 17.6701 86.9879 17.3824C86.6639 17.3824 86.502 17.9579 86.5829 19.1089C86.5991 19.3966 86.7773 19.8282 86.8745 19.8282C87.1985 19.9002 87.3605 19.2527 87.2795 18.1017V18.1737ZM92.9655 61.8396L92.7225 62.3432C92.5767 63.1345 92.3823 63.7819 92.3013 64.6452C92.1879 65.7243 91.9449 67.0911 92.4309 67.9543C92.4957 67.0911 92.5443 66.1559 92.6091 65.2926C92.6739 64.4294 92.7387 63.5661 92.8197 62.631L92.9655 61.8396ZM93.1275 52.8475C91.5238 50.8332 90.3736 51.3368 89.2072 53.2791C90.3736 51.6965 91.4752 57.3076 93.1275 52.8475ZM92.8683 34.3596C92.5119 34.7193 92.1555 35.6544 91.9449 36.7335C91.7991 37.3809 92.0745 38.2442 92.5929 38.2442C92.8035 37.8126 93.2895 37.4529 93.4677 36.4458C93.8079 34.3596 93.2409 33.9999 92.8845 34.3596H92.8683ZM96.335 53.4949C96.1892 51.9842 95.7194 51.7684 95.3144 52.272C94.8932 52.7755 94.6988 54.0704 94.7474 55.5811C94.796 57.1637 95.0714 58.027 95.5574 57.8831C96.0434 56.9479 96.5618 55.7969 96.335 53.4949ZM100.012 55.0056C99.7692 55.2933 99.3318 55.5092 99.3318 55.8688C99.2994 57.8111 99.4938 59.6815 100.012 60.6167C100.142 60.8325 100.579 60.0412 100.628 59.4657C100.822 57.4515 100.676 55.725 100.012 55.0056ZM103.398 19.2527C103.495 19.2527 103.56 18.6772 103.641 18.3176C103.592 17.9579 103.56 17.3104 103.495 17.3104C103.398 17.3104 103.22 17.4543 103.171 17.7421C102.96 18.8211 103.058 19.3966 103.398 19.2527ZM106.848 55.2214C105.585 54.0704 104.548 54.2862 103.527 55.0775C103.155 55.3653 103.139 56.3005 103.446 57.0918C104.418 55.5092 105.52 59.3218 106.832 55.2214H106.848ZM110.963 74.4287C110.85 73.7093 110.59 73.3496 110.396 72.7741C110.072 72.7741 109.91 73.3496 110.056 74.2848C110.169 75.0042 110.412 75.6516 110.623 75.7955C110.931 76.0832 111.109 75.2919 110.947 74.4287H110.963ZM111.238 56.5163C111.238 56.5163 111.06 55.653 110.979 55.653C110.266 55.7969 110.331 58.1708 110.072 59.6096C110.007 59.9693 109.878 60.329 109.894 60.6167C109.926 61.3361 110.023 62.0555 110.088 62.7748L110.331 63.2784L110.153 62.559C110.104 61.6238 110.104 60.7606 110.153 59.8254C110.59 59.0341 111.222 58.9621 111.238 56.5163ZM114.284 40.4743C114.592 41.8411 114.818 44.0711 115.207 44.5027C116.163 45.5818 116.098 42.1288 116.293 40.3304C116.455 38.8916 116.114 37.8126 115.483 37.8126C115.159 38.5319 114.721 39.5391 114.284 40.4743ZM117.297 55.3653C116.244 54.2862 115.142 53.6388 113.441 57.1637C114.851 59.106 115.564 61.3361 116.341 63.2064C117.2 65.3646 117.945 62.8468 118.317 60.1851C118.755 57.0198 117.896 55.9408 117.297 55.3653ZM122.222 38.9636H122.027L122.124 39.8268L122.222 38.9636ZM122.4 53.9985C123.517 57.2356 123.226 62.4151 124.376 68.3859C124.506 60.281 123.847 55.4852 122.4 53.9985ZM125.154 73.0619C125.024 73.0619 124.862 73.0619 124.781 73.2777C124.538 73.997 124.554 74.9322 124.83 75.5077C124.911 75.7235 125.105 75.5077 125.186 75.2919C125.413 74.5725 125.397 73.7093 125.137 72.9899L125.154 73.0619ZM129.608 57.5953C128.474 57.5953 128.183 57.4515 127.924 57.5953C127.324 57.955 126.919 58.9621 126.984 61.408C127.648 60.4009 128.312 59.4657 129.608 57.5234V57.5953ZM131.763 60.4009C131.731 60.0412 131.196 59.6815 131.18 59.7535C130.969 61.8396 130.775 63.9978 130.58 66.0839C131.488 64.7171 131.909 62.8468 131.747 60.4009H131.763ZM134.112 78.8168C134.015 78.601 133.934 78.1694 133.82 78.0975C133.464 77.8097 133.302 78.2413 133.415 78.9607C133.448 79.1765 133.642 79.1765 133.755 79.2485C133.869 79.1046 133.982 78.9607 134.096 78.8168H134.112ZM135.294 68.6737C135.327 67.5227 135.132 67.0191 134.808 67.2349C134.711 67.3069 134.663 67.8824 134.582 68.2421C134.582 69.3931 134.76 69.8966 135.084 69.6808C135.181 69.6808 135.278 69.0334 135.294 68.6737ZM144.091 60.4009C143.848 58.6025 143.491 57.8831 143.07 58.6025C142.876 58.8902 142.714 60.1131 142.697 60.9764C142.665 62.7029 142.94 63.71 143.443 63.1345C143.815 62.7029 144.188 61.9835 144.107 60.4728L144.091 60.4009ZM148.124 17.5982L148.383 17.3824L148.157 16.9507V17.5982H148.124ZM148.27 63.9258C146.893 62.4871 146.342 66.012 145.63 68.4579L145.5 69.2492L145.727 68.7456C146.537 67.163 147.833 69.0334 148.27 63.9258ZM149.566 37.8845C147.914 35.7983 147.687 30.5469 146.456 33.856C145.759 35.7264 145.775 38.7478 146.099 41.6972C146.812 39.3952 147.752 39.6829 149.566 37.8126V37.8845ZM153.632 65.0049C153.713 62.9906 153.454 60.6167 152.822 61.48C152.061 62.559 150.894 61.6238 150.619 65.3646C150.846 68.3859 151.218 70.4002 151.996 70.2563C152.887 70.1124 153.486 68.2421 153.616 65.0768L153.632 65.0049ZM154.086 41.8411C153.859 41.8411 153.616 42.2727 153.405 42.7043C153.049 43.3517 153.097 43.9992 153.486 44.0711C153.713 44.0711 153.956 43.7834 154.167 43.5676C154.426 42.6324 154.393 41.8411 154.069 41.7691L154.086 41.8411ZM154.62 76.299V75.148L154.442 75.7235L154.62 76.299ZM158.589 67.8104C158.443 67.0191 158.297 66.2998 158.168 65.5084C157.649 64.3574 157.115 63.2064 156.597 62.0555C156.273 60.1851 155.965 58.3866 155.641 56.5163L155.43 55.9408L155.576 56.804C155.884 58.6744 156.192 60.4728 156.499 62.3432C156.483 64.2855 156.467 66.2278 156.451 68.2421C155.689 69.1053 155.025 70.2563 155.041 73.6374C155.446 73.6374 155.868 73.6374 156.273 73.5654C156.37 71.9109 156.467 70.2563 156.564 68.5298C157.066 67.5946 157.585 66.7314 158.087 65.7962C158.346 66.2278 158.022 68.5298 158.605 67.8104H158.589ZM165.522 42.1288C165.522 45.1502 164.486 47.8119 165.441 51.6965C165.863 48.0996 167.725 45.7257 165.587 41.8411L165.344 41.3375L165.522 42.0569V42.1288ZM167.644 65.7962C166.251 64.7891 164.891 59.3938 164.68 68.1701C164.145 68.1701 163.611 68.2421 163.092 68.314C161.894 64.7171 161.748 68.8176 161.359 71.2634C161.1 72.1986 160.857 73.0619 160.598 73.997L160.436 74.7884L160.679 74.2848C160.938 73.3496 161.197 72.4864 161.44 71.5512C161.975 70.5441 162.493 69.5369 163.028 68.5298C163.222 70.1124 163.303 72.2706 163.919 72.1986C164.518 72.1267 164.583 69.9686 164.729 68.314C165.782 69.8247 166.656 69.2492 167.628 65.6523L167.644 65.7962ZM169.88 41.2656C169.799 41.0498 169.702 40.6181 169.621 40.6181C169.507 40.6181 169.329 40.9059 169.313 41.1936C169.232 42.4166 169.378 42.8482 169.669 42.3446C169.767 42.1288 169.799 41.6252 169.864 41.2656H169.88ZM172.52 18.5334L172.618 19.3966L172.715 18.5334H172.52ZM175.517 38.9636L175.274 38.46L175.453 39.1794C175.161 45.366 173.006 51.6245 175.501 58.027C177.688 51.4087 176.214 45.1502 175.501 38.8916L175.517 38.9636ZM176.927 27.8133C174.464 26.0148 177.623 19.9002 175.582 17.3104C174.319 19.4686 175.145 28.6765 172.942 27.8133C172.715 26.5184 172.439 25.5113 171.97 26.2307C171.873 26.3745 171.84 26.95 171.775 27.3817C172.132 27.6694 172.504 27.9572 172.861 28.2449C174.011 29.8995 175.161 30.6188 176.927 27.8133ZM182.969 71.3354C183.261 68.0982 183.52 64.6452 182.386 63.0626C182.208 62.8468 181.317 66.2998 181.268 68.1701C181.171 72.2706 182.03 72.4864 182.937 71.4792L183.18 72.1267L182.985 71.3354H182.969ZM185.237 40.2584C184.378 39.3233 183.714 41.5533 182.937 42.0569L182.726 41.4094L182.872 42.2727C182.888 43.2798 182.904 44.2869 182.937 45.2941C182.645 47.1644 182.337 49.0348 182.046 50.8332L181.9 51.7684L182.094 51.049C182.418 49.2506 182.726 47.3802 183.05 45.5818C183.698 43.4237 185.334 46.3731 185.221 40.2584H185.237ZM187.035 85.7948L186.857 84.8596L186.598 85.2193C186.727 85.507 186.889 85.7228 187.035 85.7948ZM187.181 54.3582C186.015 52.4158 186.598 59.3218 185.561 58.2428C185.14 57.8111 184.621 55.1495 184.249 57.5234C184.087 58.5305 184.557 60.9764 184.832 62.4871C185.188 64.3574 185.739 64.4294 186.177 62.9187C186.841 60.6167 187.472 58.1708 187.181 54.3582ZM187.958 26.0148C187.424 24.5761 188.444 19.2527 187.035 18.8931C185.885 18.6053 185.642 22.4899 185.448 25.871C185.172 30.6908 186.193 31.554 187.084 31.7698C187.845 31.9856 188.185 29.6837 187.958 26.0148ZM192.284 48.3154C191.377 49.0348 190.518 46.1573 189.19 49.1787C190.453 50.5455 191.344 50.9052 192.284 48.3154ZM196.398 63.3503L196.269 62.559C195.864 61.3361 196.479 57.955 195.588 58.1708C195.475 58.1708 195.864 61.3361 196.204 62.7748L196.415 63.2784L196.398 63.3503ZM197.16 44.9344C197.16 43.8553 196.787 41.9849 196.544 41.913C195.993 41.6972 195.588 43.2798 195.378 45.0063C195.119 47.0925 195.653 47.0205 196.01 47.3083C196.496 47.0925 197.176 47.668 197.144 44.9344H197.16ZM198.099 74.3567C197.986 75.22 197.889 76.0832 197.775 76.9465C197.484 77.5939 197.192 78.3133 196.884 78.9607C197.046 79.4643 197.208 79.9678 197.354 80.5433C197.516 79.4643 197.694 78.3133 197.856 77.2342C197.937 76.299 198.569 75.8674 198.083 74.3567H198.099ZM201.42 42.4166C202.165 49.5384 201.728 54.7178 201.145 59.7535C201.08 60.0412 200.934 60.4009 200.95 60.6167C200.999 61.2641 201.096 61.8396 201.177 62.4151C201.307 63.3503 201.436 64.3574 201.582 65.2926C201.485 64.2136 201.388 63.2065 201.274 62.1274C201.145 61.408 201.145 60.7606 201.274 60.0412C201.922 58.6744 203.17 61.9116 203.315 58.027C203.51 52.9194 203.996 46.6609 201.42 42.3446V42.4166ZM210.022 51.6965C210.119 52.3439 210.443 52.9913 210.67 52.9913C211.415 52.9913 211.982 51.6245 212.095 49.1067C212.176 46.8767 212.031 44.5027 211.982 42.1288L212.128 41.3375L211.901 41.8411C211.431 43.4956 210.929 45.0782 210.476 46.8047C210.119 48.1715 209.73 49.6822 210.022 51.6965ZM211.221 82.5576C210.978 80.903 211.01 79.3204 211.221 77.6658C211.448 77.1623 211.674 76.6587 211.917 76.2271C211.448 74.8603 211.35 76.9465 211.075 77.3062C210.395 79.1765 210.378 81.0469 211.107 82.7734C210.994 85.579 209.131 86.5861 210.378 90.4707C210.848 91.9094 211.755 90.9023 212.047 88.3845C212.355 85.6509 211.593 84.356 211.205 82.5576H211.221ZM212.468 63.5661C212.419 62.4151 212.193 61.9835 211.901 62.559C211.448 63.4223 211.01 64.5733 211.043 66.5875C211.043 66.8753 211.48 67.0911 211.707 67.3788C212.339 67.0191 212.565 65.5804 212.468 63.4942V63.5661ZM218.559 31.4102C217.846 29.0362 217.069 28.9643 216.405 31.4821C216 33.0647 214.785 33.856 215.335 36.5177C217.214 45.8696 214.444 54.9337 215.465 65.1488C217.603 61.5519 215.335 54.574 216.615 52.2C218.365 48.9629 217.425 41.4814 218.802 37.8126C219.353 36.3738 219.11 33.3525 218.543 31.4102H218.559ZM220.827 51.6245L221.038 50.9052L221.248 50.1858L220.989 50.6894L220.843 51.6245H220.827ZM221.491 79.3923C221.378 78.5291 221.264 77.6659 221.151 76.8026C221.005 76.1552 221.005 75.5077 221.151 74.7884C221.572 72.5583 221.669 70.3282 221.038 68.314L220.778 67.7385L220.989 68.4579C220.989 70.4721 220.989 72.4144 221.005 74.4287C220.924 74.7164 220.778 75.0761 220.795 75.2919C220.843 75.9394 220.94 76.5149 221.021 77.0904C221.248 77.6658 220.859 79.824 221.475 79.3923H221.491ZM222.755 37.3809L222.495 37.5968L222.722 38.0284V37.3809H222.755ZM228.133 30.2592H227.938L228.036 31.1224L228.133 30.2592ZM231.324 30.6188C231.324 29.5398 231.146 28.9643 230.838 29.1801C230.741 29.1801 230.644 29.8275 230.628 30.1872C230.611 31.3382 230.79 31.8418 231.114 31.626C231.211 31.554 231.259 30.9785 231.34 30.6188H231.324ZM233.543 37.8845C233.268 37.1651 233.074 37.5248 233.025 38.7478C233.025 39.0355 233.122 39.3952 233.187 39.7549C233.3 39.5391 233.398 39.2513 233.511 39.0355C233.511 38.6758 233.592 38.0284 233.543 37.8845ZM235.034 61.1203C235.034 61.1203 234.823 61.48 234.71 61.6238C234.71 62.0555 234.661 62.559 234.71 62.8468C234.758 63.0626 234.953 63.2064 235.018 62.9906C235.309 62.1993 235.293 61.48 235.018 61.1203H235.034ZM239.051 70.3282C239.051 69.0334 239.067 67.6666 239.084 66.3717C238.63 67.6666 238.581 68.9614 239.051 70.3282ZM243.069 38.3881C242.988 37.5968 242.907 36.8774 242.809 36.0861C242.615 36.5896 242.323 36.8774 242.226 37.5248C242.048 38.8197 242.113 40.1865 242.615 40.1865C242.761 40.1865 242.907 39.0355 243.052 38.3881H243.069ZM242.955 84.0683C242.615 84.5718 242.275 85.0035 241.935 85.507C242.356 85.7228 242.712 85.507 242.955 84.0683ZM248.009 48.1715L247.945 47.2364L247.831 48.0996H248.009V48.1715ZM256.66 52.0562L256.401 52.272L256.644 52.7036V52.0562H256.66ZM258.636 40.4023C258.555 39.5391 258.539 38.3161 258.377 37.9564C257.972 37.1651 257.551 37.8126 257.324 39.1794C257.081 40.6901 257.292 42.1288 257.729 42.5604C258.183 42.9921 258.442 41.6972 258.636 40.4023Z" fill="#F68428"/>
<path d="M177.818 92.485C177.072 92.8447 176.667 94.4993 176.684 97.1609C176.684 98.7436 176.991 99.8226 177.445 99.5349C178.142 99.1033 178.628 97.7364 178.611 95.0028C178.498 93.4202 178.287 92.2692 177.818 92.485Z" fill="#F68428"/>
<path d="M196.739 97.7364C196.512 98.5997 196.609 99.391 196.917 99.8226C197.127 99.4629 197.435 99.3191 197.516 98.7436C197.597 98.3119 197.419 97.3048 197.354 96.5854C197.144 96.9451 196.884 97.1609 196.739 97.7364Z" fill="#F68428"/>
<path d="M254.943 81.1908C254.765 81.1908 254.441 81.6944 254.392 82.2699C254.327 82.8454 254.505 83.7086 254.57 84.428C254.765 83.9964 255.024 83.7806 255.153 83.1331C255.348 82.2699 255.251 81.2628 254.959 81.1189L254.943 81.1908Z" fill="#F68428"/>
<path d="M226.869 96.8011L226.902 95.6501L226.562 96.1537L226.869 96.8011Z" fill="#F68428"/>
<path d="M251.784 84.8595C251.687 85.0034 251.589 85.2912 251.509 85.5789C251.428 86.1544 251.33 86.8018 251.249 87.3773C251.411 87.0896 251.59 86.7299 251.752 86.4422C251.816 86.0825 251.913 85.7947 251.946 85.435C251.946 85.2912 251.816 84.7876 251.784 84.8595Z" fill="#F68428"/>
<path d="M251.638 65.5085L251.865 64.6453L251.622 65.4366C251.298 65.8682 251.233 66.2998 251.46 66.4437C251.492 66.4437 251.573 65.7963 251.622 65.5085H251.638Z" fill="#F68428"/>
<path d="M225.962 62.4871C225.978 61.6239 225.978 60.7606 225.962 59.8254C225.865 60.0413 225.671 60.4729 225.687 60.5448C225.752 61.1922 225.865 61.8397 225.978 62.4152L225.962 62.4871Z" fill="#F68428"/>
<path d="M186.452 24.7918C186.452 24.7918 186.501 25.5831 186.565 25.727C186.614 25.8709 186.744 25.6551 186.825 25.5831C186.841 25.2234 186.922 24.7199 186.873 24.5041C186.695 23.6408 186.517 23.7128 186.436 24.7918H186.452Z" fill="#F68428"/>
</g>
<defs>
<clipPath id="clip0_180_455">
<rect width="327" height="101" fill="white" transform="translate(-18 0.333252)"/>
</clipPath>
</defs>
</svg>
